<svg width="17" height="27" viewBox="0 0 17 27" fill="none" xmlns="http://www.w3.org/2000/svg">
<g id="Group 136">
<path id="Rectangle 102 (Stroke)" fill-rule="evenodd" clip-rule="evenodd" d="M14.3077 2.96289L9.36369 2.96289C8.67566 2.96289 8.03593 3.31655 7.67 3.89921L2.30627 12.4398C1.89786 13.0901 1.89786 13.9169 2.30627 14.5672L7.67 23.1078C8.03593 23.6905 8.67566 24.0441 9.36369 24.0441L14.3077 24.0441L14.3077 26.0441L9.3637 26.0441C7.98763 26.0441 6.70816 25.3368 5.97631 24.1715L0.612582 15.6309C-0.204247 14.3302 -0.204246 12.6768 0.612583 11.3762L5.97632 2.83553C6.70816 1.67022 7.98762 0.962892 9.36369 0.962891L14.3077 0.962891L14.3077 2.96289Z" fill="#FFA801"/>
<path id="Rectangle 102 (Stroke)_2" fill-rule="evenodd" clip-rule="evenodd" d="M16.2603 2.96289L13.3162 2.96289C12.6282 2.96289 11.9884 3.31655 11.6225 3.89921L6.25879 12.4398C5.85037 13.0901 5.85037 13.9169 6.25879 14.5672L11.6225 23.1078C11.9884 23.6905 12.6282 24.0441 13.3162 24.0441L16.2603 24.0441L16.2603 26.0441L13.3162 26.0441C11.9401 26.0441 10.6607 25.3368 9.92883 24.1715L4.5651 15.6309C3.74827 14.3302 3.74827 12.6768 4.5651 11.3762L9.92883 2.83553C10.6607 1.67022 11.9401 0.962892 13.3162 0.962891L16.2603 0.962891L16.2603 2.96289Z" fill="#FFA801"/>
</g>
</svg>
