<svg width="11" height="18" viewBox="0 0 11 18" fill="none" xmlns="http://www.w3.org/2000/svg">
<g id="Group 136">
<path id="Rectangle 102 (Stroke)" fill-rule="evenodd" clip-rule="evenodd" d="M9.16516 2.24402L5.99819 2.24402C5.55746 2.24402 5.14768 2.47056 4.91328 2.84379L1.47747 8.31459C1.21586 8.73116 1.21586 9.26073 1.47747 9.6773L4.91328 15.1481C5.14768 15.5213 5.55746 15.7479 5.99819 15.7479L9.16516 15.7479L9.16516 17.029L5.99819 17.029C5.11673 17.029 4.29716 16.5759 3.82836 15.8295L0.392559 10.3586C-0.130671 9.52551 -0.13067 8.46637 0.39256 7.63323L3.82836 2.16243C4.29716 1.41598 5.11673 0.962891 5.99819 0.962891L9.16516 0.962891L9.16516 2.24402Z" fill="#FFA801"/>
<path id="Rectangle 102 (Stroke)_2" fill-rule="evenodd" clip-rule="evenodd" d="M10.4158 2.24402L8.52993 2.24402C8.0892 2.24402 7.67941 2.47056 7.44501 2.84379L4.00921 8.31459C3.74759 8.73116 3.74759 9.26073 4.00921 9.6773L7.44501 15.1481C7.67941 15.5213 8.0892 15.7479 8.52993 15.7479L10.4158 15.7479L10.4158 17.029L8.52993 17.029C7.64847 17.029 6.82889 16.5759 6.3601 15.8295L2.92429 10.3586C2.40106 9.52551 2.40106 8.46637 2.92429 7.63323L6.3601 2.16243C6.82889 1.41598 7.64847 0.962891 8.52993 0.962891L10.4158 0.962891L10.4158 2.24402Z" fill="#FFA801"/>
</g>
</svg>
