<svg width="163" height="79" viewBox="0 0 163 79" fill="none" xmlns="http://www.w3.org/2000/svg">
<path d="M75.2235 60.4079C74.7949 60.4079 74.3916 60.3239 74.0134 60.1644C73.6352 60.0049 73.3075 59.7866 73.0302 59.5096C72.7528 59.2326 72.5259 58.9136 72.3663 58.5442C72.2066 58.1748 72.1226 57.7803 72.1226 57.3605C72.1226 56.9408 72.2066 56.5463 72.3663 56.1769C72.5343 55.8075 72.7528 55.4801 73.0302 55.2115C73.3075 54.9428 73.6436 54.7162 74.0134 54.5567C74.3916 54.3972 74.7865 54.3132 75.2235 54.3132C75.8118 54.3132 76.3244 54.4308 76.7614 54.6742C77.1984 54.9177 77.5514 55.2451 77.8287 55.6732C77.8539 55.7152 77.8623 55.7655 77.8455 55.8243C77.8287 55.8831 77.8035 55.925 77.7614 55.9502L76.795 56.5714C76.753 56.5966 76.7026 56.605 76.6522 56.5966C76.6017 56.5966 76.5513 56.563 76.5177 56.5211C76.3496 56.3196 76.1647 56.1517 75.9546 56.0342C75.7446 55.9082 75.5008 55.8495 75.2151 55.8495C75.0134 55.8495 74.8201 55.8915 74.6353 55.9754C74.4588 56.0594 74.2991 56.1685 74.1647 56.3112C74.0302 56.4539 73.921 56.6134 73.8453 56.7981C73.7697 56.9828 73.7277 57.1759 73.7277 57.3689C73.7277 57.562 73.7697 57.7635 73.8453 57.9482C73.921 58.1329 74.0302 58.2924 74.1647 58.4267C74.2991 58.561 74.4588 58.6701 74.6353 58.7541C74.8117 58.838 75.005 58.88 75.2151 58.88C75.4252 58.88 75.6185 58.8464 75.8202 58.7709C76.0219 58.6953 76.1731 58.5694 76.2992 58.4015C76.3244 58.3595 76.3328 58.3176 76.2992 58.284C76.274 58.2504 76.2404 58.2336 76.19 58.2336H75.2655C75.2151 58.2336 75.1647 58.2168 75.1311 58.1748C75.0975 58.1413 75.0723 58.0909 75.0723 58.0405V57.0835C75.0723 57.0331 75.0891 56.9828 75.1311 56.9492C75.1731 56.9156 75.2151 56.8904 75.2655 56.8904H78.0304C78.0808 56.8904 78.1312 56.9072 78.1732 56.9408C78.2152 56.9744 78.2321 57.0248 78.2405 57.0835C78.2489 57.1759 78.2573 57.285 78.2573 57.4193C78.2573 57.5536 78.2573 57.6879 78.2321 57.8223C78.1984 58.1916 78.0892 58.5358 77.9211 58.8548C77.7446 59.1738 77.5261 59.4425 77.2572 59.6775C76.9883 59.9042 76.6774 60.0889 76.3244 60.2232C75.9715 60.3575 75.6017 60.4163 75.2151 60.4163L75.2235 60.4079Z" fill="#B80B4B"/>
<path d="M84.0476 54.5987C84.0728 54.5483 84.1064 54.5063 84.1568 54.4727C84.2072 54.4392 84.2661 54.4224 84.3249 54.4224H85.451C85.5014 54.4224 85.5602 54.4392 85.6107 54.4727C85.6611 54.5063 85.6947 54.5483 85.7199 54.5987L88.0729 60.0637C88.0982 60.114 88.0898 60.1644 88.0645 60.2148C88.0309 60.2651 87.9805 60.2987 87.8881 60.2987H86.5099C86.451 60.2987 86.3922 60.2819 86.3418 60.2484C86.2914 60.2148 86.2493 60.1728 86.2241 60.1224L86.0056 59.6439C85.9804 59.5936 85.9384 59.5516 85.888 59.518C85.8376 59.4844 85.7871 59.4676 85.7283 59.4676H84.0308C83.9719 59.4676 83.9131 59.4844 83.8627 59.518C83.8123 59.5516 83.7787 59.5936 83.7534 59.6439L83.5265 60.1224C83.5013 60.1728 83.4677 60.2148 83.4173 60.2484C83.3669 60.2819 83.3165 60.2987 83.2576 60.2987H81.871C81.871 60.2987 81.8122 60.2987 81.787 60.2819C81.7618 60.2651 81.7366 60.2567 81.7113 60.2316C81.6861 60.2064 81.6777 60.1812 81.6777 60.1476C81.6777 60.114 81.6777 60.0805 81.7029 60.0385L84.0392 54.5987H84.0476ZM84.5182 58.0993H85.2325C85.2829 58.0993 85.3249 58.0825 85.3502 58.0489C85.3754 58.0153 85.3754 57.9734 85.3502 57.923C85.2997 57.7887 85.2325 57.6292 85.1569 57.4529C85.0812 57.2766 85.014 57.1087 84.9468 56.9492C84.9216 56.8988 84.9048 56.8736 84.8711 56.8736C84.8375 56.8736 84.8207 56.8988 84.7955 56.9492L84.3921 57.923C84.3669 57.9734 84.3669 58.0153 84.3921 58.0489C84.4173 58.0825 84.451 58.0993 84.5098 58.0993H84.5182Z" fill="#B80B4B"/>
<path d="M98.7285 54.6154V60.1056C98.7285 60.156 98.7117 60.2064 98.6697 60.24C98.6361 60.2735 98.5856 60.2987 98.5352 60.2987H97.3251C97.2747 60.2987 97.2242 60.2819 97.1906 60.24C97.157 60.2064 97.1318 60.156 97.1318 60.1056V57.52C97.1318 57.4697 97.1066 57.4361 97.0562 57.4277C97.0058 57.4277 96.9637 57.4445 96.9385 57.4865L95.5855 59.6691C95.5603 59.7111 95.5183 59.7363 95.4595 59.7363C95.4006 59.7363 95.3586 59.7111 95.325 59.6691L93.972 57.4865C93.9468 57.4445 93.9048 57.4277 93.8628 57.4277C93.8123 57.4277 93.7871 57.4613 93.7871 57.52V60.1056C93.7871 60.156 93.7703 60.2064 93.7283 60.24C93.6947 60.2735 93.6443 60.2987 93.5938 60.2987H92.3837C92.3333 60.2987 92.2829 60.2819 92.2493 60.24C92.2156 60.2064 92.1904 60.156 92.1904 60.1056V54.6154C92.1904 54.5651 92.2072 54.5147 92.2493 54.4811C92.2913 54.4475 92.3333 54.4224 92.3837 54.4224H93.5014C93.5518 54.4224 93.6107 54.4392 93.6695 54.4727C93.7283 54.5063 93.7703 54.5399 93.7955 54.5819L95.3418 56.8485C95.3754 56.8904 95.409 56.9156 95.4511 56.9156C95.4931 56.9156 95.5267 56.8904 95.5519 56.8485L97.0982 54.5819C97.1318 54.5399 97.1738 54.4979 97.2327 54.4727C97.2915 54.4392 97.3503 54.4224 97.4007 54.4224H98.5184C98.5688 54.4224 98.6193 54.4392 98.6529 54.4811C98.6865 54.5231 98.7117 54.5651 98.7117 54.6154H98.7285Z" fill="#B80B4B"/>
<path d="M105.141 56.093V56.4288C105.141 56.4792 105.157 56.5296 105.199 56.5631C105.233 56.5967 105.284 56.6219 105.334 56.6219H107.519C107.569 56.6219 107.62 56.6387 107.653 56.6807C107.687 56.7226 107.712 56.7646 107.712 56.815V57.9231C107.712 57.9735 107.695 58.0238 107.653 58.0574C107.62 58.091 107.569 58.1162 107.519 58.1162H105.334C105.284 58.1162 105.233 58.133 105.199 58.1749C105.166 58.2169 105.141 58.2589 105.141 58.3093V58.6115C105.141 58.6618 105.157 58.7122 105.199 58.7458C105.241 58.7794 105.284 58.8045 105.334 58.8045H107.838C107.889 58.8045 107.939 58.8213 107.973 58.8633C108.006 58.8969 108.032 58.9473 108.032 58.9976V60.1057C108.032 60.1561 108.015 60.2065 107.973 60.2401C107.939 60.2736 107.889 60.2988 107.838 60.2988H103.737C103.687 60.2988 103.636 60.282 103.603 60.2401C103.569 60.2065 103.544 60.1561 103.544 60.1057V54.6071C103.544 54.5568 103.561 54.5064 103.603 54.4728C103.636 54.4392 103.687 54.4141 103.737 54.4141H107.838C107.889 54.4141 107.939 54.4309 107.973 54.4728C108.006 54.5064 108.032 54.5568 108.032 54.6071V55.6985C108.032 55.7488 108.015 55.7992 107.973 55.8328C107.939 55.8664 107.889 55.8915 107.838 55.8915H105.334C105.284 55.8915 105.233 55.9083 105.199 55.9503C105.166 55.9839 105.141 56.0343 105.141 56.0846V56.093Z" fill="#B80B4B"/>
<path d="M113.258 58.2841C113.544 58.4688 113.838 58.6199 114.116 58.729C114.401 58.8381 114.662 58.8885 114.914 58.8885C115.166 58.8885 115.326 58.8549 115.452 58.7878C115.578 58.7206 115.637 58.6199 115.637 58.4856C115.637 58.4184 115.612 58.3596 115.553 58.3177C115.502 58.2757 115.427 58.2421 115.343 58.2169C115.259 58.1917 115.149 58.1666 115.032 58.1498C114.914 58.133 114.796 58.1162 114.67 58.0826C114.553 58.0574 114.41 58.0322 114.259 58.0071C114.099 57.9735 113.939 57.9315 113.771 57.8811C113.603 57.8224 113.443 57.7552 113.275 57.6713C113.107 57.5873 112.964 57.4782 112.838 57.3439C112.712 57.2096 112.603 57.05 112.527 56.8654C112.452 56.6807 112.41 56.4624 112.41 56.2106C112.41 55.8412 112.485 55.539 112.628 55.2955C112.771 55.0521 112.956 54.859 113.183 54.7247C113.41 54.582 113.653 54.4812 113.931 54.4309C114.208 54.3721 114.469 54.3469 114.729 54.3469C115.183 54.3469 115.586 54.4141 115.939 54.54C116.292 54.6743 116.637 54.859 116.965 55.1192C117.007 55.1528 117.032 55.2032 117.04 55.2536C117.04 55.3039 117.04 55.3543 116.998 55.3963L116.368 56.2861C116.334 56.3281 116.292 56.3533 116.242 56.3701C116.191 56.3785 116.141 56.3701 116.099 56.3365C115.822 56.1686 115.57 56.0427 115.334 55.9671C115.099 55.8916 114.88 55.858 114.679 55.858C114.62 55.858 114.553 55.858 114.469 55.858C114.393 55.858 114.317 55.8748 114.25 55.8916C114.183 55.9084 114.124 55.9419 114.074 55.9839C114.032 56.0259 114.006 56.0846 114.006 56.1602C114.006 56.2358 114.065 56.3029 114.175 56.3617C114.284 56.4204 114.418 56.4708 114.561 56.5128C114.704 56.5548 114.847 56.5883 114.981 56.6135C115.116 56.6387 115.2 56.6555 115.242 56.6555C115.435 56.6891 115.645 56.7478 115.88 56.8234C116.107 56.8989 116.326 56.9997 116.528 57.1424C116.729 57.2851 116.897 57.4698 117.032 57.6964C117.166 57.9231 117.233 58.2085 117.233 58.5527C117.233 58.8717 117.175 59.1487 117.065 59.3838C116.956 59.6189 116.796 59.8119 116.595 59.9547C116.393 60.1058 116.149 60.2149 115.872 60.2904C115.595 60.366 115.275 60.3996 114.931 60.3996C114.654 60.3996 114.393 60.3744 114.149 60.3324C113.906 60.2904 113.679 60.2233 113.477 60.1393C113.275 60.0554 113.074 59.963 112.897 59.8539C112.721 59.7448 112.553 59.6273 112.401 59.5013C112.359 59.4678 112.334 59.4258 112.326 59.367C112.326 59.3083 112.326 59.2579 112.368 59.2159L112.99 58.3261C113.023 58.2841 113.065 58.2589 113.116 58.2421C113.166 58.2253 113.216 58.2421 113.258 58.2673V58.2841Z" fill="#B80B4B"/>
<path d="M78.6354 47.5219C75.7782 47.5219 73.61 46.0444 72.1226 43.0811L75.442 41.0999C76.4168 42.9216 77.5177 43.8366 78.7447 43.8366C79.3918 43.8366 79.9548 43.6519 80.4422 43.2741C80.8792 42.8712 81.0977 42.4263 81.0977 41.9478C81.0977 41.4693 80.9464 41.0076 80.6355 40.5374C80.4338 40.3108 80.1481 40.0254 79.7699 39.6812C79.3918 39.337 78.9212 38.934 78.3581 38.4555C77.274 37.5573 76.3832 36.7598 75.6689 36.0714C74.9546 35.383 74.442 34.7954 74.1142 34.3085C73.4167 33.3179 73.0722 32.3441 73.0722 31.3955C73.0722 29.9684 73.61 28.7427 74.6773 27.727C75.7866 26.7196 77.106 26.2075 78.6354 26.2075C79.6859 26.2075 80.6607 26.4594 81.5683 26.9631C82.0305 27.1897 82.5179 27.5171 83.0138 27.9452C83.5096 28.3734 84.039 28.8939 84.5937 29.5067L81.6608 32.0503C80.6775 30.6736 79.6691 29.9852 78.6438 29.9852C78.0724 29.9852 77.6606 30.1111 77.4253 30.3546C77.106 30.598 76.9463 30.917 76.9463 31.3032C76.9463 31.597 77.0387 31.9076 77.232 32.2266C77.4169 32.4281 77.753 32.7303 78.2236 33.1584C78.6943 33.5865 79.3161 34.1238 80.0809 34.787C80.9717 35.5257 81.6524 36.1218 82.123 36.5583C82.4339 36.8353 82.6608 37.0368 82.8037 37.1543C84.1903 38.4891 84.8878 40.0254 84.8878 41.7631C84.8878 43.5008 84.3163 44.8524 83.1734 45.9269C82.0389 46.993 80.5347 47.5303 78.6522 47.5303L78.6354 47.5219Z" fill="white"/>
<path d="M109.956 47.5219H105.242C104.082 46.036 102.931 44.5502 101.788 43.0811C100.645 41.612 99.502 40.1177 98.3507 38.6234H102.99L104.805 40.9824C105.62 39.8071 106.023 38.4471 106.023 36.9109C106.023 35.0305 105.359 33.3851 104.048 31.9915C102.746 30.6652 101.2 30.002 99.3928 30.002C97.4767 30.002 95.8968 30.6652 94.6615 31.9915C93.3925 33.2675 92.7539 34.9129 92.7539 36.9109C92.7539 39.1775 93.5438 40.974 95.1237 42.3087C96.275 43.2406 97.5692 43.7527 99.0062 43.8366L101.771 47.3288C101.401 47.396 101.023 47.4464 100.628 47.4799C100.233 47.5135 99.8214 47.5219 99.3928 47.5219C96.3591 47.5219 93.8295 46.481 91.8042 44.3991C89.779 42.2584 88.7705 39.7651 88.7705 36.9109C88.7705 34.9213 89.2495 33.1164 90.1991 31.4962C91.174 29.8593 92.4681 28.5665 94.0816 27.6178C95.6952 26.6776 97.4683 26.2075 99.3928 26.2075C102.351 26.2075 104.813 27.2485 106.788 29.3304C108.872 31.4207 109.914 33.9475 109.914 36.9109C109.914 39.6728 109.032 42.0737 107.267 44.1052L109.965 47.5219H109.956Z" fill="white"/>
<path d="M126.041 26.2075H130.016V39.7148C130.016 40.7977 129.806 41.8051 129.402 42.7537C128.99 43.7023 128.427 44.525 127.721 45.2301C127.016 45.9353 126.184 46.4894 125.234 46.9007C124.284 47.312 123.276 47.5219 122.192 47.5219C121.108 47.5219 120.099 47.312 119.15 46.9007C118.2 46.4894 117.376 45.9353 116.671 45.2301C115.965 44.525 115.41 43.7023 114.998 42.7537C114.586 41.8051 114.385 40.7977 114.385 39.7148V26.2075H118.36V39.8071C118.36 40.3444 118.461 40.8397 118.662 41.3098C118.864 41.7799 119.141 42.1828 119.486 42.527C119.83 42.8712 120.242 43.1482 120.704 43.3413C121.167 43.5344 121.671 43.6351 122.192 43.6351C122.713 43.6351 123.225 43.5344 123.696 43.3413C124.158 43.1398 124.57 42.8712 124.915 42.527C125.259 42.1828 125.536 41.7715 125.738 41.3098C125.94 40.8481 126.041 40.3444 126.041 39.8071V26.2075Z" fill="white"/>
<path d="M134.671 26.2075H138.646V47.5219H134.671V26.2075Z" fill="white"/>
<path d="M162.992 47.5219H158.412L153.529 40.0589L148.529 47.5219H143.949L151.134 36.5499L144.353 26.2075H148.933L155.824 36.5499C157.151 38.5899 158.219 40.2352 159.034 41.4693C159.849 42.7033 160.404 43.5596 160.706 44.0213L163 47.5135L162.992 47.5219ZM157.504 33.9643L155.126 30.4889L158.009 26.2075H162.605L157.504 33.9643Z" fill="white"/>
<path d="M32.2719 78.5L27.9314 74.3499V66.6041L25.1615 61.1617V55.1689L13.8616 44.0557L12.1197 33.7416L13.0743 21.7846L7.99951 12.3062L13.3517 0.5L11.9647 11.5683L20.6416 19.6647L16.2113 33.0364L28.9472 42.4414L29.8692 49.543L32.2719 55.1689V78.5Z" fill="url(#paint0_linear_828_1594)"/>
<path d="M16.6724 40.0769L25.7164 44.9934L27.3767 50.0975L30.2078 55.6296L28.3027 53.7829L26.2712 51.8016L23.4401 51.7119L18.2429 46.6934L16.6724 40.0769Z" fill="#020100"/>
<path d="M50.609 52.5801L55.9 56.457L46.7335 57.5007L41.4956 62.9227L42.6705 57.1297L50.609 52.5801Z" fill="url(#paint1_linear_828_1594)"/>
<path d="M13.9882 52.5801L8.69727 56.457L17.8637 57.5007L23.0975 62.9227L21.9227 57.1297L13.9882 52.5801Z" fill="url(#paint2_linear_828_1594)"/>
<path d="M18.6427 38.7234L16.2114 33.0364L28.9473 42.4414L25.7164 44.9934L18.6427 38.7234Z" fill="url(#paint3_linear_828_1594)"/>
<path d="M18.2432 46.6934L13.9639 33.4358L19.108 24.2917L16.2116 33.0363L18.6429 38.7234L25.7166 44.9934L16.6726 40.0768L18.2432 46.6934Z" fill="url(#paint4_linear_828_1594)"/>
<path d="M21.7188 57.4764L24.2398 70.0164L27.9317 74.3499V66.6042L25.1618 61.1617V55.1689L21.7188 57.4764Z" fill="url(#paint5_linear_828_1594)"/>
<path d="M14.7633 49.3799L12.1199 33.7416L5.35217 25.2579L5.72339 15.4819L1.29317 26.1793L8.30565 39.0291L0 36.3874L8.79926 44.7488L2.2763 45.7965L13.7802 52.9267L14.7633 49.3799Z" fill="url(#paint6_linear_828_1594)"/>
<path d="M2.2763 45.7964L13.7802 52.9266L21.7187 57.4762L14.7633 49.3799L12.1199 33.7415L1.29317 26.1792L11.5039 42.6573L0 36.3873L11.6875 47.5616L2.2763 45.7964Z" fill="url(#paint7_linear_828_1594)"/>
<path d="M17.2679 47.4028L25.1616 55.169L21.7186 57.4764L14.7632 49.38L17.2679 47.4028Z" fill="url(#paint8_linear_828_1594)"/>
<path d="M13.0743 21.7847L8.70117 29.4571L12.1197 33.7417L13.0743 21.7847Z" fill="#911D10"/>
<path d="M20.6419 19.6647L11.965 11.5683L13.352 0.5L9.79883 12.7179L16.6726 21.1853L13.9639 33.4359L19.108 24.2918L20.6419 19.6647Z" fill="url(#paint9_linear_828_1594)"/>
<path d="M32.2723 55.1689V38.1812L23.4404 35.1562L28.9476 42.4414L29.8696 49.543L32.2723 55.1689Z" fill="url(#paint10_linear_828_1594)"/>
<path d="M28.9473 42.4415L16.2114 33.0365L20.6416 19.6648L23.4401 35.1564L28.9473 42.4415Z" fill="url(#paint11_linear_828_1594)"/>
<path d="M23.4401 35.1562L20.6416 19.6647L25.7164 12.9014L22.7629 20.3781L26.7525 36.2895L23.4401 35.1562Z" fill="url(#paint12_linear_828_1594)"/>
<path d="M26.7529 36.2897L23.4404 23.0444C23.4404 23.0444 26.1165 18.5804 26.3001 18.5804C26.4837 18.5804 27.683 10.4636 27.683 10.4636L28.9435 18.2706L27.067 24.5936L32.2723 38.1772L26.7529 36.2897Z" fill="url(#paint13_linear_828_1594)"/>
<path d="M32.272 38.1812V4.44629L30.7096 16.7743L27.0708 24.5935L32.272 38.1812Z" fill="url(#paint14_linear_828_1594)"/>
<path d="M25.1616 55.1689V61.1617L27.9315 66.6042V74.3499L32.272 78.5V75.149L29.3471 72.601L28.7189 66.3596L26.361 60.2119L25.1616 55.1689Z" fill="#140513"/>
<path d="M25.1616 55.1689L32.272 57.9126V67.3665L26.361 60.2119L25.1616 55.1689Z" fill="url(#paint15_linear_828_1594)"/>
<path d="M28.7188 66.3596L32.2719 67.3666V75.149L29.347 72.6011L28.7188 66.3596Z" fill="url(#paint16_linear_828_1594)"/>
<path d="M26.3608 60.2119L32.2719 67.3666L28.7187 66.3596L26.3608 60.2119Z" fill="url(#paint17_linear_828_1594)"/>
<path d="M24.77 66.3596L25.1616 69.3723L26.9851 71.5167L26.0142 67.5052L24.77 66.3596Z" fill="#1B0923"/>
<path d="M32.272 78.5L36.6165 74.3499V66.6041L39.3864 61.1617V55.1689L50.6864 44.0557L52.4283 33.7416L51.4737 21.7846L56.5485 12.3062L51.1963 0.5L52.5833 11.5683L43.9064 19.6647L48.3366 33.0364L35.6008 42.4414L34.6788 49.543L32.272 55.1689V78.5Z" fill="url(#paint18_linear_828_1594)"/>
<path d="M47.8758 40.0769L38.8317 44.9934L37.1714 50.0975L34.3403 55.6296L36.2413 53.7829L38.277 51.8016L41.1081 51.7119L46.3052 46.6934L47.8758 40.0769Z" fill="#020100"/>
<path d="M43.9513 44.0312L39.0356 49.2454L41.6546 48.4382L43.6086 45.6008L43.9513 44.0312Z" fill="url(#paint19_linear_828_1594)"/>
<path d="M20.6416 44.0312L25.5573 49.2454L22.9383 48.4382L20.9843 45.6008L20.6416 44.0312Z" fill="url(#paint20_linear_828_1594)"/>
<path d="M45.9056 38.7234L48.3369 33.0364L35.6011 42.4414L38.832 44.9934L45.9056 38.7234Z" fill="url(#paint21_linear_828_1594)"/>
<path d="M46.305 46.6934L50.5802 33.4358L45.4402 24.2917L48.3365 33.0363L45.9052 38.7234L38.8315 44.9934L47.8756 40.0768L46.305 46.6934Z" fill="url(#paint22_linear_828_1594)"/>
<path d="M42.8296 57.4764L40.3086 70.0164L36.6167 74.3499V66.6042L39.3866 61.1617V55.1689L42.8296 57.4764Z" fill="url(#paint23_linear_828_1594)"/>
<path d="M50.768 52.9267L62.2719 45.7965L55.7489 44.7488L64.5482 36.3874L56.2425 39.0291L63.255 26.1793L58.8248 15.4819L59.196 25.2579L52.4283 33.7416L49.7808 49.3799L50.768 52.9267Z" fill="url(#paint24_linear_828_1594)"/>
<path d="M62.272 45.7964L50.7681 52.9266L42.8296 57.4762L49.7809 49.3799L52.4284 33.7415L63.2551 26.1792L53.0444 42.6573L64.5483 36.3873L52.8568 47.5616L62.272 45.7964Z" fill="url(#paint25_linear_828_1594)"/>
<path d="M47.2804 47.4028L39.3867 55.169L42.8297 57.4764L49.781 49.38L47.2804 47.4028Z" fill="url(#paint26_linear_828_1594)"/>
<path d="M51.4736 21.7847L55.8467 29.4571L52.4282 33.7417L51.4736 21.7847Z" fill="#911D10"/>
<path d="M43.9067 19.6647L52.5836 11.5683L51.1966 0.5L54.7498 12.7179L47.876 21.1853L50.5806 33.4359L45.4406 24.2918L43.9067 19.6647Z" fill="url(#paint27_linear_828_1594)"/>
<path d="M32.272 55.1689V38.1812L41.1079 35.1562L35.6008 42.4414L34.6788 49.543L32.272 55.1689Z" fill="url(#paint28_linear_828_1594)"/>
<path d="M35.6011 42.4415L48.3369 33.0365L43.9067 19.6648L41.1083 35.1564L35.6011 42.4415Z" fill="url(#paint29_linear_828_1594)"/>
<path d="M41.1079 35.1562L43.9063 19.6647L38.8316 12.9014L41.7851 20.3781L37.7954 36.2895L41.1079 35.1562Z" fill="#CE4737"/>
<path d="M37.7958 36.2897L41.1083 23.0444C41.1083 23.0444 38.4322 18.5804 38.2486 18.5804C38.065 18.5804 36.8657 10.4636 36.8657 10.4636L35.6052 18.2706L37.4817 24.5936L32.2764 38.1772L37.7958 36.2897Z" fill="url(#paint30_linear_828_1594)"/>
<path d="M32.272 38.1812V4.44629L33.8385 16.7743L37.4773 24.5935L32.272 38.1812Z" fill="url(#paint31_linear_828_1594)"/>
<path d="M39.3864 55.1689V61.1617L36.6165 66.6042V74.3499L32.272 78.5V75.149L35.201 72.601L35.8292 66.3596L38.1871 60.2119L39.3864 55.1689Z" fill="#6B1B66"/>
<path d="M39.3864 55.1689L32.272 57.9126V67.3665L38.1871 60.2119L39.3864 55.1689Z" fill="url(#paint32_linear_828_1594)"/>
<path d="M35.8292 66.3596L32.272 67.3666V75.149L35.201 72.6011L35.8292 66.3596Z" fill="url(#paint33_linear_828_1594)"/>
<path d="M38.1871 60.2119L32.272 67.3666L35.8292 66.3596L38.1871 60.2119Z" fill="url(#paint34_linear_828_1594)"/>
<path d="M39.7781 66.3596L39.3865 69.3723L37.563 71.5167L38.5298 67.5052L39.7781 66.3596Z" fill="#1B0923"/>
<path d="M14.7636 49.38L17.2683 47.4028L12.1201 33.7417L14.7636 49.38Z" fill="url(#paint35_linear_828_1594)"/>
<path d="M49.7809 49.38L47.2803 47.4028L52.4285 33.7417L49.7809 49.38Z" fill="url(#paint36_linear_828_1594)"/>
<path d="M25.7163 44.9934L28.9472 42.4414L29.8691 49.5431L30.2077 55.6296L27.3766 50.0975L25.7163 44.9934Z" fill="#6B1B66"/>
<path d="M8.69727 56.457L13.6374 52.8369L17.3211 54.9527L8.69727 56.457Z" fill="url(#paint37_linear_828_1594)"/>
<path d="M55.9082 56.457L50.964 52.8369L47.2803 54.9527L55.9082 56.457Z" fill="url(#paint38_linear_828_1594)"/>
<path d="M6.75146 27.011L9.39083 21.0793L8.70142 29.457L6.75146 27.011Z" fill="url(#paint39_linear_828_1594)"/>
<path d="M9.39059 21.0793L11.0876 25.2661L8.70117 29.457L9.39059 21.0793Z" fill="url(#paint40_linear_828_1594)"/>
<path d="M57.7968 27.011L55.1533 21.0793L55.8468 29.457L57.7968 27.011Z" fill="url(#paint41_linear_828_1594)"/>
<path d="M55.1534 21.0793L53.4604 25.2661L55.8469 29.457L55.1534 21.0793Z" fill="url(#paint42_linear_828_1594)"/>
<defs>
<linearGradient id="paint0_linear_828_1594" x1="27.8825" y1="59.0499" x2="7.47205" y2="6.40631" gradientUnits="userSpaceOnUse">
<stop stop-color="#8A2F25"/>
<stop offset="1" stop-color="#A3610C"/>
</linearGradient>
<linearGradient id="paint1_linear_828_1594" x1="56.0101" y1="58.2793" x2="44.2778" y2="57.6589" gradientUnits="userSpaceOnUse">
<stop stop-color="#007CF7"/>
<stop offset="1" stop-color="#19003D"/>
</linearGradient>
<linearGradient id="paint2_linear_828_1594" x1="8.41987" y1="56.881" x2="21.9389" y2="58.0444" gradientUnits="userSpaceOnUse">
<stop offset="0.03" stop-color="#00D6F7"/>
<stop offset="0.47" stop-color="#007CF7"/>
<stop offset="1" stop-color="#19003D"/>
</linearGradient>
<linearGradient id="paint3_linear_828_1594" x1="29.4735" y1="45.8536" x2="14.0261" y2="31.5016" gradientUnits="userSpaceOnUse">
<stop stop-color="#D97B00"/>
<stop offset="0.57" stop-color="#F5C743"/>
<stop offset="1" stop-color="#F5EAC9"/>
</linearGradient>
<linearGradient id="paint4_linear_828_1594" x1="28.1194" y1="44.8344" x2="18.1803" y2="34.9907" gradientUnits="userSpaceOnUse">
<stop stop-color="#F7004A"/>
<stop offset="1" stop-color="#8A003D"/>
</linearGradient>
<linearGradient id="paint5_linear_828_1594" x1="27.3116" y1="74.0727" x2="25.0667" y2="63.4971" gradientUnits="userSpaceOnUse">
<stop stop-color="#B00035"/>
<stop offset="1" stop-color="#2E1736"/>
</linearGradient>
<linearGradient id="paint6_linear_828_1594" x1="1.01985" y1="18.7637" x2="8.98954" y2="45.8931" gradientUnits="userSpaceOnUse">
<stop stop-color="#F74D80"/>
<stop offset="0.19" stop-color="#F7004A"/>
<stop offset="0.56" stop-color="#4F003C"/>
<stop offset="1"/>
</linearGradient>
<linearGradient id="paint7_linear_828_1594" x1="2.16616" y1="42.323" x2="15.3752" y2="41.6209" gradientUnits="userSpaceOnUse">
<stop stop-color="#AD004B"/>
<stop offset="0.57" stop-color="#360017"/>
<stop offset="0.91" stop-color="#120014"/>
</linearGradient>
<linearGradient id="paint8_linear_828_1594" x1="16.3093" y1="49.3107" x2="24.2508" y2="57.1269" gradientUnits="userSpaceOnUse">
<stop stop-color="#B00035"/>
<stop offset="1" stop-color="#2E1736"/>
</linearGradient>
<linearGradient id="paint9_linear_828_1594" x1="15.82" y1="33.0894" x2="14.7934" y2="4.20162" gradientUnits="userSpaceOnUse">
<stop stop-color="#D97B00"/>
<stop offset="0.57" stop-color="#F5C743"/>
<stop offset="1" stop-color="#F5EAC9"/>
</linearGradient>
<linearGradient id="paint10_linear_828_1594" x1="29.274" y1="44.492" x2="33.8255" y2="42.3412" gradientUnits="userSpaceOnUse">
<stop stop-color="#B00035"/>
<stop offset="1" stop-color="#A3610C"/>
</linearGradient>
<linearGradient id="paint11_linear_828_1594" x1="16.2114" y1="31.0511" x2="28.9473" y2="31.0511" gradientUnits="userSpaceOnUse">
<stop stop-color="#8A2F25"/>
<stop offset="1" stop-color="#A3610C"/>
</linearGradient>
<linearGradient id="paint12_linear_828_1594" x1="20.1113" y1="26.3913" x2="25.0346" y2="24.9464" gradientUnits="userSpaceOnUse">
<stop stop-color="#38130F"/>
<stop offset="0.49" stop-color="#8A2F25"/>
<stop offset="1" stop-color="#A3610C"/>
</linearGradient>
<linearGradient id="paint13_linear_828_1594" x1="21.6169" y1="26.2528" x2="46.7647" y2="20.4362" gradientUnits="userSpaceOnUse">
<stop stop-color="#38130F"/>
<stop offset="0.21" stop-color="#8A2F25"/>
<stop offset="1" stop-color="#A3610C"/>
</linearGradient>
<linearGradient id="paint14_linear_828_1594" x1="25.2147" y1="25.7961" x2="34.0718" y2="20.165" gradientUnits="userSpaceOnUse">
<stop stop-color="#38130F"/>
<stop offset="0.21" stop-color="#8A2F25"/>
<stop offset="1" stop-color="#A3610C"/>
</linearGradient>
<linearGradient id="paint15_linear_828_1594" x1="25.6144" y1="60.2771" x2="38.0429" y2="64.2444" gradientUnits="userSpaceOnUse">
<stop stop-color="#5C0029"/>
<stop offset="1" stop-color="#A3610C"/>
</linearGradient>
<linearGradient id="paint16_linear_828_1594" x1="29.0941" y1="70.6483" x2="35.3355" y2="71.1178" gradientUnits="userSpaceOnUse">
<stop stop-color="#5C0029"/>
<stop offset="1" stop-color="#A3610C"/>
</linearGradient>
<linearGradient id="paint17_linear_828_1594" x1="27.8213" y1="62.5805" x2="34.7823" y2="73.7385" gradientUnits="userSpaceOnUse">
<stop stop-color="#5C0029"/>
<stop offset="1" stop-color="#A3610C"/>
</linearGradient>
<linearGradient id="paint18_linear_828_1594" x1="33.6549" y1="57.5619" x2="59.2876" y2="7.14373" gradientUnits="userSpaceOnUse">
<stop stop-color="#D97B00"/>
<stop offset="0.57" stop-color="#F5C743"/>
<stop offset="1" stop-color="#F5EAC9"/>
</linearGradient>
<linearGradient id="paint19_linear_828_1594" x1="39.0356" y1="46.6404" x2="43.9513" y2="46.6404" gradientUnits="userSpaceOnUse">
<stop stop-color="#FFA3BF"/>
<stop offset="0.3" stop-color="#FF004D"/>
<stop offset="0.33" stop-color="#F40452"/>
<stop offset="0.39" stop-color="#D6115F"/>
<stop offset="0.47" stop-color="#A72675"/>
<stop offset="0.53" stop-color="#803888"/>
<stop offset="0.89" stop-color="#260022"/>
</linearGradient>
<linearGradient id="paint20_linear_828_1594" x1="25.0963" y1="49.649" x2="20.1147" y2="44.4968" gradientUnits="userSpaceOnUse">
<stop stop-color="#FFA3BF"/>
<stop offset="0.3" stop-color="#FF004D"/>
<stop offset="0.33" stop-color="#F40452"/>
<stop offset="0.39" stop-color="#D6115F"/>
<stop offset="0.47" stop-color="#A72675"/>
<stop offset="0.53" stop-color="#803888"/>
<stop offset="0.89" stop-color="#260022"/>
</linearGradient>
<linearGradient id="paint21_linear_828_1594" x1="48.647" y1="34.5488" x2="37.1164" y2="43.8104" gradientUnits="userSpaceOnUse">
<stop stop-color="#D97B00"/>
<stop offset="0.57" stop-color="#F5C743"/>
<stop offset="1" stop-color="#F5EAC9"/>
</linearGradient>
<linearGradient id="paint22_linear_828_1594" x1="49.5644" y1="25.4822" x2="42.3196" y2="45.1554" gradientUnits="userSpaceOnUse">
<stop stop-color="#F7004A"/>
<stop offset="1" stop-color="#8A003D"/>
</linearGradient>
<linearGradient id="paint23_linear_828_1594" x1="36.1231" y1="74.6883" x2="41.53" y2="57.0993" gradientUnits="userSpaceOnUse">
<stop stop-color="#FF00FF"/>
<stop offset="0.14" stop-color="#F404F5"/>
<stop offset="0.39" stop-color="#D611DD"/>
<stop offset="0.71" stop-color="#A726B5"/>
<stop offset="1" stop-color="#773C8C"/>
</linearGradient>
<linearGradient id="paint24_linear_828_1594" x1="64.642" y1="14.9234" x2="54.2928" y2="50.2315" gradientUnits="userSpaceOnUse">
<stop stop-color="#F74D80"/>
<stop offset="0.19" stop-color="#F7004A"/>
<stop offset="0.56" stop-color="#4F003C"/>
<stop offset="1"/>
</linearGradient>
<linearGradient id="paint25_linear_828_1594" x1="64.9154" y1="45.0585" x2="48.1874" y2="40.4993" gradientUnits="userSpaceOnUse">
<stop stop-color="#F7004A"/>
<stop offset="0.78" stop-color="#733681"/>
<stop offset="1" stop-color="#2B1320"/>
</linearGradient>
<linearGradient id="paint26_linear_828_1594" x1="50.6948" y1="47.9043" x2="40.6076" y2="56.0275" gradientUnits="userSpaceOnUse">
<stop stop-color="#B75BD6"/>
<stop offset="1" stop-color="#4E275C"/>
</linearGradient>
<linearGradient id="paint27_linear_828_1594" x1="45.5752" y1="32.2292" x2="53.7812" y2="4.30883" gradientUnits="userSpaceOnUse">
<stop stop-color="#DE4C3B"/>
<stop offset="1" stop-color="#FF9813"/>
</linearGradient>
<linearGradient id="paint28_linear_828_1594" x1="27.7275" y1="53.9907" x2="41.3113" y2="32.0948" gradientUnits="userSpaceOnUse">
<stop stop-color="#C21D4E"/>
<stop offset="0.57" stop-color="#F5C743"/>
<stop offset="1" stop-color="#F5EAC9"/>
</linearGradient>
<linearGradient id="paint29_linear_828_1594" x1="31.8643" y1="39.9832" x2="50.4344" y2="22.2047" gradientUnits="userSpaceOnUse">
<stop stop-color="#8A2F25"/>
<stop offset="1" stop-color="#A3610C"/>
</linearGradient>
<linearGradient id="paint30_linear_828_1594" x1="31.7664" y1="36.8604" x2="40.3073" y2="16.1345" gradientUnits="userSpaceOnUse">
<stop stop-color="#D97B00"/>
<stop offset="0.57" stop-color="#F5C743"/>
<stop offset="1" stop-color="#F5EAC9"/>
</linearGradient>
<linearGradient id="paint31_linear_828_1594" x1="35.0378" y1="43.7989" x2="34.7608" y2="22.494" gradientUnits="userSpaceOnUse">
<stop stop-color="#D97B00"/>
<stop offset="0.57" stop-color="#F5C743"/>
<stop offset="1" stop-color="#F5EAC9"/>
</linearGradient>
<linearGradient id="paint32_linear_828_1594" x1="26.1366" y1="66.7631" x2="41.6931" y2="56.301" gradientUnits="userSpaceOnUse">
<stop stop-color="#D97B00"/>
<stop offset="0.57" stop-color="#F5C743"/>
<stop offset="1" stop-color="#F5EAC9"/>
</linearGradient>
<linearGradient id="paint33_linear_828_1594" x1="32.272" y1="70.7543" x2="35.8292" y2="70.7543" gradientUnits="userSpaceOnUse">
<stop stop-color="#D97B00"/>
<stop offset="0.57" stop-color="#F5C743"/>
<stop offset="1" stop-color="#F5EAC9"/>
</linearGradient>
<linearGradient id="paint34_linear_828_1594" x1="33.7446" y1="66.9874" x2="41.6447" y2="58.0053" gradientUnits="userSpaceOnUse">
<stop stop-color="#D97B00"/>
<stop offset="0.57" stop-color="#F5C743"/>
<stop offset="1" stop-color="#F5EAC9"/>
</linearGradient>
<linearGradient id="paint35_linear_828_1594" x1="11.4552" y1="35.3439" x2="16.1858" y2="48.8927" gradientUnits="userSpaceOnUse">
<stop stop-color="#38130F"/>
<stop offset="1" stop-color="#6B0020"/>
</linearGradient>
<linearGradient id="paint36_linear_828_1594" x1="53.0893" y1="35.3439" x2="48.3587" y2="48.8927" gradientUnits="userSpaceOnUse">
<stop stop-color="#38130F"/>
<stop offset="1" stop-color="#6B0020"/>
</linearGradient>
<linearGradient id="paint37_linear_828_1594" x1="4.70354" y1="57.1786" x2="12.8614" y2="54.6888" gradientUnits="userSpaceOnUse">
<stop stop-color="#007CF7"/>
<stop offset="1" stop-color="#19003D"/>
</linearGradient>
<linearGradient id="paint38_linear_828_1594" x1="54.9087" y1="58.2019" x2="48.2258" y2="53.1629" gradientUnits="userSpaceOnUse">
<stop offset="0.03" stop-color="#00D6F7"/>
<stop offset="0.47" stop-color="#007CF7"/>
<stop offset="1" stop-color="#19003D"/>
</linearGradient>
<linearGradient id="paint39_linear_828_1594" x1="13.0297" y1="17.3043" x2="7.54454" y2="28.2817" gradientUnits="userSpaceOnUse">
<stop stop-color="#007CF7"/>
<stop offset="1" stop-color="#19003D"/>
</linearGradient>
<linearGradient id="paint40_linear_828_1594" x1="7.53446" y1="24.3611" x2="10.3442" y2="26.0464" gradientUnits="userSpaceOnUse">
<stop offset="0.03" stop-color="#00D6F7"/>
<stop offset="0.47" stop-color="#007CF7"/>
<stop offset="1" stop-color="#19003D"/>
</linearGradient>
<linearGradient id="paint41_linear_828_1594" x1="54.2436" y1="22.4247" x2="56.8434" y2="28.2883" gradientUnits="userSpaceOnUse">
<stop offset="0.03" stop-color="#00D6F7"/>
<stop offset="0.47" stop-color="#007CF7"/>
<stop offset="1" stop-color="#19003D"/>
</linearGradient>
<linearGradient id="paint42_linear_828_1594" x1="62.5249" y1="23.9657" x2="52.4614" y2="25.8311" gradientUnits="userSpaceOnUse">
<stop offset="0.03" stop-color="#00D6F7"/>
<stop offset="0.47" stop-color="#007CF7"/>
<stop offset="1" stop-color="#19003D"/>
</linearGradient>
</defs>
</svg>
