<svg width="152" height="237" viewBox="0 0 152 237" fill="none" xmlns="http://www.w3.org/2000/svg">
<path d="M75.9952 182.666L65.7741 172.947V154.807L59.2515 142.062V128.027L32.6421 102.002L28.5402 77.8475L30.7881 49.8457L18.8379 27.6486L31.4413 0L28.1752 25.9205L48.6077 44.8812L38.1753 76.1958L68.1661 98.2211L70.3371 114.852L75.9952 128.027V182.666Z" fill="url(#paint0_linear_627_2918)"/>
<path d="M39.2608 92.6838L60.5579 104.198L64.4677 116.151L71.1344 129.106L66.6483 124.781L61.8644 120.141L55.1976 119.931L42.9592 108.179L39.2608 92.6838Z" fill="#020100"/>
<path d="M119.175 121.965L131.635 131.044L110.049 133.488L97.715 146.186L100.482 132.619L119.175 121.965Z" fill="url(#paint1_linear_627_2918)"/>
<path d="M32.9399 121.965L20.4806 131.044L42.0659 133.488L54.3907 146.186L51.6241 132.619L32.9399 121.965Z" fill="url(#paint2_linear_627_2918)"/>
<path d="M43.9006 89.5141L38.1753 76.1958L68.1661 98.2211L60.5579 104.198L43.9006 89.5141Z" fill="url(#paint3_linear_627_2918)"/>
<path d="M42.9592 108.179L32.8823 77.1316L44.9958 55.7173L38.1753 76.1959L43.9007 89.5142L60.5579 104.198L39.2608 92.6839L42.9592 108.179Z" fill="url(#paint4_linear_627_2918)"/>
<path d="M51.1438 133.431L57.0805 162.798L65.7741 172.947V154.807L59.2515 142.062V128.027L51.1438 133.431Z" fill="url(#paint5_linear_627_2918)"/>
<path d="M34.7651 114.47L28.5402 77.8474L12.6034 57.9798L13.4776 35.0857L3.04519 60.1374L19.5584 90.2301L0 84.0435L20.7207 103.625L5.3603 106.078L32.45 122.776L34.7651 114.47Z" fill="url(#paint6_linear_627_2918)"/>
<path d="M5.3603 106.078L32.45 122.776L51.1438 133.431L34.7651 114.47L28.5402 77.8474L3.04519 60.1375L27.0897 98.7271L0 84.0435L27.522 110.212L5.3603 106.078Z" fill="url(#paint7_linear_627_2918)"/>
<path d="M40.6633 109.84L59.2515 128.027L51.1438 133.431L34.7651 114.47L40.6633 109.84Z" fill="url(#paint8_linear_627_2918)"/>
<path d="M30.7881 49.8457L20.4902 67.8134L28.5402 77.8475L30.7881 49.8457Z" fill="#911D10"/>
<path d="M48.6077 44.8812L28.1752 25.9205L31.4413 0L23.0743 28.6128L39.2608 48.4423L32.8823 77.1315L44.9958 55.7172L48.6077 44.8812Z" fill="url(#paint9_linear_627_2918)"/>
<path d="M75.9952 128.027V88.2444L55.1976 81.1604L68.1661 98.2212L70.3371 114.852L75.9952 128.027Z" fill="url(#paint10_linear_627_2918)"/>
<path d="M68.1661 98.221L38.1753 76.1958L48.6077 44.8811L55.1976 81.1603L68.1661 98.221Z" fill="url(#paint11_linear_627_2918)"/>
<path d="M55.1976 81.1604L48.6077 44.8812L60.5579 29.0425L53.603 46.552L62.9979 83.8145L55.1976 81.1604Z" fill="url(#paint12_linear_627_2918)"/>
<path d="M62.9979 83.8145L55.1976 52.7958C55.1976 52.7958 61.4993 42.3416 61.9316 42.3416C62.3639 42.3416 65.1882 23.3333 65.1882 23.3333L68.1565 41.6161L63.7376 56.4237L75.9952 88.2348L62.9979 83.8145Z" fill="url(#paint13_linear_627_2918)"/>
<path d="M75.9952 88.2444V9.2417L72.316 38.1123L63.7472 56.4237L75.9952 88.2444Z" fill="url(#paint14_linear_627_2918)"/>
<path d="M59.2515 128.027V142.062L65.7741 154.807V172.947L75.9952 182.666V174.818L69.1075 168.851L67.6281 154.234L62.0757 139.837L59.2515 128.027Z" fill="#140513"/>
<path d="M59.2515 128.027L75.9952 134.453V156.592L62.0757 139.837L59.2515 128.027Z" fill="url(#paint15_linear_627_2918)"/>
<path d="M67.6282 154.234L75.9952 156.593V174.818L69.1075 168.851L67.6282 154.234Z" fill="url(#paint16_linear_627_2918)"/>
<path d="M62.0757 139.837L75.9952 156.592L67.6282 154.234L62.0757 139.837Z" fill="url(#paint17_linear_627_2918)"/>
<path d="M58.3293 154.234L59.2515 161.29L63.5455 166.312L61.2592 156.917L58.3293 154.234Z" fill="#1B0923"/>
<path d="M75.9952 182.666L86.2259 172.947V154.807L92.7485 142.062V128.027L119.358 102.002L123.46 77.8475L121.212 49.8457L133.162 27.6486L120.559 0L123.825 25.9205L103.392 44.8812L113.825 76.1958L83.8339 98.2211L81.6629 114.852L75.9952 128.027V182.666Z" fill="url(#paint18_linear_627_2918)"/>
<path d="M112.739 92.6838L91.4421 104.198L87.5324 116.151L80.8656 129.106L85.3421 124.781L90.1357 120.141L96.8024 119.931L109.041 108.179L112.739 92.6838Z" fill="#020100"/>
<path d="M103.498 101.945L91.9224 114.155L98.0896 112.265L102.691 105.62L103.498 101.945Z" fill="url(#paint19_linear_627_2918)"/>
<path d="M48.6077 101.945L60.1833 114.155L54.0161 112.265L49.4147 105.62L48.6077 101.945Z" fill="url(#paint20_linear_627_2918)"/>
<path d="M108.099 89.5141L113.825 76.1958L83.8339 98.2211L91.4421 104.198L108.099 89.5141Z" fill="url(#paint21_linear_627_2918)"/>
<path d="M109.041 108.179L119.108 77.1316L107.004 55.7173L113.825 76.1959L108.099 89.5142L91.4421 104.198L112.739 92.6839L109.041 108.179Z" fill="url(#paint22_linear_627_2918)"/>
<path d="M100.856 133.431L94.9196 162.798L86.2259 172.947V154.807L92.7485 142.062V128.027L100.856 133.431Z" fill="url(#paint23_linear_627_2918)"/>
<path d="M119.55 122.776L146.64 106.078L131.279 103.625L152 84.0435L132.442 90.2301L148.955 60.1374L138.522 35.0857L139.397 57.9798L123.46 77.8474L117.225 114.47L119.55 122.776Z" fill="url(#paint24_linear_627_2918)"/>
<path d="M146.64 106.078L119.55 122.776L100.856 133.431L117.225 114.47L123.46 77.8474L148.955 60.1375L124.91 98.7271L152 84.0435L124.468 110.212L146.64 106.078Z" fill="url(#paint25_linear_627_2918)"/>
<path d="M111.337 109.84L92.7485 128.027L100.856 133.431L117.225 114.47L111.337 109.84Z" fill="url(#paint26_linear_627_2918)"/>
<path d="M121.212 49.8457L131.51 67.8134L123.46 77.8475L121.212 49.8457Z" fill="#911D10"/>
<path d="M103.392 44.8812L123.825 25.9205L120.559 0L128.926 28.6128L112.739 48.4423L119.108 77.1315L107.004 55.7172L103.392 44.8812Z" fill="url(#paint27_linear_627_2918)"/>
<path d="M75.9952 128.027V88.2444L96.8024 81.1604L83.8339 98.2212L81.6629 114.852L75.9952 128.027Z" fill="url(#paint28_linear_627_2918)"/>
<path d="M83.8339 98.221L113.825 76.1958L103.392 44.8811L96.8024 81.1603L83.8339 98.221Z" fill="url(#paint29_linear_627_2918)"/>
<path d="M96.8024 81.1604L103.392 44.8812L91.4421 29.0425L98.397 46.552L89.0021 83.8145L96.8024 81.1604Z" fill="#CE4737"/>
<path d="M89.0021 83.8145L96.8024 52.7958C96.8024 52.7958 90.5007 42.3416 90.0684 42.3416C89.6361 42.3416 86.8119 23.3333 86.8119 23.3333L83.8435 41.6161L88.2624 56.4237L76.0048 88.2348L89.0021 83.8145Z" fill="url(#paint30_linear_627_2918)"/>
<path d="M75.9952 88.2444V9.2417L79.684 38.1123L88.2528 56.4237L75.9952 88.2444Z" fill="url(#paint31_linear_627_2918)"/>
<path d="M92.7485 128.027V142.062L86.2259 154.807V172.947L75.9952 182.666V174.818L82.8925 168.851L84.3718 154.234L89.9243 139.837L92.7485 128.027Z" fill="#6B1B66"/>
<path d="M92.7485 128.027L75.9952 134.453V156.592L89.9243 139.837L92.7485 128.027Z" fill="url(#paint32_linear_627_2918)"/>
<path d="M84.3718 154.234L75.9952 156.593V174.818L82.8925 168.851L84.3718 154.234Z" fill="url(#paint33_linear_627_2918)"/>
<path d="M89.9243 139.837L75.9952 156.592L84.3718 154.234L89.9243 139.837Z" fill="url(#paint34_linear_627_2918)"/>
<path d="M93.6707 154.234L92.7485 161.29L88.4545 166.312L90.7312 156.917L93.6707 154.234Z" fill="#1B0923"/>
<path d="M34.7651 114.47L40.6633 109.84L28.5402 77.8474L34.7651 114.47Z" fill="url(#paint35_linear_627_2918)"/>
<path d="M117.225 114.47L111.337 109.84L123.46 77.8474L117.225 114.47Z" fill="url(#paint36_linear_627_2918)"/>
<path d="M60.5579 104.198L68.1661 98.2212L70.3371 114.852L71.1344 129.106L64.4677 116.151L60.5579 104.198Z" fill="#6B1B66"/>
<path d="M20.4806 131.044L32.1138 122.566L40.7882 127.521L20.4806 131.044Z" fill="url(#paint37_linear_627_2918)"/>
<path d="M131.654 131.044L120.011 122.566L111.337 127.521L131.654 131.044Z" fill="url(#paint38_linear_627_2918)"/>
<path d="M15.8984 62.0852L22.1136 48.1941L20.4902 67.8135L15.8984 62.0852Z" fill="url(#paint39_linear_627_2918)"/>
<path d="M22.1136 48.1941L26.1098 57.999L20.4902 67.8135L22.1136 48.1941Z" fill="url(#paint40_linear_627_2918)"/>
<path d="M136.102 62.0852L129.877 48.1941L131.51 67.8135L136.102 62.0852Z" fill="url(#paint41_linear_627_2918)"/>
<path d="M129.877 48.1941L125.89 57.999L131.51 67.8135L129.877 48.1941Z" fill="url(#paint42_linear_627_2918)"/>
<path d="M51.1589 236.989C50.6107 236.989 50.0948 236.882 49.6111 236.68C49.1274 236.477 48.7082 236.199 48.3535 235.847C47.9988 235.494 47.7086 235.089 47.5043 234.619C47.3001 234.149 47.1926 233.647 47.1926 233.113C47.1926 232.579 47.3001 232.077 47.5043 231.607C47.7193 231.138 47.9988 230.721 48.3535 230.379C48.7082 230.038 49.1382 229.749 49.6111 229.546C50.0948 229.344 50.6 229.237 51.1589 229.237C51.9113 229.237 52.567 229.386 53.1259 229.696C53.6849 230.006 54.1363 230.422 54.491 230.967C54.5233 231.02 54.534 231.084 54.5125 231.159C54.491 231.234 54.4588 231.287 54.405 231.319L53.1689 232.109C53.1152 232.141 53.0507 232.152 52.9862 232.141C52.9217 232.141 52.8572 232.099 52.8142 232.045C52.5992 231.789 52.3628 231.575 52.0941 231.426C51.8253 231.266 51.5136 231.191 51.1482 231.191C50.8902 231.191 50.643 231.244 50.4065 231.351C50.1808 231.458 49.9766 231.597 49.8046 231.778C49.6326 231.96 49.4929 232.163 49.3961 232.398C49.2994 232.633 49.2456 232.878 49.2456 233.124C49.2456 233.369 49.2994 233.626 49.3961 233.861C49.4929 234.095 49.6326 234.298 49.8046 234.469C49.9766 234.64 50.1808 234.779 50.4065 234.886C50.6322 234.992 50.8794 235.046 51.1482 235.046C51.4169 235.046 51.6641 235.003 51.9221 234.907C52.18 234.811 52.3735 234.651 52.5348 234.437C52.567 234.384 52.5778 234.33 52.5348 234.288C52.5025 234.245 52.4595 234.224 52.395 234.224H51.2127C51.1482 234.224 51.0837 234.202 51.0407 234.149C50.9977 234.106 50.9654 234.042 50.9654 233.978V232.761C50.9654 232.697 50.9869 232.633 51.0407 232.59C51.0944 232.547 51.1482 232.515 51.2127 232.515H54.749C54.8135 232.515 54.878 232.536 54.9317 232.579C54.9855 232.622 55.007 232.686 55.0177 232.761C55.0285 232.878 55.0392 233.017 55.0392 233.188C55.0392 233.359 55.0392 233.529 55.007 233.7C54.964 234.17 54.8242 234.608 54.6093 235.014C54.3835 235.42 54.1041 235.761 53.7601 236.06C53.4162 236.349 53.0185 236.583 52.567 236.754C52.1156 236.925 51.6426 237 51.1482 237L51.1589 236.989Z" fill="#B80B4B"/>
<path d="M62.4451 229.6C62.4773 229.536 62.5203 229.483 62.5848 229.44C62.6493 229.397 62.7246 229.376 62.7998 229.376H64.2401C64.3046 229.376 64.3799 229.397 64.4444 229.44C64.5088 229.483 64.5518 229.536 64.5841 229.6L67.5937 236.552C67.626 236.616 67.6152 236.68 67.583 236.744C67.54 236.808 67.4755 236.851 67.3573 236.851H65.5945C65.5192 236.851 65.444 236.829 65.3795 236.786C65.315 236.744 65.2613 236.69 65.229 236.626L64.9495 236.018C64.9173 235.954 64.8636 235.9 64.7991 235.857C64.7346 235.815 64.6701 235.793 64.5948 235.793H62.4236C62.3483 235.793 62.2731 235.815 62.2086 235.857C62.1441 235.9 62.1011 235.954 62.0689 236.018L61.7787 236.626C61.7464 236.69 61.7034 236.744 61.6389 236.786C61.5744 236.829 61.5099 236.851 61.4347 236.851H59.6612C59.6612 236.851 59.5859 236.851 59.5537 236.829C59.5214 236.808 59.4892 236.797 59.4569 236.765C59.4247 236.733 59.4139 236.701 59.4139 236.658C59.4139 236.616 59.4139 236.573 59.4462 236.52L62.4343 229.6H62.4451ZM63.047 234.053H63.9607C64.0252 234.053 64.0789 234.031 64.1111 233.989C64.1434 233.946 64.1434 233.893 64.1111 233.829C64.0467 233.658 63.9607 233.455 63.8639 233.231C63.7672 233.006 63.6812 232.793 63.5952 232.59C63.563 232.526 63.5415 232.494 63.4985 232.494C63.4555 232.494 63.434 232.526 63.4017 232.59L62.8858 233.829C62.8535 233.893 62.8535 233.946 62.8858 233.989C62.918 234.031 62.961 234.053 63.0363 234.053H63.047Z" fill="#B80B4B"/>
<path d="M81.2232 229.621V236.605C81.2232 236.669 81.2017 236.733 81.1479 236.776C81.1049 236.819 81.0405 236.851 80.976 236.851H79.4281C79.3637 236.851 79.2992 236.829 79.2562 236.776C79.2132 236.733 79.1809 236.669 79.1809 236.605V233.316C79.1809 233.252 79.1487 233.209 79.0842 233.199C79.0197 233.199 78.9659 233.22 78.9337 233.273L77.2032 236.05C77.1709 236.103 77.1172 236.135 77.0419 236.135C76.9667 236.135 76.9129 236.103 76.8699 236.05L75.1394 233.273C75.1071 233.22 75.0534 233.199 74.9997 233.199C74.9352 233.199 74.9029 233.241 74.9029 233.316V236.605C74.9029 236.669 74.8814 236.733 74.8277 236.776C74.7847 236.819 74.7202 236.851 74.6557 236.851H73.1079C73.0434 236.851 72.9789 236.829 72.9359 236.776C72.8929 236.733 72.8607 236.669 72.8607 236.605V229.621C72.8607 229.557 72.8822 229.493 72.9359 229.45C72.9896 229.408 73.0434 229.376 73.1079 229.376H74.5375C74.602 229.376 74.6772 229.397 74.7524 229.44C74.8277 229.483 74.8814 229.525 74.9137 229.579L76.8914 232.462C76.9344 232.515 76.9774 232.547 77.0312 232.547C77.0849 232.547 77.1279 232.515 77.1602 232.462L79.1379 229.579C79.1809 229.525 79.2347 229.472 79.3099 229.44C79.3851 229.397 79.4604 229.376 79.5249 229.376H80.9545C81.019 229.376 81.0834 229.397 81.1264 229.45C81.1694 229.504 81.2017 229.557 81.2017 229.621H81.2232Z" fill="#B80B4B"/>
<path d="M89.4245 231.501V231.928C89.4245 231.992 89.446 232.056 89.4997 232.099C89.5427 232.141 89.6072 232.173 89.6717 232.173H92.4664C92.5308 232.173 92.5953 232.195 92.6383 232.248C92.6813 232.302 92.7136 232.355 92.7136 232.419V233.829C92.7136 233.893 92.6921 233.957 92.6383 233.999C92.5953 234.042 92.5308 234.074 92.4664 234.074H89.6717C89.6072 234.074 89.5427 234.095 89.4997 234.149C89.4567 234.202 89.4245 234.256 89.4245 234.32V234.704C89.4245 234.768 89.446 234.832 89.4997 234.875C89.5535 234.918 89.6072 234.95 89.6717 234.95H92.8748C92.9393 234.95 93.0038 234.971 93.0468 235.024C93.0898 235.067 93.122 235.131 93.122 235.195V236.605C93.122 236.669 93.1005 236.733 93.0468 236.776C93.0038 236.818 92.9393 236.85 92.8748 236.85H87.6294C87.5649 236.85 87.5004 236.829 87.4574 236.776C87.4144 236.733 87.3822 236.669 87.3822 236.605V229.611C87.3822 229.547 87.4037 229.482 87.4574 229.44C87.5004 229.397 87.5649 229.365 87.6294 229.365H92.8748C92.9393 229.365 93.0038 229.386 93.0468 229.44C93.0898 229.482 93.122 229.547 93.122 229.611V230.999C93.122 231.063 93.1005 231.127 93.0468 231.17C93.0038 231.212 92.9393 231.244 92.8748 231.244H89.6717C89.6072 231.244 89.5427 231.266 89.4997 231.319C89.4567 231.362 89.4245 231.426 89.4245 231.49V231.501Z" fill="#B80B4B"/>
<path d="M99.8077 234.288C100.173 234.523 100.549 234.715 100.904 234.854C101.27 234.992 101.603 235.056 101.925 235.056C102.248 235.056 102.452 235.014 102.613 234.928C102.774 234.843 102.85 234.715 102.85 234.544C102.85 234.459 102.817 234.384 102.742 234.33C102.678 234.277 102.581 234.234 102.473 234.202C102.366 234.17 102.226 234.138 102.076 234.117C101.925 234.095 101.775 234.074 101.614 234.031C101.463 233.999 101.28 233.967 101.087 233.935C100.883 233.893 100.678 233.839 100.463 233.775C100.248 233.7 100.044 233.615 99.8292 233.508C99.6143 233.401 99.4315 233.263 99.2703 233.092C99.1091 232.921 98.9693 232.718 98.8726 232.483C98.7759 232.248 98.7221 231.97 98.7221 231.65C98.7221 231.18 98.8189 230.796 99.0016 230.486C99.1843 230.177 99.4208 229.931 99.711 229.76C100.001 229.579 100.313 229.45 100.668 229.386C101.022 229.312 101.356 229.28 101.689 229.28C102.269 229.28 102.785 229.365 103.237 229.525C103.688 229.696 104.129 229.931 104.548 230.262C104.602 230.305 104.634 230.369 104.645 230.433C104.645 230.497 104.645 230.561 104.591 230.614L103.785 231.746C103.742 231.8 103.688 231.832 103.624 231.853C103.559 231.864 103.495 231.853 103.441 231.81C103.086 231.597 102.764 231.437 102.463 231.34C102.162 231.244 101.882 231.202 101.624 231.202C101.549 231.202 101.463 231.202 101.356 231.202C101.259 231.202 101.162 231.223 101.076 231.244C100.99 231.266 100.915 231.308 100.85 231.362C100.797 231.415 100.764 231.49 100.764 231.586C100.764 231.682 100.84 231.768 100.979 231.842C101.119 231.917 101.291 231.981 101.474 232.035C101.657 232.088 101.839 232.131 102.011 232.163C102.183 232.195 102.291 232.216 102.344 232.216C102.592 232.259 102.86 232.334 103.161 232.43C103.452 232.526 103.731 232.654 103.989 232.835C104.247 233.017 104.462 233.252 104.634 233.54C104.806 233.828 104.892 234.192 104.892 234.629C104.892 235.035 104.817 235.388 104.677 235.687C104.537 235.985 104.333 236.231 104.075 236.413C103.817 236.605 103.505 236.744 103.151 236.84C102.796 236.936 102.387 236.979 101.947 236.979C101.592 236.979 101.259 236.947 100.947 236.893C100.635 236.84 100.345 236.754 100.087 236.648C99.8292 236.541 99.5713 236.423 99.3455 236.284C99.1198 236.146 98.9048 235.996 98.7114 235.836C98.6576 235.793 98.6254 235.74 98.6146 235.665C98.6146 235.59 98.6146 235.526 98.6684 235.473L99.4638 234.341C99.5068 234.288 99.5605 234.256 99.625 234.234C99.6895 234.213 99.754 234.234 99.8077 234.266V234.288Z" fill="#B80B4B"/>
<path d="M26.2471 220.598C22.5925 220.598 19.8193 218.719 17.9168 214.949L22.1626 212.429C23.4094 214.747 24.8175 215.91 26.3868 215.91C27.2145 215.91 27.9346 215.676 28.5581 215.195C29.117 214.682 29.3965 214.117 29.3965 213.508C29.3965 212.899 29.203 212.312 28.8053 211.714C28.5473 211.426 28.1819 211.063 27.6982 210.625C27.2145 210.187 26.6125 209.674 25.8924 209.066C24.5058 207.923 23.3664 206.909 22.4528 206.033C21.5391 205.157 20.8835 204.41 20.4643 203.791C19.5721 202.531 19.1314 201.292 19.1314 200.085C19.1314 198.27 19.8193 196.711 21.1844 195.419C22.6033 194.137 24.2908 193.486 26.2471 193.486C27.5907 193.486 28.8375 193.806 29.9984 194.447C30.5896 194.735 31.213 195.152 31.8472 195.696C32.4814 196.241 33.1585 196.903 33.868 197.683L30.1166 200.918C28.859 199.167 27.5692 198.291 26.2578 198.291C25.5269 198.291 25.0002 198.451 24.6993 198.761C24.2908 199.071 24.0866 199.477 24.0866 199.968C24.0866 200.342 24.2048 200.737 24.452 201.142C24.6885 201.399 25.1185 201.783 25.7204 202.328C26.3223 202.872 27.1177 203.556 28.0959 204.399C29.2352 205.339 30.1059 206.097 30.7078 206.652C31.1055 207.005 31.3957 207.261 31.5785 207.411C33.352 209.108 34.2442 211.063 34.2442 213.273C34.2442 215.483 33.5132 217.203 32.0514 218.569C30.6003 219.926 28.6763 220.609 26.2686 220.609L26.2471 220.598Z" fill="white"/>
<path d="M66.3077 220.598H60.2776C58.7943 218.708 57.3217 216.818 55.8599 214.949C54.3981 213.081 52.9362 211.18 51.4637 209.279H57.397L59.7187 212.28C60.7613 210.785 61.2773 209.055 61.2773 207.101C61.2773 204.709 60.4281 202.616 58.7513 200.843C57.0853 199.156 55.1075 198.313 52.7965 198.313C50.3458 198.313 48.325 199.156 46.745 200.843C45.1219 202.467 44.305 204.559 44.305 207.101C44.305 209.984 45.3154 212.269 47.3361 213.967C48.8087 215.152 50.464 215.804 52.3021 215.91L55.8384 220.353C55.3655 220.438 54.8818 220.502 54.3766 220.545C53.8714 220.588 53.3447 220.598 52.7965 220.598C48.9162 220.598 45.6808 219.274 43.0904 216.626C40.4999 213.903 39.2101 210.732 39.2101 207.101C39.2101 204.57 39.8228 202.274 41.0374 200.213C42.2842 198.131 43.9395 196.487 46.0033 195.28C48.0671 194.084 50.335 193.486 52.7965 193.486C56.5801 193.486 59.7295 194.81 62.2554 197.458C64.9211 200.117 66.2539 203.331 66.2539 207.101C66.2539 210.614 65.1253 213.668 62.8681 216.252L66.3184 220.598H66.3077Z" fill="white"/>
<path d="M86.8808 193.486H91.965V210.667C91.965 212.045 91.6963 213.326 91.1803 214.533C90.6536 215.74 89.9335 216.786 89.0306 217.683C88.1277 218.58 87.0635 219.285 85.8489 219.808C84.6343 220.331 83.3445 220.598 81.9579 220.598C80.5713 220.598 79.2814 220.331 78.0668 219.808C76.8522 219.285 75.7988 218.58 74.8959 217.683C73.9931 216.786 73.2836 215.74 72.7569 214.533C72.2303 213.326 71.9723 212.045 71.9723 210.667V193.486H77.0564V210.785C77.0564 211.468 77.1854 212.098 77.4434 212.696C77.7014 213.294 78.0561 213.807 78.4968 214.245C78.9375 214.682 79.4642 215.035 80.0554 215.28C80.6465 215.526 81.2915 215.654 81.9579 215.654C82.6243 215.654 83.28 215.526 83.8819 215.28C84.4731 215.024 84.9998 214.682 85.4405 214.245C85.8812 213.807 86.2359 213.284 86.4939 212.696C86.7518 212.109 86.8808 211.468 86.8808 210.785V193.486Z" fill="white"/>
<path d="M97.9198 193.486H103.004V220.598H97.9198V193.486Z" fill="white"/>
<path d="M134.143 220.598H128.285L122.04 211.105L115.644 220.598H109.786L118.977 206.642L110.302 193.486H116.16L124.974 206.642C126.673 209.237 128.038 211.329 129.08 212.899C130.123 214.469 130.832 215.558 131.219 216.145L134.154 220.588L134.143 220.598ZM127.124 203.353L124.082 198.932L127.769 193.486H133.649L127.124 203.353Z" fill="white"/>
<defs>
<linearGradient id="paint0_linear_627_2918" x1="65.6588" y1="137.116" x2="18.055" y2="13.6547" gradientUnits="userSpaceOnUse">
<stop stop-color="#8A2F25"/>
<stop offset="1" stop-color="#A3610C"/>
</linearGradient>
<linearGradient id="paint1_linear_627_2918" x1="131.894" y1="135.312" x2="104.267" y2="133.843" gradientUnits="userSpaceOnUse">
<stop stop-color="#007CF7"/>
<stop offset="1" stop-color="#19003D"/>
</linearGradient>
<linearGradient id="paint2_linear_627_2918" x1="19.8274" y1="132.037" x2="51.6596" y2="134.792" gradientUnits="userSpaceOnUse">
<stop offset="0.03" stop-color="#00D6F7"/>
<stop offset="0.47" stop-color="#007CF7"/>
<stop offset="1" stop-color="#19003D"/>
</linearGradient>
<linearGradient id="paint3_linear_627_2918" x1="69.4053" y1="106.212" x2="33.2152" y2="72.4024" gradientUnits="userSpaceOnUse">
<stop stop-color="#D97B00"/>
<stop offset="0.57" stop-color="#F5C743"/>
<stop offset="1" stop-color="#F5EAC9"/>
</linearGradient>
<linearGradient id="paint4_linear_627_2918" x1="66.216" y1="103.825" x2="42.939" y2="80.6444" gradientUnits="userSpaceOnUse">
<stop stop-color="#F7004A"/>
<stop offset="1" stop-color="#8A003D"/>
</linearGradient>
<linearGradient id="paint5_linear_627_2918" x1="64.314" y1="172.297" x2="59.0831" y2="147.519" gradientUnits="userSpaceOnUse">
<stop stop-color="#B00035"/>
<stop offset="1" stop-color="#2E1736"/>
</linearGradient>
<linearGradient id="paint6_linear_627_2918" x1="2.40157" y1="42.7712" x2="20.979" y2="106.36" gradientUnits="userSpaceOnUse">
<stop stop-color="#F74D80"/>
<stop offset="0.19" stop-color="#F7004A"/>
<stop offset="0.56" stop-color="#4F003C"/>
<stop offset="1"/>
</linearGradient>
<linearGradient id="paint7_linear_627_2918" x1="5.10093" y1="97.9442" x2="36.2049" y2="96.2817" gradientUnits="userSpaceOnUse">
<stop stop-color="#AD004B"/>
<stop offset="0.57" stop-color="#360017"/>
<stop offset="0.91" stop-color="#120014"/>
</linearGradient>
<linearGradient id="paint8_linear_627_2918" x1="38.4059" y1="114.308" x2="57.0053" y2="132.715" gradientUnits="userSpaceOnUse">
<stop stop-color="#B00035"/>
<stop offset="1" stop-color="#2E1736"/>
</linearGradient>
<linearGradient id="paint9_linear_627_2918" x1="37.2531" y1="76.3199" x2="34.862" y2="8.66776" gradientUnits="userSpaceOnUse">
<stop stop-color="#D97B00"/>
<stop offset="0.57" stop-color="#F5C743"/>
<stop offset="1" stop-color="#F5EAC9"/>
</linearGradient>
<linearGradient id="paint10_linear_627_2918" x1="68.9346" y1="103.023" x2="79.631" y2="97.941" gradientUnits="userSpaceOnUse">
<stop stop-color="#B00035"/>
<stop offset="1" stop-color="#A3610C"/>
</linearGradient>
<linearGradient id="paint11_linear_627_2918" x1="38.1753" y1="71.5463" x2="68.1661" y2="71.5463" gradientUnits="userSpaceOnUse">
<stop stop-color="#8A2F25"/>
<stop offset="1" stop-color="#A3610C"/>
</linearGradient>
<linearGradient id="paint12_linear_627_2918" x1="47.3589" y1="60.634" x2="58.9423" y2="57.2157" gradientUnits="userSpaceOnUse">
<stop stop-color="#38130F"/>
<stop offset="0.49" stop-color="#8A2F25"/>
<stop offset="1" stop-color="#A3610C"/>
</linearGradient>
<linearGradient id="paint13_linear_627_2918" x1="50.9036" y1="60.3094" x2="110.089" y2="46.5443" gradientUnits="userSpaceOnUse">
<stop stop-color="#38130F"/>
<stop offset="0.21" stop-color="#8A2F25"/>
<stop offset="1" stop-color="#A3610C"/>
</linearGradient>
<linearGradient id="paint14_linear_627_2918" x1="59.3763" y1="59.2401" x2="80.1669" y2="45.9489" gradientUnits="userSpaceOnUse">
<stop stop-color="#38130F"/>
<stop offset="0.21" stop-color="#8A2F25"/>
<stop offset="1" stop-color="#A3610C"/>
</linearGradient>
<linearGradient id="paint15_linear_627_2918" x1="60.3178" y1="139.99" x2="89.5545" y2="149.374" gradientUnits="userSpaceOnUse">
<stop stop-color="#5C0029"/>
<stop offset="1" stop-color="#A3610C"/>
</linearGradient>
<linearGradient id="paint16_linear_627_2918" x1="68.512" y1="164.278" x2="83.2085" y2="165.389" gradientUnits="userSpaceOnUse">
<stop stop-color="#5C0029"/>
<stop offset="1" stop-color="#A3610C"/>
</linearGradient>
<linearGradient id="paint17_linear_627_2918" x1="65.5148" y1="145.384" x2="81.7769" y2="171.595" gradientUnits="userSpaceOnUse">
<stop stop-color="#5C0029"/>
<stop offset="1" stop-color="#A3610C"/>
</linearGradient>
<linearGradient id="paint18_linear_627_2918" x1="79.2517" y1="133.632" x2="139.085" y2="15.292" gradientUnits="userSpaceOnUse">
<stop stop-color="#D97B00"/>
<stop offset="0.57" stop-color="#F5C743"/>
<stop offset="1" stop-color="#F5EAC9"/>
</linearGradient>
<linearGradient id="paint19_linear_627_2918" x1="91.9224" y1="108.055" x2="103.498" y2="108.055" gradientUnits="userSpaceOnUse">
<stop stop-color="#FFA3BF"/>
<stop offset="0.3" stop-color="#FF004D"/>
<stop offset="0.33" stop-color="#F40452"/>
<stop offset="0.39" stop-color="#D6115F"/>
<stop offset="0.47" stop-color="#A72675"/>
<stop offset="0.53" stop-color="#803888"/>
<stop offset="0.89" stop-color="#260022"/>
</linearGradient>
<linearGradient id="paint20_linear_627_2918" x1="59.0978" y1="115.101" x2="47.4338" y2="102.971" gradientUnits="userSpaceOnUse">
<stop stop-color="#FFA3BF"/>
<stop offset="0.3" stop-color="#FF004D"/>
<stop offset="0.33" stop-color="#F40452"/>
<stop offset="0.39" stop-color="#D6115F"/>
<stop offset="0.47" stop-color="#A72675"/>
<stop offset="0.53" stop-color="#803888"/>
<stop offset="0.89" stop-color="#260022"/>
</linearGradient>
<linearGradient id="paint21_linear_627_2918" x1="114.555" y1="79.7378" x2="87.5198" y2="101.573" gradientUnits="userSpaceOnUse">
<stop stop-color="#D97B00"/>
<stop offset="0.57" stop-color="#F5C743"/>
<stop offset="1" stop-color="#F5EAC9"/>
</linearGradient>
<linearGradient id="paint22_linear_627_2918" x1="116.716" y1="58.5051" x2="99.821" y2="104.638" gradientUnits="userSpaceOnUse">
<stop stop-color="#F7004A"/>
<stop offset="1" stop-color="#8A003D"/>
</linearGradient>
<linearGradient id="paint23_linear_627_2918" x1="85.0635" y1="173.739" x2="97.668" y2="132.509" gradientUnits="userSpaceOnUse">
<stop stop-color="#FF00FF"/>
<stop offset="0.14" stop-color="#F404F5"/>
<stop offset="0.39" stop-color="#D611DD"/>
<stop offset="0.71" stop-color="#A726B5"/>
<stop offset="1" stop-color="#773C8C"/>
</linearGradient>
<linearGradient id="paint24_linear_627_2918" x1="152.221" y1="33.7777" x2="128.097" y2="116.537" gradientUnits="userSpaceOnUse">
<stop stop-color="#F74D80"/>
<stop offset="0.19" stop-color="#F7004A"/>
<stop offset="0.56" stop-color="#4F003C"/>
<stop offset="1"/>
</linearGradient>
<linearGradient id="paint25_linear_627_2918" x1="152.865" y1="104.35" x2="113.503" y2="93.5629" gradientUnits="userSpaceOnUse">
<stop stop-color="#F7004A"/>
<stop offset="0.78" stop-color="#733681"/>
<stop offset="1" stop-color="#2B1320"/>
</linearGradient>
<linearGradient id="paint26_linear_627_2918" x1="119.377" y1="111.014" x2="95.7267" y2="130.165" gradientUnits="userSpaceOnUse">
<stop stop-color="#B75BD6"/>
<stop offset="1" stop-color="#4E275C"/>
</linearGradient>
<linearGradient id="paint27_linear_627_2918" x1="107.321" y1="74.3055" x2="126.45" y2="8.86266" gradientUnits="userSpaceOnUse">
<stop stop-color="#DE4C3B"/>
<stop offset="1" stop-color="#FF9813"/>
</linearGradient>
<linearGradient id="paint28_linear_627_2918" x1="65.2938" y1="125.268" x2="97.027" y2="73.834" gradientUnits="userSpaceOnUse">
<stop stop-color="#C21D4E"/>
<stop offset="0.57" stop-color="#F5C743"/>
<stop offset="1" stop-color="#F5EAC9"/>
</linearGradient>
<linearGradient id="paint29_linear_627_2918" x1="75.0346" y1="92.4641" x2="118.533" y2="50.5894" gradientUnits="userSpaceOnUse">
<stop stop-color="#8A2F25"/>
<stop offset="1" stop-color="#A3610C"/>
</linearGradient>
<linearGradient id="paint30_linear_627_2918" x1="74.804" y1="85.1511" x2="94.7273" y2="36.5362" gradientUnits="userSpaceOnUse">
<stop stop-color="#D97B00"/>
<stop offset="0.57" stop-color="#F5C743"/>
<stop offset="1" stop-color="#F5EAC9"/>
</linearGradient>
<linearGradient id="paint31_linear_627_2918" x1="82.5082" y1="101.4" x2="81.863" y2="51.5068" gradientUnits="userSpaceOnUse">
<stop stop-color="#D97B00"/>
<stop offset="0.57" stop-color="#F5C743"/>
<stop offset="1" stop-color="#F5EAC9"/>
</linearGradient>
<linearGradient id="paint32_linear_627_2918" x1="61.5473" y1="155.179" x2="98.0542" y2="130.492" gradientUnits="userSpaceOnUse">
<stop stop-color="#D97B00"/>
<stop offset="0.57" stop-color="#F5C743"/>
<stop offset="1" stop-color="#F5EAC9"/>
</linearGradient>
<linearGradient id="paint33_linear_627_2918" x1="75.9952" y1="164.526" x2="84.3718" y2="164.526" gradientUnits="userSpaceOnUse">
<stop stop-color="#D97B00"/>
<stop offset="0.57" stop-color="#F5C743"/>
<stop offset="1" stop-color="#F5EAC9"/>
</linearGradient>
<linearGradient id="paint34_linear_627_2918" x1="79.463" y1="155.705" x2="97.9506" y2="134.569" gradientUnits="userSpaceOnUse">
<stop stop-color="#D97B00"/>
<stop offset="0.57" stop-color="#F5C743"/>
<stop offset="1" stop-color="#F5EAC9"/>
</linearGradient>
<linearGradient id="paint35_linear_627_2918" x1="26.9744" y1="81.5994" x2="38.0052" y2="113.367" gradientUnits="userSpaceOnUse">
<stop stop-color="#38130F"/>
<stop offset="1" stop-color="#6B0020"/>
</linearGradient>
<linearGradient id="paint36_linear_627_2918" x1="125.016" y1="81.5994" x2="113.985" y2="113.367" gradientUnits="userSpaceOnUse">
<stop stop-color="#38130F"/>
<stop offset="1" stop-color="#6B0020"/>
</linearGradient>
<linearGradient id="paint37_linear_627_2918" x1="11.0761" y1="132.734" x2="30.2683" y2="126.844" gradientUnits="userSpaceOnUse">
<stop stop-color="#007CF7"/>
<stop offset="1" stop-color="#19003D"/>
</linearGradient>
<linearGradient id="paint38_linear_627_2918" x1="129.3" y1="135.13" x2="113.626" y2="123.247" gradientUnits="userSpaceOnUse">
<stop offset="0.03" stop-color="#00D6F7"/>
<stop offset="0.47" stop-color="#007CF7"/>
<stop offset="1" stop-color="#19003D"/>
</linearGradient>
<linearGradient id="paint39_linear_627_2918" x1="30.6824" y1="39.3534" x2="17.8796" y2="65.1176" gradientUnits="userSpaceOnUse">
<stop stop-color="#007CF7"/>
<stop offset="1" stop-color="#19003D"/>
</linearGradient>
<linearGradient id="paint40_linear_627_2918" x1="17.7428" y1="55.8796" x2="24.3398" y2="59.8584" gradientUnits="userSpaceOnUse">
<stop offset="0.03" stop-color="#00D6F7"/>
<stop offset="0.47" stop-color="#007CF7"/>
<stop offset="1" stop-color="#19003D"/>
</linearGradient>
<linearGradient id="paint41_linear_627_2918" x1="127.735" y1="51.3447" x2="133.8" y2="65.1012" gradientUnits="userSpaceOnUse">
<stop offset="0.03" stop-color="#00D6F7"/>
<stop offset="0.47" stop-color="#007CF7"/>
<stop offset="1" stop-color="#19003D"/>
</linearGradient>
<linearGradient id="paint42_linear_627_2918" x1="147.235" y1="54.9535" x2="123.546" y2="59.3689" gradientUnits="userSpaceOnUse">
<stop offset="0.03" stop-color="#00D6F7"/>
<stop offset="0.47" stop-color="#007CF7"/>
<stop offset="1" stop-color="#19003D"/>
</linearGradient>
</defs>
</svg>
