<svg width="24" height="32" viewBox="0 0 24 32" fill="none" xmlns="http://www.w3.org/2000/svg">
<path fill-rule="evenodd" clip-rule="evenodd" d="M4.04983 0.408203H14.4504L23.2652 9.59615V27.4668C23.2652 29.7055 21.4541 31.5166 19.2231 31.5166H4.04983C1.81115 31.5166 6.39796e-10 29.7055 6.39796e-10 27.4668V4.45803C-3.93047e-05 2.21936 1.81111 0.408203 4.04983 0.408203Z" fill="#E5252A"/>
<path fill-rule="evenodd" clip-rule="evenodd" d="M14.4426 0.408203V9.52619H23.2652L14.4426 0.408203Z" fill="white"/>
<path d="M4.50066 23.619V17.9368H6.91814C7.51668 17.9368 7.99086 18.1 8.34842 18.4343C8.70598 18.7607 8.88478 19.2038 8.88478 19.7557C8.88478 20.3076 8.70598 20.7507 8.34842 21.0772C7.99086 21.4114 7.51668 21.5747 6.91814 21.5747H5.95425V23.619H4.50066ZM5.95425 20.3387H6.7549C6.97254 20.3387 7.14355 20.2921 7.26017 20.1833C7.37675 20.0822 7.43897 19.9423 7.43897 19.7558C7.43897 19.5692 7.37679 19.4293 7.26017 19.3282C7.14359 19.2194 6.97258 19.1728 6.7549 19.1728H5.95425V20.3387ZM9.48329 23.619V17.9368H11.4965C11.893 17.9368 12.2661 17.9912 12.6159 18.1078C12.9657 18.2244 13.2844 18.3877 13.5642 18.6131C13.8441 18.8307 14.0695 19.1261 14.2327 19.4992C14.3882 19.8723 14.4737 20.2999 14.4737 20.7818C14.4737 21.256 14.3882 21.6835 14.2327 22.0566C14.0695 22.4297 13.8441 22.7251 13.5642 22.9427C13.2844 23.1681 12.9657 23.3314 12.6159 23.448C12.2661 23.5646 11.893 23.619 11.4965 23.619H9.48329ZM10.9058 22.3831H11.3255C11.5509 22.3831 11.7608 22.3598 11.9552 22.3053C12.1417 22.251 12.3205 22.1654 12.4915 22.0488C12.6548 21.9323 12.7869 21.769 12.8802 21.5514C12.9734 21.3337 13.0201 21.0772 13.0201 20.7818C13.0201 20.4786 12.9734 20.2221 12.8802 20.0045C12.7869 19.7869 12.6548 19.6236 12.4915 19.507C12.3205 19.3904 12.1417 19.3049 11.9552 19.2505C11.7608 19.1961 11.5509 19.1728 11.3255 19.1728H10.9058V22.3831ZM15.2044 23.619V17.9368H19.2465V19.1728H16.658V20.0822H18.7256V21.3104H16.658V23.619H15.2044Z" fill="white"/>
</svg>
