<svg width="31" height="30" viewBox="0 0 31 30" fill="none" xmlns="http://www.w3.org/2000/svg">
<g clip-path="url(#clip0_896_6041)">
<path d="M24.3294 0H11.7539V30H24.3294C27.9537 30 30.8919 27.0619 30.8919 23.4375V6.5625C30.8919 2.93813 27.9537 0 24.3294 0Z" fill="#FF4B55"/>
<path d="M7.45434 0C3.82997 0 0.891846 2.93813 0.891846 6.5625V23.4375C0.891846 27.0619 3.82997 30 7.45434 30H11.7539V0H7.45434Z" fill="#73AF00"/>
<path d="M11.7581 21.5846C15.3948 21.5846 18.3429 18.6365 18.3429 14.9998C18.3429 11.3631 15.3948 8.41504 11.7581 8.41504C8.12144 8.41504 5.17334 11.3631 5.17334 14.9998C5.17334 18.6365 8.12144 21.5846 11.7581 21.5846Z" fill="#FFE15A"/>
<path d="M13.9548 12.8034V15.7325C13.9548 16.9438 12.9693 17.9293 11.758 17.9293C10.5467 17.9293 9.56117 16.9438 9.56117 15.7325V12.8034H13.9548ZM14.687 11.3389H8.8288C8.42439 11.3389 8.09656 11.6667 8.09656 12.0711V15.7325C8.09656 17.7546 9.73584 19.3938 11.7579 19.3938C13.78 19.3938 15.4193 17.7545 15.4193 15.7325V12.0711C15.4193 11.6667 15.0914 11.3389 14.687 11.3389Z" fill="#FF4B55"/>
<path d="M13.3097 13.4482V15.5172C13.3097 16.3728 12.6136 17.0689 11.7579 17.0689C10.9023 17.0689 10.2062 16.3728 10.2062 15.5172V13.4482H13.3097Z" fill="#F5F5F5"/>
<path d="M8.82306 12.4369C9.02528 12.4369 9.18921 12.273 9.18921 12.0707C9.18921 11.8685 9.02528 11.7046 8.82306 11.7046C8.62084 11.7046 8.45691 11.8685 8.45691 12.0707C8.45691 12.273 8.62084 12.4369 8.82306 12.4369Z" fill="#FFE15A"/>
<path d="M14.6812 12.4369C14.8834 12.4369 15.0474 12.273 15.0474 12.0707C15.0474 11.8685 14.8834 11.7046 14.6812 11.7046C14.479 11.7046 14.3151 11.8685 14.3151 12.0707C14.3151 12.273 14.479 12.4369 14.6812 12.4369Z" fill="#FFE15A"/>
<path d="M8.82306 15.3661C9.02528 15.3661 9.18921 15.2022 9.18921 14.9999C9.18921 14.7977 9.02528 14.6338 8.82306 14.6338C8.62084 14.6338 8.45691 14.7977 8.45691 14.9999C8.45691 15.2022 8.62084 15.3661 8.82306 15.3661Z" fill="#FFE15A"/>
<path d="M14.6812 15.3661C14.8834 15.3661 15.0474 15.2022 15.0474 14.9999C15.0474 14.7977 14.8834 14.6338 14.6812 14.6338C14.479 14.6338 14.3151 14.7977 14.3151 14.9999C14.3151 15.2022 14.479 15.3661 14.6812 15.3661Z" fill="#FFE15A"/>
<path d="M11.7521 12.4369C11.9544 12.4369 12.1183 12.273 12.1183 12.0707C12.1183 11.8685 11.9544 11.7046 11.7521 11.7046C11.5499 11.7046 11.386 11.8685 11.386 12.0707C11.386 12.273 11.5499 12.4369 11.7521 12.4369Z" fill="#FFE15A"/>
<path d="M13.9506 18.0658C14.1528 18.0658 14.3168 17.9019 14.3168 17.6996C14.3168 17.4974 14.1528 17.3335 13.9506 17.3335C13.7484 17.3335 13.5845 17.4974 13.5845 17.6996C13.5845 17.9019 13.7484 18.0658 13.9506 18.0658Z" fill="#FFE15A"/>
<path d="M9.59711 18.0658C9.79933 18.0658 9.96326 17.9019 9.96326 17.6996C9.96326 17.4974 9.79933 17.3335 9.59711 17.3335C9.39489 17.3335 9.23096 17.4974 9.23096 17.6996C9.23096 17.9019 9.39489 18.0658 9.59711 18.0658Z" fill="#FFE15A"/>
<path d="M12.231 14.8145V15.445C12.231 15.7058 12.0188 15.9179 11.7581 15.9179C11.4973 15.9179 11.2852 15.7058 11.2852 15.445V14.8145H12.231Z" fill="#41479B"/>
<path d="M12.231 13.3193V13.9499C12.231 14.2107 12.0188 14.4228 11.7581 14.4228C11.4973 14.4228 11.2852 14.2107 11.2852 13.9499V13.3193H12.231Z" fill="#41479B"/>
<path d="M12.231 16.3247V16.9553C12.231 17.2161 12.0188 17.4282 11.7581 17.4282C11.4973 17.4282 11.2852 17.216 11.2852 16.9553V16.3247H12.231Z" fill="#41479B"/>
<path d="M13.5048 14.8145V15.445C13.5048 15.7058 13.2926 15.9179 13.0319 15.9179C12.7711 15.9179 12.559 15.7058 12.559 15.445V14.8145H13.5048Z" fill="#41479B"/>
<path d="M10.9571 14.8145V15.445C10.9571 15.7058 10.7449 15.9179 10.4841 15.9179C10.2234 15.9179 10.0112 15.7058 10.0112 15.445V14.8145H10.9571Z" fill="#41479B"/>
</g>
<defs>
<clipPath id="clip0_896_6041">
<rect width="30" height="30" fill="white" transform="translate(0.891846)"/>
</clipPath>
</defs>
</svg>
