<svg width="82" height="60" viewBox="0 0 82 60" fill="none" xmlns="http://www.w3.org/2000/svg">
<g id="Vector" opacity="0.5">
<path d="M33.0785 0.756592H2.38775C1.06889 0.756592 0 1.82548 0 3.14434V33.835C0 35.1539 1.06889 36.2228 2.38775 36.2228H15.345V56.8532C15.345 58.1715 16.4139 59.241 17.7328 59.241H25.4059C26.4338 59.241 27.346 58.5831 27.6706 57.6081L35.3431 34.5899C35.4245 34.3468 35.4662 34.0919 35.4662 33.835V3.14434C35.4662 1.82548 34.3973 0.756592 33.0785 0.756592Z" fill="#FFA801"/>
<path d="M79.1142 0.756592H48.4235C47.1046 0.756592 46.0357 1.82548 46.0357 3.14434V33.835C46.0357 35.1539 47.1046 36.2228 48.4235 36.2228H61.3814V56.8532C61.3814 58.1715 62.4503 59.241 63.7692 59.241H71.4417C72.4695 59.241 73.3817 58.5831 73.7069 57.6081L81.3795 34.5899C81.4603 34.3468 81.502 34.0919 81.502 33.835V3.14434C81.502 1.82548 80.4331 0.756592 79.1142 0.756592Z" fill="#FFA801"/>
</g>
</svg>
