<svg width="17" height="27" viewBox="0 0 17 27" fill="none" xmlns="http://www.w3.org/2000/svg">
<g id="Group 135">
<path id="Rectangle 102 (Stroke)" fill-rule="evenodd" clip-rule="evenodd" d="M2.21277 2.96289L7.15681 2.96289C7.84485 2.96289 8.48458 3.31655 8.8505 3.89921L14.2142 12.4398C14.6227 13.0901 14.6227 13.9169 14.2142 14.5672L8.8505 23.1078C8.48458 23.6905 7.84485 24.0441 7.15681 24.0441L2.21277 24.0441L2.21277 26.0441L7.15681 26.0441C8.53288 26.0441 9.81234 25.3368 10.5442 24.1715L15.9079 15.6309C16.7248 14.3302 16.7248 12.6768 15.9079 11.3762L10.5442 2.83553C9.81234 1.67022 8.53288 0.962892 7.15681 0.962891L2.21277 0.962891L2.21277 2.96289Z" fill="#FFA801"/>
<path id="Rectangle 102 (Stroke)_2" fill-rule="evenodd" clip-rule="evenodd" d="M0.260254 2.96289L3.2043 2.96289C3.89233 2.96289 4.53206 3.31655 4.89799 3.89921L10.2617 12.4398C10.6701 13.0901 10.6701 13.9169 10.2617 14.5672L4.89799 23.1078C4.53206 23.6905 3.89233 24.0441 3.2043 24.0441L0.260255 24.0441L0.260255 26.0441L3.2043 26.0441C4.58037 26.0441 5.85983 25.3368 6.59168 24.1715L11.9554 15.6309C12.7722 14.3302 12.7722 12.6768 11.9554 11.3762L6.59168 2.83553C5.85983 1.67022 4.58037 0.962892 3.2043 0.962891L0.260254 0.962891L0.260254 2.96289Z" fill="#FFA801"/>
</g>
</svg>
