<svg width="31" height="30" viewBox="0 0 31 30" fill="none" xmlns="http://www.w3.org/2000/svg">
<g clip-path="url(#clip0_896_6038)">
<path d="M24.3293 0H7.45435C3.82997 0 0.891846 2.93813 0.891846 6.5625V23.4375C0.891846 27.0619 3.82997 30 7.45435 30H24.3293C27.9537 30 30.8918 27.0619 30.8918 23.4375V6.5625C30.8918 2.93813 27.9537 0 24.3293 0Z" fill="#F5F5F5"/>
<path d="M18.7634 10.6953C16.3867 9.11082 13.1765 9.75869 11.5931 12.1313C10.7988 13.3155 11.1216 14.9247 12.3099 15.7169C13.4973 16.5092 15.1014 16.1874 15.8936 14.999C16.6858 13.8107 18.2909 13.4929 19.4783 14.2811C20.6676 15.0733 20.9874 16.6825 20.1941 17.8667C21.7786 15.49 21.1381 12.2798 18.7634 10.6953Z" fill="#FF4B55"/>
<path d="M11.593 12.1313C10.7988 13.3156 11.1216 14.9247 12.3099 15.717C13.4973 16.5092 15.1013 16.1875 15.8936 14.9991C16.6858 13.8108 18.2909 13.493 19.4783 14.2812C20.6675 15.0734 20.9874 16.6826 20.1941 17.8668C18.6118 20.2476 15.4025 20.8872 13.0259 19.3028C10.6512 17.7183 10.0086 14.5081 11.593 12.1313Z" fill="#41479B"/>
<path d="M21.395 8.74184L22.3346 10.154C22.4135 10.2727 22.3816 10.4329 22.2632 10.5121L22.0249 10.6717C21.906 10.7513 21.7451 10.7193 21.6658 10.6002L20.7251 9.18833C20.6459 9.06956 20.678 8.90907 20.7967 8.82985L21.0361 8.67001C21.155 8.59061 21.3158 8.62284 21.395 8.74184Z" fill="#464655"/>
<path d="M22.8446 10.9192L23.7872 12.3305C23.8668 12.4497 23.8343 12.6109 23.7147 12.69L23.4755 12.8481C23.3568 12.9266 23.1969 12.8943 23.1179 12.776L22.1758 11.3662C22.0965 11.2474 22.1284 11.0869 22.2471 11.0075L22.4858 10.8479C22.6046 10.7684 22.7653 10.8004 22.8446 10.9192Z" fill="#464655"/>
<path d="M22.4009 8.07029L24.7932 11.6606C24.8724 11.7794 24.8402 11.9399 24.7214 12.0192L24.481 12.1794C24.3622 12.2586 24.2016 12.2265 24.1224 12.1077L21.7293 8.51772C21.65 8.39883 21.6822 8.23817 21.8011 8.15901L22.0423 7.99852C22.1612 7.9193 22.3217 7.95147 22.4009 8.07029Z" fill="#464655"/>
<path d="M23.4042 7.40001L24.3458 8.81499C24.4251 8.93417 24.3925 9.09507 24.2731 9.17405L24.0336 9.33231C23.9148 9.41083 23.7549 9.37854 23.6759 9.26001L22.7336 7.8469C22.6543 7.72807 22.6864 7.56747 22.8053 7.48825L23.0455 7.32817C23.1643 7.24883 23.325 7.28106 23.4042 7.40001Z" fill="#464655"/>
<path d="M24.8548 9.58212L25.795 10.9942C25.874 11.1129 25.842 11.2732 25.7234 11.3525L25.4847 11.5121C25.3658 11.5917 25.2049 11.5595 25.1257 11.4405L24.1855 10.0284C24.1064 9.90972 24.1384 9.74941 24.257 9.67013L24.4958 9.51046C24.6147 9.43095 24.7755 9.46306 24.8548 9.58212Z" fill="#464655"/>
<path d="M8.66834 17.2255L11.0604 20.8119C11.1396 20.9307 11.1076 21.0912 10.9888 21.1705L10.7492 21.3305C10.6304 21.4098 10.4697 21.3777 10.3905 21.2589L7.99844 17.6725C7.91922 17.5537 7.95127 17.3931 8.06998 17.3139L8.30957 17.1539C8.42846 17.0746 8.58906 17.1067 8.66834 17.2255Z" fill="#464655"/>
<path d="M7.66422 17.8965L8.6033 19.3051C8.6824 19.4238 8.65053 19.5841 8.53199 19.6635L8.29375 19.823C8.17498 19.9025 8.0142 19.8705 7.93481 19.7516L6.99449 18.3433C6.91516 18.2246 6.94721 18.064 7.06598 17.9846L7.30539 17.8248C7.42428 17.7455 7.58494 17.7776 7.66422 17.8965Z" fill="#464655"/>
<path d="M9.11556 20.0748L10.0558 21.487C10.1349 21.6057 10.1029 21.766 9.98427 21.8453L9.74532 22.005C9.62644 22.0844 9.46565 22.0524 9.38638 21.9334L8.44554 20.5214C8.36638 20.4027 8.39843 20.2422 8.51714 20.163L8.75667 20.003C8.87556 19.9237 9.03634 19.9558 9.11556 20.0748Z" fill="#464655"/>
<path d="M6.65996 18.5669L9.05047 22.1534C9.12963 22.2722 9.09764 22.4326 8.97899 22.5119L8.7401 22.6715C8.62127 22.751 8.46055 22.7189 8.38121 22.6001L5.9893 19.0139C5.91002 18.8951 5.94213 18.7345 6.06102 18.6552L6.30131 18.495C6.42014 18.4159 6.58074 18.448 6.65996 18.5669Z" fill="#464655"/>
<path d="M7.99889 12.3305L10.3906 8.74122C10.4699 8.62227 10.6305 8.59017 10.7494 8.66956L10.9889 8.82946C11.1076 8.90874 11.1396 9.06929 11.0604 9.18806L8.6678 12.7753C8.58876 12.8938 8.42874 12.9261 8.30991 12.8475L8.07138 12.6896C7.95196 12.6106 7.9195 12.4497 7.99889 12.3305Z" fill="#464655"/>
<path d="M6.99424 11.6608L9.38639 8.07081C9.46567 7.95181 9.62645 7.91976 9.74534 7.99921L9.98422 8.15888C10.1028 8.23815 10.1348 8.39852 10.0557 8.51724L7.6642 12.1075C7.58499 12.2264 7.42426 12.2586 7.30538 12.1792L7.06584 12.0193C6.94713 11.94 6.91508 11.7796 6.99424 11.6608Z" fill="#464655"/>
<path d="M5.98895 10.9945L8.38128 7.40097C8.46055 7.28191 8.62139 7.2498 8.74028 7.32931L8.97917 7.48904C9.0977 7.56831 9.12975 7.72857 9.05077 7.84728L6.65985 11.4413C6.58069 11.5603 6.42003 11.5925 6.30108 11.5133L6.06079 11.3531C5.94196 11.2738 5.90979 11.1134 5.98895 10.9945Z" fill="#464655"/>
<path d="M20.7253 20.8119L21.6656 19.4036C21.745 19.2847 21.9058 19.2528 22.0246 19.3323L22.2629 19.4919C22.3814 19.5712 22.4133 19.7316 22.3342 19.8502L21.3951 21.2588C21.3158 21.3777 21.1551 21.4098 21.0363 21.3305L20.7969 21.1706C20.678 21.0913 20.646 20.9307 20.7253 20.8119Z" fill="#464655"/>
<path d="M22.1757 18.641L23.1174 17.2257C23.1966 17.1067 23.3573 17.0745 23.4762 17.1538L23.7162 17.3138C23.8351 17.3931 23.8672 17.5538 23.7878 17.6726L22.844 19.0857C22.7649 19.2041 22.6049 19.2363 22.4861 19.1576L22.2481 18.9999C22.1289 18.9208 22.0964 18.7601 22.1757 18.641Z" fill="#464655"/>
<path d="M21.7293 21.4862L22.6702 20.0742C22.7494 19.9554 22.9101 19.9232 23.0289 20.0025L23.2694 20.1628C23.3882 20.2421 23.4203 20.4025 23.3412 20.5213L22.4009 21.9335C22.3218 22.0524 22.1612 22.0846 22.0423 22.0054L21.8012 21.8449C21.6823 21.7658 21.6501 21.6052 21.7293 21.4862Z" fill="#464655"/>
<path d="M23.1811 19.3049L24.1224 17.8962C24.2017 17.7775 24.3622 17.7455 24.4809 17.8247L24.7212 17.9849C24.8401 18.0642 24.8722 18.2249 24.7927 18.3438L23.8514 19.7525C23.7721 19.8712 23.6117 19.9031 23.493 19.824L23.2526 19.6637C23.1337 19.5845 23.1017 19.4237 23.1811 19.3049Z" fill="#464655"/>
<path d="M22.7339 22.1534L23.6758 20.7439C23.7549 20.6255 23.9147 20.5933 24.0334 20.6718L24.2729 20.8301C24.3924 20.909 24.4249 21.0701 24.3455 21.1893L23.4043 22.6007C23.3251 22.7195 23.1645 22.7516 23.0456 22.6724L22.8055 22.5123C22.6866 22.433 22.6545 22.2722 22.7339 22.1534Z" fill="#464655"/>
<path d="M24.1859 19.9787L25.1255 18.5675C25.2048 18.4484 25.3656 18.4163 25.4845 18.4958L25.7231 18.6553C25.8418 18.7346 25.8737 18.8951 25.7945 19.0138L24.8542 20.4232C24.7751 20.5417 24.6149 20.574 24.4962 20.4952L24.2583 20.3375C24.1391 20.2586 24.1067 20.0978 24.1859 19.9787Z" fill="#464655"/>
</g>
<defs>
<clipPath id="clip0_896_6038">
<rect width="30" height="30" fill="white" transform="translate(0.891846)"/>
</clipPath>
</defs>
</svg>
