<svg width="31" height="30" viewBox="0 0 31 30" fill="none" xmlns="http://www.w3.org/2000/svg">
<g clip-path="url(#clip0_896_6040)">
<path d="M24.3293 0H7.45435C3.82997 0 0.891846 2.93813 0.891846 6.5625V23.4375C0.891846 27.0619 3.82997 30 7.45435 30H24.3293C27.9537 30 30.8918 27.0619 30.8918 23.4375V6.5625C30.8918 2.93813 27.9537 0 24.3293 0Z" fill="#C8414B"/>
<path d="M30.8918 6.24805H0.891846V23.7523H30.8918V6.24805Z" fill="#FFD250"/>
<path d="M13.9636 15.0243L14.4473 13.0517C14.4918 12.8701 14.3393 12.6978 14.134 12.6978H13.7933C13.5879 12.6978 13.4354 12.8701 13.48 13.0517L13.9636 15.0243Z" fill="#C8414B"/>
<path d="M14.5338 13.9897H13.3928V18.3843H14.5338V13.9897Z" fill="#F5F5F5"/>
<path d="M14.8196 13.4731H13.108V13.9901H14.8196V13.4731Z" fill="#FAB446"/>
<path d="M14.8191 15.0239H11.9667V15.5409H14.8191V15.0239Z" fill="#C8414B"/>
<path d="M14.8194 17.0921L13.1079 16.5751V16.0581L14.8194 16.5751V17.0921Z" fill="#C8414B"/>
<path d="M5.40634 15.0243L5.89003 13.0517C5.93456 12.8701 5.78204 12.6978 5.57673 12.6978H5.236C5.03069 12.6978 4.87811 12.8701 4.9227 13.0517L5.40634 15.0243Z" fill="#C8414B"/>
<path d="M7.40299 13.4731C7.08793 13.4731 6.83252 13.7046 6.83252 13.9902V17.3507C6.83252 17.9789 7.47945 19.1602 9.68498 19.1602C11.8905 19.1602 12.5374 17.9788 12.5374 17.3507V13.9902C12.5374 13.7046 12.282 13.4731 11.967 13.4731H7.40299Z" fill="#F5F5F5"/>
<path d="M9.68498 16.0582H6.83252V14.0163C6.83252 13.7163 7.07568 13.4731 7.37562 13.4731H9.68498V16.0582Z" fill="#C8414B"/>
<path d="M9.68494 16.0581H12.5374V17.2854C12.5374 18.0352 11.9295 18.6431 11.1797 18.6431H11.0427C10.2928 18.6431 9.68494 18.0353 9.68494 17.2854V16.0581Z" fill="#C8414B"/>
<path d="M6.83252 16.0581H9.68498V17.2854C9.68498 18.0352 9.07713 18.6431 8.32725 18.6431H8.19025C7.44043 18.6431 6.83252 18.0353 6.83252 17.2854V16.0581Z" fill="#FAB446"/>
<path d="M9.11454 18.3788V16.0581H8.54407V18.6171C8.75618 18.578 8.94795 18.4929 9.11454 18.3788Z" fill="#C8414B"/>
<path d="M7.97354 18.6171V16.0581H7.40308V18.3788C7.56966 18.4929 7.76138 18.578 7.97354 18.6171Z" fill="#C8414B"/>
<path d="M9.11436 15.0239H7.40283V15.5409H9.11436V15.0239Z" fill="#FFB441"/>
<path d="M9.11436 13.9897H7.40283V14.5068H9.11436V13.9897Z" fill="#FAB446"/>
<path d="M8.82923 14.2974H7.68823V15.234H8.82923V14.2974Z" fill="#FAB446"/>
<path d="M5.97681 13.9897H4.83582V18.3843H5.97681V13.9897Z" fill="#F5F5F5"/>
<path d="M6.26194 18.126H4.55042V18.6429H6.26194V18.126Z" fill="#FAB446"/>
<path d="M6.26194 13.4731H4.55042V13.9901H6.26194V13.4731Z" fill="#FAB446"/>
<path d="M6.54707 18.6436H4.26514V19.1605H6.54707V18.6436Z" fill="#5064AA"/>
<path d="M15.1043 18.126H13.3928V18.6429H15.1043V18.126Z" fill="#FAB446"/>
<path d="M15.1047 18.6436H12.8228V19.1605H15.1047V18.6436Z" fill="#5064AA"/>
<path d="M11.3966 12.9561H7.97351V13.473H11.3966V12.9561Z" fill="#FAB446"/>
<path d="M9.97013 11.4053H9.39966V12.9563H9.97013V11.4053Z" fill="#FFB441"/>
<path d="M9.11449 12.1804C8.64264 12.1804 8.25879 11.8325 8.25879 11.4049C8.25879 10.9773 8.64264 10.6294 9.11449 10.6294C9.58635 10.6294 9.9702 10.9773 9.9702 11.4049C9.9702 11.8325 9.58635 12.1804 9.11449 12.1804ZM9.11449 11.1464C8.95711 11.1464 8.82926 11.2623 8.82926 11.4049C8.82926 11.5475 8.95711 11.6634 9.11449 11.6634C9.27187 11.6634 9.39973 11.5475 9.39973 11.4049C9.39973 11.2623 9.27187 11.1464 9.11449 11.1464Z" fill="#F5F5F5"/>
<path d="M10.2555 12.1804C9.78363 12.1804 9.39978 11.8325 9.39978 11.4049C9.39978 10.9773 9.78363 10.6294 10.2555 10.6294C10.7273 10.6294 11.1112 10.9773 11.1112 11.4049C11.1112 11.8325 10.7274 12.1804 10.2555 12.1804ZM10.2555 11.1464C10.0981 11.1464 9.97025 11.2623 9.97025 11.4049C9.97025 11.5475 10.0981 11.6634 10.2555 11.6634C10.4129 11.6634 10.5407 11.5475 10.5407 11.4049C10.5407 11.2623 10.4129 11.1464 10.2555 11.1464Z" fill="#F5F5F5"/>
<path d="M11.3965 12.6975C10.9246 12.6975 10.5408 12.3496 10.5408 11.922C10.5408 11.4944 10.9246 11.1465 11.3965 11.1465C11.8683 11.1465 12.2522 11.4944 12.2522 11.922C12.2522 12.3496 11.8683 12.6975 11.3965 12.6975ZM11.3965 11.6635C11.2391 11.6635 11.1112 11.7794 11.1112 11.922C11.1112 12.0646 11.2391 12.1805 11.3965 12.1805C11.5539 12.1805 11.6817 12.0646 11.6817 11.922C11.6817 11.7793 11.5539 11.6635 11.3965 11.6635Z" fill="#F5F5F5"/>
<path d="M7.9735 12.6975C7.50165 12.6975 7.1178 12.3496 7.1178 11.922C7.1178 11.4944 7.50165 11.1465 7.9735 11.1465C8.44536 11.1465 8.8292 11.4944 8.8292 11.922C8.8292 12.3496 8.44536 12.6975 7.9735 12.6975ZM7.9735 11.6635C7.81612 11.6635 7.68827 11.7794 7.68827 11.922C7.68827 12.0646 7.81612 12.1805 7.9735 12.1805C8.13088 12.1805 8.25874 12.0646 8.25874 11.922C8.25874 11.7793 8.13088 11.6635 7.9735 11.6635Z" fill="#F5F5F5"/>
<path d="M11.3964 17.0922V17.3507C11.3964 17.4933 11.2684 17.6093 11.1111 17.6093C10.9539 17.6093 10.8259 17.4933 10.8259 17.3507V17.0922H11.3964ZM11.9668 16.5752H10.2554V17.3507C10.2554 17.7783 10.6393 18.1262 11.1111 18.1262C11.5829 18.1262 11.9668 17.7782 11.9668 17.3507V16.5752Z" fill="#FAB446"/>
<path d="M11.1385 15.5413H11.0838C10.7838 15.5413 10.5406 15.2981 10.5406 14.9982V14.5333C10.5406 14.2334 10.7838 13.9902 11.0838 13.9902H11.1385C11.4385 13.9902 11.6816 14.2334 11.6816 14.5333V14.9982C11.6816 15.2982 11.4385 15.5413 11.1385 15.5413Z" fill="#FFA0D2"/>
<path d="M9.68505 16.8337C10.1576 16.8337 10.5408 16.4865 10.5408 16.0582C10.5408 15.6299 10.1576 15.2827 9.68505 15.2827C9.21246 15.2827 8.82935 15.6299 8.82935 16.0582C8.82935 16.4865 9.21246 16.8337 9.68505 16.8337Z" fill="#5064AA"/>
<path d="M9.97013 10.3711H9.39966V11.9221H9.97013V10.3711Z" fill="#FAB446"/>
<path d="M7.97355 12.9563L7.40308 12.4393L7.73724 12.1364C8.2538 11.6682 8.95446 11.4053 9.68501 11.4053C10.4156 11.4053 11.1162 11.6683 11.6328 12.1364L11.9669 12.4393L11.3965 12.9563H7.97355Z" fill="#C8414B"/>
<path d="M9.68502 12.6972C9.84255 12.6972 9.97025 12.5815 9.97025 12.4387C9.97025 12.2959 9.84255 12.1802 9.68502 12.1802C9.52748 12.1802 9.39978 12.2959 9.39978 12.4387C9.39978 12.5815 9.52748 12.6972 9.68502 12.6972Z" fill="#FFD250"/>
<path d="M8.54415 12.6972C8.70168 12.6972 8.82938 12.5815 8.82938 12.4387C8.82938 12.2959 8.70168 12.1802 8.54415 12.1802C8.38662 12.1802 8.25891 12.2959 8.25891 12.4387C8.25891 12.5815 8.38662 12.6972 8.54415 12.6972Z" fill="#FFD250"/>
<path d="M10.8258 12.6972C10.9833 12.6972 11.111 12.5815 11.111 12.4387C11.111 12.2959 10.9833 12.1802 10.8258 12.1802C10.6682 12.1802 10.5405 12.2959 10.5405 12.4387C10.5405 12.5815 10.6682 12.6972 10.8258 12.6972Z" fill="#FFD250"/>
<path d="M7.40282 15.0239H4.55042V15.5409H7.40282V15.0239Z" fill="#C8414B"/>
<path d="M4.55054 17.0921L6.262 16.5751V16.0581L4.55054 16.5751V17.0921Z" fill="#C8414B"/>
</g>
<defs>
<clipPath id="clip0_896_6040">
<rect width="30" height="30" fill="white" transform="translate(0.891846)"/>
</clipPath>
</defs>
</svg>
