<svg width="31" height="30" viewBox="0 0 31 30" fill="none" xmlns="http://www.w3.org/2000/svg">
<g clip-path="url(#clip0_896_6042)">
<path d="M24.3293 30H7.45435C3.82997 30 0.891846 27.0619 0.891846 23.4375V6.5625C0.891846 2.93813 3.82997 0 7.45435 0H24.3293C27.9537 0 30.8918 2.93813 30.8918 6.5625V23.4375C30.8918 27.0619 27.9537 30 24.3293 30Z" fill="#41479B"/>
<path d="M30.8918 23.4371V21.9964L26.2384 18.9476H30.8918V17.3687H18.2603V30.0002H19.8392V20.4178L29.8547 26.9797C30.2095 26.4275 30.4833 25.8184 30.6604 25.1694" fill="#F5F5F5"/>
<path d="M1.33312 25.8074C1.49296 26.2199 1.693 26.6124 1.9289 26.9797L11.9444 20.4178V30.0002H13.5234V17.3687H0.891846V18.9476H5.5453L0.891846 21.9964V23.4377C0.891846 23.69 0.906611 23.9389 0.934326 24.1838" fill="#F5F5F5"/>
<path d="M0.891846 6.78557V8.00379L5.5453 11.0527H0.891846V12.6316H13.5234V0H11.9445V9.58242L1.9289 3.02051C1.53966 3.62654 1.24769 4.3009 1.07431 5.02149" fill="#F5F5F5"/>
<path d="M30.4419 4.17006C30.2836 3.76582 30.0863 3.38104 29.8547 3.02045L19.8392 9.58242V0H18.2603V12.6316H30.8918V11.0527H26.2384L30.8918 8.00379V6.5625C30.8918 6.30117 30.8761 6.04348 30.8464 5.79012" fill="#F5F5F5"/>
<path d="M18.2603 0H13.5234V12.6316H0.891846V17.3684H13.5234V30H18.2603V17.3684H30.8918V12.6316H18.2603V0Z" fill="#FF4B55"/>
<path d="M9.00093 18.9473L0.934326 24.1835C0.998428 24.7497 1.13437 25.294 1.33317 25.8071L11.9011 18.9473L9.00093 18.9473Z" fill="#FF4B55"/>
<path d="M21.0753 18.9473L30.6604 25.1692C30.811 24.6174 30.8918 24.0369 30.8918 23.4374V23.4368L23.9755 18.9473L21.0753 18.9473Z" fill="#FF4B55"/>
<path d="M10.3655 11.0527L1.07431 5.02148C0.955303 5.51578 0.891846 6.0317 0.891846 6.5625V6.78557L7.46536 11.0527H10.3655Z" fill="#FF4B55"/>
<path d="M22.7393 11.0525L30.8464 5.78992C30.7801 5.22484 30.6424 4.68168 30.4419 4.16992L19.8392 11.0525H22.7393Z" fill="#FF4B55"/>
</g>
<defs>
<clipPath id="clip0_896_6042">
<rect width="30" height="30" fill="white" transform="translate(0.891846)"/>
</clipPath>
</defs>
</svg>
