<svg width="31" height="43" viewBox="0 0 31 43" fill="none" xmlns="http://www.w3.org/2000/svg">
<path d="M8.97864 7.23864C8.97864 3.64863 11.8997 0.727539 15.4897 0.727539C19.0798 0.727539 22.0009 3.64863 22.0009 7.23864C22.0009 10.8287 19.0798 13.7497 15.4897 13.7497C11.8997 13.7497 8.97864 10.8287 8.97864 7.23864ZM19.602 15.8059H11.3775C7.03216 15.8059 3.49561 19.3424 3.49561 23.6877C3.49561 25.7672 5.18575 27.4573 7.26519 27.4573H23.7143C25.7937 27.4573 27.4839 25.7672 27.4839 23.6877C27.4839 19.3424 23.9473 15.8059 19.602 15.8059Z" fill="url(#paint0_linear_408_428)"/>
<path d="M2.09375 42.4575V40.5115H7.03575V42.4575H2.09375ZM2.09375 34.6035V32.6575H7.03575V34.6035H2.09375ZM2.09375 38.2575V36.3535H6.75575V38.2575H2.09375ZM0.525746 32.6575H2.79375V42.4575H0.525746V32.6575ZM8.96129 32.6575H11.3973V42.4575H8.96129V32.6575ZM12.4613 42.4575H10.5293V40.3575H12.3773C12.7506 40.3575 13.11 40.3109 13.4553 40.2175C13.81 40.1242 14.118 39.9702 14.3793 39.7555C14.65 39.5409 14.8646 39.2562 15.0233 38.9015C15.182 38.5375 15.2613 38.0895 15.2613 37.5575C15.2613 37.0255 15.182 36.5822 15.0233 36.2275C14.8646 35.8635 14.65 35.5742 14.3793 35.3595C14.118 35.1449 13.81 34.9909 13.4553 34.8975C13.11 34.8042 12.7506 34.7575 12.3773 34.7575H10.5293V32.6575H12.4613C13.5346 32.6575 14.4633 32.8582 15.2473 33.2595C16.0313 33.6609 16.638 34.2255 17.0673 34.9535C17.4966 35.6815 17.7113 36.5495 17.7113 37.5575C17.7113 38.5562 17.4966 39.4242 17.0673 40.1615C16.638 40.8895 16.0313 41.4542 15.2473 41.8555C14.4633 42.2569 13.5346 42.4575 12.4613 42.4575ZM19.2289 32.6575H21.6369V42.4575H19.2289V32.6575ZM22.7332 34.7715V32.6575H30.4892V34.7715H27.7872V42.4575H25.4212V34.7715H22.7332Z" fill="#FFA801"/>
<defs>
<linearGradient id="paint0_linear_408_428" x1="15.4897" y1="-65.3683" x2="49.314" y2="-57.3908" gradientUnits="userSpaceOnUse">
<stop stop-color="#FFAE00"/>
<stop offset="1" stop-color="#FF7A00"/>
</linearGradient>
</defs>
</svg>
