<svg width="1369" height="1369" viewBox="0 0 1369 1369" fill="none" xmlns="http://www.w3.org/2000/svg">
<g style="mix-blend-mode:color-dodge" opacity="0.3">
<circle cx="684.144" cy="684.407" r="683.567" stroke="#A9A08A"/>
<circle cx="684.143" cy="684.407" r="450.715" stroke="#A9A08A" stroke-width="3"/>
<circle cx="684.144" cy="684.409" r="403.006" stroke="#A9A08A"/>
<path d="M1189.86 226.029C1107.81 273.523 1030.75 328.68 959.666 390.522M461.643 1330.7C472.919 1235.2 493.301 1142.5 521.897 1053.47" stroke="#A9A08A"/>
<path d="M906.551 38.9176C895.214 134.478 874.759 227.243 846.078 316.317M178.137 1142.96C260.286 1095.43 337.436 1040.22 408.603 978.312" stroke="#A9A08A"/>
<path d="M906.626 1330.54C895.347 1235.1 874.971 1142.45 846.392 1053.47M178.211 225.904C260.444 273.486 337.665 328.765 408.891 390.756" stroke="#A9A08A"/>
<path d="M1190.3 1143.05C1108.1 1095.5 1030.9 1040.26 959.684 978.314M461.701 38.6167C472.999 134.026 493.388 226.649 521.976 315.596" stroke="#A9A08A"/>
<circle cx="995.414" cy="1008.22" r="25.8608" stroke="#A9A08A"/>
<circle cx="178.211" cy="226.03" r="25.8608" stroke="#A9A08A"/>
<circle cx="482.635" cy="168.31" r="40.7073" stroke="#A9A08A"/>
<circle cx="890.334" cy="1220.75" r="40.7073" stroke="#A9A08A"/>
<circle cx="995.416" cy="1008.22" r="10.5898" fill="#A9A08A"/>
<circle cx="178.212" cy="226.029" r="10.5898" fill="#A9A08A"/>
<circle cx="373.755" cy="360.252" r="13.6519" fill="#A9A08A"/>
</g>
<g style="mix-blend-mode:color-dodge" opacity="0.1">
<g style="mix-blend-mode:color-dodge">
<path d="M917.546 942.411C917.546 943.273 917.546 944.135 917.445 944.996C917.445 944.996 917.698 943.932 917.546 942.411Z" fill="#A9A08A"/>
<path d="M993.355 662.411C993.355 662.411 1026.17 624.098 1009.76 575.497C1012.19 628.963 945.398 661.803 913.799 661.803C882.199 661.803 800.213 656.938 757.118 697.683C713.973 738.429 697.97 803.45 697.97 803.45L695.185 859.197C696.097 840.75 697.059 821.999 697.97 803.399V803.45C697.97 803.45 697.97 803.349 697.97 803.146C699.337 775.982 700.705 749.072 702.072 723.479C698.629 790.172 698.071 801.372 697.97 803.146C698.274 797.166 704.25 705.488 766.082 666.06C829.99 625.314 884.63 648.424 929.599 635.044C974.567 621.665 969.706 586.443 969.706 586.443C969.706 586.443 969.706 612.594 931.422 618.067C893.138 623.54 848.22 616.242 848.22 616.242C848.22 616.242 959.983 602.255 959.983 504.394C959.983 419.913 917.445 370.045 917.445 370.045C917.445 370.045 941.145 425.944 925.345 487.366C909.545 548.738 865.235 557.861 865.235 557.861C865.235 557.861 933.245 445.252 854.803 348.76C865.539 364.217 860.374 387.022 860.374 387.022C860.374 387.022 847.005 347.493 806.34 312.271C806.34 312.271 845.232 354.841 845.232 428.984C845.232 503.127 803.91 540.832 770.538 574.23C737.115 607.678 706.883 631.547 702.174 723.175C705.313 663.779 708.25 611.631 710.427 580.666C781.476 492.333 775.753 397.158 742.179 335.482C695.539 249.936 684.348 139 684.348 139C684.348 139 673.106 249.936 626.517 335.482C592.892 397.158 587.169 492.333 658.268 580.666C660.446 611.58 663.383 663.779 666.523 723.175C661.813 631.547 631.53 607.627 598.158 574.23C564.736 540.782 523.464 503.127 523.464 428.984C523.464 354.841 562.355 312.271 562.355 312.271C521.641 347.543 508.323 387.022 508.323 387.022C508.323 387.022 503.157 364.217 513.893 348.76C435.451 445.201 503.461 557.861 503.461 557.861C503.461 557.861 459.1 548.738 443.351 487.366C427.551 425.994 451.251 370.045 451.251 370.045C451.251 370.045 408.713 419.862 408.713 504.394C408.713 602.255 520.476 616.242 520.476 616.242C520.476 616.242 475.508 623.54 437.274 618.067C398.99 612.594 398.99 586.443 398.99 586.443C398.99 586.443 394.129 621.716 439.097 635.044C484.066 648.424 538.707 625.314 602.615 666.06C664.447 705.437 670.422 797.166 670.726 803.146C670.624 801.372 670.068 790.172 666.624 723.479C667.991 749.072 669.358 775.982 670.726 803.146C670.726 803.349 670.726 803.399 670.726 803.45C670.726 803.45 670.726 803.45 670.726 803.399C671.688 821.999 672.6 840.75 673.511 859.197L670.726 803.45C670.726 803.45 654.673 738.378 611.578 697.683C568.433 656.938 486.446 661.803 454.897 661.803C423.348 661.803 356.503 628.963 358.934 575.497C342.526 624.098 375.341 662.411 375.341 662.411C375.341 662.411 241.094 687.345 253.855 811.914C253.248 785.763 277.555 737.162 326.119 727.178C326.119 727.178 288.442 774.208 321.257 841.662C332.803 762.046 395.243 670.672 526.553 706.096C526.553 706.096 501.891 705.539 481.382 743.396C460.872 781.253 496.777 834.364 454.593 843.486C411.499 852.811 410.688 815.512 410.688 815.512C410.688 815.512 394.23 857.575 437.122 875.211C480.014 892.848 558.305 875.211 522.299 768.989C507.057 723.986 565.596 691.653 607.932 736.453C640.595 771.016 638.924 834.922 572.686 855.599C507.664 875.921 449.124 894.469 451.099 942.361C451.605 937.141 457.227 926.498 496.169 934.049C546.556 943.78 598.816 944.996 623.124 888.438C610.362 935.823 601.653 944.185 559.672 996.486C516.83 1049.8 547.822 1117 547.822 1117C547.822 1117 551.468 1087.2 588.537 1073.82C620.491 1062.32 613.148 1011.08 610.514 997.145C612.489 1005.1 619.63 1025.22 643.583 1042.86C614.667 992.431 619.529 902.477 673.562 859.298C679.487 978.698 684.5 1087.25 684.5 1087.25C684.5 1087.25 689.513 978.748 695.438 859.298C749.471 902.477 754.333 992.431 725.417 1042.86C749.37 1025.27 756.511 1005.15 758.486 997.145C755.852 1011.08 748.56 1062.32 780.463 1073.82C817.532 1087.2 821.178 1117 821.178 1117C821.178 1117 852.17 1049.85 809.328 996.486C767.347 944.185 758.637 935.874 745.876 888.438C770.183 944.945 822.393 943.729 872.831 934.049C911.773 926.549 917.344 937.141 917.901 942.361C919.876 894.469 861.336 875.921 796.314 855.599C730.127 834.922 728.455 771.016 761.068 736.453C803.454 691.602 861.943 723.935 846.701 768.989C810.695 875.211 888.986 892.848 931.878 875.211C974.77 857.575 958.312 815.512 958.312 815.512C958.312 815.512 957.552 852.761 914.407 843.486C872.173 834.364 908.077 781.253 887.618 743.396C867.109 705.539 842.447 706.096 842.447 706.096C973.757 670.621 1036.2 761.995 1047.74 841.662C1080.56 774.208 1042.88 727.178 1042.88 727.178C1091.44 737.112 1115.75 785.763 1115.14 811.914C1127.91 687.294 993.659 662.411 993.659 662.411H993.355ZM684.196 547.522C684.196 547.522 631.986 486.758 631.986 416.213C631.986 345.668 684.196 294.888 684.196 237.976C684.196 294.888 736.406 345.719 736.406 416.213C736.406 486.707 684.196 547.522 684.196 547.522Z" fill="#A9A08A"/>
<path d="M821.988 783.939C828.673 772.688 826.04 747.754 803.859 744.105C781.679 740.456 771.956 755.052 771.956 755.052C777.121 752.011 795.351 750.795 795.351 765.086C795.351 779.378 786.085 775.171 776.058 796.76C766.031 818.35 786.541 836.797 798.39 836.797C807.809 836.797 815.709 825.546 808.417 812.775C809.329 824.026 792.009 830.411 788.06 816.728C784.11 803.045 815.304 795.139 821.988 783.888V783.939Z" fill="#A9A08A"/>
<path d="M977.808 782.52C941.347 781.405 937.499 766.1 937.499 766.1C937.499 766.1 963.224 777.959 974.162 769.039C985.101 760.17 985.303 747.602 976.188 739.645C967.073 731.689 952.033 735.997 948.842 744.865C945.652 753.734 955.881 758.093 957.704 757.18C959.527 756.268 956.793 753.785 957.249 748.058C957.705 742.382 964.287 742.129 966.364 748.058C968.389 753.988 970.668 766.049 944.031 759.461C917.394 752.873 896.885 711.367 896.885 711.367C897.594 754.697 923.421 791.034 945.601 802.082C980.442 819.414 1005.71 805.021 1005.71 805.021C1005.71 805.021 998.925 783.128 977.707 782.469L977.808 782.52Z" fill="#A9A08A"/>
<path d="M785.021 468.311C801.429 455.54 819.355 422.092 819.355 422.092C819.355 422.092 816.924 365.078 793.377 335.482C757.827 290.783 760.36 259.818 760.36 259.818C751.903 301.324 765.018 323.167 778.337 346.428C799.757 383.829 796.871 447.634 785.021 468.311Z" fill="#A9A08A"/>
<path d="M450.997 945.047C450.947 944.185 450.896 943.324 450.896 942.462C450.744 943.982 450.997 945.047 450.997 945.047Z" fill="#A9A08A"/>
<path d="M596.437 755.102C596.437 755.102 586.714 740.507 564.533 744.156C542.353 747.805 539.72 772.739 546.404 783.989C553.089 795.24 584.283 803.146 580.333 816.829C576.383 830.513 559.064 824.127 559.975 812.876C552.683 825.647 560.583 836.898 570.002 836.898C581.852 836.898 602.361 818.451 592.335 796.862C582.308 775.273 573.041 779.884 573.041 765.188C573.041 750.491 591.271 752.112 596.437 755.153V755.102Z" fill="#A9A08A"/>
<path d="M471.457 711.417C471.457 711.417 450.947 752.923 424.31 759.512C397.673 766.1 399.953 754.038 401.978 748.109C404.004 742.179 410.637 742.433 411.093 748.109C411.549 753.785 408.815 756.319 410.638 757.231C412.461 758.143 422.69 753.836 419.5 744.916C416.309 736.047 401.269 731.689 392.154 739.696C383.039 747.653 383.292 760.221 394.179 769.09C405.118 777.959 430.843 766.15 430.843 766.15C430.843 766.15 426.995 781.405 390.534 782.57C369.315 783.229 362.529 805.122 362.529 805.122C362.529 805.122 387.799 819.465 422.639 802.183C444.82 791.135 470.697 754.798 471.355 711.468L471.457 711.417Z" fill="#A9A08A"/>
<path d="M549.037 422.143C549.037 422.143 566.964 455.591 583.371 468.362C571.522 447.685 568.635 383.88 590.056 346.479C603.375 323.167 616.49 301.324 608.033 259.869C608.033 259.869 610.565 290.884 575.016 335.532C551.468 365.129 549.037 422.143 549.037 422.143Z" fill="#A9A08A"/>
</g>
</g>
</svg>
