<svg width="1309" height="64" viewBox="0 0 1309 64" fill="none" xmlns="http://www.w3.org/2000/svg">
<mask id="path-1-inside-1_408_428" fill="white">
<path fill-rule="evenodd" clip-rule="evenodd" d="M17.6964 60.3002L1290.42 60.2997C1291.98 60.2997 1293.46 59.5669 1294.4 58.3195L1305.46 43.7271C1306.81 41.9413 1306.81 39.4733 1305.46 37.6875L1294.4 23.095C1293.46 21.8476 1291.98 21.1148 1290.42 21.1148C1289.08 21.1148 1288 22.196 1288 23.5297L1288 28.9081C1288 30.4995 1286.71 31.7895 1285.12 31.7895C1283.53 31.7895 1282.24 30.4995 1282.24 28.9081L1282.24 28.1148C1282.24 24.2488 1279.11 21.1148 1275.24 21.1148L1043.35 21.1149C1039.49 21.1149 1036.35 24.2489 1036.35 28.1149L1036.35 28.9081C1036.35 30.4995 1035.06 31.7895 1033.47 31.7895C1031.88 31.7895 1030.59 30.4995 1030.59 28.9081L1030.59 28.1149C1030.59 24.2489 1027.46 21.1149 1023.59 21.1149L791.707 21.115C787.841 21.115 784.707 24.249 784.707 28.115L784.707 28.9081C784.707 30.4994 783.417 31.7895 781.826 31.7895C780.234 31.7895 778.944 30.4995 778.944 28.9081L778.944 28.115C778.944 24.249 775.81 21.115 771.944 21.115L540.06 21.1151C536.194 21.1151 533.06 24.2491 533.06 28.1151L533.06 28.908C533.06 30.4994 531.77 31.7895 530.178 31.7895C528.587 31.7895 527.297 30.4994 527.297 28.908L527.297 28.1151C527.297 24.2491 524.163 21.1151 520.297 21.1151L288.412 21.1151C284.546 21.1151 281.412 24.2492 281.412 28.1151L281.412 28.908C281.412 30.4994 280.122 31.7895 278.531 31.7895C276.939 31.7895 275.649 30.4994 275.649 28.908L275.649 28.1151C275.649 24.2492 272.515 21.1151 268.649 21.1151L36.7649 21.1152C32.8989 21.1152 29.7649 24.2492 29.7649 28.1152L29.7649 28.908C29.7649 30.4994 28.4749 31.7895 26.8834 31.7895C25.292 31.7895 24.002 30.4994 24.002 28.908L24.002 27.4208C24.002 23.9383 21.1788 21.1152 17.6964 21.1152C16.0416 21.1152 14.494 21.934 13.563 23.302L3.63159 37.8945C2.47632 39.5921 2.47632 41.8234 3.63159 43.5209L13.563 58.1134C14.494 59.4814 16.0416 60.3002 17.6964 60.3002ZM24.002 12.8097C24.002 16.2921 21.1788 19.1152 17.6964 19.1152C15.3798 19.1152 13.213 20.2615 11.9095 22.1768L1.97815 36.7692C0.360716 39.1458 0.360716 42.2696 1.97815 44.6462L11.9095 59.2386C13.213 61.1539 15.3796 62.3002 17.6964 62.3002L1290.42 62.2997C1292.61 62.2997 1294.67 61.2738 1296 59.5275L1307.05 44.935C1308.95 42.4349 1308.95 38.9797 1307.05 36.4796L1296 21.8871C1294.67 20.1408 1292.61 19.1148 1290.42 19.1148C1289.08 19.1148 1288 18.0337 1288 16.7L1288 3.64661C1288 2.05521 1286.71 0.765136 1285.12 0.765136C1283.53 0.765136 1282.24 2.05521 1282.24 3.64661L1282.24 12.1148C1282.24 15.9808 1279.11 19.1148 1275.24 19.1148L1043.35 19.1149C1039.49 19.1149 1036.35 15.9809 1036.35 12.1149L1036.35 3.64659C1036.35 2.0552 1035.06 0.765125 1033.47 0.765125C1031.88 0.765125 1030.59 2.0552 1030.59 3.64659L1030.59 12.1149C1030.59 15.9809 1027.46 19.1149 1023.59 19.1149L791.707 19.115C787.841 19.115 784.707 15.981 784.707 12.115L784.707 3.64658C784.707 2.05519 783.417 0.765114 781.826 0.765114C780.234 0.765114 778.944 2.05519 778.944 3.64658L778.944 12.115C778.944 15.981 775.81 19.115 771.944 19.115L540.06 19.1151C536.194 19.1151 533.06 15.9811 533.06 12.1151L533.06 3.64657C533.06 2.05518 531.77 0.765103 530.178 0.765103C528.587 0.765103 527.297 2.05518 527.297 3.64657L527.297 12.1151C527.297 15.9811 524.163 19.1151 520.297 19.1151L288.412 19.1151C284.546 19.1151 281.412 15.9811 281.412 12.1151L281.412 3.64656C281.412 2.05517 280.122 0.765092 278.531 0.765092C276.939 0.765092 275.649 2.05517 275.649 3.64656L275.649 12.1152C275.649 15.9811 272.515 19.1152 268.649 19.1152L36.7649 19.1152C32.8989 19.1152 29.7649 15.9812 29.7649 12.1152L29.7649 3.64655C29.7649 2.05516 28.4749 0.765081 26.8834 0.765081C25.292 0.765081 24.002 2.05516 24.002 3.64655L24.002 12.8097Z"/>
</mask>
<path d="M1290.42 60.2997L1290.42 58.2997L1290.42 60.2997ZM17.6964 60.3002L17.6964 62.3002L17.6964 60.3002ZM1294.4 58.3195L1296 59.5275L1296 59.5275L1294.4 58.3195ZM1305.46 43.7271L1307.05 44.935L1307.05 44.935L1305.46 43.7271ZM1305.46 37.6875L1303.87 38.8954L1303.87 38.8954L1305.46 37.6875ZM1294.4 23.095L1292.81 24.3029L1294.4 23.095ZM1288 28.9081L1290 28.9081L1288 28.9081ZM1282.24 28.9081L1284.24 28.9081L1282.24 28.9081ZM1036.35 28.9081L1034.35 28.9081L1036.35 28.9081ZM1030.59 28.9081L1028.59 28.9081L1030.59 28.9081ZM13.563 23.302L15.2164 24.4273L15.2164 24.4273L13.563 23.302ZM3.63159 37.8945L1.97815 36.7692L1.97815 36.7693L3.63159 37.8945ZM3.63159 43.5209L1.97815 44.6462L1.97815 44.6462L3.63159 43.5209ZM13.563 58.1134L15.2164 56.9881L15.2164 56.9881L13.563 58.1134ZM11.9095 22.1768L13.563 23.302L13.563 23.302L11.9095 22.1768ZM1.97815 36.7692L0.324706 35.644L0.324706 35.644L1.97815 36.7692ZM1.97815 44.6462L0.324705 45.7715L0.324705 45.7715L1.97815 44.6462ZM11.9095 59.2386L13.563 58.1134L13.563 58.1134L11.9095 59.2386ZM17.6964 62.3002L17.6964 64.3002L17.6964 62.3002ZM1290.42 62.2997L1290.42 60.2997L1290.42 62.2997ZM1296 59.5275L1294.4 58.3195L1296 59.5275ZM1307.05 44.935L1305.46 43.7271L1305.46 43.7271L1307.05 44.935ZM1307.05 36.4796L1305.46 37.6875L1305.46 37.6875L1307.05 36.4796ZM1296 21.8871L1297.59 20.6792L1297.59 20.6792L1296 21.8871ZM1288 3.64661L1286 3.64661V3.64661L1288 3.64661ZM1285.12 0.765136L1285.12 -1.23486L1285.12 0.765136ZM1282.24 3.64661L1280.24 3.64661L1280.24 3.64661L1282.24 3.64661ZM1036.35 3.64659L1034.35 3.64659L1036.35 3.64659ZM1030.59 3.64659L1028.59 3.64659L1030.59 3.64659ZM781.826 0.765114L781.826 2.76511L781.826 0.765114ZM533.06 3.64657L531.06 3.64657L533.06 3.64657ZM527.297 3.64657L525.297 3.64657L527.297 3.64657ZM278.531 0.765092L278.531 -1.23491L278.531 0.765092ZM29.7649 3.64655L27.7649 3.64655L29.7649 3.64655ZM24.002 3.64655L22.002 3.64655L24.002 3.64655ZM36.7649 19.1152L36.7649 17.1152L36.7649 19.1152ZM29.7649 12.1152L27.7649 12.1152L29.7649 12.1152ZM36.7649 21.1152L36.7649 19.1152L36.7649 21.1152ZM288.412 19.1151L288.412 17.1151L288.412 19.1151ZM288.412 21.1151L288.412 19.1151L288.412 21.1151ZM527.297 12.1151L529.297 12.1151L527.297 12.1151ZM540.06 19.1151L540.06 17.1151L540.06 19.1151ZM533.06 12.1151L535.06 12.1151L533.06 12.1151ZM540.06 21.1151L540.06 19.1151L540.06 21.1151ZM791.707 19.115L791.707 17.115L791.707 19.115ZM791.707 21.115L791.707 19.115L791.707 21.115ZM1030.59 12.1149L1028.59 12.1149L1030.59 12.1149ZM1036.35 12.1149L1034.35 12.1149L1036.35 12.1149ZM24.002 12.8097L22.002 12.8097L24.002 12.8097ZM1036.35 28.1149L1038.35 28.1149L1036.35 28.1149ZM1275.24 19.1148L1275.24 17.1148L1275.24 19.1148ZM1288 16.7L1290 16.7L1288 16.7ZM1030.59 28.1149L1032.59 28.1149L1030.59 28.1149ZM1282.24 28.1148L1284.24 28.1148L1282.24 28.1148ZM1288 23.5297L1286 23.5297L1288 23.5297ZM1290.42 58.2997L17.6964 58.3002L17.6964 62.3002L1290.42 62.2997L1290.42 58.2997ZM1292.81 57.1116C1292.24 57.8601 1291.36 58.2997 1290.42 58.2997L1290.42 62.2997C1292.61 62.2997 1294.67 61.2738 1296 59.5275L1292.81 57.1116ZM1303.87 42.5192L1292.81 57.1116L1296 59.5275L1307.05 44.935L1303.87 42.5192ZM1303.87 38.8954C1304.68 39.9669 1304.68 41.4477 1303.87 42.5192L1307.05 44.935C1308.95 42.4349 1308.95 38.9797 1307.05 36.4795L1303.87 38.8954ZM1292.81 24.3029L1303.87 38.8954L1307.05 36.4795L1296 21.8871L1292.81 24.3029ZM1290.42 23.1148C1291.36 23.1148 1292.24 23.5545 1292.81 24.3029L1296 21.8871C1294.67 20.1408 1292.61 19.1148 1290.42 19.1148L1290.42 23.1148ZM1290 28.9081L1290 23.5297L1286 23.5297L1286 28.9081L1290 28.9081ZM1285.12 33.7895C1287.82 33.7895 1290 31.604 1290 28.9081L1286 28.9081C1286 29.3949 1285.61 29.7895 1285.12 29.7895L1285.12 33.7895ZM1280.24 28.9081C1280.24 31.604 1282.42 33.7895 1285.12 33.7895L1285.12 29.7895C1284.63 29.7895 1284.24 29.3949 1284.24 28.9081L1280.24 28.9081ZM1280.24 28.1148L1280.24 28.9081L1284.24 28.9081L1284.24 28.1148L1280.24 28.1148ZM1043.35 23.1149L1275.24 23.1148L1275.24 19.1148L1043.35 19.1149L1043.35 23.1149ZM1038.35 28.9081L1038.35 28.1149L1034.35 28.1149L1034.35 28.9081L1038.35 28.9081ZM1033.47 33.7895C1036.17 33.7895 1038.35 31.604 1038.35 28.9081L1034.35 28.9081C1034.35 29.3949 1033.96 29.7895 1033.47 29.7895L1033.47 33.7895ZM1028.59 28.9081C1028.59 31.604 1030.78 33.7895 1033.47 33.7895L1033.47 29.7895C1032.99 29.7895 1032.59 29.3949 1032.59 28.9081L1028.59 28.9081ZM1028.59 28.1149L1028.59 28.9081L1032.59 28.9081L1032.59 28.1149L1028.59 28.1149ZM791.707 23.115L1023.59 23.1149L1023.59 19.1149L791.707 19.115L791.707 23.115ZM786.707 28.9081L786.707 28.115L782.707 28.115L782.707 28.9081L786.707 28.9081ZM781.826 33.7895C784.522 33.7895 786.707 31.604 786.707 28.9081L782.707 28.9081C782.707 29.3949 782.312 29.7895 781.826 29.7895L781.826 33.7895ZM776.944 28.9081C776.944 31.604 779.13 33.7895 781.826 33.7895L781.826 29.7895C781.339 29.7895 780.944 29.3949 780.944 28.9081L776.944 28.9081ZM776.944 28.115L776.944 28.9081L780.944 28.9081L780.944 28.115L776.944 28.115ZM540.06 23.1151L771.944 23.115L771.944 19.115L540.06 19.1151L540.06 23.1151ZM535.06 28.908L535.06 28.1151L531.06 28.1151L531.06 28.908L535.06 28.908ZM530.178 33.7895C532.874 33.7895 535.06 31.604 535.06 28.908L531.06 28.908C531.06 29.3949 530.665 29.7895 530.178 29.7895L530.178 33.7895ZM525.297 28.908C525.297 31.604 527.482 33.7895 530.178 33.7895L530.178 29.7895C529.691 29.7895 529.297 29.3949 529.297 28.908L525.297 28.908ZM525.297 28.1151L525.297 28.908L529.297 28.908L529.297 28.1151L525.297 28.1151ZM288.412 23.1151L520.297 23.1151L520.297 19.1151L288.412 19.1151L288.412 23.1151ZM283.412 28.908L283.412 28.1151L279.412 28.1151L279.412 28.908L283.412 28.908ZM278.531 33.7895C281.227 33.7895 283.412 31.604 283.412 28.908L279.412 28.908C279.412 29.3948 279.018 29.7895 278.531 29.7895L278.531 33.7895ZM273.649 28.908C273.649 31.604 275.835 33.7895 278.531 33.7895L278.531 29.7895C278.044 29.7895 277.649 29.3949 277.649 28.908L273.649 28.908ZM273.649 28.1151L273.649 28.908L277.649 28.908L277.649 28.1151L273.649 28.1151ZM36.7649 23.1152L268.649 23.1151L268.649 19.1151L36.7649 19.1152L36.7649 23.1152ZM27.7649 28.1152L27.7649 28.908L31.7649 28.908L31.7649 28.1152L27.7649 28.1152ZM27.7649 28.908C27.7649 29.3949 27.3702 29.7895 26.8834 29.7895L26.8834 33.7895C29.5795 33.7895 31.7649 31.604 31.7649 28.908L27.7649 28.908ZM26.8834 29.7895C26.3966 29.7895 26.002 29.3949 26.002 28.908L22.002 28.908C22.002 31.604 24.1874 33.7895 26.8834 33.7895L26.8834 29.7895ZM26.002 28.908L26.002 27.4208L22.002 27.4208L22.002 28.908L26.002 28.908ZM15.2164 24.4273C15.775 23.6065 16.7036 23.1152 17.6964 23.1152L17.6964 19.1152C15.3796 19.1152 13.213 20.2615 11.9095 22.1768L15.2164 24.4273ZM5.28503 39.0198L15.2164 24.4273L11.9095 22.1768L1.97815 36.7692L5.28503 39.0198ZM5.28503 42.3957C4.5918 41.3771 4.5918 40.0383 5.28503 39.0198L1.97815 36.7693C0.360838 39.1458 0.360838 42.2696 1.97815 44.6462L5.28503 42.3957ZM15.2164 56.9881L5.28503 42.3956L1.97815 44.6462L11.9095 59.2386L15.2164 56.9881ZM17.6964 58.3002C16.7036 58.3002 15.775 57.8089 15.2164 56.9881L11.9095 59.2386C13.213 61.1539 15.3796 62.3002 17.6964 62.3002L17.6964 58.3002ZM13.563 23.302C14.494 21.934 16.0416 21.1152 17.6964 21.1152L17.6964 17.1152C14.7179 17.1152 11.932 18.589 10.2561 21.0515L13.563 23.302ZM3.63159 37.8945L13.563 23.302L10.2561 21.0515L0.324706 35.644L3.63159 37.8945ZM3.63159 43.5209C2.47619 41.8234 2.47619 39.5921 3.63159 37.8945L0.324706 35.644C-1.75476 38.6995 -1.75476 42.7159 0.324705 45.7715L3.63159 43.5209ZM13.563 58.1134L3.63159 43.5209L0.324705 45.7715L10.2561 60.3639L13.563 58.1134ZM17.6964 60.3002C16.0416 60.3002 14.494 59.4814 13.563 58.1134L10.2561 60.3639C11.932 62.8264 14.7176 64.3002 17.6964 64.3002L17.6964 60.3002ZM1290.42 60.2997L17.6964 60.3002L17.6964 64.3002L1290.42 64.2997L1290.42 60.2997ZM1294.4 58.3195C1293.46 59.5669 1291.98 60.2997 1290.42 60.2997L1290.42 64.2997C1293.23 64.2997 1295.89 62.9807 1297.59 60.7354L1294.4 58.3195ZM1305.46 43.7271L1294.4 58.3195L1297.59 60.7354L1308.65 46.1429L1305.46 43.7271ZM1305.46 37.6875C1306.81 39.4733 1306.81 41.9413 1305.46 43.7271L1308.65 46.1429C1311.08 42.9285 1311.08 38.4861 1308.65 35.2716L1305.46 37.6875ZM1294.4 23.095L1305.46 37.6875L1308.65 35.2716L1297.59 20.6792L1294.4 23.095ZM1290.42 21.1148C1291.98 21.1148 1293.46 21.8476 1294.4 23.095L1297.59 20.6792C1295.89 18.4339 1293.23 17.1148 1290.42 17.1148L1290.42 21.1148ZM1286 3.64661L1286 16.7L1290 16.7L1290 3.64661L1286 3.64661ZM1285.12 2.76514C1285.61 2.76514 1286 3.15978 1286 3.64661L1290 3.64661C1290 0.950645 1287.82 -1.23486 1285.12 -1.23486L1285.12 2.76514ZM1284.24 3.64661C1284.24 3.15978 1284.63 2.76514 1285.12 2.76514L1285.12 -1.23486C1282.42 -1.23486 1280.24 0.950645 1280.24 3.64661L1284.24 3.64661ZM1284.24 12.1148L1284.24 3.64661L1280.24 3.64661L1280.24 12.1148L1284.24 12.1148ZM1043.35 21.1149L1275.24 21.1148L1275.24 17.1148L1043.35 17.1149L1043.35 21.1149ZM1034.35 3.64659L1034.35 12.1149L1038.35 12.1149L1038.35 3.64659L1034.35 3.64659ZM1033.47 2.76512C1033.96 2.76512 1034.35 3.15977 1034.35 3.64659L1038.35 3.64659C1038.35 0.950637 1036.17 -1.23488 1033.47 -1.23488L1033.47 2.76512ZM1032.59 3.64659C1032.59 3.15977 1032.99 2.76512 1033.47 2.76512L1033.47 -1.23488C1030.78 -1.23488 1028.59 0.950638 1028.59 3.64659L1032.59 3.64659ZM1032.59 12.1149L1032.59 3.64659L1028.59 3.64659L1028.59 12.1149L1032.59 12.1149ZM791.707 21.115L1023.59 21.1149L1023.59 17.1149L791.707 17.115L791.707 21.115ZM782.707 3.64658L782.707 12.115L786.707 12.115L786.707 3.64658L782.707 3.64658ZM781.826 2.76511C782.312 2.76511 782.707 3.15977 782.707 3.64658L786.707 3.64658C786.707 0.950612 784.522 -1.23489 781.826 -1.23489L781.826 2.76511ZM780.944 3.64658C780.944 3.15974 781.339 2.76511 781.826 2.76511L781.826 -1.23489C779.13 -1.23489 776.944 0.950641 776.944 3.64658L780.944 3.64658ZM780.944 12.115L780.944 3.64658L776.944 3.64658L776.944 12.115L780.944 12.115ZM540.06 21.1151L771.944 21.115L771.944 17.115L540.06 17.1151L540.06 21.1151ZM531.06 3.64657L531.06 12.1151L535.06 12.1151L535.06 3.64657L531.06 3.64657ZM530.178 2.7651C530.665 2.7651 531.06 3.15976 531.06 3.64657L535.06 3.64657C535.06 0.950601 532.874 -1.2349 530.178 -1.2349L530.178 2.7651ZM529.297 3.64657C529.297 3.15976 529.691 2.7651 530.178 2.7651L530.178 -1.2349C527.482 -1.2349 525.297 0.950602 525.297 3.64657L529.297 3.64657ZM529.297 12.1151L529.297 3.64657L525.297 3.64657L525.297 12.1151L529.297 12.1151ZM288.412 21.1151L520.297 21.1151L520.297 17.1151L288.412 17.1151L288.412 21.1151ZM279.412 3.64656L279.412 12.1151L283.412 12.1151L283.412 3.64656L279.412 3.64656ZM278.531 2.76509C279.018 2.76509 279.412 3.15983 279.412 3.64656L283.412 3.64656C283.412 0.950507 281.227 -1.23491 278.531 -1.23491L278.531 2.76509ZM277.649 3.64656C277.649 3.15967 278.044 2.76509 278.531 2.76509L278.531 -1.23491C275.835 -1.23491 273.649 0.950674 273.649 3.64656L277.649 3.64656ZM277.649 12.1152L277.649 3.64656L273.649 3.64656L273.649 12.1152L277.649 12.1152ZM36.7649 21.1152L268.649 21.1152L268.649 17.1152L36.7649 17.1152L36.7649 21.1152ZM27.7649 3.64655L27.7649 12.1152L31.7649 12.1152L31.7649 3.64655L27.7649 3.64655ZM26.8834 2.76508C27.3702 2.76508 27.7649 3.15971 27.7649 3.64655L31.7649 3.64655C31.7649 0.950607 29.5795 -1.23492 26.8834 -1.23492L26.8834 2.76508ZM26.002 3.64655C26.002 3.15971 26.3966 2.76508 26.8834 2.76508L26.8834 -1.23492C24.1874 -1.23492 22.002 0.950608 22.002 3.64655L26.002 3.64655ZM26.002 12.8097L26.002 3.64655L22.002 3.64655L22.002 12.8097L26.002 12.8097ZM36.7649 17.1152C34.0034 17.1152 31.7649 14.8767 31.7649 12.1152L27.7649 12.1152C27.7649 17.0858 31.7943 21.1152 36.7649 21.1152L36.7649 17.1152ZM36.7649 19.1152C31.7943 19.1152 27.7649 23.1447 27.7649 28.1152L31.7649 28.1152C31.7649 25.3538 34.0034 23.1152 36.7649 23.1152L36.7649 19.1152ZM273.649 12.1152C273.649 14.8766 271.411 17.1152 268.649 17.1152L268.649 21.1152C273.62 21.1151 277.649 17.0857 277.649 12.1152L273.649 12.1152ZM288.412 17.1151C285.651 17.1151 283.412 14.8766 283.412 12.1151L279.412 12.1151C279.412 17.0857 283.442 21.1151 288.412 21.1151L288.412 17.1151ZM288.412 19.1151C283.442 19.1151 279.412 23.1446 279.412 28.1151L283.412 28.1151C283.412 25.3537 285.651 23.1151 288.412 23.1151L288.412 19.1151ZM525.297 12.1151C525.297 14.8765 523.058 17.1151 520.297 17.1151L520.297 21.1151C525.267 21.1151 529.297 17.0856 529.297 12.1151L525.297 12.1151ZM540.06 17.1151C537.298 17.1151 535.06 14.8765 535.06 12.1151L531.06 12.1151C531.06 17.0856 535.089 21.1151 540.06 21.1151L540.06 17.1151ZM540.06 19.1151C535.089 19.1151 531.06 23.1445 531.06 28.1151L535.06 28.1151C535.06 25.3536 537.298 23.1151 540.06 23.1151L540.06 19.1151ZM776.944 12.115C776.944 14.8764 774.706 17.115 771.944 17.115L771.944 21.115C776.915 21.115 780.944 17.0855 780.944 12.115L776.944 12.115ZM791.707 17.115C788.946 17.115 786.707 14.8764 786.707 12.115L782.707 12.115C782.707 17.0855 786.737 21.115 791.707 21.115L791.707 17.115ZM791.707 19.115C786.737 19.115 782.707 23.1444 782.707 28.115L786.707 28.115C786.707 25.3536 788.946 23.115 791.707 23.115L791.707 19.115ZM1028.59 12.1149C1028.59 14.8763 1026.35 17.1149 1023.59 17.1149L1023.59 21.1149C1028.56 21.1149 1032.59 17.0855 1032.59 12.1149L1028.59 12.1149ZM1043.35 17.1149C1040.59 17.1149 1038.35 14.8763 1038.35 12.1149L1034.35 12.1149C1034.35 17.0855 1038.38 21.1149 1043.35 21.1149L1043.35 17.1149ZM17.6964 21.1152C22.2834 21.1152 26.002 17.3967 26.002 12.8097L22.002 12.8097C22.002 15.1876 20.0743 17.1152 17.6964 17.1152L17.6964 21.1152ZM1043.35 19.1149C1038.38 19.1149 1034.35 23.1443 1034.35 28.1149L1038.35 28.1149C1038.35 25.3535 1040.59 23.1149 1043.35 23.1149L1043.35 19.1149ZM1280.24 12.1148C1280.24 14.8762 1278 17.1148 1275.24 17.1148L1275.24 21.1148C1280.21 21.1148 1284.24 17.0854 1284.24 12.1148L1280.24 12.1148ZM26.002 27.4208C26.002 22.8338 22.2834 19.1152 17.6964 19.1152L17.6964 23.1152C20.0743 23.1152 22.002 25.0429 22.002 27.4208L26.002 27.4208ZM277.649 28.1151C277.649 23.1446 273.62 19.1151 268.649 19.1151L268.649 23.1151C271.411 23.1151 273.649 25.3537 273.649 28.1151L277.649 28.1151ZM529.297 28.1151C529.297 23.1445 525.267 19.1151 520.297 19.1151L520.297 23.1151C523.058 23.1151 525.297 25.3536 525.297 28.1151L529.297 28.1151ZM1290.42 17.1148C1290.19 17.1148 1290 16.9291 1290 16.7L1286 16.7C1286 19.1382 1287.98 21.1148 1290.42 21.1148L1290.42 17.1148ZM780.944 28.115C780.944 23.1444 776.915 19.115 771.944 19.115L771.944 23.115C774.706 23.115 776.944 25.3536 776.944 28.115L780.944 28.115ZM1032.59 28.1149C1032.59 23.1443 1028.56 19.1149 1023.59 19.1149L1023.59 23.1149C1026.35 23.1149 1028.59 25.3535 1028.59 28.1149L1032.59 28.1149ZM1284.24 28.1148C1284.24 23.1443 1280.21 19.1148 1275.24 19.1148L1275.24 23.1148C1278 23.1148 1280.24 25.3534 1280.24 28.1148L1284.24 28.1148ZM1290.42 19.1148C1287.98 19.1148 1286 21.0914 1286 23.5297L1290 23.5297C1290 23.3005 1290.19 23.1148 1290.42 23.1148L1290.42 19.1148Z" fill="white" mask="url(#path-1-inside-1_408_428)"/>
<path d="M1285.55 25.168C1287.95 25.168 1290.19 26.4041 1291.47 28.4412L1297.18 37.5106C1298.61 39.7886 1298.61 42.6861 1297.18 44.9641L1291.47 54.0335C1290.19 56.0706 1287.95 57.3067 1285.55 57.3067L22.8872 57.3066C20.4673 57.3066 18.2189 56.0567 16.9416 54.0013L11.3058 44.9319C9.8999 42.6695 9.8999 39.8051 11.3058 37.5426L16.9417 28.4733C18.2189 26.4178 20.4672 25.1679 22.8872 25.1679L1285.55 25.168Z" fill="black"/>
<path d="M2.70117 37.6928L11.6365 24.4687C12.53 23.2774 14.9604 20.8232 17.5338 20.5372C20.7505 20.1798 24.3246 20.5374 26.2903 30.3662C28.2561 40.195 31.4728 53.708 47.9137 53.708C60.3307 53.708 169.606 53.708 231.663 53.708C238.334 53.708 244.632 56.6766 248.894 61.8082V61.8082" stroke="white" stroke-width="2" stroke-linecap="round"/>
<path d="M1306.47 37.6928L1296.54 24.4687C1295.64 23.2774 1293.21 20.8232 1290.64 20.5372C1287.42 20.1798 1283.85 20.5374 1281.88 30.3662C1279.92 40.195 1276.7 53.708 1260.26 53.708C1247.84 53.708 1138.54 53.708 1076.49 53.708C1069.86 53.708 1063.63 56.7765 1059.58 62.0182V62.0182" stroke="white" stroke-width="2" stroke-linecap="round"/>
</svg>
