<svg width="1517" height="63" viewBox="0 0 1517 63" fill="none" xmlns="http://www.w3.org/2000/svg">
<mask id="path-1-inside-1_408_428" fill="white">
<path fill-rule="evenodd" clip-rule="evenodd" d="M17.0668 59.9474L1498.53 59.9474C1500.1 59.9474 1501.57 59.2146 1502.52 57.9672L1513.57 43.3747C1514.93 41.5889 1514.93 39.1209 1513.57 37.3351L1502.52 22.7426C1501.57 21.4952 1500.1 20.7624 1498.53 20.7624L1498.35 20.7624C1494.48 20.7624 1491.35 23.8964 1491.35 27.7624L1491.35 28.4789C1491.35 30.0703 1490.06 31.3604 1488.47 31.3604C1486.88 31.3604 1485.59 30.0703 1485.59 28.4789L1485.59 27.7624C1485.59 23.8964 1482.45 20.7624 1478.59 20.7624L1205.9 20.7625C1202.03 20.7625 1198.9 23.8965 1198.9 27.7625L1198.9 28.4789C1198.9 30.0703 1197.61 31.3603 1196.02 31.3603C1194.43 31.3603 1193.14 30.0703 1193.14 28.4789L1193.14 27.7625C1193.14 23.8965 1190 20.7625 1186.14 20.7625L913.454 20.7625C909.588 20.7625 906.454 23.8965 906.454 27.7625L906.454 28.4789C906.454 30.0702 905.163 31.3603 903.572 31.3603C901.981 31.3603 900.691 30.0702 900.691 28.4789L900.691 27.7625C900.691 23.8965 897.557 20.7625 893.691 20.7625L621.006 20.7625C617.14 20.7625 614.006 23.8965 614.006 27.7625L614.006 28.4788C614.006 30.0702 612.716 31.3603 611.125 31.3603C609.533 31.3603 608.243 30.0702 608.243 28.4788L608.243 27.7625C608.243 23.8965 605.109 20.7625 601.243 20.7625L328.559 20.7625C324.693 20.7625 321.559 23.8965 321.559 27.7625L321.559 28.4788C321.559 30.0702 320.269 31.3603 318.677 31.3603C317.086 31.3603 315.796 30.0702 315.796 28.4788L315.796 27.7625C315.796 23.8965 312.662 20.7625 308.796 20.7625L36.1113 20.7625C32.2454 20.7625 29.1113 23.8965 29.1113 27.7625L29.1113 28.4788C29.1113 30.0702 27.8213 31.3603 26.2299 31.3603C24.6384 31.3603 23.3484 30.0702 23.3484 28.4788L23.3484 27.0441C23.3484 23.5749 20.536 20.7625 17.0668 20.7625C15.412 20.7625 13.8644 21.5813 12.9333 22.9493L3.00195 37.5418C1.84668 39.2393 1.84668 41.4706 3.00195 43.1681L12.9333 57.7606C13.8644 59.1286 15.412 59.9474 17.0668 59.9474ZM23.3484 12.4809C23.3484 15.9501 20.536 18.7625 17.0668 18.7625C14.7501 18.7625 12.5834 19.9088 11.2799 21.824L1.34851 36.4165C-0.268923 38.793 -0.268923 41.9169 1.34851 44.2934L11.2799 58.8859C12.5834 60.8011 14.75 61.9474 17.0668 61.9474L1498.53 61.9474C1500.72 61.9474 1502.79 60.9214 1504.11 59.1751L1515.17 44.5826C1517.06 42.0825 1517.06 38.6273 1515.17 36.1272L1504.11 21.5347C1502.79 19.7884 1500.72 18.7624 1498.53 18.7624L1498.35 18.7624C1494.48 18.7624 1491.35 15.6284 1491.35 11.7624L1491.35 3.21741C1491.35 1.62602 1490.06 0.335936 1488.47 0.335936C1486.88 0.335936 1485.59 1.62602 1485.59 3.21741L1485.59 11.7624C1485.59 15.6284 1482.45 18.7624 1478.59 18.7624L1205.9 18.7625C1202.03 18.7625 1198.9 15.6284 1198.9 11.7624L1198.9 3.21739C1198.9 1.626 1197.61 0.335924 1196.02 0.335923C1194.43 0.335923 1193.14 1.626 1193.14 3.21739L1193.14 11.7625C1193.14 15.6284 1190 18.7625 1186.14 18.7625L913.454 18.7625C909.588 18.7625 906.454 15.6284 906.454 11.7625L906.454 3.21738C906.454 1.62599 905.163 0.335911 903.572 0.335911C901.981 0.335911 900.691 1.62599 900.691 3.21738L900.691 11.7625C900.691 15.6285 897.557 18.7625 893.691 18.7625L621.006 18.7625C617.14 18.7625 614.006 15.6285 614.006 11.7625L614.006 3.21737C614.006 1.62598 612.716 0.335898 611.125 0.335898C609.533 0.335898 608.243 1.62598 608.243 3.21737L608.243 11.7625C608.243 15.6285 605.109 18.7625 601.243 18.7625L328.559 18.7625C324.693 18.7625 321.559 15.6285 321.559 11.7625L321.559 3.21736C321.559 1.62596 320.269 0.335885 318.677 0.335885C317.086 0.335885 315.796 1.62596 315.796 3.21736L315.796 11.7625C315.796 15.6285 312.662 18.7625 308.796 18.7625L36.1113 18.7625C32.2454 18.7625 29.1113 15.6285 29.1113 11.7625L29.1113 3.21734C29.1113 1.62595 27.8213 0.335872 26.2299 0.335872C24.6384 0.335872 23.3484 1.62595 23.3484 3.21734L23.3484 12.4809Z"/>
</mask>
<path d="M1498.53 59.9474L1498.53 57.9474L1498.53 59.9474ZM17.0668 59.9474L17.0668 61.9474L17.0668 59.9474ZM1502.52 57.9672L1504.11 59.1751L1504.11 59.1751L1502.52 57.9672ZM1513.57 43.3747L1511.98 42.1668L1511.98 42.1668L1513.57 43.3747ZM1513.57 37.3351L1511.98 38.543L1511.98 38.543L1513.57 37.3351ZM1502.52 22.7426L1504.11 21.5347L1504.11 21.5347L1502.52 22.7426ZM12.9333 22.9493L14.5868 24.0746L14.5868 24.0745L12.9333 22.9493ZM3.00195 37.5418L1.34851 36.4165L1.34851 36.4165L3.00195 37.5418ZM3.00195 43.1681L1.34851 44.2934L1.34851 44.2934L3.00195 43.1681ZM12.9333 57.7606L14.5868 56.6354L14.5868 56.6353L12.9333 57.7606ZM11.2799 21.824L12.9333 22.9493L12.9333 22.9493L11.2799 21.824ZM1.34851 36.4165L-0.304933 35.2912V35.2912L1.34851 36.4165ZM1.34851 44.2934L-0.304934 45.4187L-0.304934 45.4187L1.34851 44.2934ZM11.2799 58.8859L12.9333 57.7606L12.9333 57.7606L11.2799 58.8859ZM17.0668 61.9474L17.0668 63.9474L17.0668 61.9474ZM1498.53 61.9474L1498.53 59.9474L1498.53 61.9474ZM1504.11 59.1751L1502.52 57.9672L1502.52 57.9672L1504.11 59.1751ZM1515.17 44.5826L1516.76 45.7906H1516.76L1515.17 44.5826ZM1515.17 36.1272L1513.57 37.3351L1513.57 37.3351L1515.17 36.1272ZM1504.11 21.5347L1505.71 20.3268L1505.71 20.3268L1504.11 21.5347ZM1491.35 3.21741L1489.35 3.21741V3.21741L1491.35 3.21741ZM1485.59 3.21741L1483.59 3.21741V3.21741L1485.59 3.21741ZM1198.9 3.21739L1196.9 3.21739L1198.9 3.21739ZM1193.14 3.21739L1191.14 3.21739L1193.14 3.21739ZM608.243 3.21737L610.243 3.21737L608.243 3.21737ZM36.1113 20.7625L36.1113 18.7625L36.1113 20.7625ZM328.559 18.7625L328.559 16.7625L328.559 18.7625ZM608.243 11.7625L606.243 11.7625L608.243 11.7625ZM621.006 18.7625L621.006 16.7625L621.006 18.7625ZM893.691 18.7625L893.691 16.7625L893.691 18.7625ZM913.454 20.7625L913.454 18.7625L913.454 20.7625ZM1193.14 11.7625L1195.14 11.7625L1193.14 11.7625ZM1198.9 11.7624L1200.9 11.7624L1198.9 11.7624ZM1205.9 20.7625L1205.9 18.7625L1205.9 20.7625ZM1485.59 11.7624L1487.59 11.7624L1485.59 11.7624ZM1478.59 18.7624L1478.59 16.7624L1478.59 18.7624ZM1491.35 11.7624L1489.35 11.7624L1491.35 11.7624ZM1186.14 20.7625L1186.14 18.7625L1186.14 20.7625ZM1478.59 20.7624L1478.59 18.7624L1478.59 20.7624ZM1498.53 57.9474L17.0668 57.9474L17.0668 61.9474L1498.53 61.9474L1498.53 57.9474ZM1500.92 56.7593C1500.36 57.5077 1499.47 57.9474 1498.53 57.9474L1498.53 61.9474C1500.72 61.9474 1502.79 60.9214 1504.11 59.1751L1500.92 56.7593ZM1511.98 42.1668L1500.92 56.7593L1504.11 59.1751L1515.17 44.5826L1511.98 42.1668ZM1511.98 38.543C1512.79 39.6145 1512.79 41.0953 1511.98 42.1668L1515.17 44.5826C1517.06 42.0825 1517.06 38.6273 1515.17 36.1272L1511.98 38.543ZM1500.92 23.9506L1511.98 38.543L1515.17 36.1272L1504.11 21.5347L1500.92 23.9506ZM1498.53 22.7624C1499.47 22.7624 1500.36 23.2021 1500.92 23.9506L1504.11 21.5347C1502.79 19.7884 1500.72 18.7624 1498.53 18.7624L1498.53 22.7624ZM1498.35 22.7624L1498.53 22.7624L1498.53 18.7624L1498.35 18.7624L1498.35 22.7624ZM1493.35 28.4789L1493.35 27.7624L1489.35 27.7624L1489.35 28.4789L1493.35 28.4789ZM1488.47 33.3604C1491.16 33.3604 1493.35 31.1748 1493.35 28.4789L1489.35 28.4789C1489.35 28.9657 1488.95 29.3604 1488.47 29.3604L1488.47 33.3604ZM1483.59 28.4789C1483.59 31.1748 1485.77 33.3604 1488.47 33.3604L1488.47 29.3604C1487.98 29.3604 1487.59 28.9657 1487.59 28.4789L1483.59 28.4789ZM1483.59 27.7624L1483.59 28.4789L1487.59 28.4789L1487.59 27.7624L1483.59 27.7624ZM1205.9 22.7625L1478.59 22.7624L1478.59 18.7624L1205.9 18.7625L1205.9 22.7625ZM1200.9 28.4789L1200.9 27.7625L1196.9 27.7625L1196.9 28.4789L1200.9 28.4789ZM1196.02 33.3603C1198.72 33.3603 1200.9 31.1748 1200.9 28.4789L1196.9 28.4789C1196.9 28.9657 1196.51 29.3603 1196.02 29.3603L1196.02 33.3603ZM1191.14 28.4789C1191.14 31.1748 1193.32 33.3603 1196.02 33.3603L1196.02 29.3603C1195.53 29.3603 1195.14 28.9657 1195.14 28.4789L1191.14 28.4789ZM1191.14 27.7625L1191.14 28.4789L1195.14 28.4789L1195.14 27.7625L1191.14 27.7625ZM913.454 22.7625L1186.14 22.7625L1186.14 18.7625L913.454 18.7625L913.454 22.7625ZM908.454 28.4789L908.454 27.7625L904.454 27.7625L904.454 28.4789L908.454 28.4789ZM903.572 33.3603C906.268 33.3603 908.454 31.1748 908.454 28.4789L904.454 28.4789C904.454 28.9657 904.059 29.3603 903.572 29.3603L903.572 33.3603ZM898.691 28.4789C898.691 31.1748 900.876 33.3603 903.572 33.3603L903.572 29.3603C903.085 29.3603 902.691 28.9657 902.691 28.4789L898.691 28.4789ZM898.691 27.7625L898.691 28.4789L902.691 28.4789L902.691 27.7625L898.691 27.7625ZM621.006 22.7625L893.691 22.7625L893.691 18.7625L621.006 18.7625L621.006 22.7625ZM616.006 28.4788L616.006 27.7625L612.006 27.7625L612.006 28.4788L616.006 28.4788ZM611.125 33.3603C613.821 33.3603 616.006 31.1748 616.006 28.4788L612.006 28.4788C612.006 28.9657 611.611 29.3603 611.125 29.3603L611.125 33.3603ZM606.243 28.4788C606.243 31.1748 608.429 33.3603 611.125 33.3603L611.125 29.3603C610.638 29.3603 610.243 28.9657 610.243 28.4788L606.243 28.4788ZM606.243 27.7625L606.243 28.4788L610.243 28.4788L610.243 27.7625L606.243 27.7625ZM328.559 22.7625L601.243 22.7625L601.243 18.7625L328.559 18.7625L328.559 22.7625ZM323.559 28.4788L323.559 27.7625L319.559 27.7625L319.559 28.4788L323.559 28.4788ZM318.677 33.3603C321.373 33.3603 323.559 31.1748 323.559 28.4788L319.559 28.4788C319.559 28.9657 319.164 29.3603 318.677 29.3603L318.677 33.3603ZM313.796 28.4788C313.796 31.1748 315.981 33.3603 318.677 33.3603L318.677 29.3603C318.19 29.3603 317.796 28.9657 317.796 28.4788L313.796 28.4788ZM313.796 27.7625L313.796 28.4788L317.796 28.4788L317.796 27.7625L313.796 27.7625ZM36.1113 22.7625L308.796 22.7625L308.796 18.7625L36.1113 18.7625L36.1113 22.7625ZM27.1113 27.7625L27.1113 28.4788L31.1113 28.4788L31.1113 27.7625L27.1113 27.7625ZM27.1113 28.4788C27.1113 28.9657 26.7167 29.3603 26.2299 29.3603L26.2299 33.3603C28.9259 33.3603 31.1113 31.1748 31.1113 28.4788L27.1113 28.4788ZM26.2299 29.3603C25.743 29.3603 25.3484 28.9657 25.3484 28.4788L21.3484 28.4788C21.3484 31.1748 23.5338 33.3603 26.2299 33.3603L26.2299 29.3603ZM25.3484 28.4788L25.3484 27.0441L21.3484 27.0441L21.3484 28.4788L25.3484 28.4788ZM14.5868 24.0745C15.1454 23.2537 16.074 22.7625 17.0668 22.7625L17.0668 18.7625C14.75 18.7625 12.5834 19.9088 11.2799 21.824L14.5868 24.0745ZM4.65539 38.667L14.5868 24.0746L11.2799 21.824L1.34851 36.4165L4.65539 38.667ZM4.65539 42.0429C3.96216 41.0244 3.96216 39.6855 4.65539 38.667L1.34851 36.4165C-0.268801 38.7931 -0.268801 41.9169 1.34851 44.2934L4.65539 42.0429ZM14.5868 56.6353L4.65539 42.0429L1.34851 44.2934L11.2799 58.8859L14.5868 56.6353ZM17.0668 57.9474C16.074 57.9474 15.1454 57.4562 14.5868 56.6354L11.2799 58.8858C12.5834 60.8011 14.75 61.9474 17.0668 61.9474L17.0668 57.9474ZM12.9333 22.9493C13.8644 21.5813 15.412 20.7625 17.0668 20.7625L17.0668 16.7625C14.0883 16.7625 11.3024 18.2363 9.62646 20.6988L12.9333 22.9493ZM3.00195 37.5418L12.9333 22.9493L9.62646 20.6987L-0.304933 35.2912L3.00195 37.5418ZM3.00195 43.1681C1.84656 41.4706 1.84656 39.2393 3.00195 37.5418L-0.304933 35.2912C-2.3844 38.3468 -2.3844 42.3631 -0.304934 45.4187L3.00195 43.1681ZM12.9333 57.7606L3.00195 43.1681L-0.304934 45.4187L9.62646 60.0112L12.9333 57.7606ZM17.0668 59.9474C15.412 59.9474 13.8644 59.1286 12.9333 57.7606L9.62646 60.0111C11.3024 62.4736 14.088 63.9474 17.0668 63.9474L17.0668 59.9474ZM1498.53 59.9474L17.0668 59.9474L17.0668 63.9474L1498.53 63.9474L1498.53 59.9474ZM1502.52 57.9672C1501.57 59.2146 1500.1 59.9474 1498.53 59.9474L1498.53 63.9474C1501.35 63.9474 1504 62.6283 1505.71 60.383L1502.52 57.9672ZM1513.57 43.3747L1502.52 57.9672L1505.71 60.383L1516.76 45.7906L1513.57 43.3747ZM1513.57 37.3351C1514.93 39.1209 1514.93 41.5889 1513.57 43.3747L1516.76 45.7906C1519.2 42.5761 1519.2 38.1337 1516.76 34.9193L1513.57 37.3351ZM1502.52 22.7426L1513.57 37.3351L1516.76 34.9193L1505.71 20.3268L1502.52 22.7426ZM1498.53 20.7624C1500.1 20.7624 1501.57 21.4952 1502.52 22.7426L1505.71 20.3268C1504 18.0815 1501.35 16.7624 1498.53 16.7624L1498.53 20.7624ZM1498.35 20.7624L1498.53 20.7624L1498.53 16.7624L1498.35 16.7624L1498.35 20.7624ZM1489.35 3.21741L1489.35 11.7624L1493.35 11.7624L1493.35 3.21741L1489.35 3.21741ZM1488.47 2.33594C1488.95 2.33594 1489.35 2.73058 1489.35 3.21741L1493.35 3.21741C1493.35 0.521448 1491.16 -1.66406 1488.47 -1.66406L1488.47 2.33594ZM1487.59 3.21741C1487.59 2.73058 1487.98 2.33594 1488.47 2.33594L1488.47 -1.66406C1485.77 -1.66406 1483.59 0.521448 1483.59 3.21741L1487.59 3.21741ZM1487.59 11.7624L1487.59 3.21741L1483.59 3.21741L1483.59 11.7624L1487.59 11.7624ZM1205.9 20.7625L1478.59 20.7624L1478.59 16.7624L1205.9 16.7625L1205.9 20.7625ZM1196.9 3.21739L1196.9 11.7624L1200.9 11.7624L1200.9 3.21739L1196.9 3.21739ZM1196.02 2.33592C1196.51 2.33592 1196.9 2.73057 1196.9 3.21739L1200.9 3.21739C1200.9 0.521438 1198.72 -1.66408 1196.02 -1.66408L1196.02 2.33592ZM1195.14 3.21739C1195.14 2.73057 1195.53 2.33592 1196.02 2.33592L1196.02 -1.66408C1193.32 -1.66408 1191.14 0.521439 1191.14 3.21739L1195.14 3.21739ZM1195.14 11.7625L1195.14 3.21739L1191.14 3.21739L1191.14 11.7625L1195.14 11.7625ZM913.454 20.7625L1186.14 20.7625L1186.14 16.7625L913.454 16.7625L913.454 20.7625ZM904.454 3.21738L904.454 11.7625L908.454 11.7625L908.454 3.21738L904.454 3.21738ZM903.572 2.33591C904.059 2.33591 904.454 2.73057 904.454 3.21738L908.454 3.21738C908.454 0.521411 906.268 -1.66409 903.572 -1.66409L903.572 2.33591ZM902.691 3.21738C902.691 2.73057 903.085 2.33591 903.572 2.33591L903.572 -1.66409C900.876 -1.66409 898.691 0.521412 898.691 3.21738L902.691 3.21738ZM902.691 11.7625L902.691 3.21738L898.691 3.21738L898.691 11.7625L902.691 11.7625ZM621.006 20.7625L893.691 20.7625L893.691 16.7625L621.006 16.7625L621.006 20.7625ZM612.006 3.21737L612.006 11.7625L616.006 11.7625L616.006 3.21737L612.006 3.21737ZM611.125 2.3359C611.611 2.3359 612.006 2.73056 612.006 3.21737L616.006 3.21737C616.006 0.521399 613.821 -1.6641 611.125 -1.6641L611.125 2.3359ZM610.243 3.21737C610.243 2.73056 610.638 2.3359 611.125 2.3359L611.125 -1.6641C608.429 -1.6641 606.243 0.521399 606.243 3.21737L610.243 3.21737ZM610.243 11.7625L610.243 3.21737L606.243 3.21737L606.243 11.7625L610.243 11.7625ZM328.559 20.7625L601.243 20.7625L601.243 16.7625L328.559 16.7625L328.559 20.7625ZM319.559 3.21736L319.559 11.7625L323.559 11.7625L323.559 3.21736L319.559 3.21736ZM318.677 2.33589C319.164 2.33589 319.559 2.73052 319.559 3.21736L323.559 3.21736C323.559 0.521413 321.373 -1.66411 318.677 -1.66411L318.677 2.33589ZM317.796 3.21736C317.796 2.73052 318.19 2.33589 318.677 2.33589L318.677 -1.66411C315.981 -1.66411 313.796 0.521414 313.796 3.21736L317.796 3.21736ZM317.796 11.7625L317.796 3.21736L313.796 3.21736L313.796 11.7625L317.796 11.7625ZM36.1113 20.7625L308.796 20.7625L308.796 16.7625L36.1113 16.7625L36.1113 20.7625ZM27.1113 3.21734L27.1113 11.7625L31.1113 11.7625L31.1113 3.21734L27.1113 3.21734ZM26.2299 2.33587C26.7167 2.33587 27.1113 2.7305 27.1113 3.21734L31.1113 3.21734C31.1113 0.521401 28.9259 -1.66413 26.2299 -1.66413L26.2299 2.33587ZM25.3484 3.21734C25.3484 2.7305 25.743 2.33587 26.2299 2.33587L26.2299 -1.66413C23.5338 -1.66413 21.3484 0.521401 21.3484 3.21734L25.3484 3.21734ZM25.3484 12.4809L25.3484 3.21734L21.3484 3.21734L21.3484 12.4809L25.3484 12.4809ZM36.1113 16.7625C33.3499 16.7625 31.1113 14.5239 31.1113 11.7625L27.1113 11.7625C27.1113 16.733 31.1407 20.7625 36.1113 20.7625L36.1113 16.7625ZM36.1113 18.7625C31.1407 18.7625 27.1113 22.7919 27.1113 27.7625L31.1113 27.7625C31.1113 25.0011 33.3499 22.7625 36.1113 22.7625L36.1113 18.7625ZM313.796 11.7625C313.796 14.5239 311.557 16.7625 308.796 16.7625L308.796 20.7625C313.766 20.7625 317.796 16.733 317.796 11.7625L313.796 11.7625ZM328.559 16.7625C325.797 16.7625 323.559 14.5239 323.559 11.7625L319.559 11.7625C319.559 16.733 323.588 20.7625 328.559 20.7625L328.559 16.7625ZM328.559 18.7625C323.588 18.7625 319.559 22.7919 319.559 27.7625L323.559 27.7625C323.559 25.0011 325.797 22.7625 328.559 22.7625L328.559 18.7625ZM606.243 11.7625C606.243 14.5239 604.005 16.7625 601.243 16.7625L601.243 20.7625C606.214 20.7625 610.243 16.733 610.243 11.7625L606.243 11.7625ZM621.006 16.7625C618.245 16.7625 616.006 14.5239 616.006 11.7625L612.006 11.7625C612.006 16.733 616.036 20.7625 621.006 20.7625L621.006 16.7625ZM621.006 18.7625C616.036 18.7625 612.006 22.7919 612.006 27.7625L616.006 27.7625C616.006 25.001 618.245 22.7625 621.006 22.7625L621.006 18.7625ZM898.691 11.7625C898.691 14.5239 896.452 16.7625 893.691 16.7625L893.691 20.7625C898.661 20.7625 902.691 16.733 902.691 11.7625L898.691 11.7625ZM913.454 16.7625C910.692 16.7625 908.454 14.5239 908.454 11.7625L904.454 11.7625C904.454 16.733 908.483 20.7625 913.454 20.7625L913.454 16.7625ZM913.454 18.7625C908.483 18.7625 904.454 22.7919 904.454 27.7625L908.454 27.7625C908.454 25.001 910.692 22.7625 913.454 22.7625L913.454 18.7625ZM1191.14 11.7625C1191.14 14.5239 1188.9 16.7625 1186.14 16.7625L1186.14 20.7625C1191.11 20.7625 1195.14 16.733 1195.14 11.7625L1191.14 11.7625ZM1205.9 16.7625C1203.14 16.7625 1200.9 14.5239 1200.9 11.7624L1196.9 11.7624C1196.9 16.733 1200.93 20.7625 1205.9 20.7625L1205.9 16.7625ZM17.0668 20.7625C21.6406 20.7625 25.3484 17.0547 25.3484 12.4809L21.3484 12.4809C21.3484 14.8455 19.4314 16.7625 17.0668 16.7625L17.0668 20.7625ZM1205.9 18.7625C1200.93 18.7625 1196.9 22.7919 1196.9 27.7625L1200.9 27.7625C1200.9 25.001 1203.14 22.7625 1205.9 22.7625L1205.9 18.7625ZM1483.59 11.7624C1483.59 14.5239 1481.35 16.7624 1478.59 16.7624L1478.59 20.7624C1483.56 20.7624 1487.59 16.733 1487.59 11.7624L1483.59 11.7624ZM25.3484 27.0441C25.3484 22.4703 21.6406 18.7625 17.0668 18.7625L17.0668 22.7625C19.4314 22.7625 21.3484 24.6794 21.3484 27.0441L25.3484 27.0441ZM317.796 27.7625C317.796 22.7919 313.766 18.7625 308.796 18.7625L308.796 22.7625C311.557 22.7625 313.796 25.0011 313.796 27.7625L317.796 27.7625ZM610.243 27.7625C610.243 22.7919 606.214 18.7625 601.243 18.7625L601.243 22.7625C604.005 22.7625 606.243 25.001 606.243 27.7625L610.243 27.7625ZM1498.35 16.7624C1495.59 16.7624 1493.35 14.5239 1493.35 11.7624L1489.35 11.7624C1489.35 16.733 1493.38 20.7624 1498.35 20.7624L1498.35 16.7624ZM902.691 27.7625C902.691 22.7919 898.661 18.7625 893.691 18.7625L893.691 22.7625C896.452 22.7625 898.691 25.001 898.691 27.7625L902.691 27.7625ZM1195.14 27.7625C1195.14 22.7919 1191.11 18.7625 1186.14 18.7625L1186.14 22.7625C1188.9 22.7625 1191.14 25.001 1191.14 27.7625L1195.14 27.7625ZM1487.59 27.7624C1487.59 22.7919 1483.56 18.7624 1478.59 18.7624L1478.59 22.7624C1481.35 22.7624 1483.59 25.001 1483.59 27.7624L1487.59 27.7624ZM1498.35 18.7624C1493.38 18.7624 1489.35 22.7919 1489.35 27.7624L1493.35 27.7624C1493.35 25.001 1495.59 22.7624 1498.35 22.7624L1498.35 18.7624Z" fill="white" mask="url(#path-1-inside-1_408_428)"/>
<path d="M1495.08 24.8154C1497.49 24.8154 1499.72 26.0516 1501 28.0887L1506.71 37.1581C1508.14 39.436 1508.14 42.3336 1506.71 44.6115L1501 53.6809C1499.72 55.718 1497.49 56.9542 1495.08 56.9542L22.2593 56.9541C19.8394 56.9541 17.5909 55.7042 16.3137 53.6488L10.6779 44.5794C9.27197 42.3169 9.27197 39.4526 10.6779 37.1901L16.3137 28.1208C17.5909 26.0653 19.8392 24.8154 22.2593 24.8154L1495.08 24.8154Z" fill="black"/>
<path d="M2.07324 37.3403L11.0085 24.1162C11.9021 22.9248 14.3325 20.4706 16.9058 20.1847C20.1225 19.8273 23.6966 20.1849 25.6624 30.0137C27.6282 39.8425 30.8449 53.3555 47.2858 53.3555C59.7027 53.3555 168.978 53.3555 231.035 53.3555C237.706 53.3555 244.004 56.3241 248.266 61.4557V61.4557" stroke="white" stroke-width="2" stroke-linecap="round"/>
<path d="M1514.84 37.3403L1504.91 24.1162C1504.02 22.9248 1501.59 20.4706 1499.01 20.1847C1495.8 19.8273 1492.22 20.1849 1490.26 30.0137C1488.29 39.8425 1485.07 53.3555 1468.63 53.3555C1456.21 53.3555 1346.91 53.3555 1284.86 53.3555C1278.23 53.3555 1272.01 56.424 1267.95 61.6657V61.6657" stroke="white" stroke-width="2" stroke-linecap="round"/>
</svg>
