<svg width="292" height="53" viewBox="0 0 292 53" fill="none" xmlns="http://www.w3.org/2000/svg">
<mask id="path-1-inside-1_917_3897" fill="white">
<path fill-rule="evenodd" clip-rule="evenodd" d="M14.6555 50.918L277.153 50.9179C278.704 50.9179 280.167 50.1981 281.114 48.9694L288.902 38.8594C290.288 37.061 290.288 34.5549 288.902 32.7565L281.114 22.6465C280.016 21.2216 278.217 22.5132 278.217 24.312L278.217 28.39C278.217 29.9814 276.927 31.2715 275.335 31.2715C273.744 31.2715 272.454 29.9814 272.454 28.39L272.454 23.698C272.454 22.0411 271.111 20.698 269.454 20.698L229.57 20.698C227.913 20.698 226.57 22.0411 226.57 23.698L226.57 28.39C226.57 29.9814 225.279 31.2715 223.688 31.2715C222.097 31.2715 220.807 29.9814 220.807 28.39L220.807 23.698C220.807 22.0411 219.463 20.698 217.807 20.698L177.922 20.698C176.265 20.698 174.922 22.0411 174.922 23.698L174.922 28.39C174.922 29.9814 173.632 31.2715 172.041 31.2715C170.449 31.2715 169.159 29.9814 169.159 28.39L169.159 23.698C169.159 22.0411 167.816 20.698 166.159 20.698L126.275 20.698C124.618 20.698 123.275 22.0411 123.275 23.698L123.275 28.39C123.275 29.9814 121.985 31.2715 120.393 31.2715C118.802 31.2715 117.512 29.9814 117.512 28.39L117.512 23.698C117.512 22.0411 116.169 20.698 114.512 20.698L74.6273 20.698C72.9704 20.698 71.6273 22.0411 71.6273 23.698L71.6273 28.39C71.6273 29.9814 70.3372 31.2715 68.7458 31.2715C67.1544 31.2715 65.8644 29.9814 65.8644 28.39L65.8644 23.6981C65.8644 22.0412 64.5212 20.6981 62.8644 20.698L22.9799 20.698C21.323 20.698 19.9799 22.0412 19.9799 23.698L19.9799 28.39C19.9799 29.9814 18.6898 31.2715 17.0984 31.2715C15.507 31.2715 14.2169 29.9814 14.2169 28.39L14.2169 23.9927C14.2169 22.2321 12.5699 20.8246 11.2733 22.0156C11.0498 22.2208 10.8437 22.4476 10.6583 22.6944L3.06122 32.8043C1.72418 34.5836 1.72418 37.0325 3.06122 38.8117L10.6583 48.9217C11.6028 50.1785 13.0834 50.918 14.6555 50.918ZM14.2169 15.894C14.2169 17.4779 12.9306 18.7315 11.515 19.4421C10.5617 19.9207 9.71756 20.6171 9.05942 21.4929L1.46234 31.6028C-0.409517 34.0939 -0.409517 37.5222 1.46234 40.0132L9.05942 50.1232C10.3817 51.8827 12.4545 52.918 14.6555 52.918L277.153 52.9179C279.324 52.9179 281.373 51.9101 282.698 50.1899L290.487 40.08C292.426 37.5622 292.426 34.0537 290.487 31.5359L282.698 21.426C282.128 20.6856 281.423 20.0772 280.633 19.6244C279.348 18.8882 278.217 17.6861 278.217 16.2053L278.217 3.12854C278.217 1.53717 276.927 0.24707 275.335 0.24707C273.744 0.24707 272.454 1.53717 272.454 3.12854L272.454 15.698C272.454 17.3549 271.111 18.698 269.454 18.698L229.57 18.698C227.913 18.698 226.57 17.3549 226.57 15.698L226.57 3.12854C226.57 1.53717 225.279 0.247068 223.688 0.247068C222.097 0.247068 220.807 1.53717 220.807 3.12854L220.807 15.698C220.807 17.3548 219.463 18.698 217.807 18.698L177.922 18.698C176.265 18.698 174.922 17.3548 174.922 15.698L174.922 3.12854C174.922 1.53717 173.632 0.247066 172.041 0.247066C170.449 0.247065 169.159 1.53717 169.159 3.12854L169.159 15.698C169.159 17.3548 167.816 18.698 166.159 18.698L126.275 18.698C124.618 18.698 123.275 17.3548 123.275 15.698L123.275 3.12853C123.275 1.53716 121.985 0.247064 120.393 0.247063C118.802 0.247063 117.512 1.53716 117.512 3.12853L117.512 15.698C117.512 17.3548 116.169 18.698 114.512 18.698L74.6273 18.698C72.9704 18.698 71.6273 17.3548 71.6273 15.698L71.6273 3.12853C71.6273 1.53716 70.3372 0.247061 68.7458 0.247061C67.1544 0.247061 65.8644 1.53716 65.8644 3.12853L65.8644 15.6981C65.8644 17.3549 64.5212 18.6981 62.8644 18.698L22.9799 18.698C21.323 18.698 19.9799 17.3549 19.9799 15.698L19.9799 3.12853C19.9799 1.53716 18.6898 0.247059 17.0984 0.247059C15.507 0.247059 14.2169 1.53716 14.2169 3.12853L14.2169 15.894Z"/>
</mask>
<path d="M277.153 50.9179L277.153 48.9179L277.153 50.9179ZM14.6555 50.918L14.6555 52.918L14.6555 50.918ZM281.114 48.9694L282.698 50.1899L282.698 50.1899L281.114 48.9694ZM288.902 38.8594L287.318 37.6388L287.318 37.6388L288.902 38.8594ZM288.902 32.7565L290.487 31.536L288.902 32.7565ZM10.6583 22.6944L9.05942 21.4929L9.05942 21.4929L10.6583 22.6944ZM3.06122 32.8043L1.46234 31.6028L1.46231 31.6028L3.06122 32.8043ZM3.06122 38.8117L4.66009 37.6102L4.66009 37.6102L3.06122 38.8117ZM10.6583 48.9217L9.05938 50.1232L9.05942 50.1232L10.6583 48.9217ZM9.05942 21.4929L7.46054 20.2914L7.46054 20.2914L9.05942 21.4929ZM1.46234 31.6028L-0.136537 30.4014L-0.136568 30.4014L1.46234 31.6028ZM1.46234 40.0132L3.06122 38.8117L3.06122 38.8117L1.46234 40.0132ZM9.05942 50.1232L7.46051 51.3246L7.46054 51.3246L9.05942 50.1232ZM14.6555 52.918L14.6555 54.918L14.6555 52.918ZM277.153 52.9179L277.153 50.9179L277.153 52.9179ZM282.698 50.1899L281.114 48.9693L281.114 48.9693L282.698 50.1899ZM290.487 40.08L292.071 41.3005L292.071 41.3005L290.487 40.08ZM290.487 31.5359L288.902 32.7565L288.902 32.7565L290.487 31.5359ZM282.698 21.426L281.114 22.6465L281.114 22.6465L282.698 21.426ZM278.217 3.12854L276.217 3.12854V3.12854L278.217 3.12854ZM272.454 3.12854L270.454 3.12854V3.12854L272.454 3.12854ZM166.159 18.698L166.159 16.698L166.159 18.698ZM280.633 19.6244L279.639 21.3597L280.633 19.6244ZM11.515 19.4421L10.6177 17.6547L11.515 19.4421ZM11.2733 22.0156L9.92035 20.5426L11.2733 22.0156ZM126.275 18.698L126.275 20.698L126.275 18.698ZM166.159 20.698L166.159 18.698L166.159 20.698ZM126.275 20.698L126.275 22.698L126.275 20.698ZM277.153 48.9179L14.6555 48.918L14.6555 52.918L277.153 52.9179L277.153 48.9179ZM279.529 47.7488C278.961 48.486 278.083 48.9179 277.153 48.9179L277.153 52.9179C279.324 52.9179 281.373 51.9101 282.698 50.1899L279.529 47.7488ZM287.318 37.6388L279.529 47.7488L282.698 50.1899L290.487 40.0799L287.318 37.6388ZM287.318 33.9771C288.149 35.0561 288.149 36.5598 287.318 37.6388L290.487 40.0799C292.426 37.5622 292.426 34.0537 290.487 31.536L287.318 33.9771ZM279.529 23.8671L287.318 33.9771L290.487 31.536L282.698 21.426L279.529 23.8671ZM280.217 28.39L280.217 24.312L276.217 24.312L276.217 28.39L280.217 28.39ZM275.335 33.2715C278.031 33.2715 280.217 31.0859 280.217 28.39L276.217 28.39C276.217 28.8768 275.822 29.2715 275.335 29.2715L275.335 33.2715ZM270.454 28.39C270.454 31.0859 272.639 33.2715 275.335 33.2715L275.335 29.2715C274.849 29.2715 274.454 28.8768 274.454 28.39L270.454 28.39ZM270.454 23.698L270.454 28.39L274.454 28.39L274.454 23.698L270.454 23.698ZM229.57 22.698L269.454 22.698L269.454 18.698L229.57 18.698L229.57 22.698ZM228.57 28.39L228.57 23.698L224.57 23.698L224.57 28.39L228.57 28.39ZM223.688 33.2715C226.384 33.2715 228.57 31.0859 228.57 28.39L224.57 28.39C224.57 28.8768 224.175 29.2715 223.688 29.2715L223.688 33.2715ZM218.807 28.39C218.807 31.0859 220.992 33.2715 223.688 33.2715L223.688 29.2715C223.201 29.2715 222.807 28.8768 222.807 28.39L218.807 28.39ZM218.807 23.698L218.807 28.39L222.807 28.39L222.807 23.698L218.807 23.698ZM177.922 22.698L217.807 22.698L217.807 18.698L177.922 18.698L177.922 22.698ZM176.922 28.39L176.922 23.698L172.922 23.698L172.922 28.39L176.922 28.39ZM172.041 33.2715C174.737 33.2715 176.922 31.0859 176.922 28.39L172.922 28.39C172.922 28.8768 172.527 29.2715 172.041 29.2715L172.041 33.2715ZM167.159 28.39C167.159 31.0859 169.345 33.2715 172.041 33.2715L172.041 29.2715C171.554 29.2715 171.159 28.8768 171.159 28.39L167.159 28.39ZM167.159 23.698L167.159 28.39L171.159 28.39L171.159 23.698L167.159 23.698ZM126.275 22.698L166.159 22.698L166.159 18.698L126.275 18.698L126.275 22.698ZM125.275 28.39L125.275 23.698L121.275 23.698L121.275 28.39L125.275 28.39ZM120.393 33.2715C123.089 33.2715 125.275 31.0859 125.275 28.39L121.275 28.39C121.275 28.8768 120.88 29.2715 120.393 29.2715L120.393 33.2715ZM115.512 28.39C115.512 31.0859 117.697 33.2715 120.393 33.2715L120.393 29.2715C119.906 29.2715 119.512 28.8768 119.512 28.39L115.512 28.39ZM115.512 23.698L115.512 28.39L119.512 28.39L119.512 23.698L115.512 23.698ZM74.6273 22.698L114.512 22.698L114.512 18.698L74.6273 18.698L74.6273 22.698ZM73.6273 28.39L73.6273 23.698L69.6273 23.698L69.6273 28.39L73.6273 28.39ZM68.7458 33.2715C71.4418 33.2715 73.6273 31.0859 73.6273 28.39L69.6273 28.39C69.6273 28.8768 69.2326 29.2715 68.7458 29.2715L68.7458 33.2715ZM63.8644 28.39C63.8644 31.0859 66.0498 33.2715 68.7458 33.2715L68.7458 29.2715C68.259 29.2715 67.8644 28.8768 67.8644 28.39L63.8644 28.39ZM63.8644 23.698L63.8644 28.39L67.8644 28.39L67.8644 23.6981L63.8644 23.698ZM22.9799 22.698L62.8644 22.698L62.8644 18.698L22.9799 18.698L22.9799 22.698ZM17.9799 23.698L17.9799 28.39L21.9799 28.39L21.9799 23.698L17.9799 23.698ZM17.9799 28.39C17.9799 28.8768 17.5852 29.2715 17.0984 29.2715L17.0984 33.2715C19.7944 33.2715 21.9799 31.0859 21.9799 28.39L17.9799 28.39ZM17.0984 29.2715C16.6116 29.2715 16.2169 28.8768 16.2169 28.39L12.2169 28.39C12.2169 31.0859 14.4025 33.2715 17.0984 33.2715L17.0984 29.2715ZM16.2169 28.39L16.2169 23.9927L12.2169 23.9927L12.2169 28.39L16.2169 28.39ZM12.2572 23.8959C12.3686 23.7476 12.4922 23.6115 12.6262 23.4885L9.92035 20.5426C9.60745 20.83 9.31888 21.1476 9.05942 21.4929L12.2572 23.8959ZM4.66009 34.0058L12.2572 23.8959L9.05942 21.4929L1.46234 31.6028L4.66009 34.0058ZM4.66009 37.6102C3.85791 36.5427 3.85788 35.0734 4.66009 34.0058L1.46231 31.6028C-0.409517 34.0938 -0.409548 37.5222 1.46234 40.0132L4.66009 37.6102ZM12.2572 47.7202L4.66009 37.6102L1.46231 40.0132L9.05938 50.1232L12.2572 47.7202ZM14.6555 48.918C13.7122 48.918 12.8239 48.4743 12.2572 47.7202L9.05942 50.1232C10.3817 51.8827 12.4545 52.918 14.6555 52.918L14.6555 48.918ZM10.6583 22.6944C11.1284 22.0688 11.7312 21.5715 12.4123 21.2295L10.6177 17.6547C9.39221 18.2699 8.3067 19.1654 7.46054 20.2914L10.6583 22.6944ZM3.06122 32.8043L10.6583 22.6944L7.46054 20.2914L-0.136537 30.4014L3.06122 32.8043ZM3.06122 38.8117C1.72418 37.0324 1.72418 34.5836 3.06122 32.8043L-0.136568 30.4014C-2.54321 33.6041 -2.54325 38.012 -0.136538 41.2147L3.06122 38.8117ZM10.6583 48.9217L3.06122 38.8117L-0.136568 41.2146L7.46051 51.3246L10.6583 48.9217ZM14.6555 50.918C13.0833 50.918 11.6028 50.1785 10.6583 48.9217L7.46054 51.3246C9.16055 53.587 11.8256 54.918 14.6555 54.918L14.6555 50.918ZM277.153 50.9179L14.6555 50.918L14.6555 54.918L277.153 54.9179L277.153 50.9179ZM281.114 48.9693C280.167 50.1981 278.704 50.9179 277.153 50.9179L277.153 54.9179C279.945 54.9179 282.579 53.6221 284.282 51.4105L281.114 48.9693ZM288.902 38.8594L281.114 48.9693L284.282 51.4105L292.071 41.3005L288.902 38.8594ZM288.902 32.7565C290.288 34.5549 290.288 37.061 288.902 38.8594L292.071 41.3005C294.565 38.0634 294.565 33.5525 292.071 30.3154L288.902 32.7565ZM281.114 22.6465L288.902 32.7565L292.071 30.3154L284.282 20.2054L281.114 22.6465ZM279.639 21.3597C280.203 21.6832 280.706 22.1176 281.114 22.6465L284.282 20.2054C283.549 19.2536 282.643 18.4713 281.627 17.889L279.639 21.3597ZM276.217 3.12854L276.217 16.2053L280.217 16.2053L280.217 3.12854L276.217 3.12854ZM275.335 2.24707C275.822 2.24707 276.217 2.64173 276.217 3.12854L280.217 3.12854C280.217 0.43261 278.031 -1.75293 275.335 -1.75293L275.335 2.24707ZM274.454 3.12854C274.454 2.64173 274.849 2.24707 275.335 2.24707L275.335 -1.75293C272.639 -1.75293 270.454 0.43261 270.454 3.12854L274.454 3.12854ZM274.454 15.698L274.454 3.12854L270.454 3.12854L270.454 15.698L274.454 15.698ZM229.57 20.698L269.454 20.698L269.454 16.698L229.57 16.698L229.57 20.698ZM224.57 3.12854L224.57 15.698L228.57 15.698L228.57 3.12854L224.57 3.12854ZM223.688 2.24707C224.175 2.24707 224.57 2.64173 224.57 3.12854L228.57 3.12854C228.57 0.432602 226.384 -1.75293 223.688 -1.75293L223.688 2.24707ZM222.807 3.12854C222.807 2.64172 223.201 2.24707 223.688 2.24707L223.688 -1.75293C220.992 -1.75293 218.807 0.432612 218.807 3.12854L222.807 3.12854ZM222.807 15.698L222.807 3.12854L218.807 3.12854L218.807 15.698L222.807 15.698ZM177.922 20.698L217.807 20.698L217.807 16.698L177.922 16.698L177.922 20.698ZM172.922 3.12854L172.922 15.698L176.922 15.698L176.922 3.12854L172.922 3.12854ZM172.041 2.24707C172.527 2.24707 172.922 2.64173 172.922 3.12854L176.922 3.12854C176.922 0.432603 174.737 -1.75293 172.041 -1.75293L172.041 2.24707ZM171.159 3.12854C171.159 2.64172 171.554 2.24707 172.041 2.24707L172.041 -1.75293C169.345 -1.75293 167.159 0.432606 167.159 3.12854L171.159 3.12854ZM171.159 15.698L171.159 3.12854L167.159 3.12854L167.159 15.698L171.159 15.698ZM126.275 20.698L166.159 20.698L166.159 16.698L126.275 16.698L126.275 20.698ZM121.275 3.12853L121.275 15.698L125.275 15.698L125.275 3.12853L121.275 3.12853ZM120.393 2.24706C120.88 2.24706 121.275 2.64173 121.275 3.12853L125.275 3.12853C125.275 0.432601 123.089 -1.75294 120.393 -1.75294L120.393 2.24706ZM119.512 3.12853C119.512 2.64172 119.906 2.24706 120.393 2.24706L120.393 -1.75294C117.697 -1.75294 115.512 0.432608 115.512 3.12853L119.512 3.12853ZM119.512 15.698L119.512 3.12853L115.512 3.12853L115.512 15.698L119.512 15.698ZM74.6273 20.698L114.512 20.698L114.512 16.698L74.6273 16.698L74.6273 20.698ZM69.6273 3.12853L69.6273 15.698L73.6273 15.698L73.6273 3.12853L69.6273 3.12853ZM68.7458 2.24706C69.2326 2.24706 69.6273 2.64172 69.6273 3.12853L73.6273 3.12853C73.6273 0.432599 71.4418 -1.75294 68.7458 -1.75294L68.7458 2.24706ZM67.8644 3.12853C67.8644 2.64172 68.259 2.24706 68.7458 2.24706L68.7458 -1.75294C66.0499 -1.75294 63.8644 0.432606 63.8644 3.12853L67.8644 3.12853ZM67.8644 15.6981L67.8644 3.12853L63.8644 3.12853L63.8644 15.698L67.8644 15.6981ZM22.9799 20.698L62.8644 20.698L62.8644 16.698L22.9799 16.698L22.9799 20.698ZM17.9799 3.12853L17.9799 15.698L21.9799 15.698L21.9799 3.12853L17.9799 3.12853ZM17.0984 2.24706C17.5852 2.24706 17.9799 2.64172 17.9799 3.12853L21.9799 3.12853C21.9799 0.432604 19.7944 -1.75294 17.0984 -1.75294L17.0984 2.24706ZM16.2169 3.12853C16.2169 2.64173 16.6116 2.24706 17.0984 2.24706L17.0984 -1.75294C14.4025 -1.75294 12.2169 0.43259 12.2169 3.12853L16.2169 3.12853ZM16.2169 15.894L16.2169 3.12853L12.2169 3.12853L12.2169 15.894L16.2169 15.894ZM22.9799 16.698C22.4276 16.698 21.9799 16.2503 21.9799 15.698L17.9799 15.698C17.9799 18.4595 20.2185 20.698 22.9799 20.698L22.9799 16.698ZM115.512 15.698C115.512 16.2503 115.064 16.698 114.512 16.698L114.512 20.698C117.273 20.698 119.512 18.4594 119.512 15.698L115.512 15.698ZM167.159 15.698C167.159 16.2503 166.711 16.698 166.159 16.698L166.159 20.698C168.921 20.698 171.159 18.4594 171.159 15.698L167.159 15.698ZM218.807 15.698C218.807 16.2503 218.359 16.698 217.807 16.698L217.807 20.698C220.568 20.698 222.807 18.4594 222.807 15.698L218.807 15.698ZM270.454 15.698C270.454 16.2503 270.006 16.698 269.454 16.698L269.454 20.698C272.215 20.698 274.454 18.4594 274.454 15.698L270.454 15.698ZM281.627 17.889C280.581 17.2894 280.217 16.6159 280.217 16.2053L276.217 16.2053C276.217 18.7563 278.115 20.487 279.639 21.3597L281.627 17.889ZM12.4123 21.2295C14.0675 20.3986 16.2169 18.6227 16.2169 15.894L12.2169 15.894C12.2169 16.3332 11.7937 17.0643 10.6177 17.6547L12.4123 21.2295ZM16.2169 23.9927C16.2169 22.5288 15.5436 21.1173 14.4182 20.2875C13.8385 19.8601 13.0862 19.5547 12.2326 19.575C11.3576 19.5959 10.5598 19.9553 9.92035 20.5426L12.6262 23.4885C12.6374 23.4782 12.6157 23.5009 12.5559 23.5264C12.4944 23.5525 12.4155 23.5718 12.3278 23.5739C12.1477 23.5782 12.0504 23.5114 12.0445 23.5071C12.042 23.5052 12.0899 23.5431 12.1391 23.6448C12.1859 23.7416 12.2169 23.8625 12.2169 23.9927L16.2169 23.9927ZM67.8644 23.6981C67.8644 20.9366 65.6258 18.6981 62.8644 18.698L62.8644 22.698C63.4166 22.698 63.8644 23.1458 63.8644 23.698L67.8644 23.6981ZM74.6273 16.698C74.075 16.698 73.6273 16.2503 73.6273 15.698L69.6273 15.698C69.6273 18.4594 71.8659 20.698 74.6273 20.698L74.6273 16.698ZM119.512 23.698C119.512 20.9366 117.273 18.698 114.512 18.698L114.512 22.698C115.064 22.698 115.512 23.1457 115.512 23.698L119.512 23.698ZM22.9799 18.698C20.2185 18.698 17.9799 20.9366 17.9799 23.698L21.9799 23.698C21.9799 23.1458 22.4276 22.698 22.9799 22.698L22.9799 18.698ZM126.275 16.698C125.722 16.698 125.275 16.2503 125.275 15.698L121.275 15.698C121.275 18.4594 123.513 20.698 126.275 20.698L126.275 16.698ZM171.159 23.698C171.159 20.9366 168.921 18.698 166.159 18.698L166.159 22.698C166.711 22.698 167.159 23.1457 167.159 23.698L171.159 23.698ZM74.6273 18.698C71.8659 18.698 69.6273 20.9366 69.6273 23.698L73.6273 23.698C73.6273 23.1457 74.075 22.698 74.6273 22.698L74.6273 18.698ZM177.922 16.698C177.37 16.698 176.922 16.2503 176.922 15.698L172.922 15.698C172.922 18.4594 175.161 20.698 177.922 20.698L177.922 16.698ZM222.807 23.698C222.807 20.9366 220.568 18.698 217.807 18.698L217.807 22.698C218.359 22.698 218.807 23.1457 218.807 23.698L222.807 23.698ZM126.275 18.698C123.513 18.698 121.275 20.9366 121.275 23.698L125.275 23.698C125.275 23.1457 125.722 22.698 126.275 22.698L126.275 18.698ZM229.57 16.698C229.017 16.698 228.57 16.2503 228.57 15.698L224.57 15.698C224.57 18.4594 226.808 20.698 229.57 20.698L229.57 16.698ZM274.454 23.698C274.454 20.9366 272.215 18.698 269.454 18.698L269.454 22.698C270.006 22.698 270.454 23.1457 270.454 23.698L274.454 23.698ZM177.922 18.698C175.161 18.698 172.922 20.9366 172.922 23.698L176.922 23.698C176.922 23.1457 177.37 22.698 177.922 22.698L177.922 18.698ZM229.57 18.698C226.808 18.698 224.57 20.9366 224.57 23.698L228.57 23.698C228.57 23.1457 229.017 22.698 229.57 22.698L229.57 18.698ZM63.8644 15.698C63.8644 16.2503 63.4166 16.698 62.8644 16.698L62.8644 20.698C65.6258 20.6981 67.8644 18.4595 67.8644 15.6981L63.8644 15.698ZM282.698 21.426C282.163 20.7311 281.415 20.2206 280.511 20.0773C279.627 19.9372 278.815 20.1831 278.188 20.578C276.973 21.3432 276.217 22.7826 276.217 24.312L280.217 24.312C280.217 24.1954 280.246 24.0973 280.284 24.0266C280.325 23.9493 280.355 23.9404 280.319 23.9628C280.279 23.988 280.123 24.0657 279.885 24.028C279.627 23.9871 279.516 23.8495 279.529 23.8671L282.698 21.426Z" fill="white" mask="url(#path-1-inside-1_917_3897)"/>
<path d="M277.416 25.0369C278.447 25.0369 279.406 25.5666 279.956 26.4397L285.023 34.4967C285.637 35.4729 285.637 36.7147 285.023 37.691L279.956 45.748C279.406 46.621 278.447 47.1508 277.416 47.1508L14.2245 47.1509C13.1874 47.1509 12.2238 46.6152 11.6765 45.7343L6.6698 37.6773C6.06726 36.7077 6.06726 35.4802 6.6698 34.5105L11.6765 26.4536C12.2238 25.5727 13.1874 25.037 14.2245 25.037L277.416 25.0369Z" fill="black"/>
<path d="M1.80469 33.4673L9.01162 22.8011C9.73232 21.8402 11.6926 19.8607 13.7682 19.6301C16.3627 19.3418 19.2454 19.6302 20.831 27.5578C22.4165 35.4854 25.011 46.3846 38.2717 46.3846C48.3462 46.3846 29.066 46.3846 68.0428 46.3846C72.3054 46.3846 76.4386 48.0779 79.4527 51.092V51.092" stroke="white" stroke-width="2" stroke-linecap="round"/>
<path d="M290.465 33.4673L283.258 22.8011C282.537 21.8402 280.577 19.8607 278.501 19.6301C275.907 19.3418 273.024 19.6302 271.439 27.5578C269.853 35.4854 267.259 46.3846 253.998 46.3846C243.948 46.3846 263.108 46.3846 224.517 46.3846C220.066 46.3846 215.756 48.1528 212.609 51.3003V51.3003" stroke="white" stroke-width="2" stroke-linecap="round"/>
<path d="M156.113 29.2317C158.719 29.3593 162.372 30.5722 165.084 34.9464C169.5 40.883 173.829 42.9559 177.492 42.9559L46.4598 42.9559C42.7964 42.9559 38.4676 40.883 34.0514 34.9464C31.3393 30.5722 27.6871 29.3593 25.0808 29.2317L156.113 29.2317Z" fill="url(#paint0_linear_917_3897)"/>
<defs>
<linearGradient id="paint0_linear_917_3897" x1="-113.739" y1="36.0938" x2="312.171" y2="36.0938" gradientUnits="userSpaceOnUse">
<stop stop-color="#FFA000"/>
<stop offset="0.765625" stop-color="#FFD184"/>
<stop offset="1" stop-color="white"/>
</linearGradient>
</defs>
</svg>
