<svg width="795" height="46" viewBox="0 0 795 46" fill="none" xmlns="http://www.w3.org/2000/svg">
<mask id="path-1-inside-1_408_428" fill="white">
<path fill-rule="evenodd" clip-rule="evenodd" d="M11.8177 42.3802L782.256 42.3803C783.818 42.3803 785.291 41.6499 786.236 40.4059L790.961 34.19C792.32 32.4019 792.32 29.9269 790.961 28.1387L786.236 21.9228C785.291 20.6789 783.818 19.9484 782.256 19.9484C781.01 19.9484 780 20.9584 780 22.2042L780 28.9388C780 30.5302 778.71 31.8203 777.119 31.8203C775.527 31.8203 774.237 30.5302 774.237 28.9388L774.237 26.9484C774.237 23.0824 771.103 19.9484 767.237 19.9484L634.953 19.9484C631.087 19.9484 627.953 23.0824 627.953 26.9484L627.953 28.9388C627.953 30.5302 626.663 31.8203 625.071 31.8203C623.48 31.8203 622.19 30.5302 622.19 28.9388L622.19 26.9484C622.19 23.0824 619.056 19.9484 615.19 19.9484L482.905 19.9484C479.039 19.9484 475.905 23.0824 475.905 26.9484L475.905 28.9388C475.905 30.5302 474.615 31.8203 473.024 31.8203C471.432 31.8203 470.142 30.5302 470.142 28.9388L470.142 26.9484C470.142 23.0824 467.008 19.9484 463.142 19.9484L330.858 19.9484C326.992 19.9484 323.858 23.0824 323.858 26.9484L323.858 28.9388C323.858 30.5302 322.568 31.8203 320.976 31.8203C319.385 31.8203 318.095 30.5302 318.095 28.9388L318.095 26.9484C318.095 23.0824 314.961 19.9484 311.095 19.9484L178.81 19.9484C174.944 19.9484 171.81 23.0824 171.81 26.9484L171.81 28.9388C171.81 30.5302 170.52 31.8203 168.929 31.8203C167.338 31.8203 166.047 30.5302 166.047 28.9388L166.047 26.9484C166.047 23.0824 162.913 19.9484 159.047 19.9484L26.7629 19.9484C22.897 19.9484 19.7629 23.0824 19.7629 26.9484L19.7629 28.9388C19.7629 30.5302 18.4728 31.8203 16.8815 31.8203C15.2901 31.8203 14 30.5302 14 28.9388L14 22.1307C14 20.9255 13.0229 19.9484 11.8177 19.9484C10.1653 19.9484 8.61975 20.7647 7.68817 22.1294L3.44482 28.3453C2.28418 30.0455 2.28418 32.2832 3.44482 33.9834L7.68817 40.1993C8.61975 41.5639 10.1654 42.3802 11.8177 42.3802ZM14 15.7661C14 16.9713 13.0229 17.9484 11.8177 17.9484C9.50445 17.9484 7.34058 19.0912 6.03638 21.0017L1.79297 27.2177C0.16809 29.5979 0.168089 32.7308 1.79297 35.111L6.03638 41.3269C7.34057 43.2374 9.50445 44.3802 11.8177 44.3802L782.256 44.3803C784.443 44.3803 786.505 43.3577 787.829 41.6162L792.553 35.4003C794.456 32.8969 794.456 29.4319 792.553 26.9285L787.829 20.7125C786.505 18.971 784.443 17.9484 782.256 17.9484C781.01 17.9484 780 16.9385 780 15.6927L780 3.67737C780 2.08598 778.71 0.795898 777.119 0.795898C775.527 0.795898 774.237 2.08598 774.237 3.67737L774.237 10.9484C774.237 14.8144 771.103 17.9484 767.237 17.9484L634.953 17.9484C631.087 17.9484 627.953 14.8144 627.953 10.9484L627.953 3.67736C627.953 2.08597 626.663 0.795891 625.071 0.795891C623.48 0.795891 622.19 2.08597 622.19 3.67736L622.19 10.9484C622.19 14.8144 619.056 17.9484 615.19 17.9484L482.905 17.9484C479.039 17.9484 475.905 14.8144 475.905 10.9484L475.905 3.67735C475.905 2.08596 474.615 0.795884 473.024 0.795884C471.432 0.795884 470.142 2.08596 470.142 3.67735L470.142 10.9484C470.142 14.8144 467.008 17.9484 463.142 17.9484L330.858 17.9484C326.992 17.9484 323.858 14.8144 323.858 10.9484L323.858 3.67735C323.858 2.08596 322.568 0.795878 320.976 0.795878C319.385 0.795878 318.095 2.08596 318.095 3.67735L318.095 10.9484C318.095 14.8144 314.961 17.9484 311.095 17.9484L178.81 17.9484C174.944 17.9484 171.81 14.8144 171.81 10.9484L171.81 3.67734C171.81 2.08595 170.52 0.795871 168.929 0.795871C167.338 0.795871 166.047 2.08595 166.047 3.67734L166.047 10.9484C166.047 14.8144 162.913 17.9484 159.047 17.9484L26.7629 17.9484C22.897 17.9484 19.7629 14.8144 19.7629 10.9484L19.7629 3.67733C19.7629 2.08594 18.4728 0.795864 16.8815 0.795864C15.2901 0.795864 14 2.08594 14 3.67733L14 15.7661Z"/>
</mask>
<path d="M782.256 42.3803L782.256 44.3803L782.256 42.3803ZM11.8177 42.3802L11.8177 40.3802L11.8177 42.3802ZM786.236 40.4059L787.829 41.6162L787.829 41.6162L786.236 40.4059ZM790.961 34.19L792.553 35.4003L792.553 35.4003L790.961 34.19ZM790.961 28.1387L789.369 29.349L789.369 29.349L790.961 28.1387ZM786.236 21.9228L784.644 23.133L784.644 23.133L786.236 21.9228ZM7.68817 22.1294L9.33996 23.257L9.33996 23.257L7.68817 22.1294ZM3.44482 28.3453L5.09662 29.4729L5.09662 29.4729L3.44482 28.3453ZM3.44482 33.9834L5.09662 32.8558L5.09662 32.8558L3.44482 33.9834ZM7.68817 40.1993L9.33996 39.0717L9.33996 39.0717L7.68817 40.1993ZM6.03638 21.0017L7.68817 22.1294L7.68817 22.1293L6.03638 21.0017ZM1.79297 27.2177L0.141173 26.09L0.141173 26.09L1.79297 27.2177ZM1.79297 35.111L0.141173 36.2386L0.141173 36.2386L1.79297 35.111ZM6.03638 41.3269L7.68817 40.1993L7.68817 40.1993L6.03638 41.3269ZM11.8177 44.3802L11.8177 42.3802L11.8177 44.3802ZM782.256 44.3803L782.256 46.3803L782.256 44.3803ZM787.829 41.6162L789.421 42.8265L787.829 41.6162ZM792.553 35.4003L790.961 34.19L790.961 34.19L792.553 35.4003ZM792.553 26.9285L790.961 28.1387L790.961 28.1387L792.553 26.9285ZM787.829 20.7125L789.421 19.5023L789.421 19.5023L787.829 20.7125ZM780 3.67737L778 3.67737V3.67737L780 3.67737ZM777.119 0.795898L777.119 -1.2041L777.119 0.795898ZM774.237 3.67737L772.237 3.67737V3.67737L774.237 3.67737ZM171.81 3.67734L173.81 3.67734L171.81 3.67734ZM166.047 3.67734L168.047 3.67734L166.047 3.67734ZM19.7629 3.67733L21.7629 3.67733L19.7629 3.67733ZM14 3.67733L16 3.67733L14 3.67733ZM19.7629 10.9484L21.7629 10.9484L19.7629 10.9484ZM166.047 10.9484L168.047 10.9484L166.047 10.9484ZM171.81 10.9484L173.81 10.9484L171.81 10.9484ZM311.095 17.9484L311.095 15.9484L311.095 17.9484ZM615.19 17.9484L615.19 15.9484L615.19 17.9484ZM14 15.7661L12 15.7661L14 15.7661ZM311.095 19.9484L311.095 17.9484L311.095 19.9484ZM780 15.6927L782 15.6927L780 15.6927ZM615.19 19.9484L615.19 17.9484L615.19 19.9484ZM782.256 40.3803L11.8177 40.3802L11.8177 44.3802L782.256 44.3803L782.256 40.3803ZM784.644 39.1957C784.077 39.942 783.193 40.3803 782.256 40.3803L782.256 44.3803C784.443 44.3803 786.505 43.3577 787.829 41.6162L784.644 39.1957ZM789.369 32.9798L784.644 39.1957L787.829 41.6162L792.553 35.4003L789.369 32.9798ZM789.369 29.349C790.184 30.4219 790.184 31.9069 789.369 32.9798L792.553 35.4003C794.456 32.8969 794.456 29.4319 792.553 26.9285L789.369 29.349ZM784.644 23.133L789.369 29.349L792.553 26.9285L787.829 20.7125L784.644 23.133ZM782.256 21.9484C783.193 21.9484 784.077 22.3867 784.644 23.133L787.829 20.7125C786.505 18.971 784.443 17.9484 782.256 17.9484L782.256 21.9484ZM782 28.9388L782 22.2042L778 22.2042L778 28.9388L782 28.9388ZM777.119 33.8203C779.814 33.8203 782 31.6348 782 28.9388L778 28.9388C778 29.4257 777.605 29.8203 777.119 29.8203L777.119 33.8203ZM772.237 28.9388C772.237 31.6348 774.423 33.8203 777.119 33.8203L777.119 29.8203C776.632 29.8203 776.237 29.4257 776.237 28.9388L772.237 28.9388ZM772.237 26.9484L772.237 28.9388L776.237 28.9388L776.237 26.9484L772.237 26.9484ZM634.953 21.9484L767.237 21.9484L767.237 17.9484L634.953 17.9484L634.953 21.9484ZM629.953 28.9388L629.953 26.9484L625.953 26.9484L625.953 28.9388L629.953 28.9388ZM625.071 33.8203C627.767 33.8203 629.953 31.6348 629.953 28.9388L625.953 28.9388C625.953 29.4257 625.558 29.8203 625.071 29.8203L625.071 33.8203ZM620.19 28.9388C620.19 31.6348 622.375 33.8203 625.071 33.8203L625.071 29.8203C624.584 29.8203 624.19 29.4257 624.19 28.9388L620.19 28.9388ZM620.19 26.9484L620.19 28.9388L624.19 28.9388L624.19 26.9484L620.19 26.9484ZM482.905 21.9484L615.19 21.9484L615.19 17.9484L482.905 17.9484L482.905 21.9484ZM477.905 28.9388L477.905 26.9484L473.905 26.9484L473.905 28.9388L477.905 28.9388ZM473.024 33.8203C475.72 33.8203 477.905 31.6348 477.905 28.9388L473.905 28.9388C473.905 29.4257 473.511 29.8203 473.024 29.8203L473.024 33.8203ZM468.142 28.9388C468.142 31.6348 470.328 33.8203 473.024 33.8203L473.024 29.8203C472.537 29.8203 472.142 29.4257 472.142 28.9388L468.142 28.9388ZM468.142 26.9484L468.142 28.9388L472.142 28.9388L472.142 26.9484L468.142 26.9484ZM330.858 21.9484L463.142 21.9484L463.142 17.9484L330.858 17.9484L330.858 21.9484ZM325.858 28.9388L325.858 26.9484L321.858 26.9484L321.858 28.9388L325.858 28.9388ZM320.976 33.8203C323.672 33.8203 325.858 31.6348 325.858 28.9388L321.858 28.9388C321.858 29.4256 321.463 29.8203 320.976 29.8203L320.976 33.8203ZM316.095 28.9388C316.095 31.6348 318.28 33.8203 320.976 33.8203L320.976 29.8203C320.49 29.8203 320.095 29.4256 320.095 28.9388L316.095 28.9388ZM316.095 26.9484L316.095 28.9388L320.095 28.9388L320.095 26.9484L316.095 26.9484ZM178.81 21.9484L311.095 21.9484L311.095 17.9484L178.81 17.9484L178.81 21.9484ZM173.81 28.9388L173.81 26.9484L169.81 26.9484L169.81 28.9388L173.81 28.9388ZM168.929 33.8203C171.625 33.8203 173.81 31.6348 173.81 28.9388L169.81 28.9388C169.81 29.4256 169.416 29.8203 168.929 29.8203L168.929 33.8203ZM164.047 28.9388C164.047 31.6348 166.233 33.8203 168.929 33.8203L168.929 29.8203C168.442 29.8203 168.047 29.4256 168.047 28.9388L164.047 28.9388ZM164.047 26.9484L164.047 28.9388L168.047 28.9388L168.047 26.9484L164.047 26.9484ZM26.7629 21.9484L159.047 21.9484L159.047 17.9484L26.7629 17.9484L26.7629 21.9484ZM17.7629 26.9484L17.7629 28.9388L21.7629 28.9388L21.7629 26.9484L17.7629 26.9484ZM17.7629 28.9388C17.7629 29.4256 17.3683 29.8203 16.8815 29.8203L16.8815 33.8203C19.5774 33.8203 21.7629 31.6348 21.7629 28.9388L17.7629 28.9388ZM16.8815 29.8203C16.3947 29.8203 16 29.4256 16 28.9388L12 28.9388C12 31.6348 14.1855 33.8203 16.8815 33.8203L16.8815 29.8203ZM16 28.9388L16 22.1307L12 22.1307L12 28.9388L16 28.9388ZM9.33996 23.257C9.89892 22.4382 10.8263 21.9484 11.8177 21.9484L11.8177 17.9484C9.50439 17.9484 7.34058 19.0912 6.03638 21.0017L9.33996 23.257ZM5.09662 29.4729L9.33996 23.257L6.03638 21.0017L1.79303 27.2177L5.09662 29.4729ZM5.09662 32.8558C4.40027 31.8357 4.40027 30.493 5.09662 29.4729L1.79303 27.2177C0.16809 29.5979 0.168089 32.7308 1.79303 35.111L5.09662 32.8558ZM9.33996 39.0717L5.09662 32.8558L1.79303 35.111L6.03638 41.3269L9.33996 39.0717ZM11.8177 40.3802C10.8264 40.3802 9.89892 39.8905 9.33996 39.0717L6.03638 41.3269C7.34057 43.2374 9.50445 44.3802 11.8177 44.3802L11.8177 40.3802ZM7.68817 22.1293C8.61975 20.7647 10.1653 19.9484 11.8177 19.9484L11.8177 15.9484C8.84357 15.9484 6.0614 17.4177 4.38458 19.8741L7.68817 22.1293ZM3.44476 28.3453L7.68817 22.1294L4.38458 19.8741L0.141173 26.09L3.44476 28.3453ZM3.44476 33.9834C2.28418 32.2832 2.28418 30.0454 3.44476 28.3453L0.141173 26.09C-1.948 29.1504 -1.948 33.1783 0.141173 36.2386L3.44476 33.9834ZM7.68817 40.1993L3.44476 33.9834L0.141173 36.2386L4.38458 42.4546L7.68817 40.1993ZM11.8177 42.3802C10.1653 42.3802 8.61975 41.5639 7.68817 40.1993L4.38458 42.4545C6.0614 44.9109 8.84356 46.3802 11.8177 46.3802L11.8177 42.3802ZM782.256 42.3803L11.8177 42.3802L11.8177 46.3802L782.256 46.3803L782.256 42.3803ZM786.236 40.4059C785.291 41.6499 783.818 42.3803 782.256 42.3803L782.256 46.3803C785.068 46.3803 787.719 45.0655 789.421 42.8265L786.236 40.4059ZM790.961 34.19L786.236 40.4059L789.421 42.8265L794.146 36.6105L790.961 34.19ZM790.961 28.1387C792.32 29.9269 792.32 32.4019 790.961 34.19L794.146 36.6105C796.592 33.3919 796.592 28.9369 794.146 25.7182L790.961 28.1387ZM786.236 21.9228L790.961 28.1387L794.146 25.7182L789.421 19.5023L786.236 21.9228ZM782.256 19.9484C783.818 19.9484 785.291 20.6789 786.236 21.9228L789.421 19.5023C787.719 17.2632 785.068 15.9484 782.256 15.9484L782.256 19.9484ZM778 3.67737L778 15.6927L782 15.6927L782 3.67737L778 3.67737ZM777.119 2.7959C777.605 2.7959 778 3.19055 778 3.67737L782 3.67737C782 0.981406 779.814 -1.2041 777.119 -1.2041L777.119 2.7959ZM776.237 3.67737C776.237 3.19055 776.632 2.7959 777.119 2.7959L777.119 -1.2041C774.423 -1.2041 772.237 0.981407 772.237 3.67737L776.237 3.67737ZM776.237 10.9484L776.237 3.67737L772.237 3.67737L772.237 10.9484L776.237 10.9484ZM634.953 19.9484L767.237 19.9484L767.237 15.9484L634.953 15.9484L634.953 19.9484ZM625.953 3.67736L625.953 10.9484L629.953 10.9484L629.953 3.67736L625.953 3.67736ZM625.071 2.79589C625.558 2.79589 625.953 3.19054 625.953 3.67736L629.953 3.67736C629.953 0.981397 627.767 -1.20411 625.071 -1.20411L625.071 2.79589ZM624.19 3.67736C624.19 3.19054 624.584 2.79589 625.071 2.79589L625.071 -1.20411C622.375 -1.20411 620.19 0.981397 620.19 3.67736L624.19 3.67736ZM624.19 10.9484L624.19 3.67736L620.19 3.67736L620.19 10.9484L624.19 10.9484ZM482.905 19.9484L615.19 19.9484L615.19 15.9484L482.905 15.9484L482.905 19.9484ZM473.905 3.67735L473.905 10.9484L477.905 10.9484L477.905 3.67735L473.905 3.67735ZM473.024 2.79588C473.511 2.79588 473.905 3.19053 473.905 3.67735L477.905 3.67735C477.905 0.981397 475.72 -1.20412 473.024 -1.20412L473.024 2.79588ZM472.142 3.67735C472.142 3.19053 472.537 2.79588 473.024 2.79588L473.024 -1.20412C470.328 -1.20412 468.142 0.981398 468.142 3.67735L472.142 3.67735ZM472.142 10.9484L472.142 3.67735L468.142 3.67735L468.142 10.9484L472.142 10.9484ZM330.858 19.9484L463.142 19.9484L463.142 15.9484L330.858 15.9484L330.858 19.9484ZM321.858 3.67735L321.858 10.9484L325.858 10.9484L325.858 3.67735L321.858 3.67735ZM320.976 2.79588C321.463 2.79588 321.858 3.19052 321.858 3.67735L325.858 3.67735C325.858 0.98139 323.672 -1.20412 320.976 -1.20412L320.976 2.79588ZM320.095 3.67735C320.095 3.19052 320.49 2.79588 320.976 2.79588L320.976 -1.20412C318.28 -1.20412 316.095 0.981391 316.095 3.67735L320.095 3.67735ZM320.095 10.9484L320.095 3.67735L316.095 3.67735L316.095 10.9484L320.095 10.9484ZM178.81 19.9484L311.095 19.9484L311.095 15.9484L178.81 15.9484L178.81 19.9484ZM169.81 3.67734L169.81 10.9484L173.81 10.9484L173.81 3.67734L169.81 3.67734ZM168.929 2.79587C169.416 2.79587 169.81 3.19053 169.81 3.67734L173.81 3.67734C173.81 0.98137 171.625 -1.20413 168.929 -1.20413L168.929 2.79587ZM168.047 3.67734C168.047 3.19053 168.442 2.79587 168.929 2.79587L168.929 -1.20413C166.233 -1.20413 164.047 0.981371 164.047 3.67734L168.047 3.67734ZM168.047 10.9484L168.047 3.67734L164.047 3.67734L164.047 10.9484L168.047 10.9484ZM26.7629 19.9484L159.047 19.9484L159.047 15.9484L26.7629 15.9484L26.7629 19.9484ZM17.7629 3.67733L17.7629 10.9484L21.7629 10.9484L21.7629 3.67733L17.7629 3.67733ZM16.8815 2.79586C17.3683 2.79586 17.7629 3.19052 17.7629 3.67733L21.7629 3.67733C21.7629 0.981363 19.5774 -1.20414 16.8815 -1.20414L16.8815 2.79586ZM16 3.67733C16 3.19052 16.3947 2.79586 16.8815 2.79586L16.8815 -1.20414C14.1855 -1.20414 12 0.981364 12 3.67733L16 3.67733ZM16 15.7661L16 3.67733L12 3.67733L12 15.7661L16 15.7661ZM26.7629 15.9484C24.0015 15.9484 21.7629 13.7098 21.7629 10.9484L17.7629 10.9484C17.7629 15.919 21.7924 19.9484 26.7629 19.9484L26.7629 15.9484ZM26.7629 17.9484C21.7924 17.9484 17.7629 21.9778 17.7629 26.9484L21.7629 26.9484C21.7629 24.187 24.0015 21.9484 26.7629 21.9484L26.7629 17.9484ZM164.047 10.9484C164.047 13.7098 161.809 15.9484 159.047 15.9484L159.047 19.9484C164.018 19.9484 168.047 15.919 168.047 10.9484L164.047 10.9484ZM178.81 15.9484C176.049 15.9484 173.81 13.7098 173.81 10.9484L169.81 10.9484C169.81 15.919 173.84 19.9484 178.81 19.9484L178.81 15.9484ZM178.81 17.9484C173.84 17.9484 169.81 21.9778 169.81 26.9484L173.81 26.9484C173.81 24.187 176.049 21.9484 178.81 21.9484L178.81 17.9484ZM316.095 10.9484C316.095 13.7098 313.856 15.9484 311.095 15.9484L311.095 19.9484C316.065 19.9484 320.095 15.919 320.095 10.9484L316.095 10.9484ZM330.858 15.9484C328.096 15.9484 325.858 13.7098 325.858 10.9484L321.858 10.9484C321.858 15.919 325.887 19.9484 330.858 19.9484L330.858 15.9484ZM330.858 17.9484C325.887 17.9484 321.858 21.9779 321.858 26.9484L325.858 26.9484C325.858 24.187 328.096 21.9484 330.858 21.9484L330.858 17.9484ZM468.142 10.9484C468.142 13.7099 465.904 15.9484 463.142 15.9484L463.142 19.9484C468.113 19.9484 472.142 15.919 472.142 10.9484L468.142 10.9484ZM482.905 15.9484C480.144 15.9484 477.905 13.7098 477.905 10.9484L473.905 10.9484C473.905 15.919 477.935 19.9484 482.905 19.9484L482.905 15.9484ZM482.905 17.9484C477.935 17.9484 473.905 21.9779 473.905 26.9484L477.905 26.9484C477.905 24.187 480.144 21.9484 482.905 21.9484L482.905 17.9484ZM620.19 10.9484C620.19 13.7099 617.951 15.9484 615.19 15.9484L615.19 19.9484C620.16 19.9484 624.19 15.919 624.19 10.9484L620.19 10.9484ZM634.953 15.9484C632.191 15.9484 629.953 13.7099 629.953 10.9484L625.953 10.9484C625.953 15.919 629.982 19.9484 634.953 19.9484L634.953 15.9484ZM11.8177 19.9484C14.1275 19.9484 16 18.0759 16 15.7661L12 15.7661C12 15.8668 11.9184 15.9484 11.8177 15.9484L11.8177 19.9484ZM634.953 17.9484C629.982 17.9484 625.953 21.9779 625.953 26.9484L629.953 26.9484C629.953 24.187 632.191 21.9484 634.953 21.9484L634.953 17.9484ZM772.237 10.9484C772.237 13.7099 769.998 15.9484 767.237 15.9484L767.237 19.9484C772.208 19.9484 776.237 15.919 776.237 10.9484L772.237 10.9484ZM16 22.1307C16 19.8209 14.1275 17.9484 11.8177 17.9484L11.8177 21.9484C11.9184 21.9484 12 22.03 12 22.1307L16 22.1307ZM168.047 26.9484C168.047 21.9779 164.018 17.9484 159.047 17.9484L159.047 21.9484C161.809 21.9484 164.047 24.187 164.047 26.9484L168.047 26.9484ZM320.095 26.9484C320.095 21.9779 316.065 17.9484 311.095 17.9484L311.095 21.9484C313.856 21.9484 316.095 24.187 316.095 26.9484L320.095 26.9484ZM782.256 15.9484C782.115 15.9484 782 15.8339 782 15.6927L778 15.6927C778 18.0431 779.905 19.9484 782.256 19.9484L782.256 15.9484ZM472.142 26.9484C472.142 21.9779 468.113 17.9484 463.142 17.9484L463.142 21.9484C465.904 21.9484 468.142 24.187 468.142 26.9484L472.142 26.9484ZM624.19 26.9484C624.19 21.9779 620.16 17.9484 615.19 17.9484L615.19 21.9484C617.951 21.9484 620.19 24.187 620.19 26.9484L624.19 26.9484ZM776.237 26.9484C776.237 21.9779 772.208 17.9484 767.237 17.9484L767.237 21.9484C769.998 21.9484 772.237 24.187 772.237 26.9484L776.237 26.9484ZM782.256 17.9484C779.905 17.9484 778 19.8538 778 22.2042L782 22.2042C782 22.063 782.115 21.9484 782.256 21.9484L782.256 17.9484Z" fill="white" mask="url(#path-1-inside-1_408_428)"/>
<path d="M779.525 21.6531C781.928 21.6531 784.163 22.8857 785.445 24.9182L787.234 27.7536C788.673 30.0355 788.673 32.9416 787.234 35.2234L785.445 38.0589C784.163 40.0913 781.928 41.324 779.525 41.324L15.0771 41.324C12.6605 41.324 10.4149 40.0776 9.1366 38.0268L7.3692 35.1913C5.95654 32.9249 5.95654 30.0522 7.3692 27.7858L9.1366 24.9503C10.4149 22.8995 12.6605 21.6531 15.0771 21.6531L779.525 21.6531Z" fill="black"/>
<path d="M1.19141 29.3191L6.67707 21.2251C7.22564 20.4959 8.71774 18.9938 10.2976 18.8188C12.2724 18.6001 14.4667 18.8189 15.6735 24.8348C16.8804 30.8506 18.8552 39.1214 28.9488 39.1214C36.5728 39.1214 103.674 39.1214 141.77 39.1214C145.859 39.1214 149.72 40.9378 152.337 44.0792V44.0792" stroke="white" stroke-width="2" stroke-linecap="round"/>
<path d="M793.23 29.3191L787.131 21.2251C786.582 20.4959 785.09 18.9938 783.51 18.8188C781.535 18.6001 779.341 18.8189 778.134 24.8348C776.928 30.8506 774.953 39.1214 764.859 39.1214C757.234 39.1214 690.117 39.1214 652.023 39.1214C647.961 39.1214 644.144 40.9989 641.653 44.2078V44.2078" stroke="white" stroke-width="2" stroke-linecap="round"/>
</svg>
