<svg width="1369" height="1369" viewBox="0 0 1369 1369" fill="none" xmlns="http://www.w3.org/2000/svg">
<g style="mix-blend-mode:color-dodge" opacity="0.3">
<circle cx="684.105" cy="684.773" r="683.567" stroke="#A9A08A"/>
<circle cx="684.104" cy="684.773" r="450.715" stroke="#A9A08A" stroke-width="3"/>
<circle cx="684.105" cy="684.775" r="403.006" stroke="#A9A08A"/>
<path d="M1189.82 226.395C1107.77 273.888 1030.72 329.046 959.627 390.888M461.605 1331.06C472.881 1235.57 493.263 1142.86 521.858 1053.84" stroke="#A9A08A"/>
<path d="M906.512 39.2833C895.176 134.844 874.72 227.609 846.04 316.683M178.099 1143.32C260.248 1095.79 337.397 1040.59 408.565 978.678" stroke="#A9A08A"/>
<path d="M906.588 1330.9C895.308 1235.47 874.933 1142.81 846.353 1053.84M178.172 226.27C260.405 273.851 337.627 329.131 408.853 391.122" stroke="#A9A08A"/>
<path d="M1190.26 1143.41C1108.06 1095.86 1030.86 1040.63 959.646 978.68M461.662 38.9824C472.961 134.392 493.349 227.015 521.938 315.962" stroke="#A9A08A"/>
<circle cx="995.375" cy="1008.58" r="25.8608" stroke="#A9A08A"/>
<circle cx="178.172" cy="226.395" r="25.8608" stroke="#A9A08A"/>
<circle cx="482.596" cy="168.676" r="40.7073" stroke="#A9A08A"/>
<circle cx="890.296" cy="1221.11" r="40.7073" stroke="#A9A08A"/>
<circle cx="995.377" cy="1008.58" r="10.5898" fill="#A9A08A"/>
<circle cx="178.174" cy="226.395" r="10.5898" fill="#A9A08A"/>
<circle cx="373.716" cy="360.618" r="13.6519" fill="#A9A08A"/>
</g>
<g style="mix-blend-mode:color-dodge" opacity="0.1">
<g style="mix-blend-mode:color-dodge">
<path d="M917.546 932.777C917.546 933.639 917.546 934.5 917.445 935.362C917.445 935.362 917.698 934.298 917.546 932.777Z" fill="#A9A08A"/>
<path d="M993.355 652.777C993.355 652.777 1026.17 614.463 1009.76 565.862C1012.19 619.329 945.398 652.168 913.799 652.168C882.199 652.168 800.213 647.303 757.118 688.049C713.973 728.795 697.97 793.816 697.97 793.816L695.185 849.562C696.097 831.115 697.059 812.364 697.97 793.765V793.816C697.97 793.816 697.97 793.714 697.97 793.512C699.337 766.348 700.705 739.437 702.072 713.845C698.629 780.538 698.071 791.738 697.97 793.512C698.274 787.532 704.25 695.854 766.082 656.426C829.99 615.68 884.63 638.789 929.599 625.41C974.567 612.031 969.706 576.809 969.706 576.809C969.706 576.809 969.706 602.959 931.422 608.433C893.138 613.906 848.22 606.608 848.22 606.608C848.22 606.608 959.983 592.621 959.983 494.76C959.983 410.278 917.445 360.41 917.445 360.41C917.445 360.41 941.145 416.309 925.345 477.732C909.545 539.104 865.235 548.226 865.235 548.226C865.235 548.226 933.245 435.618 854.803 339.125C865.539 354.582 860.374 377.388 860.374 377.388C860.374 377.388 847.005 337.858 806.34 302.637C806.34 302.637 845.232 345.207 845.232 419.35C845.232 493.493 803.91 531.198 770.538 564.595C737.115 598.043 706.883 621.913 702.174 713.541C705.313 654.145 708.25 601.996 710.427 571.032C781.476 482.698 775.753 387.524 742.179 325.848C695.539 240.302 684.348 129.366 684.348 129.366C684.348 129.366 673.106 240.302 626.517 325.848C592.892 387.524 587.169 482.698 658.268 571.032C660.446 601.946 663.383 654.145 666.523 713.541C661.813 621.913 631.53 597.993 598.158 564.595C564.736 531.147 523.464 493.493 523.464 419.35C523.464 345.207 562.355 302.637 562.355 302.637C521.641 337.909 508.323 377.388 508.323 377.388C508.323 377.388 503.157 354.582 513.893 339.125C435.451 435.567 503.461 548.226 503.461 548.226C503.461 548.226 459.1 539.104 443.351 477.732C427.551 416.36 451.251 360.41 451.251 360.41C451.251 360.41 408.713 410.228 408.713 494.76C408.713 592.621 520.476 606.608 520.476 606.608C520.476 606.608 475.508 613.906 437.274 608.433C398.99 602.959 398.99 576.809 398.99 576.809C398.99 576.809 394.129 612.082 439.097 625.41C484.066 638.789 538.707 615.68 602.615 656.426C664.447 695.803 670.422 787.532 670.726 793.512C670.624 791.738 670.068 780.538 666.624 713.845C667.991 739.437 669.358 766.348 670.726 793.512C670.726 793.714 670.726 793.765 670.726 793.816C670.726 793.816 670.726 793.816 670.726 793.765C671.688 812.364 672.6 831.115 673.511 849.562L670.726 793.816C670.726 793.816 654.673 728.744 611.578 688.049C568.433 647.303 486.446 652.168 454.897 652.168C423.348 652.168 356.503 619.329 358.934 565.862C342.526 614.463 375.341 652.777 375.341 652.777C375.341 652.777 241.094 677.711 253.855 802.279C253.248 776.129 277.555 727.528 326.119 717.544C326.119 717.544 288.442 764.574 321.257 832.028C332.803 752.411 395.243 661.037 526.553 696.462C526.553 696.462 501.891 695.904 481.382 733.761C460.872 771.618 496.777 824.73 454.593 833.852C411.499 843.177 410.688 805.877 410.688 805.877C410.688 805.877 394.23 847.941 437.122 865.577C480.014 883.213 558.305 865.577 522.299 759.354C507.057 714.351 565.596 682.018 607.932 726.818C640.595 761.381 638.924 825.287 572.686 845.964C507.664 866.287 449.124 884.835 451.099 932.727C451.605 927.507 457.227 916.864 496.169 924.415C546.556 934.146 598.816 935.362 623.124 878.804C610.362 926.189 601.653 934.551 559.672 986.852C516.83 1040.17 547.822 1107.37 547.822 1107.37C547.822 1107.37 551.468 1077.57 588.537 1064.19C620.491 1052.68 613.148 1001.45 610.514 987.51C612.489 995.467 619.63 1015.59 643.583 1033.22C614.667 982.797 619.529 892.842 673.562 849.664C679.487 969.063 684.5 1077.62 684.5 1077.62C684.5 1077.62 689.513 969.114 695.438 849.664C749.471 892.842 754.333 982.797 725.417 1033.22C749.37 1015.64 756.511 995.518 758.486 987.51C755.852 1001.45 748.56 1052.68 780.463 1064.19C817.532 1077.57 821.178 1107.37 821.178 1107.37C821.178 1107.37 852.17 1040.22 809.328 986.852C767.347 934.551 758.637 926.24 745.876 878.804C770.183 935.311 822.393 934.095 872.831 924.415C911.773 916.915 917.344 927.507 917.901 932.727C919.876 884.835 861.336 866.287 796.314 845.964C730.127 825.287 728.455 761.381 761.068 726.818C803.454 681.968 861.943 714.301 846.701 759.354C810.695 865.577 888.986 883.213 931.878 865.577C974.77 847.941 958.312 805.877 958.312 805.877C958.312 805.877 957.552 843.126 914.407 833.852C872.173 824.73 908.077 771.618 887.618 733.761C867.109 695.904 842.447 696.462 842.447 696.462C973.757 660.987 1036.2 752.361 1047.74 832.028C1080.56 764.574 1042.88 717.544 1042.88 717.544C1091.44 727.477 1115.75 776.129 1115.14 802.279C1127.91 677.66 993.659 652.777 993.659 652.777H993.355ZM684.196 537.888C684.196 537.888 631.986 477.124 631.986 406.579C631.986 336.034 684.196 285.254 684.196 228.341C684.196 285.254 736.406 336.085 736.406 406.579C736.406 477.073 684.196 537.888 684.196 537.888Z" fill="#A9A08A"/>
<path d="M821.988 774.304C828.673 763.054 826.04 738.12 803.859 734.471C781.679 730.822 771.956 745.418 771.956 745.418C777.121 742.377 795.351 741.161 795.351 755.452C795.351 769.743 786.085 765.537 776.058 787.126C766.031 808.715 786.541 827.162 798.39 827.162C807.809 827.162 815.709 815.912 808.417 803.141C809.329 814.391 792.009 820.777 788.06 807.094C784.11 793.41 815.304 785.504 821.988 774.254V774.304Z" fill="#A9A08A"/>
<path d="M977.808 772.885C941.347 771.771 937.499 756.466 937.499 756.466C937.499 756.466 963.224 768.324 974.162 759.405C985.101 750.536 985.303 737.968 976.188 730.011C967.073 722.055 952.033 726.362 948.842 735.231C945.652 744.1 955.881 748.458 957.704 747.546C959.527 746.634 956.793 744.151 957.249 738.424C957.705 732.748 964.287 732.494 966.364 738.424C968.389 744.353 970.668 756.415 944.031 749.827C917.394 743.238 896.885 701.732 896.885 701.732C897.594 745.063 923.421 781.399 945.601 792.447C980.442 809.78 1005.71 795.387 1005.71 795.387C1005.71 795.387 998.925 773.494 977.707 772.835L977.808 772.885Z" fill="#A9A08A"/>
<path d="M785.021 458.677C801.429 445.906 819.355 412.458 819.355 412.458C819.355 412.458 816.924 355.444 793.377 325.848C757.827 281.149 760.36 250.184 760.36 250.184C751.903 291.69 765.018 313.533 778.337 336.794C799.757 374.195 796.871 438 785.021 458.677Z" fill="#A9A08A"/>
<path d="M450.997 935.412C450.947 934.551 450.896 933.689 450.896 932.828C450.744 934.348 450.997 935.412 450.997 935.412Z" fill="#A9A08A"/>
<path d="M596.437 745.468C596.437 745.468 586.714 730.873 564.533 734.522C542.353 738.17 539.72 763.104 546.404 774.355C553.089 785.606 584.283 793.512 580.333 807.195C576.383 820.878 559.064 814.493 559.975 803.242C552.683 816.013 560.583 827.264 570.002 827.264C581.852 827.264 602.361 808.817 592.335 787.228C582.308 765.638 573.041 770.25 573.041 755.553C573.041 740.856 591.271 742.478 596.437 745.519V745.468Z" fill="#A9A08A"/>
<path d="M471.457 701.783C471.457 701.783 450.947 743.289 424.31 749.877C397.673 756.465 399.953 744.404 401.978 738.474C404.004 732.545 410.637 732.798 411.093 738.474C411.549 744.151 408.815 746.685 410.638 747.597C412.461 748.509 422.69 744.201 419.5 735.282C416.309 726.413 401.269 722.055 392.154 730.062C383.039 738.018 383.292 750.587 394.179 759.456C405.118 768.324 430.843 756.516 430.843 756.516C430.843 756.516 426.995 771.771 390.534 772.936C369.315 773.595 362.529 795.488 362.529 795.488C362.529 795.488 387.799 809.83 422.639 792.549C444.82 781.501 470.697 745.164 471.355 701.834L471.457 701.783Z" fill="#A9A08A"/>
<path d="M549.037 412.508C549.037 412.508 566.964 445.956 583.371 458.727C571.522 438.05 568.635 374.246 590.056 336.845C603.375 313.533 616.49 291.69 608.033 250.235C608.033 250.235 610.565 281.25 575.016 325.898C551.468 355.495 549.037 412.508 549.037 412.508Z" fill="#A9A08A"/>
</g>
</g>
</svg>
