<svg width="23" height="23" viewBox="0 0 23 23" fill="none" xmlns="http://www.w3.org/2000/svg">
<path d="M11.5018 0.212891C5.2184 0.212891 0.12915 5.30214 0.12915 11.5856C0.724652 26.6718 22.2813 26.6675 22.8745 11.5855C22.8745 5.30214 17.7852 0.212891 11.5018 0.212891ZM18.8159 11.8343C16.284 18.5601 6.71848 18.5588 4.18779 11.8342C4.1238 11.6709 4.1238 11.5003 4.18779 11.3368C5.32504 8.3017 8.26772 6.25462 11.5018 6.25462C14.7359 6.25462 17.6786 8.3017 18.8159 11.3368C18.8798 11.5003 18.8798 11.6709 18.8159 11.8343Z" fill="#616485"/>
<path d="M11.5018 7.6762C9.37372 7.6762 7.40293 8.7578 6.22729 10.4712C5.76709 11.1419 5.76709 12.0292 6.22729 12.6999C7.40292 14.4133 9.37372 15.4949 11.5018 15.4949C13.6299 15.4949 15.6007 14.4133 16.7764 12.6999C17.2366 12.0292 17.2366 11.1419 16.7764 10.4712C15.6007 8.7578 13.6299 7.6762 11.5018 7.6762ZM11.5018 14.777C7.28329 14.647 7.28427 8.52345 11.5019 8.39411C15.7203 8.52407 15.7194 14.6476 11.5018 14.777Z" fill="#616485"/>
<path d="M11.5018 9.81569C9.16872 9.87969 9.16919 13.2918 11.5019 13.3554C13.8349 13.2914 13.8344 9.87935 11.5018 9.81569Z" fill="#616485"/>
</svg>
