<svg width="764" height="839" viewBox="0 0 764 839" fill="none" xmlns="http://www.w3.org/2000/svg">
<g style="mix-blend-mode:color-dodge" opacity="0.1">
<path d="M234.374 444.712L177.459 493.071L236.848 484.373L275.856 427.675L234.374 444.712Z" fill="#A9A08A"/>
<path d="M302.761 454.942L270.592 465.489L247.061 498.66L220.471 555.357L288.858 510.108L302.761 454.942Z" fill="#A9A08A"/>
<path d="M335.425 487.257L300.286 515.831V569.78L334.345 533.544L335.425 487.257Z" fill="#A9A08A"/>
<path d="M367.279 616.742L336.819 548.958L308.97 582.58L349.642 643.468L367.279 616.742Z" fill="#A9A08A"/>
<path d="M350.722 143.647L333.58 119.264L316.843 163.207L337.044 205.978L382.306 98.6672L427.567 205.978L447.724 163.207L431.032 119.264L413.845 143.647L422.843 101.597L382.621 1.54225V0.0098877L382.306 0.776071L381.991 0.0098877V1.54225L341.768 101.597L350.722 143.647Z" fill="#A9A08A"/>
<path d="M80.9072 248.839L110.917 263.802V243.656L78.7477 212.874L80.9072 248.839Z" fill="#A9A08A"/>
<path d="M110.917 228.963L116.811 189.618L55.847 82.0816L78.7477 195.522L110.917 228.963Z" fill="#A9A08A"/>
<path d="M119.015 249.019L145.605 204.491L135.077 89.2026L110.917 162.351L128.283 186.823L119.015 249.019Z" fill="#A9A08A"/>
<path d="M175.3 98.4869L148.395 131.974L152.714 183.128L175.3 98.4869Z" fill="#A9A08A"/>
<path d="M119.915 611.785L133.997 653.925L204.679 654.871L119.915 611.785Z" fill="#A9A08A"/>
<path d="M142.816 701.473L173.905 698.543L214.577 658.026L153.164 667.536L142.816 701.473Z" fill="#A9A08A"/>
<path d="M494.02 306.483L482.862 195.522L432.741 262.18V327.17C429.592 324.736 426.263 322.483 422.753 320.5L420.594 259.385L399.133 311.666C395.758 310.99 392.294 310.584 388.785 310.314L418.974 228.107L382.306 134.182L345.638 228.107L375.827 310.359C372.273 310.63 368.808 311.125 365.434 311.846H365.524L344.018 259.385L341.858 320.905C338.349 322.934 335.02 325.187 331.87 327.666V262.225L281.75 195.567L270.592 306.528L311.939 350.336C310.544 352.679 309.24 355.113 308.07 357.592L263.438 316.444L163.827 300.624L220.471 368.499H303.841C303.031 371.113 302.401 373.817 301.861 376.566H221.101L142.816 392.431L233.789 436.374L300.961 402.301C301.276 404.78 301.636 407.214 302.131 409.647L270.592 454.987L316.393 441.241C317.833 443.179 319.318 445.072 320.937 446.875L306.495 493.071L342.623 464.452C344.378 465.444 346.223 466.3 348.067 467.156L345.638 512.812L372.858 474.232C375.422 474.548 378.032 474.683 380.641 474.773L347.033 537.24C347.033 537.24 382.711 625.891 382.306 626.297C381.901 625.891 417.579 537.24 417.579 537.24L383.971 474.773C386.625 474.773 389.235 474.593 391.799 474.277L418.974 512.812L416.544 467.427C418.479 466.57 420.414 465.624 422.258 464.632L458.117 493.026L443.854 447.326C445.564 445.388 447.184 443.405 448.758 441.331L494.02 454.897L462.931 410.188C463.471 407.664 463.921 405.095 464.236 402.481L530.823 436.284L621.796 392.341L543.511 376.476H463.336C462.796 373.727 462.121 371.068 461.356 368.409H544.141L600.785 300.534L501.174 316.353L456.947 357.096C455.777 354.617 454.472 352.184 453.033 349.84L494.02 306.438V306.483ZM382.621 325.232C419.649 325.232 449.703 355.293 449.703 392.431C449.703 429.568 419.694 459.63 382.621 459.63C345.548 459.63 315.538 429.568 315.538 392.431C315.538 355.293 345.548 325.232 382.621 325.232Z" fill="#A9A08A"/>
<path d="M530.193 444.712L488.756 427.675L527.719 484.373L587.153 493.071L530.193 444.712Z" fill="#A9A08A"/>
<path d="M544.141 555.357L517.506 498.66L494.02 465.489L461.806 454.942L475.753 510.108L544.141 555.357Z" fill="#A9A08A"/>
<path d="M464.281 515.831L429.187 487.257L430.267 533.544L464.281 569.78V515.831Z" fill="#A9A08A"/>
<path d="M455.642 582.58L427.792 548.958L397.288 616.742L414.925 643.468L455.642 582.58Z" fill="#A9A08A"/>
<path d="M382.306 705.304L405.027 657.665L389.73 629.767L382.306 645.812L374.882 629.767L359.54 657.665L382.306 705.304Z" fill="#A9A08A"/>
<path d="M653.65 263.802L683.659 248.839L685.864 212.874L653.65 243.656V263.802Z" fill="#A9A08A"/>
<path d="M708.72 82.0816L647.801 189.618L653.65 228.963L685.864 195.522L708.72 82.0816Z" fill="#A9A08A"/>
<path d="M636.328 186.823L653.65 162.351L629.535 89.2026L619.007 204.491L645.552 249.019L636.328 186.823Z" fill="#A9A08A"/>
<path d="M616.217 131.974L589.312 98.4869L611.898 183.128L616.217 131.974Z" fill="#A9A08A"/>
<path d="M615.002 527.73C636.508 493.747 652.84 450.435 653.92 393.242C669.127 395.496 707.55 402.526 707.55 416.047C707.55 416.047 710.924 445.658 706.74 478.694C718.798 447.1 722.037 416.588 722.037 416.588C722.037 416.588 722.487 392.476 763.789 392.476C722.487 392.476 722.892 368.544 722.892 368.544C721.992 354.122 720.103 339.294 717.043 323.925C714.119 309.413 710.474 295.711 706.2 282.822L695.267 296.072C698.192 305.987 700.801 316.218 702.916 326.764C705.795 341.232 707.55 355.203 708.405 368.814C708 382.155 669.262 389.366 653.92 391.71C654.1 379.18 653.56 366.02 652.12 352.094C651.626 347.406 651.041 342.854 650.276 338.347L709.935 244.918L636.418 290.393C635.024 287.148 633.584 283.993 632.054 280.884L644.967 259.43L618.962 221.031L616.532 254.518C613.698 250.371 610.728 246.405 607.669 242.574L610.638 203.724L577.209 148.154L586.343 219.364C565.826 199.894 543.331 185.246 522.95 174.474C519.8 172.807 516.651 171.229 513.591 169.742C508.462 166.452 503.378 161.539 504.413 155.59C506.393 144.142 512.602 105.292 534.557 113.09C538.382 114.847 542.206 116.695 546.12 118.678C560.158 125.844 573.25 133.776 585.533 142.385L579.369 121.022C570.101 115.163 560.967 110.07 552.194 105.608C546.885 102.904 541.621 100.425 536.447 98.0813C536.447 98.0813 536.402 98.0813 536.357 98.0813C535.592 97.7658 534.872 97.4053 534.107 97.0898C529.563 94.3856 520.385 84.7407 525.649 51.8399L522.455 62.251C518.63 72.0311 510.982 84.8759 497.709 83.2084C456.092 69.6875 425.228 67.3889 423.428 67.2537C423.428 67.2537 426.038 73.5184 431.617 82.6675C443.809 84.3351 467.115 88.3914 495.145 97.5856C497.619 98.7123 503.288 103.535 498.429 122.87C492.4 147.027 492.58 158.43 480.073 155.635C466.485 150.768 457.712 148.694 457.307 148.604C457.307 148.604 460.681 157.799 464.371 165.551C501.174 176.953 624.901 224.772 637.903 353.491C651.536 488.204 584.588 550.445 535.727 595.92C528.843 602.32 522.32 608.404 516.471 614.218C508.372 622.331 498.699 630.939 488.486 640.043C450.198 674.116 400.618 718.239 382.306 784.446C364.039 718.284 314.459 674.116 276.126 640.043C265.868 630.939 256.195 622.331 248.141 614.218C242.292 608.359 235.813 602.32 228.885 595.92C180.024 550.49 113.076 488.249 126.709 353.491C139.756 224.772 263.438 176.953 300.241 165.551C303.975 157.799 307.305 148.604 307.305 148.604C306.9 148.694 298.172 150.768 284.539 155.635C272.032 158.43 272.212 147.027 266.183 122.87C261.369 103.535 267.037 98.7123 269.467 97.5856C297.497 88.3914 320.802 84.3351 332.995 82.6675C338.574 73.5184 341.184 67.2537 341.184 67.2537C339.384 67.3889 308.52 69.6875 266.902 83.2084C253.63 84.8759 245.981 71.986 242.157 62.251L238.963 51.8399C244.182 84.7407 235.003 94.3856 230.504 97.0898C229.739 97.4053 229.02 97.7658 228.255 98.0813H228.165C222.946 100.425 217.727 102.904 212.418 105.608C203.644 110.07 194.511 115.208 185.243 121.022L179.079 142.385C191.362 133.776 204.409 125.844 218.492 118.678C222.361 116.695 226.185 114.892 230.054 113.09C252.01 105.292 258.219 144.188 260.199 155.59C261.234 161.584 256.104 166.452 251.02 169.742C247.961 171.229 244.857 172.807 241.662 174.474C221.236 185.246 198.74 199.894 178.269 219.364L187.402 148.154L153.974 203.724L156.943 242.574C153.884 246.405 150.914 250.417 148.08 254.518L145.65 221.031L119.645 259.43L132.558 280.884C131.028 283.993 129.588 287.148 128.193 290.393L54.6772 244.918L114.336 338.347C113.616 342.809 112.986 347.406 112.491 352.094C111.097 366.02 110.557 379.18 110.692 391.71C95.3495 389.366 56.6118 382.2 56.2069 368.814C57.0617 355.248 58.8164 341.232 61.6959 326.764C63.8105 316.218 66.42 306.032 69.3445 296.072L58.4114 282.822C54.1372 295.711 50.4929 309.413 47.5685 323.925C44.509 339.294 42.6194 354.167 41.7196 368.544C41.7196 368.544 42.1245 392.476 0.822266 392.476C42.1245 392.476 42.5745 416.588 42.5745 416.588C42.5745 416.588 45.8138 447.1 57.8716 478.694C53.6873 445.703 57.0617 416.047 57.0617 416.047C57.0617 402.572 95.4845 395.541 110.692 393.242C111.726 450.435 128.103 493.702 149.609 527.73L89.1857 477.252L33.4862 490.502L59.9411 518.851L161.442 544.946C163.152 547.245 164.907 549.543 166.661 551.752L93.8198 538.186L72.2239 555.403L68.0397 588.889L97.9591 590.962L180.879 568.563C185.468 573.656 190.102 578.478 194.691 583.075L132.243 603.762L244.857 660.505L321.612 740.774L243.327 716.616L330.08 765.675C333.558 767.642 336.516 770.495 338.648 773.875C382.971 844.142 386.628 836.783 425.899 773.862C428.015 770.473 430.964 767.642 434.442 765.675L521.195 716.616L442.91 740.774L519.665 660.505L632.279 603.762L569.831 583.075C574.42 578.523 579.054 573.656 583.643 568.563L666.563 590.962L696.482 588.889L692.298 555.403L670.702 538.186L597.861 551.752C599.615 549.543 601.37 547.245 603.08 544.946L704.581 518.851L731.036 490.502L675.336 477.252L614.912 527.73H615.002Z" fill="#A9A08A"/>
<path d="M630.615 653.925L644.697 611.785L559.888 654.871L630.615 653.925Z" fill="#A9A08A"/>
<path d="M549.99 658.026L590.707 698.543L621.796 701.473L611.448 667.536L549.99 658.026Z" fill="#A9A08A"/>
</g>
</svg>
