<svg width="863" height="989" viewBox="0 0 863 989" fill="none" xmlns="http://www.w3.org/2000/svg">
<g style="mix-blend-mode:color-dodge" opacity="0.1">
<g style="mix-blend-mode:color-dodge">
<path d="M664.546 803.411C664.546 804.273 664.546 805.135 664.445 805.996C664.445 805.996 664.698 804.932 664.546 803.411Z" fill="#A9A08A"/>
<path d="M740.355 523.411C740.355 523.411 773.17 485.098 756.763 436.497C759.193 489.963 692.398 522.803 660.799 522.803C629.199 522.803 547.213 517.938 504.118 558.683C460.973 599.429 444.97 664.45 444.97 664.45L442.185 720.197C443.097 701.75 444.059 682.999 444.97 664.399V664.45C444.97 664.45 444.97 664.349 444.97 664.146C446.337 636.982 447.705 610.072 449.072 584.479C445.629 651.172 445.071 662.372 444.97 664.146C445.274 658.166 451.25 566.488 513.082 527.06C576.99 486.314 631.63 509.424 676.599 496.044C721.567 482.665 716.706 447.443 716.706 447.443C716.706 447.443 716.706 473.594 678.422 479.067C640.138 484.54 595.22 477.242 595.22 477.242C595.22 477.242 706.983 463.255 706.983 365.394C706.983 280.913 664.445 231.045 664.445 231.045C664.445 231.045 688.145 286.944 672.345 348.366C656.545 409.738 612.235 418.861 612.235 418.861C612.235 418.861 680.245 306.252 601.803 209.76C612.539 225.217 607.374 248.022 607.374 248.022C607.374 248.022 594.005 208.493 553.34 173.271C553.34 173.271 592.232 215.841 592.232 289.984C592.232 364.127 550.91 401.832 517.538 435.23C484.115 468.678 453.883 492.547 449.174 584.175C452.313 524.779 455.25 472.631 457.427 441.666C528.476 353.333 522.753 258.158 489.179 196.482C442.539 110.936 431.348 0 431.348 0C431.348 0 420.106 110.936 373.517 196.482C339.892 258.158 334.169 353.333 405.268 441.666C407.446 472.58 410.383 524.779 413.523 584.175C408.813 492.547 378.53 468.627 345.158 435.23C311.736 401.782 270.464 364.127 270.464 289.984C270.464 215.841 309.355 173.271 309.355 173.271C268.641 208.543 255.323 248.022 255.323 248.022C255.323 248.022 250.157 225.217 260.893 209.76C182.451 306.201 250.461 418.861 250.461 418.861C250.461 418.861 206.1 409.738 190.351 348.366C174.551 286.994 198.251 231.045 198.251 231.045C198.251 231.045 155.713 280.862 155.713 365.394C155.713 463.255 267.476 477.242 267.476 477.242C267.476 477.242 222.508 484.54 184.274 479.067C145.99 473.594 145.99 447.443 145.99 447.443C145.99 447.443 141.129 482.716 186.097 496.044C231.066 509.424 285.707 486.314 349.615 527.06C411.447 566.437 417.422 658.166 417.726 664.146C417.624 662.372 417.068 651.172 413.624 584.479C414.991 610.072 416.358 636.982 417.726 664.146C417.726 664.349 417.726 664.399 417.726 664.45C417.726 664.45 417.726 664.45 417.726 664.399C418.688 682.999 419.6 701.75 420.511 720.197L417.726 664.45C417.726 664.45 401.673 599.378 358.578 558.683C315.433 517.938 233.446 522.803 201.897 522.803C170.348 522.803 103.503 489.963 105.934 436.497C89.5265 485.098 122.341 523.411 122.341 523.411C122.341 523.411 -11.906 548.345 0.85539 672.914C0.247707 646.763 24.5551 598.162 73.1191 588.178C73.1191 588.178 35.4424 635.208 68.2572 702.662C79.8032 623.046 142.243 531.672 273.553 567.096C273.553 567.096 248.891 566.539 228.382 604.396C207.872 642.253 243.777 695.364 201.593 704.486C158.499 713.811 157.688 676.512 157.688 676.512C157.688 676.512 141.23 718.575 184.122 736.211C227.014 753.848 305.305 736.211 269.299 629.989C254.057 584.986 312.596 552.653 354.932 597.453C387.595 632.016 385.924 695.922 319.686 716.599C254.664 736.921 196.124 755.469 198.099 803.361C198.605 798.141 204.227 787.498 243.169 795.049C293.556 804.78 345.816 805.996 370.124 749.438C357.362 796.823 348.653 805.185 306.672 857.486C263.83 910.8 294.822 978 294.822 978C294.822 978 298.468 948.201 335.537 934.822C367.491 923.318 360.148 872.081 357.514 858.145C359.489 866.101 366.63 886.221 390.583 903.857C361.667 853.431 366.529 763.477 420.562 720.298C426.487 839.698 431.5 948.252 431.5 948.252C431.5 948.252 436.513 839.748 442.438 720.298C496.471 763.477 501.333 853.431 472.417 903.857C496.37 886.271 503.511 866.152 505.486 858.145C502.852 872.081 495.56 923.318 527.463 934.822C564.532 948.201 568.178 978 568.178 978C568.178 978 599.17 910.851 556.328 857.486C514.347 805.185 505.637 796.874 492.876 749.438C517.183 805.945 569.393 804.729 619.831 795.049C658.773 787.549 664.344 798.141 664.901 803.361C666.876 755.469 608.336 736.921 543.314 716.599C477.127 695.922 475.455 632.016 508.068 597.453C550.454 552.602 608.943 584.935 593.701 629.989C557.695 736.211 635.986 753.848 678.878 736.211C721.77 718.575 705.312 676.512 705.312 676.512C705.312 676.512 704.552 713.761 661.407 704.486C619.173 695.364 655.077 642.253 634.618 604.396C614.109 566.539 589.447 567.096 589.447 567.096C720.757 531.621 783.197 622.995 794.743 702.662C827.558 635.208 789.881 588.178 789.881 588.178C838.445 598.112 862.752 646.763 862.145 672.914C874.906 548.294 740.659 523.411 740.659 523.411H740.355ZM431.196 408.522C431.196 408.522 378.986 347.758 378.986 277.213C378.986 206.668 431.196 155.888 431.196 98.9757C431.196 155.888 483.406 206.719 483.406 277.213C483.406 347.707 431.196 408.522 431.196 408.522Z" fill="#A9A08A"/>
<path d="M568.988 644.939C575.673 633.688 573.04 608.754 550.859 605.105C528.679 601.456 518.956 616.052 518.956 616.052C524.121 613.011 542.351 611.795 542.351 626.086C542.351 640.378 533.085 636.171 523.058 657.76C513.031 679.35 533.541 697.797 545.39 697.797C554.809 697.797 562.709 686.546 555.417 673.775C556.329 685.026 539.009 691.411 535.06 677.728C531.11 664.045 562.304 656.139 568.988 644.888V644.939Z" fill="#A9A08A"/>
<path d="M724.808 643.52C688.347 642.405 684.499 627.1 684.499 627.1C684.499 627.1 710.224 638.959 721.162 630.039C732.101 621.17 732.303 608.602 723.188 600.645C714.073 592.689 699.033 596.997 695.842 605.865C692.652 614.734 702.881 619.093 704.704 618.18C706.527 617.268 703.793 614.785 704.249 609.058C704.705 603.382 711.287 603.129 713.364 609.058C715.389 614.988 717.668 627.049 691.031 620.461C664.394 613.873 643.885 572.367 643.885 572.367C644.594 615.697 670.421 652.034 692.601 663.082C727.442 680.414 752.711 666.021 752.711 666.021C752.711 666.021 745.925 644.128 724.707 643.469L724.808 643.52Z" fill="#A9A08A"/>
<path d="M532.021 329.311C548.429 316.54 566.355 283.092 566.355 283.092C566.355 283.092 563.924 226.078 540.377 196.482C504.827 151.783 507.36 120.818 507.36 120.818C498.903 162.324 512.018 184.167 525.337 207.428C546.757 244.829 543.871 308.634 532.021 329.311Z" fill="#A9A08A"/>
<path d="M197.997 806.047C197.947 805.185 197.896 804.324 197.896 803.462C197.744 804.982 197.997 806.047 197.997 806.047Z" fill="#A9A08A"/>
<path d="M343.437 616.102C343.437 616.102 333.714 601.507 311.533 605.156C289.353 608.805 286.72 633.739 293.404 644.989C300.089 656.24 331.283 664.146 327.333 677.829C323.383 691.513 306.064 685.127 306.975 673.876C299.683 686.647 307.583 697.898 317.002 697.898C328.852 697.898 349.361 679.451 339.335 657.862C329.308 636.273 320.041 640.884 320.041 626.188C320.041 611.491 338.271 613.112 343.437 616.153V616.102Z" fill="#A9A08A"/>
<path d="M218.457 572.417C218.457 572.417 197.947 613.923 171.31 620.512C144.673 627.1 146.953 615.038 148.978 609.109C151.004 603.179 157.637 603.433 158.093 609.109C158.549 614.785 155.815 617.319 157.638 618.231C159.461 619.143 169.69 614.836 166.5 605.916C163.309 597.047 148.269 592.689 139.154 600.696C130.039 608.653 130.292 621.221 141.179 630.09C152.118 638.959 177.843 627.15 177.843 627.15C177.843 627.15 173.995 642.405 137.534 643.57C116.315 644.229 109.529 666.122 109.529 666.122C109.529 666.122 134.799 680.465 169.639 663.183C191.82 652.135 217.697 615.798 218.355 572.468L218.457 572.417Z" fill="#A9A08A"/>
<path d="M296.037 283.143C296.037 283.143 313.964 316.591 330.371 329.362C318.522 308.685 315.635 244.88 337.056 207.479C350.375 184.167 363.49 162.324 355.033 120.869C355.033 120.869 357.565 151.884 322.016 196.532C298.468 226.129 296.037 283.143 296.037 283.143Z" fill="#A9A08A"/>
</g>
</g>
</svg>
