<svg width="427" height="469" viewBox="0 0 427 469" fill="none" xmlns="http://www.w3.org/2000/svg">
<g style="mix-blend-mode:color-dodge" opacity="0.1">
<path d="M130.61 248.817L98.7899 275.854L131.993 270.991L153.802 239.292L130.61 248.817Z" fill="#A9A08A"/>
<path d="M168.844 254.537L150.859 260.433L137.703 278.979L122.837 310.677L161.071 285.379L168.844 254.537Z" fill="#A9A08A"/>
<path d="M187.106 272.604L167.46 288.579V318.74L186.502 298.481L187.106 272.604Z" fill="#A9A08A"/>
<path d="M204.915 344.996L187.885 307.099L172.315 325.897L195.054 359.939L204.915 344.996Z" fill="#A9A08A"/>
<path d="M195.658 80.4967L186.074 66.8648L176.717 91.4325L188.011 115.345L213.316 55.3495L238.621 115.345L249.89 91.4325L240.558 66.8648L230.949 80.4967L235.98 56.9874L213.492 1.04861V0.191895L213.316 0.620255L213.14 0.191895V1.04861L190.652 56.9874L195.658 80.4967Z" fill="#A9A08A"/>
<path d="M44.8093 139.308L61.587 147.674V136.41L43.6019 119.2L44.8093 139.308Z" fill="#A9A08A"/>
<path d="M61.587 128.196L64.8822 106.198L30.7986 46.0768L43.6019 109.499L61.587 128.196Z" fill="#A9A08A"/>
<path d="M66.1147 139.409L80.9808 114.514L75.0947 50.058L61.587 90.9538L71.2965 104.636L66.1147 139.409Z" fill="#A9A08A"/>
<path d="M97.5824 55.2487L82.5403 73.9706L84.9552 102.57L97.5824 55.2487Z" fill="#A9A08A"/>
<path d="M66.6179 342.225L74.4911 365.784L114.008 366.314L66.6179 342.225Z" fill="#A9A08A"/>
<path d="M79.4212 392.368L96.8027 390.73L119.542 368.077L85.2066 373.394L79.4212 392.368Z" fill="#A9A08A"/>
<path d="M275.774 171.536L269.535 109.499L241.514 146.767V183.102C239.753 181.741 237.892 180.481 235.93 179.372L234.722 145.204L222.724 174.434C220.837 174.056 218.9 173.829 216.938 173.678L233.817 127.717L213.316 75.2053L192.816 127.717L209.694 173.703C207.707 173.854 205.77 174.131 203.883 174.534H203.934L191.91 145.204L190.703 179.599C188.741 180.733 186.879 181.993 185.118 183.379V146.792L157.097 109.524L150.859 171.561L173.975 196.053C173.195 197.363 172.466 198.724 171.812 200.11L146.859 177.104L91.1682 168.26L122.837 206.208H169.447C168.995 207.669 168.643 209.181 168.341 210.718H123.189L79.4212 219.588L130.283 244.155L167.838 225.106C168.014 226.492 168.215 227.853 168.492 229.213L150.859 254.562L176.465 246.877C177.27 247.96 178.1 249.019 179.006 250.026L170.932 275.854L191.13 259.854C192.111 260.408 193.143 260.887 194.174 261.365L192.816 286.891L208.034 265.321C209.468 265.498 210.926 265.573 212.385 265.624L193.595 300.548C193.595 300.548 213.543 350.111 213.316 350.338C213.09 350.111 233.037 300.548 233.037 300.548L214.247 265.624C215.731 265.624 217.19 265.523 218.624 265.347L233.817 286.891L232.458 261.517C233.54 261.038 234.622 260.509 235.653 259.954L255.701 275.829L247.727 250.278C248.683 249.195 249.588 248.086 250.469 246.927L275.774 254.512L258.392 229.516C258.694 228.105 258.945 226.668 259.122 225.207L296.349 244.105L347.211 219.537L303.443 210.668H258.618C258.317 209.131 257.939 207.644 257.512 206.157H303.795L335.464 168.21L279.773 177.054L255.047 199.833C254.393 198.447 253.663 197.086 252.858 195.776L275.774 171.511V171.536ZM213.492 182.018C234.194 182.018 250.997 198.825 250.997 219.588C250.997 240.351 234.219 257.157 213.492 257.157C192.765 257.157 175.988 240.351 175.988 219.588C175.988 198.825 192.765 182.018 213.492 182.018Z" fill="#A9A08A"/>
<path d="M295.997 248.817L272.831 239.292L294.614 270.991L327.842 275.854L295.997 248.817Z" fill="#A9A08A"/>
<path d="M303.795 310.677L288.904 278.979L275.774 260.433L257.763 254.537L265.561 285.379L303.795 310.677Z" fill="#A9A08A"/>
<path d="M259.147 288.579L239.527 272.604L240.13 298.481L259.147 318.74V288.579Z" fill="#A9A08A"/>
<path d="M254.317 325.897L238.747 307.099L221.692 344.996L231.553 359.939L254.317 325.897Z" fill="#A9A08A"/>
<path d="M213.316 394.51L226.019 367.876L217.467 352.278L213.316 361.249L209.166 352.278L200.588 367.876L213.316 394.51Z" fill="#A9A08A"/>
<path d="M365.02 147.674L381.798 139.308L383.03 119.2L365.02 136.41V147.674Z" fill="#A9A08A"/>
<path d="M395.809 46.0768L361.75 106.198L365.02 128.196L383.03 109.499L395.809 46.0768Z" fill="#A9A08A"/>
<path d="M355.336 104.636L365.02 90.9538L351.537 50.058L345.651 114.514L360.492 139.409L355.336 104.636Z" fill="#A9A08A"/>
<path d="M344.092 73.9706L329.05 55.2487L341.677 102.57L344.092 73.9706Z" fill="#A9A08A"/>
<path d="M343.413 295.231C355.436 276.232 364.567 252.017 365.171 220.041C373.673 221.301 395.154 225.232 395.154 232.791C395.154 232.791 397.041 249.346 394.702 267.816C401.443 250.152 403.254 233.094 403.254 233.094C403.254 233.094 403.506 219.613 426.597 219.613C403.506 219.613 403.732 206.233 403.732 206.233C403.229 198.17 402.172 189.88 400.462 181.287C398.827 173.174 396.79 165.514 394.4 158.307L388.287 165.715C389.922 171.259 391.381 176.979 392.564 182.875C394.173 190.963 395.154 198.774 395.632 206.384C395.406 213.843 373.748 217.874 365.171 219.185C365.272 212.18 364.97 204.822 364.165 197.036C363.888 194.415 363.561 191.87 363.133 189.351L396.488 137.116L355.386 162.54C354.606 160.726 353.801 158.962 352.946 157.224L360.165 145.229L345.626 123.761L344.268 142.483C342.683 140.165 341.023 137.947 339.313 135.806L340.973 114.085L322.283 83.0165L327.39 122.829C315.919 111.943 303.342 103.754 291.948 97.7319C290.187 96.7996 288.426 95.9177 286.716 95.0862C283.848 93.2468 281.006 90.5002 281.584 87.1741C282.691 80.7739 286.162 59.0536 298.437 63.4128C300.575 64.3955 302.714 65.4286 304.902 66.5373C312.75 70.5437 320.07 74.9785 326.937 79.7912L323.491 67.8475C318.309 64.5718 313.203 61.7245 308.298 59.23C305.329 57.7181 302.386 56.3322 299.494 55.022C299.494 55.022 299.469 55.022 299.443 55.022C299.016 54.8456 298.613 54.644 298.186 54.4676C295.645 52.9557 290.514 47.5634 293.457 29.1692L291.671 34.9898C289.533 40.4577 285.257 47.639 277.836 46.7067C254.569 39.1474 237.313 37.8624 236.307 37.7868C236.307 37.7868 237.766 41.2892 240.885 46.4044C247.702 47.3367 260.731 49.6045 276.402 54.7448C277.786 55.3747 280.955 58.0709 278.239 68.8807C274.868 82.3866 274.969 88.7616 267.976 87.1993C260.379 84.478 255.474 83.3189 255.248 83.2685C255.248 83.2685 257.134 88.4088 259.197 92.7428C279.773 99.1178 348.947 125.853 356.216 197.817C363.838 273.133 326.409 307.931 299.091 333.355C295.243 336.933 291.595 340.335 288.325 343.585C283.798 348.121 278.389 352.934 272.68 358.024C251.273 377.073 223.554 401.741 213.316 438.757C203.104 401.767 175.384 377.073 153.953 358.024C148.217 352.934 142.809 348.121 138.307 343.585C135.037 340.31 131.415 336.933 127.541 333.355C100.224 307.956 62.7945 273.158 70.4161 197.817C77.7108 125.853 146.859 99.1178 167.435 92.7428C169.523 88.4088 171.384 83.2685 171.384 83.2685C171.158 83.3189 166.278 84.478 158.656 87.1993C151.664 88.7616 151.764 82.3866 148.394 68.8807C145.702 58.0709 148.871 55.3747 150.23 54.7448C165.901 49.6045 178.931 47.3367 185.747 46.4044C188.866 41.2892 190.325 37.7868 190.325 37.7868C189.319 37.8624 172.063 39.1474 148.796 46.7067C141.376 47.639 137.099 40.4325 134.961 34.9898L133.175 29.1692C136.093 47.5634 130.962 52.9557 128.446 54.4676C128.019 54.644 127.616 54.8456 127.189 55.022H127.138C124.221 56.3322 121.303 57.7181 118.335 59.23C113.429 61.7245 108.323 64.597 103.141 67.8475L99.6954 79.7912C106.562 74.9785 113.857 70.5437 121.73 66.5373C123.894 65.4286 126.032 64.4207 128.195 63.4128C140.47 59.0536 143.941 80.7991 145.048 87.1741C145.627 90.5254 142.759 93.2468 139.917 95.0862C138.206 95.9177 136.471 96.7996 134.685 97.7319C123.265 103.754 110.688 111.943 99.2426 122.829L104.349 83.0165L85.6595 114.085L87.3196 135.806C85.6092 137.947 83.949 140.19 82.3643 142.483L81.006 123.761L66.4669 145.229L73.6861 157.224C72.8309 158.962 72.026 160.726 71.2462 162.54L30.1445 137.116L63.4988 189.351C63.0963 191.845 62.7441 194.415 62.4675 197.036C61.6877 204.822 61.3858 212.18 61.4612 219.185C52.8837 217.874 31.2261 213.868 30.9998 206.384C31.4777 198.8 32.4587 190.963 34.0685 182.875C35.2508 176.979 36.7097 171.284 38.3448 165.715L32.2323 158.307C29.8426 165.514 27.8052 173.174 26.1701 181.287C24.4597 189.88 23.4032 198.195 22.9002 206.233C22.9002 206.233 23.1265 219.613 0.0351562 219.613C23.1265 219.613 23.3781 233.094 23.3781 233.094C23.3781 233.094 25.1892 250.152 31.9304 267.816C29.5911 249.371 31.4777 232.791 31.4777 232.791C31.4777 225.257 52.9592 221.326 61.4612 220.041C62.0398 252.017 71.1959 276.207 83.2195 295.231L49.4376 267.01L18.297 274.418L33.0875 290.267L89.835 304.856C90.7909 306.142 91.7718 307.427 92.7528 308.661L52.0285 301.077L39.9546 310.702L37.6153 329.424L54.3427 330.583L100.702 318.06C103.267 320.907 105.858 323.604 108.424 326.174L73.51 337.739L136.471 369.463L179.383 414.34L135.615 400.834L181.78 426.94C185.259 428.907 188.201 431.746 190.346 435.117C213.248 471.127 216.047 467.512 236.261 435.127C238.376 431.737 241.323 428.907 244.801 426.94L290.967 400.834L247.199 414.34L290.111 369.463L353.072 337.739L318.158 326.174C320.724 323.629 323.315 320.907 325.88 318.06L372.239 330.583L388.967 329.424L386.627 310.702L374.553 301.077L333.829 308.661C334.81 307.427 335.791 306.142 336.747 304.856L393.494 290.267L408.285 274.418L377.144 267.01L343.362 295.231H343.413Z" fill="#A9A08A"/>
<path d="M352.141 365.784L360.014 342.225L312.599 366.314L352.141 365.784Z" fill="#A9A08A"/>
<path d="M307.065 368.077L329.829 390.73L347.211 392.368L341.426 373.394L307.065 368.077Z" fill="#A9A08A"/>
</g>
</svg>
