<svg width="1800" height="542" viewBox="0 0 1800 542" fill="none" xmlns="http://www.w3.org/2000/svg">
<path d="M1769.31 243.175L910.722 243.175C842.979 417.015 673.94 540.197 476.13 540.197C278.32 540.197 109.281 417.015 41.5381 243.175" stroke="#C5B483" stroke-width="3"/>
<circle cx="1762.27" cy="243.944" r="29.9601" transform="rotate(-105 1762.27 243.944)" stroke="#C5B483"/>
<circle cx="911.171" cy="243.943" r="70.7921" transform="rotate(-105 911.171 243.943)" stroke="#C5B483"/>
<circle cx="43.7894" cy="243.943" r="34.5023" transform="rotate(-105 43.7894 243.943)" stroke="#C5B483"/>
<circle cx="381.474" cy="243.943" r="198.564" transform="rotate(-105 381.474 243.943)" stroke="#C5B483"/>
<circle cx="1762.27" cy="243.945" r="12.2366" transform="rotate(-105 1762.27 243.945)" fill="#C5B483"/>
<circle cx="911.172" cy="243.943" r="8.07261" transform="rotate(-105 911.172 243.943)" fill="#C5B483"/>
<circle cx="43.7892" cy="243.943" r="8.07261" transform="rotate(-105 43.7892 243.943)" fill="#C5B483"/>
</svg>
