<svg width="88" height="184" viewBox="0 0 88 184" fill="none" xmlns="http://www.w3.org/2000/svg">
<rect x="0.5" y="0.0605469" width="87" height="183.365" fill="black"/>
<path d="M43.9978 125.899L40.2807 122.264V115.48L37.9085 110.714V105.465L28.2312 95.7326L26.7395 86.6996L27.557 76.2277L23.2109 67.9267L27.7945 57.5869L26.6067 67.2804L34.0376 74.3712L30.2436 86.0819L41.1506 94.3187L41.9401 100.538L43.9978 105.465V125.899Z" fill="url(#paint0_linear_917_3749)"/>
<path d="M30.6367 92.248L38.382 96.5539L39.8039 101.024L42.2285 105.869L40.597 104.252L38.8572 102.516L36.4326 102.438L31.9818 98.0427L30.6367 92.248Z" fill="#020100"/>
<path d="M59.6992 103.198L64.2304 106.593L56.3803 107.507L51.8945 112.256L52.9007 107.183L59.6992 103.198Z" fill="url(#paint1_linear_917_3749)"/>
<path d="M28.3398 103.198L23.8086 106.593L31.6587 107.507L36.141 112.256L35.1348 107.183L28.3398 103.198Z" fill="url(#paint2_linear_917_3749)"/>
<path d="M32.3244 91.0627L30.2422 86.082L41.1492 94.3188L38.3823 96.5539L32.3244 91.0627Z" fill="url(#paint3_linear_917_3749)"/>
<path d="M31.9812 98.0427L28.3164 86.4319L32.7218 78.4236L30.2414 86.082L32.3236 91.0626L38.3815 96.5539L30.6362 92.248L31.9812 98.0427Z" fill="url(#paint4_linear_917_3749)"/>
<path d="M34.9609 107.486L37.12 118.469L40.2817 122.264V115.48L37.9095 110.714V105.465L34.9609 107.486Z" fill="url(#paint5_linear_917_3749)"/>
<path d="M29.0027 100.396L26.7389 86.6996L20.943 79.2697L21.2609 70.708L17.4668 80.0766L23.4723 91.3304L16.3594 89.0168L23.8951 96.3396L18.3088 97.2572L28.1607 103.502L29.0027 100.396Z" fill="url(#paint6_linear_917_3749)"/>
<path d="M18.3088 97.2572L28.1607 103.502L34.9593 107.486L29.0027 100.396L26.7389 86.6997L17.4668 80.0767L26.2113 94.508L16.3594 89.0168L26.3685 98.8032L18.3088 97.2572Z" fill="url(#paint7_linear_917_3749)"/>
<path d="M31.149 98.6641L37.9091 105.466L34.9605 107.486L29.0039 100.396L31.149 98.6641Z" fill="url(#paint8_linear_917_3749)"/>
<path d="M27.5576 76.2275L23.8125 82.9469L26.7401 86.6994L27.5576 76.2275Z" fill="#911D10"/>
<path d="M34.036 74.3712L26.6051 67.2804L27.7929 57.5869L24.75 68.2873L30.6367 75.7029L28.317 86.4318L32.7224 78.4235L34.036 74.3712Z" fill="url(#paint9_linear_917_3749)"/>
<path d="M43.9972 105.465V90.5877L36.4336 87.9385L41.15 94.3187L41.9395 100.538L43.9972 105.465Z" fill="url(#paint10_linear_917_3749)"/>
<path d="M41.1492 94.3187L30.2422 86.0819L34.0362 74.3711L36.4328 87.9384L41.1492 94.3187Z" fill="url(#paint11_linear_917_3749)"/>
<path d="M36.4318 87.9383L34.0352 74.371L38.3812 68.4478L35.8518 74.9958L39.2686 88.9309L36.4318 87.9383Z" fill="url(#paint12_linear_917_3749)"/>
<path d="M39.2704 88.9312L36.4336 77.3311C36.4336 77.3311 38.7254 73.4216 38.8826 73.4216C39.0398 73.4216 40.0669 66.313 40.0669 66.313L41.1465 73.1502L39.5394 78.6878L43.9972 90.5843L39.2704 88.9312Z" fill="url(#paint13_linear_917_3749)"/>
<path d="M43.9973 90.5877V61.043L42.6593 71.8397L39.543 78.6877L43.9973 90.5877Z" fill="url(#paint14_linear_917_3749)"/>
<path d="M37.9062 105.465V110.714L40.2784 115.48V122.264L43.9956 125.898V122.964L41.4907 120.732L40.9527 115.266L38.9334 109.882L37.9062 105.465Z" fill="#140513"/>
<path d="M37.9062 105.465L43.9956 107.868V116.148L38.9334 109.882L37.9062 105.465Z" fill="url(#paint15_linear_917_3749)"/>
<path d="M40.9531 115.266L43.996 116.148V122.964L41.4911 120.732L40.9531 115.266Z" fill="url(#paint16_linear_917_3749)"/>
<path d="M38.9336 109.882L43.9958 116.148L40.9529 115.266L38.9336 109.882Z" fill="url(#paint17_linear_917_3749)"/>
<path d="M37.5742 115.266L37.9096 117.904L39.4712 119.782L38.6398 116.269L37.5742 115.266Z" fill="#1B0923"/>
<path d="M43.9961 125.899L47.7168 122.264V115.48L50.0889 110.714V105.465L59.7662 95.7326L61.258 86.6996L60.4405 76.2277L64.7865 67.9267L60.2029 57.5869L61.3907 67.2804L53.9598 74.3712L57.7539 86.0819L46.8469 94.3187L46.0573 100.538L43.9961 105.465V125.899Z" fill="url(#paint18_linear_917_3749)"/>
<path d="M57.3613 92.248L49.616 96.5539L48.1941 101.024L45.7695 105.869L47.3975 104.252L49.1409 102.516L51.5654 102.438L56.0163 98.0427L57.3613 92.248Z" fill="#020100"/>
<path d="M53.9988 95.7114L49.7891 100.278L52.032 99.571L53.7054 97.086L53.9988 95.7114Z" fill="url(#paint19_linear_917_3749)"/>
<path d="M34.0352 95.7114L38.2449 100.278L36.0021 99.571L34.3286 97.086L34.0352 95.7114Z" fill="url(#paint20_linear_917_3749)"/>
<path d="M55.6725 91.0627L57.7547 86.082L46.8477 94.3188L49.6146 96.5539L55.6725 91.0627Z" fill="url(#paint21_linear_917_3749)"/>
<path d="M56.0136 98.0427L59.6748 86.4319L55.2729 78.4236L57.7534 86.082L55.6712 91.0626L49.6133 96.5539L57.3586 92.248L56.0136 98.0427Z" fill="url(#paint22_linear_917_3749)"/>
<path d="M53.0395 107.486L50.8805 118.469L47.7188 122.264V115.48L50.0909 110.714V105.465L53.0395 107.486Z" fill="url(#paint23_linear_917_3749)"/>
<path d="M59.8376 103.502L69.6896 97.2572L64.1033 96.3396L71.639 89.0168L64.526 91.3304L70.5315 80.0766L66.7375 70.708L67.0554 79.2697L61.2595 86.6996L58.9922 100.396L59.8376 103.502Z" fill="url(#paint24_linear_917_3749)"/>
<path d="M69.6895 97.2572L59.8376 103.502L53.0391 107.486L58.9922 100.396L61.2595 86.6997L70.5315 80.0767L61.787 94.508L71.639 89.0168L61.6263 98.8032L69.6895 97.2572Z" fill="url(#paint25_linear_917_3749)"/>
<path d="M56.85 98.6641L50.0898 105.466L53.0384 107.486L58.9915 100.396L56.85 98.6641Z" fill="url(#paint26_linear_917_3749)"/>
<path d="M60.4414 76.2275L64.1865 82.9469L61.2589 86.6994L60.4414 76.2275Z" fill="#911D10"/>
<path d="M53.9609 74.3712L61.3918 67.2804L60.204 57.5869L63.2469 68.2873L57.3602 75.7029L59.6765 86.4318L55.2745 78.4235L53.9609 74.3712Z" fill="url(#paint27_linear_917_3749)"/>
<path d="M43.9961 105.465V90.5877L51.5632 87.9385L46.8469 94.3187L46.0573 100.538L43.9961 105.465Z" fill="url(#paint28_linear_917_3749)"/>
<path d="M46.8477 94.3187L57.7547 86.0819L53.9606 74.3711L51.564 87.9384L46.8477 94.3187Z" fill="url(#paint29_linear_917_3749)"/>
<path d="M51.5634 87.9383L53.96 74.371L49.6139 68.4478L52.1433 74.9958L48.7266 88.9309L51.5634 87.9383Z" fill="#CE4737"/>
<path d="M48.7268 88.9312L51.5636 77.3311C51.5636 77.3311 49.2718 73.4216 49.1146 73.4216C48.9574 73.4216 47.9303 66.313 47.9303 66.313L46.8508 73.1502L48.4578 78.6878L44 90.5843L48.7268 88.9312Z" fill="url(#paint30_linear_917_3749)"/>
<path d="M43.9961 90.5877V61.043L45.3376 71.8397L48.4539 78.6877L43.9961 90.5877Z" fill="url(#paint31_linear_917_3749)"/>
<path d="M50.0889 105.465V110.714L47.7168 115.48V122.264L43.9961 125.898V122.964L46.5045 120.732L47.0425 115.266L49.0618 109.882L50.0889 105.465Z" fill="#6B1B66"/>
<path d="M50.0889 105.465L43.9961 107.868V116.148L49.0618 109.882L50.0889 105.465Z" fill="url(#paint32_linear_917_3749)"/>
<path d="M47.0425 115.266L43.9961 116.148V122.964L46.5045 120.732L47.0425 115.266Z" fill="url(#paint33_linear_917_3749)"/>
<path d="M49.0618 109.882L43.9961 116.148L47.0425 115.266L49.0618 109.882Z" fill="url(#paint34_linear_917_3749)"/>
<path d="M50.4244 115.266L50.089 117.904L48.5273 119.782L49.3553 116.269L50.4244 115.266Z" fill="#1B0923"/>
<path d="M29.0021 100.395L31.1472 98.6637L26.7383 86.6995L29.0021 100.395Z" fill="url(#paint35_linear_917_3749)"/>
<path d="M58.9931 100.395L56.8516 98.6637L61.2605 86.6995L58.9931 100.395Z" fill="url(#paint36_linear_917_3749)"/>
<path d="M38.3828 96.5539L41.1497 94.3188L41.9393 100.538L42.2293 105.869L39.8047 101.024L38.3828 96.5539Z" fill="#6B1B66"/>
<path d="M23.8086 106.594L28.0393 103.423L31.1941 105.276L23.8086 106.594Z" fill="url(#paint37_linear_917_3749)"/>
<path d="M64.2405 106.594L60.0063 103.423L56.8516 105.276L64.2405 106.594Z" fill="url(#paint38_linear_917_3749)"/>
<path d="M22.1406 80.805L24.401 75.6101L23.8106 82.9472L22.1406 80.805Z" fill="url(#paint39_linear_917_3749)"/>
<path d="M24.4029 75.6101L25.8563 79.2769L23.8125 82.9472L24.4029 75.6101Z" fill="url(#paint40_linear_917_3749)"/>
<path d="M65.8576 80.805L63.5938 75.6101L64.1877 82.9472L65.8576 80.805Z" fill="url(#paint41_linear_917_3749)"/>
<path d="M63.5944 75.6101L62.1445 79.2769L64.1883 82.9472L63.5944 75.6101Z" fill="url(#paint42_linear_917_3749)"/>
<defs>
<linearGradient id="paint0_linear_917_3749" x1="40.2387" y1="108.864" x2="22.0675" y2="63.0339" gradientUnits="userSpaceOnUse">
<stop stop-color="#8A2F25"/>
<stop offset="1" stop-color="#A3610C"/>
</linearGradient>
<linearGradient id="paint1_linear_917_3749" x1="64.3248" y1="108.189" x2="54.276" y2="107.67" gradientUnits="userSpaceOnUse">
<stop stop-color="#007CF7"/>
<stop offset="1" stop-color="#19003D"/>
</linearGradient>
<linearGradient id="paint2_linear_917_3749" x1="23.571" y1="106.965" x2="35.1524" y2="107.939" gradientUnits="userSpaceOnUse">
<stop offset="0.03" stop-color="#00D6F7"/>
<stop offset="0.47" stop-color="#007CF7"/>
<stop offset="1" stop-color="#19003D"/>
</linearGradient>
<linearGradient id="paint3_linear_917_3749" x1="41.5999" y1="97.3072" x2="28.0967" y2="85.0394" gradientUnits="userSpaceOnUse">
<stop stop-color="#D97B00"/>
<stop offset="0.57" stop-color="#F5C743"/>
<stop offset="1" stop-color="#F5EAC9"/>
</linearGradient>
<linearGradient id="paint4_linear_917_3749" x1="40.4392" y1="96.4146" x2="31.7387" y2="87.9884" gradientUnits="userSpaceOnUse">
<stop stop-color="#F7004A"/>
<stop offset="1" stop-color="#8A003D"/>
</linearGradient>
<linearGradient id="paint5_linear_917_3749" x1="39.7507" y1="122.021" x2="37.744" y2="112.777" gradientUnits="userSpaceOnUse">
<stop stop-color="#B00035"/>
<stop offset="1" stop-color="#2E1736"/>
</linearGradient>
<linearGradient id="paint6_linear_917_3749" x1="17.2328" y1="73.5821" x2="24.3447" y2="97.2556" gradientUnits="userSpaceOnUse">
<stop stop-color="#F74D80"/>
<stop offset="0.19" stop-color="#F7004A"/>
<stop offset="0.56" stop-color="#4F003C"/>
<stop offset="1"/>
</linearGradient>
<linearGradient id="paint7_linear_917_3749" x1="18.2145" y1="94.2153" x2="29.5281" y2="93.6272" gradientUnits="userSpaceOnUse">
<stop stop-color="#AD004B"/>
<stop offset="0.57" stop-color="#360017"/>
<stop offset="0.91" stop-color="#120014"/>
</linearGradient>
<linearGradient id="paint8_linear_917_3749" x1="30.328" y1="100.335" x2="37.2789" y2="107.025" gradientUnits="userSpaceOnUse">
<stop stop-color="#B00035"/>
<stop offset="1" stop-color="#2E1736"/>
</linearGradient>
<linearGradient id="paint9_linear_917_3749" x1="29.9065" y1="86.1283" x2="28.9871" y2="60.8302" gradientUnits="userSpaceOnUse">
<stop stop-color="#D97B00"/>
<stop offset="0.57" stop-color="#F5C743"/>
<stop offset="1" stop-color="#F5EAC9"/>
</linearGradient>
<linearGradient id="paint10_linear_917_3749" x1="41.4294" y1="96.1146" x2="45.3588" y2="94.299" gradientUnits="userSpaceOnUse">
<stop stop-color="#B00035"/>
<stop offset="1" stop-color="#A3610C"/>
</linearGradient>
<linearGradient id="paint11_linear_917_3749" x1="30.2422" y1="84.3431" x2="41.1492" y2="84.3431" gradientUnits="userSpaceOnUse">
<stop stop-color="#8A2F25"/>
<stop offset="1" stop-color="#A3610C"/>
</linearGradient>
<linearGradient id="paint12_linear_917_3749" x1="33.581" y1="80.2621" x2="37.812" y2="79.0478" gradientUnits="userSpaceOnUse">
<stop stop-color="#38130F"/>
<stop offset="0.49" stop-color="#8A2F25"/>
<stop offset="1" stop-color="#A3610C"/>
</linearGradient>
<linearGradient id="paint13_linear_917_3749" x1="34.872" y1="80.141" x2="56.4565" y2="75.2591" gradientUnits="userSpaceOnUse">
<stop stop-color="#38130F"/>
<stop offset="0.21" stop-color="#8A2F25"/>
<stop offset="1" stop-color="#A3610C"/>
</linearGradient>
<linearGradient id="paint14_linear_917_3749" x1="37.9534" y1="79.7409" x2="45.6354" y2="74.965" gradientUnits="userSpaceOnUse">
<stop stop-color="#38130F"/>
<stop offset="0.21" stop-color="#8A2F25"/>
<stop offset="1" stop-color="#A3610C"/>
</linearGradient>
<linearGradient id="paint15_linear_917_3749" x1="38.294" y1="109.939" x2="48.981" y2="113.275" gradientUnits="userSpaceOnUse">
<stop stop-color="#5C0029"/>
<stop offset="1" stop-color="#A3610C"/>
</linearGradient>
<linearGradient id="paint16_linear_917_3749" x1="41.2745" y1="119.022" x2="46.621" y2="119.415" gradientUnits="userSpaceOnUse">
<stop stop-color="#5C0029"/>
<stop offset="1" stop-color="#A3610C"/>
</linearGradient>
<linearGradient id="paint17_linear_917_3749" x1="40.1843" y1="111.956" x2="46.3398" y2="121.605" gradientUnits="userSpaceOnUse">
<stop stop-color="#5C0029"/>
<stop offset="1" stop-color="#A3610C"/>
</linearGradient>
<linearGradient id="paint18_linear_917_3749" x1="45.1804" y1="107.561" x2="67.9236" y2="63.8169" gradientUnits="userSpaceOnUse">
<stop stop-color="#D97B00"/>
<stop offset="0.57" stop-color="#F5C743"/>
<stop offset="1" stop-color="#F5EAC9"/>
</linearGradient>
<linearGradient id="paint19_linear_917_3749" x1="49.7891" y1="97.9965" x2="53.9988" y2="97.9965" gradientUnits="userSpaceOnUse">
<stop stop-color="#FFA3BF"/>
<stop offset="0.3" stop-color="#FF004D"/>
<stop offset="0.33" stop-color="#F40452"/>
<stop offset="0.39" stop-color="#D6115F"/>
<stop offset="0.47" stop-color="#A72675"/>
<stop offset="0.53" stop-color="#803888"/>
<stop offset="0.89" stop-color="#260022"/>
</linearGradient>
<linearGradient id="paint20_linear_917_3749" x1="37.8502" y1="100.631" x2="33.4851" y2="96.2168" gradientUnits="userSpaceOnUse">
<stop stop-color="#FFA3BF"/>
<stop offset="0.3" stop-color="#FF004D"/>
<stop offset="0.33" stop-color="#F40452"/>
<stop offset="0.39" stop-color="#D6115F"/>
<stop offset="0.47" stop-color="#A72675"/>
<stop offset="0.53" stop-color="#803888"/>
<stop offset="0.89" stop-color="#260022"/>
</linearGradient>
<linearGradient id="paint21_linear_917_3749" x1="58.0202" y1="87.4066" x2="47.9728" y2="95.2981" gradientUnits="userSpaceOnUse">
<stop stop-color="#D97B00"/>
<stop offset="0.57" stop-color="#F5C743"/>
<stop offset="1" stop-color="#F5EAC9"/>
</linearGradient>
<linearGradient id="paint22_linear_917_3749" x1="58.8049" y1="79.4661" x2="52.3516" y2="96.6021" gradientUnits="userSpaceOnUse">
<stop stop-color="#F7004A"/>
<stop offset="1" stop-color="#8A003D"/>
</linearGradient>
<linearGradient id="paint23_linear_917_3749" x1="47.296" y1="122.56" x2="52.1195" y2="107.217" gradientUnits="userSpaceOnUse">
<stop stop-color="#FF00FF"/>
<stop offset="0.14" stop-color="#F404F5"/>
<stop offset="0.39" stop-color="#D611DD"/>
<stop offset="0.71" stop-color="#A726B5"/>
<stop offset="1" stop-color="#773C8C"/>
</linearGradient>
<linearGradient id="paint24_linear_917_3749" x1="71.7194" y1="70.2189" x2="62.4839" y2="101.03" gradientUnits="userSpaceOnUse">
<stop stop-color="#F74D80"/>
<stop offset="0.19" stop-color="#F7004A"/>
<stop offset="0.56" stop-color="#4F003C"/>
<stop offset="1"/>
</linearGradient>
<linearGradient id="paint25_linear_917_3749" x1="71.9534" y1="96.611" x2="57.5839" y2="92.7813" gradientUnits="userSpaceOnUse">
<stop stop-color="#F7004A"/>
<stop offset="0.78" stop-color="#733681"/>
<stop offset="1" stop-color="#2B1320"/>
</linearGradient>
<linearGradient id="paint26_linear_917_3749" x1="59.7741" y1="99.1032" x2="50.984" y2="106.025" gradientUnits="userSpaceOnUse">
<stop stop-color="#B75BD6"/>
<stop offset="1" stop-color="#4E275C"/>
</linearGradient>
<linearGradient id="paint27_linear_917_3749" x1="55.3898" y1="85.375" x2="62.7126" y2="61.0114" gradientUnits="userSpaceOnUse">
<stop stop-color="#DE4C3B"/>
<stop offset="1" stop-color="#FF9813"/>
</linearGradient>
<linearGradient id="paint28_linear_917_3749" x1="40.1042" y1="104.434" x2="52.1172" y2="85.4983" gradientUnits="userSpaceOnUse">
<stop stop-color="#C21D4E"/>
<stop offset="0.57" stop-color="#F5C743"/>
<stop offset="1" stop-color="#F5EAC9"/>
</linearGradient>
<linearGradient id="paint29_linear_917_3749" x1="43.6475" y1="92.1657" x2="59.8911" y2="76.9588" gradientUnits="userSpaceOnUse">
<stop stop-color="#8A2F25"/>
<stop offset="1" stop-color="#A3610C"/>
</linearGradient>
<linearGradient id="paint30_linear_917_3749" x1="43.5633" y1="89.431" x2="51.1621" y2="71.3993" gradientUnits="userSpaceOnUse">
<stop stop-color="#D97B00"/>
<stop offset="0.57" stop-color="#F5C743"/>
<stop offset="1" stop-color="#F5EAC9"/>
</linearGradient>
<linearGradient id="paint31_linear_917_3749" x1="46.3648" y1="95.5076" x2="46.1166" y2="76.8491" gradientUnits="userSpaceOnUse">
<stop stop-color="#D97B00"/>
<stop offset="0.57" stop-color="#F5C743"/>
<stop offset="1" stop-color="#F5EAC9"/>
</linearGradient>
<linearGradient id="paint32_linear_917_3749" x1="38.7417" y1="115.619" x2="52.2486" y2="106.737" gradientUnits="userSpaceOnUse">
<stop stop-color="#D97B00"/>
<stop offset="0.57" stop-color="#F5C743"/>
<stop offset="1" stop-color="#F5EAC9"/>
</linearGradient>
<linearGradient id="paint33_linear_917_3749" x1="43.9961" y1="119.115" x2="47.0425" y2="119.115" gradientUnits="userSpaceOnUse">
<stop stop-color="#D97B00"/>
<stop offset="0.57" stop-color="#F5C743"/>
<stop offset="1" stop-color="#F5EAC9"/>
</linearGradient>
<linearGradient id="paint34_linear_917_3749" x1="45.2573" y1="115.816" x2="52.1941" y2="108.103" gradientUnits="userSpaceOnUse">
<stop stop-color="#D97B00"/>
<stop offset="0.57" stop-color="#F5C743"/>
<stop offset="1" stop-color="#F5EAC9"/>
</linearGradient>
<linearGradient id="paint35_linear_917_3749" x1="26.1688" y1="88.1026" x2="30.3847" y2="99.9098" gradientUnits="userSpaceOnUse">
<stop stop-color="#38130F"/>
<stop offset="1" stop-color="#6B0020"/>
</linearGradient>
<linearGradient id="paint36_linear_917_3749" x1="61.8264" y1="88.1026" x2="57.6106" y2="99.9098" gradientUnits="userSpaceOnUse">
<stop stop-color="#38130F"/>
<stop offset="1" stop-color="#6B0020"/>
</linearGradient>
<linearGradient id="paint37_linear_917_3749" x1="20.3884" y1="107.226" x2="27.4009" y2="105.133" gradientUnits="userSpaceOnUse">
<stop stop-color="#007CF7"/>
<stop offset="1" stop-color="#19003D"/>
</linearGradient>
<linearGradient id="paint38_linear_917_3749" x1="63.3846" y1="108.122" x2="57.569" y2="103.834" gradientUnits="userSpaceOnUse">
<stop offset="0.03" stop-color="#00D6F7"/>
<stop offset="0.47" stop-color="#007CF7"/>
<stop offset="1" stop-color="#19003D"/>
</linearGradient>
<linearGradient id="paint39_linear_917_3749" x1="27.5173" y1="72.304" x2="22.6492" y2="81.8307" gradientUnits="userSpaceOnUse">
<stop stop-color="#007CF7"/>
<stop offset="1" stop-color="#19003D"/>
</linearGradient>
<linearGradient id="paint40_linear_917_3749" x1="22.8133" y1="78.4842" x2="25.2478" y2="79.9121" gradientUnits="userSpaceOnUse">
<stop offset="0.03" stop-color="#00D6F7"/>
<stop offset="0.47" stop-color="#007CF7"/>
<stop offset="1" stop-color="#19003D"/>
</linearGradient>
<linearGradient id="paint41_linear_917_3749" x1="62.8147" y1="76.7883" x2="65.1257" y2="81.8853" gradientUnits="userSpaceOnUse">
<stop offset="0.03" stop-color="#00D6F7"/>
<stop offset="0.47" stop-color="#007CF7"/>
<stop offset="1" stop-color="#19003D"/>
</linearGradient>
<linearGradient id="paint42_linear_917_3749" x1="69.9073" y1="78.1379" x2="61.2764" y2="79.7024" gradientUnits="userSpaceOnUse">
<stop offset="0.03" stop-color="#00D6F7"/>
<stop offset="0.47" stop-color="#007CF7"/>
<stop offset="1" stop-color="#19003D"/>
</linearGradient>
</defs>
</svg>
