<svg width="111" height="52" viewBox="0 0 111 52" fill="none" xmlns="http://www.w3.org/2000/svg">
<path d="M51.5067 39.9388C51.2175 39.9388 50.9453 39.8829 50.6901 39.7765C50.4349 39.6702 50.2137 39.5247 50.0266 39.34C49.8394 39.1553 49.6863 38.9426 49.5785 38.6964C49.4708 38.4501 49.4141 38.1871 49.4141 37.9073C49.4141 37.6274 49.4708 37.3644 49.5785 37.1182C49.692 36.8719 49.8394 36.6537 50.0266 36.4746C50.2137 36.2955 50.4406 36.1444 50.6901 36.038C50.9453 35.9317 51.2118 35.8757 51.5067 35.8757C51.9037 35.8757 52.2497 35.9541 52.5446 36.1164C52.8395 36.2787 53.0777 36.4969 53.2648 36.7824C53.2818 36.8104 53.2875 36.8439 53.2762 36.8831C53.2648 36.9223 53.2478 36.9503 53.2194 36.9671L52.5673 37.3812C52.5389 37.398 52.5049 37.4036 52.4708 37.398C52.4368 37.398 52.4028 37.3756 52.3801 37.3476C52.2667 37.2133 52.1419 37.1014 52.0001 37.023C51.8584 36.9391 51.6939 36.8999 51.5011 36.8999C51.365 36.8999 51.2345 36.9279 51.1098 36.9838C50.9907 37.0398 50.8829 37.1126 50.7922 37.2077C50.7014 37.3028 50.6277 37.4092 50.5767 37.5323C50.5256 37.6554 50.4973 37.7841 50.4973 37.9129C50.4973 38.0416 50.5256 38.1759 50.5767 38.299C50.6277 38.4222 50.7014 38.5285 50.7922 38.618C50.8829 38.7076 50.9907 38.7803 51.1098 38.8363C51.2289 38.8923 51.3593 38.9202 51.5011 38.9202C51.6428 38.9202 51.7733 38.8979 51.9094 38.8475C52.0455 38.7971 52.1476 38.7132 52.2327 38.6012C52.2497 38.5733 52.2553 38.5453 52.2327 38.5229C52.2156 38.5005 52.193 38.4893 52.1589 38.4893H51.5351C51.5011 38.4893 51.467 38.4781 51.4444 38.4501C51.4217 38.4278 51.4047 38.3942 51.4047 38.3606V37.7226C51.4047 37.689 51.416 37.6554 51.4444 37.633C51.4727 37.6107 51.5011 37.5939 51.5351 37.5939H53.4009C53.435 37.5939 53.469 37.6051 53.4973 37.6274C53.5257 37.6498 53.537 37.6834 53.5427 37.7226C53.5484 37.7841 53.554 37.8569 53.554 37.9464C53.554 38.036 53.554 38.1255 53.537 38.2151C53.5143 38.4613 53.4406 38.6908 53.3272 38.9035C53.2081 39.1161 53.0607 39.2952 52.8792 39.4519C52.6977 39.603 52.4879 39.7261 52.2497 39.8157C52.0115 39.9052 51.7619 39.9444 51.5011 39.9444L51.5067 39.9388Z" fill="#B80B4B"/>
<path d="M57.4626 36.066C57.4796 36.0324 57.5023 36.0045 57.5363 35.9821C57.5703 35.9597 57.61 35.9485 57.6497 35.9485H58.4097C58.4437 35.9485 58.4834 35.9597 58.5174 35.9821C58.5514 36.0045 58.5741 36.0324 58.5911 36.066L60.1791 39.7094C60.1961 39.7429 60.1904 39.7765 60.1734 39.8101C60.1507 39.8437 60.1167 39.8661 60.0543 39.8661H59.1242C59.0845 39.8661 59.0448 39.8549 59.0108 39.8325C58.9768 39.8101 58.9484 39.7821 58.9314 39.7485L58.784 39.4295C58.7669 39.396 58.7386 39.368 58.7046 39.3456C58.6705 39.3232 58.6365 39.312 58.5968 39.312H57.4512C57.4115 39.312 57.3718 39.3232 57.3378 39.3456C57.3038 39.368 57.2811 39.396 57.2641 39.4295L57.1109 39.7485C57.0939 39.7821 57.0712 39.8101 57.0372 39.8325C57.0032 39.8549 56.9692 39.8661 56.9295 39.8661H55.9937C55.9937 39.8661 55.954 39.8661 55.937 39.8549C55.92 39.8437 55.903 39.8381 55.886 39.8213C55.869 39.8045 55.8633 39.7877 55.8633 39.7653C55.8633 39.7429 55.8633 39.7206 55.8803 39.6926L57.4569 36.066H57.4626ZM57.7801 38.3998H58.2622C58.2962 38.3998 58.3246 38.3886 58.3416 38.3662C58.3586 38.3438 58.3586 38.3158 58.3416 38.2822C58.3076 38.1927 58.2622 38.0864 58.2112 37.9688C58.1601 37.8513 58.1148 37.7394 58.0694 37.633C58.0524 37.5995 58.041 37.5827 58.0183 37.5827C57.9957 37.5827 57.9843 37.5995 57.9673 37.633L57.6951 38.2822C57.6781 38.3158 57.6781 38.3438 57.6951 38.3662C57.7121 38.3886 57.7348 38.3998 57.7745 38.3998H57.7801Z" fill="#B80B4B"/>
<path d="M67.3692 36.0772V39.7373C67.3692 39.7709 67.3579 39.8045 67.3295 39.8269C67.3068 39.8493 67.2728 39.8661 67.2388 39.8661H66.4221C66.3881 39.8661 66.3541 39.8549 66.3314 39.8269C66.3087 39.8045 66.2917 39.7709 66.2917 39.7373V38.0136C66.2917 37.98 66.2747 37.9576 66.2407 37.952C66.2066 37.952 66.1783 37.9632 66.1613 37.9912L65.2482 39.4463C65.2312 39.4743 65.2028 39.4911 65.1631 39.4911C65.1234 39.4911 65.0951 39.4743 65.0724 39.4463L64.1593 37.9912C64.1423 37.9632 64.114 37.952 64.0856 37.952C64.0516 37.952 64.0346 37.9744 64.0346 38.0136V39.7373C64.0346 39.7709 64.0232 39.8045 63.9949 39.8269C63.9722 39.8493 63.9381 39.8661 63.9041 39.8661H63.0875C63.0534 39.8661 63.0194 39.8549 62.9967 39.8269C62.974 39.8045 62.957 39.7709 62.957 39.7373V36.0772C62.957 36.0436 62.9684 36.01 62.9967 35.9877C63.0251 35.9653 63.0534 35.9485 63.0875 35.9485H63.8417C63.8758 35.9485 63.9155 35.9597 63.9552 35.9821C63.9949 36.0045 64.0232 36.0268 64.0402 36.0548L65.0837 37.5659C65.1064 37.5939 65.1291 37.6107 65.1575 37.6107C65.1858 37.6107 65.2085 37.5939 65.2255 37.5659L66.269 36.0548C66.2917 36.0268 66.3201 35.9989 66.3598 35.9821C66.3995 35.9597 66.4392 35.9485 66.4732 35.9485H67.2274C67.2615 35.9485 67.2955 35.9597 67.3182 35.9877C67.3409 36.0156 67.3579 36.0436 67.3579 36.0772H67.3692Z" fill="#B80B4B"/>
<path d="M71.6947 37.0622V37.286C71.6947 37.3196 71.7061 37.3532 71.7344 37.3756C71.7571 37.398 71.7911 37.4148 71.8252 37.4148H73.2997C73.3337 37.4148 73.3677 37.426 73.3904 37.4539C73.4131 37.4819 73.4301 37.5099 73.4301 37.5435V38.2822C73.4301 38.3158 73.4188 38.3494 73.3904 38.3718C73.3677 38.3942 73.3337 38.4109 73.2997 38.4109H71.8252C71.7911 38.4109 71.7571 38.4221 71.7344 38.4501C71.7117 38.4781 71.6947 38.5061 71.6947 38.5397V38.7411C71.6947 38.7747 71.7061 38.8083 71.7344 38.8307C71.7628 38.8531 71.7911 38.8699 71.8252 38.8699H73.5152C73.5492 38.8699 73.5832 38.8811 73.6059 38.909C73.6286 38.9314 73.6456 38.965 73.6456 38.9986V39.7373C73.6456 39.7709 73.6343 39.8045 73.6059 39.8269C73.5832 39.8493 73.5492 39.866 73.5152 39.866H70.7476C70.7136 39.866 70.6796 39.8549 70.6569 39.8269C70.6342 39.8045 70.6172 39.7709 70.6172 39.7373V36.0716C70.6172 36.038 70.6285 36.0044 70.6569 35.982C70.6796 35.9597 70.7136 35.9429 70.7476 35.9429H73.5152C73.5492 35.9429 73.5832 35.9541 73.6059 35.982C73.6286 36.0044 73.6456 36.038 73.6456 36.0716V36.7991C73.6456 36.8327 73.6343 36.8663 73.6059 36.8887C73.5832 36.9111 73.5492 36.9279 73.5152 36.9279H71.8252C71.7911 36.9279 71.7571 36.9391 71.7344 36.967C71.7117 36.9894 71.6947 37.023 71.6947 37.0566V37.0622Z" fill="#B80B4B"/>
<path d="M77.1764 38.523C77.3692 38.6461 77.5677 38.7468 77.7548 38.8196C77.9477 38.8923 78.1235 38.9259 78.2936 38.9259C78.4637 38.9259 78.5715 38.9035 78.6566 38.8588C78.7416 38.814 78.7813 38.7468 78.7813 38.6573C78.7813 38.6125 78.7643 38.5733 78.7246 38.5454C78.6906 38.5174 78.6396 38.495 78.5828 38.4782C78.5261 38.4614 78.4524 38.4446 78.373 38.4334C78.2936 38.4222 78.2142 38.411 78.1291 38.3887C78.0497 38.3719 77.9533 38.3551 77.8513 38.3383C77.7435 38.3159 77.6357 38.2879 77.5223 38.2543C77.4089 38.2152 77.3011 38.1704 77.1877 38.1144C77.0743 38.0585 76.9779 37.9857 76.8928 37.8962C76.8078 37.8066 76.734 37.7003 76.683 37.5772C76.6319 37.454 76.6036 37.3085 76.6036 37.1406C76.6036 36.8944 76.6546 36.6929 76.751 36.5306C76.8474 36.3683 76.9722 36.2396 77.1253 36.15C77.2785 36.0549 77.4429 35.9877 77.6301 35.9542C77.8172 35.915 77.993 35.8982 78.1688 35.8982C78.4751 35.8982 78.7473 35.943 78.9855 36.0269C79.2237 36.1165 79.4562 36.2396 79.6774 36.4131C79.7057 36.4355 79.7228 36.469 79.7284 36.5026C79.7284 36.5362 79.7284 36.5698 79.7001 36.5978L79.2747 37.191C79.252 37.219 79.2237 37.2358 79.1897 37.247C79.1556 37.2526 79.1216 37.247 79.0932 37.2246C78.9061 37.1126 78.736 37.0287 78.5772 36.9783C78.4184 36.928 78.2709 36.9056 78.1348 36.9056C78.0951 36.9056 78.0497 36.9056 77.993 36.9056C77.942 36.9056 77.891 36.9168 77.8456 36.928C77.8002 36.9391 77.7605 36.9615 77.7265 36.9895C77.6981 37.0175 77.6811 37.0567 77.6811 37.107C77.6811 37.1574 77.7208 37.2022 77.7945 37.2414C77.8683 37.2805 77.959 37.3141 78.0554 37.3421C78.1518 37.3701 78.2482 37.3925 78.339 37.4093C78.4297 37.426 78.4864 37.4372 78.5148 37.4372C78.6452 37.4596 78.787 37.4988 78.9458 37.5492C79.0989 37.5995 79.2464 37.6667 79.3825 37.7618C79.5186 37.857 79.632 37.9801 79.7228 38.1312C79.8135 38.2823 79.8589 38.4726 79.8589 38.7021C79.8589 38.9147 79.8192 39.0994 79.7454 39.2561C79.6717 39.4128 79.564 39.5415 79.4279 39.6367C79.2917 39.7374 79.1273 39.8102 78.9401 39.8605C78.753 39.9109 78.5375 39.9333 78.3049 39.9333C78.1178 39.9333 77.942 39.9165 77.7775 39.8885C77.6131 39.8605 77.4599 39.8158 77.3238 39.7598C77.1877 39.7038 77.0516 39.6423 76.9325 39.5695C76.8134 39.4968 76.7 39.4184 76.5979 39.3345C76.5696 39.3121 76.5525 39.2841 76.5469 39.2449C76.5469 39.2057 76.5469 39.1722 76.5752 39.1442L76.9949 38.551C77.0176 38.523 77.0459 38.5062 77.08 38.495C77.114 38.4838 77.148 38.495 77.1764 38.5118V38.523Z" fill="#B80B4B"/>
<path d="M53.8092 31.348C51.881 31.348 50.4179 30.363 49.4141 28.3875L51.6542 27.0667C52.3121 28.2811 53.055 28.8911 53.883 28.8911C54.3197 28.8911 54.6996 28.768 55.0286 28.5162C55.3235 28.2475 55.4709 27.9509 55.4709 27.6319C55.4709 27.3129 55.3688 27.0051 55.159 26.6917C55.0229 26.5406 54.8301 26.3503 54.5749 26.1209C54.3197 25.8914 54.0021 25.6228 53.6221 25.3038C52.8905 24.7049 52.2894 24.1733 51.8073 23.7144C51.3253 23.2554 50.9793 22.8637 50.7581 22.5391C50.2874 21.8787 50.0549 21.2295 50.0549 20.5971C50.0549 19.6457 50.4179 18.8286 51.1381 18.1514C51.8867 17.4798 52.7771 17.1384 53.8092 17.1384C54.5182 17.1384 55.176 17.3063 55.7885 17.6421C56.1004 17.7932 56.4293 18.0115 56.7639 18.2969C57.0986 18.5823 57.4558 18.9293 57.8301 19.3379L55.8509 21.0336C55.1874 20.1158 54.5068 19.6569 53.8149 19.6569C53.4293 19.6569 53.1514 19.7408 52.9926 19.9031C52.7771 20.0654 52.6693 20.2781 52.6693 20.5355C52.6693 20.7314 52.7317 20.9385 52.8622 21.1511C52.9869 21.2855 53.2138 21.4869 53.5314 21.7724C53.8489 22.0578 54.2686 22.416 54.7847 22.8581C55.3858 23.3506 55.8452 23.7479 56.1628 24.039C56.3726 24.2236 56.5258 24.358 56.6222 24.4363C57.5579 25.3262 58.0286 26.3503 58.0286 27.5088C58.0286 28.6673 57.643 29.5683 56.8717 30.2847C56.1061 30.9954 55.0909 31.3536 53.8206 31.3536L53.8092 31.348Z" fill="white"/>
<path d="M74.9456 31.348H71.764C70.9814 30.3574 70.2044 29.3669 69.4331 28.3875C68.6619 27.4081 67.8906 26.4119 67.1136 25.4157H70.2441L71.4691 26.9883C72.0192 26.2048 72.2914 25.2982 72.2914 24.274C72.2914 23.0204 71.8434 21.9235 70.9587 20.9944C70.0797 20.1102 69.0362 19.6681 67.8168 19.6681C66.5238 19.6681 65.4576 20.1102 64.624 20.9944C63.7676 21.8451 63.3366 22.942 63.3366 24.274C63.3366 25.7851 63.8697 26.9827 64.9359 27.8726C65.7128 28.4938 66.5862 28.8352 67.556 28.8912L69.4218 31.2193C69.1723 31.2641 68.9171 31.2977 68.6505 31.32C68.384 31.3424 68.1061 31.348 67.8168 31.348C65.7695 31.348 64.0625 30.6541 62.6957 29.2661C61.329 27.839 60.6484 26.1768 60.6484 24.274C60.6484 22.9476 60.9717 21.7444 61.6125 20.6642C62.2704 19.5729 63.1438 18.7111 64.2326 18.0786C65.3215 17.4518 66.5181 17.1384 67.8168 17.1384C69.8131 17.1384 71.4748 17.8324 72.8075 19.2203C74.214 20.6139 74.9172 22.2984 74.9172 24.274C74.9172 26.1153 74.3217 27.7159 73.1308 29.0702L74.9512 31.348H74.9456Z" fill="white"/>
<path d="M85.7996 17.1384H88.482V26.1433C88.482 26.8652 88.3403 27.5368 88.068 28.1692C87.7902 28.8016 87.4102 29.3501 86.9338 29.8202C86.4574 30.2903 85.896 30.6597 85.2551 30.9339C84.6143 31.2081 83.9337 31.348 83.2021 31.348C82.4706 31.348 81.79 31.2081 81.1492 30.9339C80.5083 30.6597 79.9525 30.2903 79.4762 29.8202C78.9998 29.3501 78.6255 28.8016 78.3476 28.1692C78.0697 27.5368 77.9336 26.8652 77.9336 26.1433V17.1384H80.6161V26.2048C80.6161 26.563 80.6841 26.8932 80.8202 27.2066C80.9563 27.52 81.1435 27.7886 81.376 28.0181C81.6085 28.2475 81.8864 28.4322 82.1983 28.561C82.5103 28.6897 82.8505 28.7568 83.2021 28.7568C83.5538 28.7568 83.8997 28.6897 84.2173 28.561C84.5292 28.4266 84.8071 28.2475 85.0396 28.0181C85.2721 27.7886 85.4593 27.5144 85.5954 27.2066C85.7315 26.8988 85.7996 26.563 85.7996 26.2048V17.1384Z" fill="white"/>
<path d="M91.625 17.1384H94.3075V31.348H91.625V17.1384Z" fill="white"/>
<path d="M110.738 31.348H107.647L104.352 26.3727L100.978 31.348H97.8867L102.736 24.0334L98.1589 17.1384H101.25L105.9 24.0334C106.796 25.3933 107.516 26.4902 108.067 27.3129C108.617 28.1356 108.991 28.7065 109.195 29.0143L110.743 31.3424L110.738 31.348ZM107.034 22.3096L105.429 19.9927L107.375 17.1384H110.477L107.034 22.3096Z" fill="white"/>
<path d="M22.5208 52L19.5916 49.2333V44.0694L17.7224 40.4411V36.4459L10.0966 29.0372L8.92112 22.1611L9.56532 14.1897L6.14062 7.8708L9.75252 0L8.81651 7.37887L14.6721 12.7765L11.6823 21.6909L20.2771 27.9609L20.8993 32.6953L22.5208 36.4459V52Z" fill="url(#paint0_linear_1067_6712)"/>
<path d="M11.9922 26.3845L18.0955 29.6622L19.216 33.0649L21.1265 36.753L19.8409 35.5218L18.4699 34.201L16.5594 34.1412L13.0521 30.7955L11.9922 26.3845Z" fill="#020100"/>
<path d="M34.8962 34.7202L38.4668 37.3049L32.2809 38.0006L28.7461 41.6153L29.5389 37.7533L34.8962 34.7202Z" fill="url(#paint1_linear_1067_6712)"/>
<path d="M10.1839 34.7202L6.61328 37.3049L12.7992 38.0006L16.3313 41.6153L15.5384 37.7533L10.1839 34.7202Z" fill="url(#paint2_linear_1067_6712)"/>
<path d="M13.3244 25.4823L11.6836 21.6909L20.2784 27.9609L18.098 29.6623L13.3244 25.4823Z" fill="url(#paint3_linear_1067_6712)"/>
<path d="M13.0519 30.7955L10.1641 21.9571L13.6356 15.8611L11.6809 21.6908L13.3217 25.4822L18.0954 29.6622L11.992 26.3845L13.0519 30.7955Z" fill="url(#paint4_linear_1067_6712)"/>
<path d="M15.3984 37.9843L17.0998 46.3443L19.5912 49.2334V44.0695L17.7219 40.4412V36.446L15.3984 37.9843Z" fill="url(#paint5_linear_1067_6712)"/>
<path d="M10.7052 32.5867L8.92125 22.1611L4.35408 16.5054L4.6046 9.98804L1.61488 17.1196L6.34723 25.6862L0.742188 23.925L6.68034 29.4992L2.27834 30.1977L10.0417 34.9512L10.7052 32.5867Z" fill="url(#paint6_linear_1067_6712)"/>
<path d="M2.27834 30.1978L10.0417 34.9512L15.399 37.9843L10.7052 32.5867L8.92125 22.1612L1.61488 17.1196L8.50556 28.105L0.742188 23.925L8.62944 31.3746L2.27834 30.1978Z" fill="url(#paint7_linear_1067_6712)"/>
<path d="M12.3974 31.2686L17.7243 36.446L15.4008 37.9843L10.707 32.5867L12.3974 31.2686Z" fill="url(#paint8_linear_1067_6712)"/>
<path d="M9.56446 14.1897L6.61328 19.3046L8.92027 22.1611L9.56446 14.1897Z" fill="#911D10"/>
<path d="M14.6729 12.7765L8.81729 7.37887L9.7533 0L7.35547 8.1453L11.9942 13.7902L10.1662 21.9572L13.6377 15.8612L14.6729 12.7765Z" fill="url(#paint9_linear_1067_6712)"/>
<path d="M22.5227 36.446V25.1209L16.5625 23.1042L20.279 27.961L20.9012 32.6954L22.5227 36.446Z" fill="url(#paint10_linear_1067_6712)"/>
<path d="M20.2784 27.9608L11.6836 21.6908L14.6733 12.7764L16.5619 23.1041L20.2784 27.9608Z" fill="url(#paint11_linear_1067_6712)"/>
<path d="M16.5604 23.1041L14.6719 12.7764L18.0966 8.26758L16.1034 13.2521L18.7958 23.8597L16.5604 23.1041Z" fill="url(#paint12_linear_1067_6712)"/>
<path d="M18.7979 23.8597L16.5625 15.0295C16.5625 15.0295 18.3684 12.0535 18.4923 12.0535C18.6162 12.0535 19.4256 6.64233 19.4256 6.64233L20.2763 11.847L19.0099 16.0623L22.5227 25.1181L18.7979 23.8597Z" fill="url(#paint13_linear_1067_6712)"/>
<path d="M22.5218 25.1208V2.63086L21.4674 10.8495L19.0117 16.0623L22.5218 25.1208Z" fill="url(#paint14_linear_1067_6712)"/>
<path d="M17.7227 36.446V40.4412L19.5919 44.0695V49.2334L22.5211 52.0001V49.7661L20.5472 48.0674L20.1232 43.9065L18.532 39.808L17.7227 36.446Z" fill="#140513"/>
<path d="M17.7227 36.446L22.5211 38.2751V44.5778L18.532 39.808L17.7227 36.446Z" fill="url(#paint15_linear_1067_6712)"/>
<path d="M20.125 43.9062L22.5228 44.5776V49.7659L20.549 48.0672L20.125 43.9062Z" fill="url(#paint16_linear_1067_6712)"/>
<path d="M18.5312 39.8079L22.5203 44.5776L20.1225 43.9063L18.5312 39.8079Z" fill="url(#paint17_linear_1067_6712)"/>
<path d="M17.457 43.9062L17.7213 45.9147L18.9519 47.3443L18.2967 44.67L17.457 43.9062Z" fill="#1B0923"/>
<path d="M22.5195 52L25.4514 49.2333V44.0694L27.3207 40.4411V36.4459L34.9464 29.0372L36.1219 22.1611L35.4777 14.1897L38.9024 7.8708L35.2905 0L36.2266 7.37887L30.371 12.7765L33.3607 21.6909L24.766 27.9609L24.1438 32.6953L22.5195 36.4459V52Z" fill="url(#paint18_linear_1067_6712)"/>
<path d="M33.0523 26.3845L26.949 29.6622L25.8285 33.0649L23.918 36.753L25.2009 35.5218L26.5746 34.201L28.4851 34.1412L31.9924 30.7955L33.0523 26.3845Z" fill="#020100"/>
<path d="M30.4033 29.0208L27.0859 32.4968L28.8533 31.9587L30.172 30.0671L30.4033 29.0208Z" fill="url(#paint19_linear_1067_6712)"/>
<path d="M14.6719 29.0208L17.9892 32.4968L16.2218 31.9587L14.9031 30.0671L14.6719 29.0208Z" fill="url(#paint20_linear_1067_6712)"/>
<path d="M31.7196 25.4823L33.3604 21.6909L24.7656 27.9609L26.946 29.6623L31.7196 25.4823Z" fill="url(#paint21_linear_1067_6712)"/>
<path d="M31.9927 30.7955L34.8778 21.9571L31.409 15.8611L33.3636 21.6908L31.7229 25.4822L26.9492 29.6622L33.0525 26.3845L31.9927 30.7955Z" fill="url(#paint22_linear_1067_6712)"/>
<path d="M29.6459 37.9843L27.9446 46.3443L25.4531 49.2334V44.0695L27.3224 40.4412V36.446L29.6459 37.9843Z" fill="url(#paint23_linear_1067_6712)"/>
<path d="M35.0022 34.9512L42.7655 30.1977L38.3635 29.4992L44.3017 23.925L38.6966 25.6862L43.429 17.1196L40.4393 9.98804L40.6898 16.5054L36.1226 22.1611L34.3359 32.5867L35.0022 34.9512Z" fill="url(#paint24_linear_1067_6712)"/>
<path d="M42.7652 30.1978L35.0018 34.9512L29.6445 37.9843L34.3356 32.5867L36.1223 22.1612L43.4286 17.1196L36.538 28.105L44.3013 23.925L36.4113 31.3746L42.7652 30.1978Z" fill="url(#paint25_linear_1067_6712)"/>
<path d="M32.6473 31.2686L27.3203 36.446L29.6438 37.9843L34.3349 32.5867L32.6473 31.2686Z" fill="url(#paint26_linear_1067_6712)"/>
<path d="M35.4805 14.1897L38.4316 19.3046L36.1247 22.1611L35.4805 14.1897Z" fill="#911D10"/>
<path d="M30.3711 12.7765L36.2267 7.37887L35.2906 0L37.6885 8.1453L33.0497 13.7902L34.8749 21.9572L31.4062 15.8612L30.3711 12.7765Z" fill="url(#paint27_linear_1067_6712)"/>
<path d="M22.5195 36.446V25.1209L28.4825 23.1042L24.766 27.961L24.1438 32.6954L22.5195 36.446Z" fill="url(#paint28_linear_1067_6712)"/>
<path d="M24.7656 27.9608L33.3604 21.6908L30.3707 12.7764L28.4821 23.1041L24.7656 27.9608Z" fill="url(#paint29_linear_1067_6712)"/>
<path d="M28.4854 23.1041L30.3739 12.7764L26.9493 8.26758L28.9424 13.2521L26.25 23.8597L28.4854 23.1041Z" fill="#CE4737"/>
<path d="M26.2482 23.8597L28.4836 15.0295C28.4836 15.0295 26.6777 12.0535 26.5538 12.0535C26.4299 12.0535 25.6205 6.64233 25.6205 6.64233L24.7699 11.847L26.0362 16.0623L22.5234 25.1181L26.2482 23.8597Z" fill="url(#paint30_linear_1067_6712)"/>
<path d="M22.5195 25.1208V2.63086L23.5767 10.8495L26.0323 16.0623L22.5195 25.1208Z" fill="url(#paint31_linear_1067_6712)"/>
<path d="M27.3207 36.446V40.4412L25.4514 44.0695V49.2334L22.5195 52.0001V49.7661L24.4962 48.0674L24.9201 43.9065L26.5113 39.808L27.3207 36.446Z" fill="#6B1B66"/>
<path d="M27.3207 36.446L22.5195 38.2751V44.5778L26.5113 39.808L27.3207 36.446Z" fill="url(#paint32_linear_1067_6712)"/>
<path d="M24.9201 43.9062L22.5195 44.5776V49.7659L24.4962 48.0672L24.9201 43.9062Z" fill="url(#paint33_linear_1067_6712)"/>
<path d="M26.5113 39.8079L22.5195 44.5776L24.9201 43.9063L26.5113 39.8079Z" fill="url(#paint34_linear_1067_6712)"/>
<path d="M27.5847 43.9062L27.3204 45.9147L26.0898 47.3443L26.7423 44.67L27.5847 43.9062Z" fill="#1B0923"/>
<path d="M10.7058 32.5867L12.3961 31.2685L8.92188 22.1611L10.7058 32.5867Z" fill="url(#paint35_linear_1067_6712)"/>
<path d="M34.336 32.5867L32.6484 31.2685L36.1227 22.1611L34.336 32.5867Z" fill="url(#paint36_linear_1067_6712)"/>
<path d="M18.0977 29.6623L20.278 27.9609L20.9002 32.6954L21.1287 36.7531L19.2181 33.065L18.0977 29.6623Z" fill="#6B1B66"/>
<path d="M6.61328 37.3048L9.94712 34.8914L12.4331 36.3019L6.61328 37.3048Z" fill="url(#paint37_linear_1067_6712)"/>
<path d="M38.471 37.3048L35.1344 34.8914L32.6484 36.3019L38.471 37.3048Z" fill="url(#paint38_linear_1067_6712)"/>
<path d="M5.29688 17.6739L7.07805 13.7195L6.61279 19.3046L5.29688 17.6739Z" fill="url(#paint39_linear_1067_6712)"/>
<path d="M7.07853 13.7195L8.22377 16.5107L6.61328 19.3046L7.07853 13.7195Z" fill="url(#paint40_linear_1067_6712)"/>
<path d="M39.7449 17.6739L37.9609 13.7195L38.4289 19.3046L39.7449 17.6739Z" fill="url(#paint41_linear_1067_6712)"/>
<path d="M37.9628 13.7195L36.8203 16.5107L38.4308 19.3046L37.9628 13.7195Z" fill="url(#paint42_linear_1067_6712)"/>
<defs>
<linearGradient id="paint0_linear_1067_6712" x1="19.5586" y1="39.0333" x2="6.0741" y2="3.82669" gradientUnits="userSpaceOnUse">
<stop stop-color="#8A2F25"/>
<stop offset="1" stop-color="#A3610C"/>
</linearGradient>
<linearGradient id="paint1_linear_1067_6712" x1="38.5412" y1="38.5197" x2="30.6242" y2="38.0959" gradientUnits="userSpaceOnUse">
<stop stop-color="#007CF7"/>
<stop offset="1" stop-color="#19003D"/>
</linearGradient>
<linearGradient id="paint2_linear_1067_6712" x1="6.42608" y1="37.5875" x2="15.5477" y2="38.3821" gradientUnits="userSpaceOnUse">
<stop offset="0.03" stop-color="#00D6F7"/>
<stop offset="0.47" stop-color="#007CF7"/>
<stop offset="1" stop-color="#19003D"/>
</linearGradient>
<linearGradient id="paint3_linear_1067_6712" x1="20.6335" y1="30.2357" x2="10.3267" y2="20.5424" gradientUnits="userSpaceOnUse">
<stop stop-color="#D97B00"/>
<stop offset="0.57" stop-color="#F5C743"/>
<stop offset="1" stop-color="#F5EAC9"/>
</linearGradient>
<linearGradient id="paint4_linear_1067_6712" x1="19.7169" y1="29.5562" x2="13.0905" y2="22.9129" gradientUnits="userSpaceOnUse">
<stop stop-color="#F7004A"/>
<stop offset="1" stop-color="#8A003D"/>
</linearGradient>
<linearGradient id="paint5_linear_1067_6712" x1="19.1728" y1="49.0486" x2="17.6927" y2="41.9908" gradientUnits="userSpaceOnUse">
<stop stop-color="#B00035"/>
<stop offset="1" stop-color="#2E1736"/>
</linearGradient>
<linearGradient id="paint6_linear_1067_6712" x1="1.43043" y1="12.1759" x2="6.68922" y2="30.2968" gradientUnits="userSpaceOnUse">
<stop stop-color="#F74D80"/>
<stop offset="0.19" stop-color="#F7004A"/>
<stop offset="0.56" stop-color="#4F003C"/>
<stop offset="1"/>
</linearGradient>
<linearGradient id="paint7_linear_1067_6712" x1="2.20401" y1="27.8822" x2="11.1175" y2="27.4026" gradientUnits="userSpaceOnUse">
<stop stop-color="#AD004B"/>
<stop offset="0.57" stop-color="#360017"/>
<stop offset="0.91" stop-color="#120014"/>
</linearGradient>
<linearGradient id="paint8_linear_1067_6712" x1="11.7504" y1="32.5405" x2="17.0454" y2="37.8159" gradientUnits="userSpaceOnUse">
<stop stop-color="#B00035"/>
<stop offset="1" stop-color="#2E1736"/>
</linearGradient>
<linearGradient id="paint9_linear_1067_6712" x1="11.4188" y1="21.7262" x2="10.7427" y2="2.46716" gradientUnits="userSpaceOnUse">
<stop stop-color="#D97B00"/>
<stop offset="0.57" stop-color="#F5C743"/>
<stop offset="1" stop-color="#F5EAC9"/>
</linearGradient>
<linearGradient id="paint10_linear_1067_6712" x1="20.4992" y1="29.3281" x2="23.557" y2="27.8654" gradientUnits="userSpaceOnUse">
<stop stop-color="#B00035"/>
<stop offset="1" stop-color="#A3610C"/>
</linearGradient>
<linearGradient id="paint11_linear_1067_6712" x1="11.6836" y1="20.3672" x2="20.2784" y2="20.3672" gradientUnits="userSpaceOnUse">
<stop stop-color="#8A2F25"/>
<stop offset="1" stop-color="#A3610C"/>
</linearGradient>
<linearGradient id="paint12_linear_1067_6712" x1="14.314" y1="17.2608" x2="17.63" y2="16.2757" gradientUnits="userSpaceOnUse">
<stop stop-color="#38130F"/>
<stop offset="0.49" stop-color="#8A2F25"/>
<stop offset="1" stop-color="#A3610C"/>
</linearGradient>
<linearGradient id="paint13_linear_1067_6712" x1="15.3319" y1="17.1684" x2="32.2816" y2="13.2" gradientUnits="userSpaceOnUse">
<stop stop-color="#38130F"/>
<stop offset="0.21" stop-color="#8A2F25"/>
<stop offset="1" stop-color="#A3610C"/>
</linearGradient>
<linearGradient id="paint14_linear_1067_6712" x1="17.7591" y1="16.8641" x2="23.6941" y2="13.0444" gradientUnits="userSpaceOnUse">
<stop stop-color="#38130F"/>
<stop offset="0.21" stop-color="#8A2F25"/>
<stop offset="1" stop-color="#A3610C"/>
</linearGradient>
<linearGradient id="paint15_linear_1067_6712" x1="18.0282" y1="39.8515" x2="26.3964" y2="42.5555" gradientUnits="userSpaceOnUse">
<stop stop-color="#5C0029"/>
<stop offset="1" stop-color="#A3610C"/>
</linearGradient>
<linearGradient id="paint16_linear_1067_6712" x1="20.3783" y1="46.7654" x2="24.5897" y2="47.086" gradientUnits="userSpaceOnUse">
<stop stop-color="#5C0029"/>
<stop offset="1" stop-color="#A3610C"/>
</linearGradient>
<linearGradient id="paint17_linear_1067_6712" x1="19.5168" y1="41.3869" x2="24.1324" y2="48.8762" gradientUnits="userSpaceOnUse">
<stop stop-color="#5C0029"/>
<stop offset="1" stop-color="#A3610C"/>
</linearGradient>
<linearGradient id="paint18_linear_1067_6712" x1="23.4528" y1="38.0413" x2="40.4181" y2="4.26198" gradientUnits="userSpaceOnUse">
<stop stop-color="#D97B00"/>
<stop offset="0.57" stop-color="#F5C743"/>
<stop offset="1" stop-color="#F5EAC9"/>
</linearGradient>
<linearGradient id="paint19_linear_1067_6712" x1="27.0859" y1="30.7602" x2="30.4033" y2="30.7602" gradientUnits="userSpaceOnUse">
<stop stop-color="#FFA3BF"/>
<stop offset="0.3" stop-color="#FF004D"/>
<stop offset="0.33" stop-color="#F40452"/>
<stop offset="0.39" stop-color="#D6115F"/>
<stop offset="0.47" stop-color="#A72675"/>
<stop offset="0.53" stop-color="#803888"/>
<stop offset="0.89" stop-color="#260022"/>
</linearGradient>
<linearGradient id="paint20_linear_1067_6712" x1="17.6781" y1="32.7659" x2="14.3586" y2="29.2907" gradientUnits="userSpaceOnUse">
<stop stop-color="#FFA3BF"/>
<stop offset="0.3" stop-color="#FF004D"/>
<stop offset="0.33" stop-color="#F40452"/>
<stop offset="0.39" stop-color="#D6115F"/>
<stop offset="0.47" stop-color="#A72675"/>
<stop offset="0.53" stop-color="#803888"/>
<stop offset="0.89" stop-color="#260022"/>
</linearGradient>
<linearGradient id="paint21_linear_1067_6712" x1="33.5696" y1="22.6992" x2="25.8628" y2="28.9654" gradientUnits="userSpaceOnUse">
<stop stop-color="#D97B00"/>
<stop offset="0.57" stop-color="#F5C743"/>
<stop offset="1" stop-color="#F5EAC9"/>
</linearGradient>
<linearGradient id="paint22_linear_1067_6712" x1="34.1923" y1="16.6547" x2="29.4072" y2="29.8081" gradientUnits="userSpaceOnUse">
<stop stop-color="#F7004A"/>
<stop offset="1" stop-color="#8A003D"/>
</linearGradient>
<linearGradient id="paint23_linear_1067_6712" x1="25.12" y1="49.459" x2="28.6883" y2="37.7085" gradientUnits="userSpaceOnUse">
<stop stop-color="#FF00FF"/>
<stop offset="0.14" stop-color="#F404F5"/>
<stop offset="0.39" stop-color="#D611DD"/>
<stop offset="0.71" stop-color="#A726B5"/>
<stop offset="1" stop-color="#773C8C"/>
</linearGradient>
<linearGradient id="paint24_linear_1067_6712" x1="44.365" y1="9.6157" x2="37.5362" y2="33.1994" gradientUnits="userSpaceOnUse">
<stop stop-color="#F74D80"/>
<stop offset="0.19" stop-color="#F7004A"/>
<stop offset="0.56" stop-color="#4F003C"/>
<stop offset="1"/>
</linearGradient>
<linearGradient id="paint25_linear_1067_6712" x1="44.5491" y1="29.7058" x2="33.2794" y2="26.5966" gradientUnits="userSpaceOnUse">
<stop stop-color="#F7004A"/>
<stop offset="0.78" stop-color="#733681"/>
<stop offset="1" stop-color="#2B1320"/>
</linearGradient>
<linearGradient id="paint26_linear_1067_6712" x1="34.9515" y1="31.6028" x2="28.2097" y2="37.0987" gradientUnits="userSpaceOnUse">
<stop stop-color="#B75BD6"/>
<stop offset="1" stop-color="#4E275C"/>
</linearGradient>
<linearGradient id="paint27_linear_1067_6712" x1="31.4971" y1="21.1528" x2="36.9118" y2="2.50349" gradientUnits="userSpaceOnUse">
<stop stop-color="#DE4C3B"/>
<stop offset="1" stop-color="#FF9813"/>
</linearGradient>
<linearGradient id="paint28_linear_1067_6712" x1="19.4527" y1="35.6606" x2="28.4591" y2="20.9649" gradientUnits="userSpaceOnUse">
<stop stop-color="#C21D4E"/>
<stop offset="0.57" stop-color="#F5C743"/>
<stop offset="1" stop-color="#F5EAC9"/>
</linearGradient>
<linearGradient id="paint29_linear_1067_6712" x1="22.2439" y1="26.322" x2="34.6296" y2="14.3187" gradientUnits="userSpaceOnUse">
<stop stop-color="#8A2F25"/>
<stop offset="1" stop-color="#A3610C"/>
</linearGradient>
<linearGradient id="paint30_linear_1067_6712" x1="22.1793" y1="24.2402" x2="27.8239" y2="10.3744" gradientUnits="userSpaceOnUse">
<stop stop-color="#D97B00"/>
<stop offset="0.57" stop-color="#F5C743"/>
<stop offset="1" stop-color="#F5EAC9"/>
</linearGradient>
<linearGradient id="paint31_linear_1067_6712" x1="24.386" y1="28.8659" x2="24.2036" y2="14.6626" gradientUnits="userSpaceOnUse">
<stop stop-color="#D97B00"/>
<stop offset="0.57" stop-color="#F5C743"/>
<stop offset="1" stop-color="#F5EAC9"/>
</linearGradient>
<linearGradient id="paint32_linear_1067_6712" x1="18.3791" y1="44.1755" x2="28.7972" y2="37.0831" gradientUnits="userSpaceOnUse">
<stop stop-color="#D97B00"/>
<stop offset="0.57" stop-color="#F5C743"/>
<stop offset="1" stop-color="#F5EAC9"/>
</linearGradient>
<linearGradient id="paint33_linear_1067_6712" x1="22.5195" y1="46.8361" x2="24.9201" y2="46.8361" gradientUnits="userSpaceOnUse">
<stop stop-color="#D97B00"/>
<stop offset="0.57" stop-color="#F5C743"/>
<stop offset="1" stop-color="#F5EAC9"/>
</linearGradient>
<linearGradient id="paint34_linear_1067_6712" x1="23.5134" y1="44.3249" x2="28.7715" y2="38.2732" gradientUnits="userSpaceOnUse">
<stop stop-color="#D97B00"/>
<stop offset="0.57" stop-color="#F5C743"/>
<stop offset="1" stop-color="#F5EAC9"/>
</linearGradient>
<linearGradient id="paint35_linear_1067_6712" x1="8.47314" y1="23.2292" x2="11.5969" y2="32.2855" gradientUnits="userSpaceOnUse">
<stop stop-color="#38130F"/>
<stop offset="1" stop-color="#6B0020"/>
</linearGradient>
<linearGradient id="paint36_linear_1067_6712" x1="36.5687" y1="23.2292" x2="33.4449" y2="32.2855" gradientUnits="userSpaceOnUse">
<stop stop-color="#38130F"/>
<stop offset="1" stop-color="#6B0020"/>
</linearGradient>
<linearGradient id="paint37_linear_1067_6712" x1="3.91813" y1="37.7858" x2="9.41189" y2="36.0886" gradientUnits="userSpaceOnUse">
<stop stop-color="#007CF7"/>
<stop offset="1" stop-color="#19003D"/>
</linearGradient>
<linearGradient id="paint38_linear_1067_6712" x1="37.7965" y1="38.468" x2="33.3265" y2="35.0563" gradientUnits="userSpaceOnUse">
<stop offset="0.03" stop-color="#00D6F7"/>
<stop offset="0.47" stop-color="#007CF7"/>
<stop offset="1" stop-color="#19003D"/>
</linearGradient>
<linearGradient id="paint39_linear_1067_6712" x1="9.53369" y1="11.2028" x2="5.9038" y2="18.5565" gradientUnits="userSpaceOnUse">
<stop stop-color="#007CF7"/>
<stop offset="1" stop-color="#19003D"/>
</linearGradient>
<linearGradient id="paint40_linear_1067_6712" x1="5.82593" y1="15.9073" x2="7.70976" y2="17.0511" gradientUnits="userSpaceOnUse">
<stop offset="0.03" stop-color="#00D6F7"/>
<stop offset="0.47" stop-color="#007CF7"/>
<stop offset="1" stop-color="#19003D"/>
</linearGradient>
<linearGradient id="paint41_linear_1067_6712" x1="37.347" y1="14.6164" x2="39.066" y2="18.541" gradientUnits="userSpaceOnUse">
<stop offset="0.03" stop-color="#00D6F7"/>
<stop offset="0.47" stop-color="#007CF7"/>
<stop offset="1" stop-color="#19003D"/>
</linearGradient>
<linearGradient id="paint42_linear_1067_6712" x1="42.9374" y1="15.6437" x2="36.1517" y2="16.917" gradientUnits="userSpaceOnUse">
<stop offset="0.03" stop-color="#00D6F7"/>
<stop offset="0.47" stop-color="#007CF7"/>
<stop offset="1" stop-color="#19003D"/>
</linearGradient>
</defs>
</svg>
