<svg width="197" height="94" viewBox="0 0 197 94" fill="none" xmlns="http://www.w3.org/2000/svg">
<path d="M90.8001 71.8396C90.2847 71.8396 89.7997 71.7393 89.3449 71.5487C88.8902 71.3582 88.4961 71.0974 88.1626 70.7665C87.8292 70.4355 87.5563 70.0544 87.3643 69.6132C87.1723 69.1719 87.0713 68.7005 87.0713 68.1991C87.0713 67.6976 87.1723 67.2263 87.3643 66.785C87.5664 66.3437 87.8292 65.9526 88.1626 65.6317C88.4961 65.3108 88.9003 65.04 89.3449 64.8494C89.7997 64.6589 90.2746 64.5586 90.8001 64.5586C91.5074 64.5586 92.1238 64.699 92.6493 64.9898C93.1747 65.2807 93.5992 65.6718 93.9326 66.1833C93.9629 66.2334 93.973 66.2936 93.9528 66.3638C93.9326 66.434 93.9023 66.4841 93.8518 66.5142L92.6897 67.2564C92.6392 67.2865 92.5785 67.2965 92.5179 67.2865C92.4573 67.2865 92.3967 67.2463 92.3562 67.1962C92.1541 66.9555 91.9318 66.7549 91.6792 66.6145C91.4266 66.4641 91.1335 66.3939 90.79 66.3939C90.5474 66.3939 90.315 66.444 90.0927 66.5443C89.8805 66.6446 89.6885 66.775 89.5268 66.9455C89.3651 67.116 89.2338 67.3065 89.1428 67.5271C89.0519 67.7478 89.0014 67.9784 89.0014 68.2091C89.0014 68.4398 89.0519 68.6805 89.1428 68.9011C89.2338 69.1217 89.3651 69.3123 89.5268 69.4728C89.6885 69.6332 89.8805 69.7636 90.0927 69.8639C90.3049 69.9642 90.5373 70.0143 90.79 70.0143C91.0426 70.0143 91.275 69.9742 91.5175 69.8839C91.76 69.7937 91.9419 69.6432 92.0935 69.4427C92.1238 69.3925 92.1339 69.3424 92.0935 69.3023C92.0632 69.2621 92.0228 69.2421 91.9621 69.2421H90.8506C90.79 69.2421 90.7293 69.222 90.6889 69.1719C90.6485 69.1318 90.6182 69.0716 90.6182 69.0114V67.8681C90.6182 67.808 90.6384 67.7478 90.6889 67.7077C90.7394 67.6676 90.79 67.6375 90.8506 67.6375H94.1751C94.2358 67.6375 94.2964 67.6575 94.3469 67.6976C94.3975 67.7378 94.4177 67.7979 94.4278 67.8681C94.4379 67.9784 94.448 68.1088 94.448 68.2693C94.448 68.4297 94.448 68.5902 94.4177 68.7507C94.3772 69.1919 94.2459 69.6031 94.0438 69.9842C93.8316 70.3653 93.5688 70.6862 93.2455 70.9671C92.9221 71.2378 92.5482 71.4585 92.1238 71.6189C91.6994 71.7794 91.2548 71.8496 90.79 71.8496L90.8001 71.8396Z" fill="white"/>
<path d="M101.41 64.9001C101.44 64.8399 101.481 64.7897 101.542 64.7496C101.602 64.7095 101.673 64.6895 101.744 64.6895H103.098C103.158 64.6895 103.229 64.7095 103.29 64.7496C103.35 64.7897 103.391 64.8399 103.421 64.9001L106.251 71.4289C106.281 71.489 106.271 71.5492 106.24 71.6094C106.2 71.6696 106.139 71.7097 106.028 71.7097H104.371C104.3 71.7097 104.229 71.6896 104.169 71.6495C104.108 71.6094 104.058 71.5592 104.027 71.4991L103.765 70.9274C103.734 70.8673 103.684 70.8171 103.623 70.777C103.563 70.7369 103.502 70.7168 103.431 70.7168H101.39C101.319 70.7168 101.248 70.7369 101.188 70.777C101.127 70.8171 101.087 70.8673 101.056 70.9274L100.784 71.4991C100.753 71.5592 100.713 71.6094 100.652 71.6495C100.592 71.6896 100.531 71.7097 100.46 71.7097H98.793C98.793 71.7097 98.7222 71.7097 98.6919 71.6896C98.6616 71.6696 98.6313 71.6595 98.601 71.6294C98.5706 71.5994 98.5605 71.5693 98.5605 71.5292C98.5605 71.489 98.5605 71.4489 98.5909 71.3988L101.4 64.9001H101.41ZM101.976 69.0821H102.835C102.896 69.0821 102.946 69.0621 102.976 69.0219C103.007 68.9818 103.007 68.9317 102.976 68.8715C102.916 68.711 102.835 68.5205 102.744 68.3099C102.653 68.0993 102.572 67.8987 102.491 67.7081C102.461 67.648 102.441 67.6179 102.4 67.6179C102.36 67.6179 102.34 67.648 102.31 67.7081L101.824 68.8715C101.794 68.9317 101.794 68.9818 101.824 69.0219C101.855 69.0621 101.895 69.0821 101.966 69.0821H101.976Z" fill="white"/>
<path d="M119.064 64.9201V71.479C119.064 71.5392 119.044 71.5994 118.993 71.6395C118.953 71.6796 118.892 71.7097 118.831 71.7097H117.376C117.316 71.7097 117.255 71.6896 117.215 71.6395C117.174 71.5994 117.144 71.5392 117.144 71.479V68.3901C117.144 68.3299 117.114 68.2898 117.053 68.2798C116.992 68.2798 116.942 68.2999 116.912 68.35L115.285 70.9575C115.254 71.0077 115.204 71.0377 115.133 71.0377C115.062 71.0377 115.012 71.0077 114.971 70.9575L113.344 68.35C113.314 68.2999 113.264 68.2798 113.213 68.2798C113.152 68.2798 113.122 68.3199 113.122 68.3901V71.479C113.122 71.5392 113.102 71.5994 113.051 71.6395C113.011 71.6796 112.95 71.7097 112.89 71.7097H111.435C111.374 71.7097 111.313 71.6896 111.273 71.6395C111.232 71.5994 111.202 71.5392 111.202 71.479V64.9201C111.202 64.8599 111.222 64.7998 111.273 64.7597C111.323 64.7195 111.374 64.6895 111.435 64.6895H112.779C112.839 64.6895 112.91 64.7095 112.981 64.7496C113.051 64.7897 113.102 64.8299 113.132 64.88L114.992 67.5878C115.032 67.6379 115.072 67.668 115.123 67.668C115.173 67.668 115.214 67.6379 115.244 67.5878L117.104 64.88C117.144 64.8299 117.194 64.7797 117.265 64.7496C117.336 64.7095 117.407 64.6895 117.467 64.6895H118.811C118.872 64.6895 118.933 64.7095 118.973 64.7597C119.013 64.8098 119.044 64.8599 119.044 64.9201H119.064Z" fill="white"/>
<path d="M126.774 66.6845V67.0856C126.774 67.1458 126.794 67.206 126.845 67.2461C126.885 67.2862 126.946 67.3163 127.006 67.3163H129.634C129.694 67.3163 129.755 67.3364 129.795 67.3865C129.836 67.4367 129.866 67.4868 129.866 67.547V68.8708C129.866 68.931 129.846 68.9911 129.795 69.0313C129.755 69.0714 129.694 69.1015 129.634 69.1015H127.006C126.946 69.1015 126.885 69.1215 126.845 69.1717C126.804 69.2218 126.774 69.2719 126.774 69.3321V69.6932C126.774 69.7533 126.794 69.8135 126.845 69.8536C126.895 69.8937 126.946 69.9238 127.006 69.9238H130.018C130.078 69.9238 130.139 69.9439 130.179 69.994C130.22 70.0341 130.25 70.0943 130.25 70.1545V71.4783C130.25 71.5385 130.23 71.5987 130.179 71.6388C130.139 71.6789 130.078 71.709 130.018 71.709H125.086C125.026 71.709 124.965 71.6889 124.925 71.6388C124.884 71.5987 124.854 71.5385 124.854 71.4783V64.9094C124.854 64.8492 124.874 64.789 124.925 64.7489C124.965 64.7088 125.026 64.6787 125.086 64.6787H130.018C130.078 64.6787 130.139 64.6988 130.179 64.7489C130.22 64.789 130.25 64.8492 130.25 64.9094V66.2131C130.25 66.2733 130.23 66.3335 130.179 66.3736C130.139 66.4137 130.078 66.4438 130.018 66.4438H127.006C126.946 66.4438 126.885 66.4639 126.845 66.514C126.804 66.5541 126.774 66.6143 126.774 66.6745V66.6845Z" fill="white"/>
<path d="M136.536 69.3022C136.879 69.5228 137.233 69.7033 137.566 69.8337C137.91 69.9641 138.223 70.0243 138.526 70.0243C138.83 70.0243 139.022 69.9841 139.173 69.9039C139.325 69.8237 139.395 69.7033 139.395 69.5429C139.395 69.4626 139.365 69.3924 139.294 69.3423C139.234 69.2922 139.143 69.252 139.042 69.222C138.941 69.1919 138.809 69.1618 138.668 69.1417C138.526 69.1217 138.385 69.1016 138.233 69.0615C138.092 69.0314 137.92 69.0013 137.738 68.9712C137.546 68.9311 137.354 68.881 137.152 68.8208C136.95 68.7506 136.758 68.6704 136.556 68.5701C136.354 68.4698 136.182 68.3394 136.03 68.1789C135.879 68.0185 135.748 67.8279 135.657 67.6073C135.566 67.3867 135.515 67.1259 135.515 66.825C135.515 66.3838 135.606 66.0227 135.778 65.7319C135.95 65.4411 136.172 65.2104 136.445 65.0499C136.718 64.8794 137.011 64.7591 137.344 64.6989C137.678 64.6287 137.991 64.5986 138.304 64.5986C138.85 64.5986 139.335 64.6789 139.759 64.8293C140.184 64.9898 140.598 65.2104 140.992 65.5213C141.043 65.5614 141.073 65.6216 141.083 65.6818C141.083 65.7419 141.083 65.8021 141.032 65.8522L140.275 66.9153C140.234 66.9655 140.184 66.9955 140.123 67.0156C140.062 67.0256 140.002 67.0156 139.951 66.9755C139.618 66.7749 139.315 66.6245 139.032 66.5342C138.749 66.4439 138.486 66.4038 138.243 66.4038C138.173 66.4038 138.092 66.4038 137.991 66.4038C137.9 66.4038 137.809 66.4239 137.728 66.4439C137.647 66.464 137.577 66.5041 137.516 66.5543C137.465 66.6044 137.435 66.6746 137.435 66.7649C137.435 66.8551 137.506 66.9354 137.637 67.0056C137.769 67.0758 137.93 67.1359 138.102 67.1861C138.274 67.2362 138.446 67.2763 138.607 67.3064C138.769 67.3365 138.87 67.3566 138.921 67.3566C139.153 67.3967 139.406 67.4669 139.689 67.5572C139.961 67.6474 140.224 67.7678 140.467 67.9383C140.709 68.1087 140.911 68.3294 141.073 68.6002C141.235 68.8709 141.315 69.2119 141.315 69.6231C141.315 70.0042 141.245 70.3352 141.113 70.616C140.982 70.8968 140.79 71.1274 140.547 71.2979C140.305 71.4785 140.012 71.6088 139.678 71.6991C139.345 71.7893 138.961 71.8295 138.547 71.8295C138.213 71.8295 137.9 71.7994 137.607 71.7492C137.314 71.6991 137.041 71.6189 136.798 71.5186C136.556 71.4183 136.313 71.308 136.101 71.1776C135.889 71.0472 135.687 70.9068 135.505 70.7564C135.454 70.7163 135.424 70.6661 135.414 70.5959C135.414 70.5257 135.414 70.4655 135.465 70.4154L136.212 69.3523C136.253 69.3022 136.303 69.2721 136.364 69.252C136.425 69.232 136.485 69.252 136.536 69.2821V69.3022Z" fill="white"/>
<path d="M94.9027 56.4448C91.467 56.4448 88.8599 54.6797 87.0713 51.1395L91.0628 48.7727C92.235 50.949 93.5587 52.0421 95.0341 52.0421C95.8122 52.0421 96.4892 51.8215 97.0753 51.3702C97.6008 50.8888 97.8635 50.3573 97.8635 49.7856C97.8635 49.214 97.6816 48.6624 97.3077 48.1008C97.0652 47.83 96.7216 47.489 96.2669 47.0778C95.8122 46.6666 95.2463 46.1852 94.5692 45.6136C93.2657 44.5405 92.1946 43.5878 91.3356 42.7654C90.4767 41.943 89.8603 41.241 89.4662 40.6593C88.6275 39.4759 88.2132 38.3126 88.2132 37.1793C88.2132 35.4744 88.8599 34.0102 90.1432 32.7967C91.4771 31.5932 93.0636 30.9814 94.9027 30.9814C96.1658 30.9814 97.338 31.2823 98.4294 31.884C98.9852 32.1548 99.5713 32.546 100.167 33.0574C100.764 33.5689 101.4 34.1907 102.067 34.9228L98.5405 37.9616C97.3582 36.3168 96.1456 35.4944 94.9128 35.4944C94.2257 35.4944 93.7305 35.6449 93.4476 35.9357C93.0636 36.2266 92.8716 36.6077 92.8716 37.069C92.8716 37.42 92.9828 37.7911 93.2152 38.1722C93.4375 38.4129 93.8417 38.7739 94.4076 39.2854C94.9735 39.7968 95.7212 40.4387 96.6408 41.231C97.7119 42.1135 98.5304 42.8256 99.0963 43.3471C99.4702 43.678 99.743 43.9187 99.9148 44.0591C101.582 45.6537 102.421 47.489 102.421 49.565C102.421 51.641 101.734 53.2556 100.359 54.5393C98.9953 55.813 97.1865 56.4548 94.9229 56.4548L94.9027 56.4448Z" fill="white"/>
<path d="M132.564 56.4448H126.895C125.501 54.6697 124.116 52.8946 122.742 51.1395C121.368 49.3845 119.994 47.5993 118.609 45.8142H124.187L126.37 48.6323C127.35 47.2283 127.835 45.6036 127.835 43.7683C127.835 41.5218 127.037 39.5562 125.46 37.8914C123.894 36.3068 122.035 35.5145 119.862 35.5145C117.558 35.5145 115.658 36.3068 114.173 37.8914C112.647 39.4157 111.879 41.3814 111.879 43.7683C111.879 46.4761 112.829 48.6223 114.729 50.2169C116.113 51.3301 117.669 51.9418 119.397 52.0421L122.722 56.2141C122.277 56.2944 121.823 56.3545 121.348 56.3947C120.873 56.4348 120.378 56.4448 119.862 56.4448C116.214 56.4448 113.173 55.2012 110.737 52.7141C108.302 50.1567 107.089 47.1781 107.089 43.7683C107.089 41.3914 107.665 39.2352 108.807 37.2996C109.979 35.344 111.536 33.7996 113.476 32.6663C115.416 31.5431 117.548 30.9814 119.862 30.9814C123.419 30.9814 126.38 32.225 128.755 34.7122C131.261 37.2094 132.514 40.2281 132.514 43.7683C132.514 47.0678 131.453 49.9361 129.331 52.363L132.574 56.4448H132.564Z" fill="white"/>
<path d="M151.905 30.9814H156.685V47.1179C156.685 48.4117 156.432 49.6151 155.947 50.7484C155.452 51.8817 154.775 52.8645 153.926 53.7069C153.078 54.5493 152.077 55.2113 150.935 55.7027C149.793 56.1941 148.581 56.4448 147.277 56.4448C145.974 56.4448 144.761 56.1941 143.619 55.7027C142.477 55.2113 141.487 54.5493 140.638 53.7069C139.789 52.8645 139.122 51.8817 138.627 50.7484C138.132 49.6151 137.89 48.4117 137.89 47.1179V30.9814H142.669V47.2283C142.669 47.8701 142.791 48.4618 143.033 49.0234C143.276 49.585 143.609 50.0664 144.023 50.4776C144.438 50.8888 144.933 51.2198 145.489 51.4504C146.044 51.6811 146.651 51.8014 147.277 51.8014C147.904 51.8014 148.52 51.6811 149.086 51.4504C149.642 51.2097 150.137 50.8888 150.551 50.4776C150.966 50.0664 151.299 49.575 151.542 49.0234C151.784 48.4718 151.905 47.8701 151.905 47.2283V30.9814Z" fill="white"/>
<path d="M162.283 30.9814H167.063V56.4448H162.283V30.9814Z" fill="white"/>
<path d="M196.338 56.4448H190.83L184.959 47.5291L178.947 56.4448H173.439L182.079 43.337L173.924 30.9814H179.432L187.718 43.337C189.315 45.7741 190.598 47.7397 191.578 49.214C192.558 50.6882 193.225 51.7112 193.589 52.2628L196.348 56.4348L196.338 56.4448ZM189.739 40.2481L186.879 36.0962L190.345 30.9814H195.873L189.739 40.2481Z" fill="white"/>
<path d="M53.1654 52.1719L47.2661 58.3887L50.4091 57.4263L52.7541 54.0432L53.1654 52.1719Z" fill="white"/>
<path d="M25.1919 52.1719L31.0912 58.3887L27.9481 57.4263L25.6031 54.0432L25.1919 52.1719Z" fill="white"/>
<path fill-rule="evenodd" clip-rule="evenodd" d="M33.8681 88.3213L39.0771 93.2695L44.291 88.3213L46.3226 85.9521L46.3869 85.6498L48.6439 83.0177L50.035 68.5033L50.3131 67.1961L59.2904 57.9338L63.2645 39.767L60.0872 58.4127L51.745 68.0661L50.5143 74.3181L56.4322 68.232L67.4327 66.9877L61.478 62.6527L75.0797 54.2769L67.3038 53.036L77.8065 43.0631L67.844 46.2081L76.2596 30.8872L70.9429 18.1326L71.3884 29.7886L69.7092 31.8787L66.5368 24.8064L64.5051 29.7984L62.1209 25.6473L68.2111 14.3462L61.788 0.269531L63.4525 13.4664L53.0395 23.1197L46.9493 15.0558L50.4242 23.7953L50.5719 22.983L50.4804 23.9369L50.4938 23.9704L50.4673 24.0739L48.8012 41.4537L41.8321 51.0165L39.1071 65.78L39.1152 65.8642L39.1034 65.8001L39.0916 65.8642L39.0997 65.78L36.3748 51.0165L29.4056 41.4537L27.7682 24.3725L27.6654 23.9704L27.7171 23.8402L27.635 22.983L27.7677 23.713L31.2098 15.0558L25.1196 23.1197L14.7066 13.4664L16.3711 0.269531L9.94801 14.3462L16.0382 25.6473L13.654 29.7984L11.6174 24.8064L8.44995 31.8787L6.77074 29.7886L7.21625 18.1326L1.89958 30.8872L10.3152 46.2081L0.347656 43.0584L10.8522 53.0365L3.07943 54.2769L16.7128 62.6721L10.7852 66.9877L21.7857 68.232L27.4603 74.0725L26.278 68.0661L17.9358 58.4127L14.7585 39.767L18.7326 57.9338L27.7098 67.1961L28.0588 68.8363L29.36 83.0177L31.6424 85.6795L31.6555 85.7409L33.8681 88.3213ZM49.6811 27.1493L50.1426 25.344L47.2135 41.4537L40.6043 50.1398L39.1034 65.7413L37.6025 50.1398L30.9934 41.4537L28.1818 25.9904L28.478 27.1493C28.478 27.1493 31.6896 21.8268 31.9099 21.8268C32.1302 21.8268 33.5695 12.1491 33.5695 12.1491L35.0823 21.4574L32.8352 28.9963L37.2021 19.6735L39.0771 4.97471L40.957 19.6735L45.324 28.9963L43.0769 21.4574L44.5896 12.1491C44.5896 12.1491 46.0289 21.8268 46.2492 21.8268C46.4695 21.8268 49.6811 27.1493 49.6811 27.1493ZM31.282 53.3193L20.4284 47.4573L22.3132 55.3463L28.5502 61.3298L31.9478 61.4367L34.3858 63.799L36.6721 66.0009L33.2745 59.405L31.282 53.3193ZM57.8752 47.4573L47.0215 53.3193L45.029 59.405L41.6314 66.0009L43.9128 63.799L46.3557 61.4367L49.7533 61.3298L55.9903 55.3463L57.8752 47.4573Z" fill="white"/>
</svg>
