<svg width="51" height="51" viewBox="0 0 51 51" fill="none" xmlns="http://www.w3.org/2000/svg">
<path d="M36.3286 15.3489C34.2562 14.4001 32.0683 13.7269 29.8209 13.3467C29.5133 13.8965 29.2351 14.4621 28.9872 15.0412C26.5933 14.6805 24.1588 14.6805 21.7649 15.0412C21.5169 14.4622 21.2387 13.8965 20.9313 13.3467C18.6824 13.7301 16.4931 14.4049 14.4185 15.3538C10.3 21.4473 9.18351 27.3894 9.74174 33.2472C12.1537 35.0292 14.8533 36.3845 17.7233 37.2541C18.3695 36.3849 18.9413 35.4628 19.4327 34.4976C18.4994 34.149 17.5986 33.719 16.7408 33.2124C16.9666 33.0487 17.1874 32.88 17.4007 32.7162C19.8969 33.8901 22.6214 34.4988 25.3798 34.4988C28.1382 34.4988 30.8627 33.8901 33.3588 32.7162C33.5747 32.8924 33.7955 33.0611 34.0188 33.2124C33.1593 33.7198 32.2568 34.1507 31.3219 34.5001C31.8127 35.4649 32.3845 36.3862 33.0313 37.2541C35.9038 36.388 38.6055 35.0333 41.0178 33.2496C41.6728 26.4565 39.8989 20.569 36.3286 15.3489ZM20.1398 29.6447C18.5842 29.6447 17.299 28.233 17.299 26.4962C17.299 24.7595 18.5395 23.3354 20.1349 23.3354C21.7302 23.3354 23.0054 24.7595 22.9781 26.4962C22.9508 28.233 21.7252 29.6447 20.1398 29.6447ZM30.6198 29.6447C29.0617 29.6447 27.7814 28.233 27.7814 26.4962C27.7814 24.7595 29.022 23.3354 30.6198 23.3354C32.2176 23.3354 33.4829 24.7595 33.4556 26.4962C33.4283 28.233 32.2051 29.6447 30.6198 29.6447Z" fill="white"/>
</svg>
