<svg width="50" height="50" viewBox="0 0 50 50" fill="none" xmlns="http://www.w3.org/2000/svg">
<g id="socials">
<path id="Vector" d="M35.9474 15.0486C33.8749 14.0998 31.6871 13.4266 29.4396 13.0464C29.1321 13.5962 28.8538 14.1618 28.606 14.7409C26.2121 14.3802 23.7776 14.3802 21.3837 14.7409C21.1357 14.1619 20.8575 13.5962 20.55 13.0464C18.3012 13.4298 16.1119 14.1046 14.0373 15.0536C9.91875 21.147 8.80228 27.0891 9.36052 32.9469C11.7724 34.7289 14.4721 36.0842 17.342 36.9538C17.9883 36.0846 18.5601 35.1625 19.0515 34.1973C18.1182 33.8487 17.2174 33.4187 16.3596 32.9121C16.5853 32.7484 16.8061 32.5797 17.0195 32.4159C19.5157 33.5898 22.2401 34.1985 24.9986 34.1985C27.757 34.1985 30.4814 33.5898 32.9776 32.4159C33.1935 32.5921 33.4143 32.7608 33.6376 32.9121C32.778 33.4195 31.8756 33.8504 30.9407 34.1998C31.4314 35.1646 32.0033 36.0859 32.6501 36.9538C35.5225 36.0877 38.2242 34.733 40.6366 32.9494C41.2916 26.1562 39.5177 20.2687 35.9474 15.0486ZM19.7586 29.3444C18.203 29.3444 16.9178 27.9327 16.9178 26.1959C16.9178 24.4592 18.1583 23.0351 19.7536 23.0351C21.3489 23.0351 22.6242 24.4592 22.5969 26.1959C22.5696 27.9327 21.344 29.3444 19.7586 29.3444ZM30.2385 29.3444C28.6804 29.3444 27.4002 27.9327 27.4002 26.1959C27.4002 24.4592 28.6407 23.0351 30.2385 23.0351C31.8363 23.0351 33.1017 24.4592 33.0744 26.1959C33.0471 27.9327 31.8239 29.3444 30.2385 29.3444Z" fill="black"/>
</g>
</svg>
