<svg width="51" height="51" viewBox="0 0 51 51" fill="none" xmlns="http://www.w3.org/2000/svg">
<path d="M25.8804 21.2148C23.3504 21.2148 21.2954 23.2698 21.2954 25.7998C21.2954 28.3298 23.3504 30.3898 25.8804 30.3898C28.4104 30.3898 30.4704 28.3298 30.4704 25.7998C30.4704 23.2698 28.4104 21.2148 25.8804 21.2148Z" fill="#FFA801"/>
<path d="M32.8004 13.2998H18.9604C15.8854 13.2998 13.3804 15.8048 13.3804 18.8798V32.7198C13.3804 35.7998 15.8854 38.2998 18.9604 38.2998H32.8004C35.8804 38.2998 38.3804 35.7998 38.3804 32.7198V18.8798C38.3804 15.8048 35.8804 13.2998 32.8004 13.2998ZM25.8804 33.8998C21.4154 33.8998 17.7804 30.2648 17.7804 25.7998C17.7804 21.3348 21.4154 17.7048 25.8804 17.7048C30.3454 17.7048 33.9804 21.3348 33.9804 25.7998C33.9804 30.2648 30.3454 33.8998 25.8804 33.8998ZM34.1504 19.1748C33.2054 19.1748 32.4354 18.4098 32.4354 17.4648C32.4354 16.5198 33.2054 15.7498 34.1504 15.7498C35.0954 15.7498 35.8654 16.5198 35.8654 17.4648C35.8654 18.4098 35.0954 19.1748 34.1504 19.1748Z" fill="#FFA801"/>
</svg>
