<svg width="50" height="50" viewBox="0 0 50 50" fill="none" xmlns="http://www.w3.org/2000/svg">
<g id="socials">
<g id="Vector">
<path d="M25.5 20.915C22.97 20.915 20.915 22.97 20.915 25.5C20.915 28.03 22.97 30.09 25.5 30.09C28.03 30.09 30.09 28.03 30.09 25.5C30.09 22.97 28.03 20.915 25.5 20.915Z" fill="black"/>
<path d="M32.42 13H18.58C15.505 13 13 15.505 13 18.58V32.42C13 35.5 15.505 38 18.58 38H32.42C35.5 38 38 35.5 38 32.42V18.58C38 15.505 35.5 13 32.42 13ZM25.5 33.6C21.035 33.6 17.4 29.965 17.4 25.5C17.4 21.035 21.035 17.405 25.5 17.405C29.965 17.405 33.6 21.035 33.6 25.5C33.6 29.965 29.965 33.6 25.5 33.6ZM33.77 18.875C32.825 18.875 32.055 18.11 32.055 17.165C32.055 16.22 32.825 15.45 33.77 15.45C34.715 15.45 35.485 16.22 35.485 17.165C35.485 18.11 34.715 18.875 33.77 18.875Z" fill="black"/>
</g>
</g>
</svg>
