<svg width="51" height="51" viewBox="0 0 51 51" fill="none" xmlns="http://www.w3.org/2000/svg">
<path d="M38.3741 38.2998L38.3804 38.2988V29.13C38.3804 24.6446 37.4147 21.1894 32.171 21.1894C29.6502 21.1894 27.9585 22.5727 27.2679 23.8842H27.195V21.6081H22.2231V38.2988H27.4002V30.0342C27.4002 27.8581 27.8127 25.754 30.5075 25.754C33.1627 25.754 33.2022 28.2373 33.2022 30.1738V38.2998H38.3741Z" fill="#FFA801"/>
<path d="M13.7929 21.6092H18.9762V38.2998H13.7929V21.6092Z" fill="#FFA801"/>
<path d="M16.3825 13.2998C14.7252 13.2998 13.3804 14.6446 13.3804 16.3019C13.3804 17.9592 14.7252 19.3321 16.3825 19.3321C18.0397 19.3321 19.3845 17.9592 19.3845 16.3019C19.3835 14.6446 18.0387 13.2998 16.3825 13.2998Z" fill="#FFA801"/>
</svg>
