<svg width="50" height="50" viewBox="0 0 50 50" fill="none" xmlns="http://www.w3.org/2000/svg">
<g id="socials">
<g id="Vector">
<path d="M37.9937 38L38 37.999V28.8302C38 24.3448 37.0344 20.8896 31.7906 20.8896C29.2698 20.8896 27.5781 22.2729 26.8875 23.5844H26.8146V21.3083H21.8427V37.999H27.0198V29.7344C27.0198 27.5583 27.4323 25.4542 30.1271 25.4542C32.7823 25.4542 32.8219 27.9375 32.8219 29.874V38H37.9937Z" fill="black"/>
<path d="M13.4125 21.3094H18.5958V38H13.4125V21.3094Z" fill="black"/>
<path d="M16.0021 13C14.3448 13 13 14.3448 13 16.0021C13 17.6594 14.3448 19.0323 16.0021 19.0323C17.6594 19.0323 19.0042 17.6594 19.0042 16.0021C19.0031 14.3448 17.6583 13 16.0021 13Z" fill="black"/>
</g>
</g>
</svg>
