<svg width="50" height="50" viewBox="0 0 50 50" fill="none" xmlns="http://www.w3.org/2000/svg">
<g id="socials">
<path id="Icon_69_" d="M41.9984 25.2618C41.9134 23.2406 40.2133 21.6405 38.1306 21.6826C37.1956 21.7247 36.3455 22.1036 35.708 22.6932C32.8178 20.7141 29.3751 19.6613 25.8473 19.5771L27.5049 11.7027L32.9878 12.7975C33.1578 14.1871 34.3904 15.1978 35.793 15.0293C37.1956 14.8609 38.2156 13.6397 38.0456 12.2501C37.8756 10.8605 36.643 9.84991 35.2404 10.0183C34.4329 10.1026 33.7103 10.5658 33.3278 11.2395L27.0799 10.0183C26.6549 9.93413 26.2298 10.1868 26.1448 10.6079L24.2747 19.4087C20.7045 19.4508 17.2617 20.5456 14.2866 22.5247C12.799 21.1351 10.4188 21.1772 9.0162 22.6932C7.61361 24.167 7.65611 26.5251 9.18621 27.9147C9.48373 28.1674 9.82375 28.42 10.2063 28.5884C10.1638 28.9674 10.1638 29.3464 10.2063 29.6833C10.2063 35.368 16.8792 40 25.1248 40C33.3703 40 40.0433 35.4101 40.0433 29.6833C40.0858 29.3043 40.0858 28.9253 40.0433 28.5884C41.2333 27.9989 42.0409 26.6935 41.9984 25.2618ZM16.3692 27.8305C16.3692 26.4409 17.5168 25.3039 18.9194 25.3039C20.322 25.3039 21.4695 26.4409 21.4695 27.8305C21.4695 29.2201 20.322 30.357 18.9194 30.357C17.5168 30.357 16.3692 29.2201 16.3692 27.8305ZM31.2452 34.8206C29.4176 36.1681 27.2074 36.8839 24.9548 36.7576C22.7021 36.8418 20.4495 36.1681 18.6643 34.8206C18.4093 34.5258 18.4518 34.1047 18.7493 33.8521C19.0044 33.6415 19.3444 33.6415 19.6419 33.8521C21.172 34.9469 23.0421 35.5364 24.9548 35.4522C26.8674 35.5364 28.7375 35.0311 30.3101 33.8942C30.6076 33.6415 31.0327 33.6415 31.3302 33.8942C31.5852 34.1889 31.5852 34.61 31.3302 34.9048V34.8206H31.2452ZM30.8202 30.4834C29.4176 30.4834 28.27 29.3464 28.27 27.9568C28.27 26.5672 29.4176 25.4303 30.8202 25.4303C32.2227 25.4303 33.3703 26.5672 33.3703 27.9568C33.4128 29.3464 32.3503 30.5255 30.9052 30.5676C30.8627 30.5676 30.8202 30.5676 30.7776 30.5676L30.8202 30.4834Z" fill="black"/>
</g>
</svg>
