<svg width="51" height="51" viewBox="0 0 51 51" fill="none" xmlns="http://www.w3.org/2000/svg">
<path d="M42.3788 25.5616C42.2938 23.5404 40.5937 21.9403 38.511 21.9824C37.5759 22.0245 36.7259 22.4035 36.0883 22.993C33.1982 21.0139 29.7554 19.9611 26.2277 19.8769L27.8853 12.0025L33.3682 13.0974C33.5382 14.487 34.7708 15.4976 36.1734 15.3291C37.5759 15.1607 38.596 13.9395 38.426 12.5499C38.256 11.1603 37.0234 10.1497 35.6208 10.3182C34.8133 10.4024 34.0907 10.8656 33.7082 11.5393L27.4603 10.3182C27.0352 10.2339 26.6102 10.4866 26.5252 10.9077L24.6551 19.7085C21.0849 19.7506 17.6421 20.8454 14.6669 22.8245C13.1793 21.4349 10.7992 21.4771 9.39657 22.993C7.99398 24.4668 8.03648 26.8249 9.56658 28.2145C9.8641 28.4672 10.2041 28.7198 10.5866 28.8883C10.5441 29.2672 10.5441 29.6462 10.5866 29.9831C10.5866 35.6678 17.2596 40.2998 25.5051 40.2998C33.7507 40.2998 40.4236 35.7099 40.4236 29.9831C40.4661 29.6041 40.4661 29.2251 40.4236 28.8883C41.6137 28.2987 42.4213 26.9933 42.3788 25.5616ZM16.7496 28.1303C16.7496 26.7407 17.8971 25.6037 19.2997 25.6037C20.7023 25.6037 21.8499 26.7407 21.8499 28.1303C21.8499 29.5199 20.7023 30.6568 19.2997 30.6568C17.8971 30.6568 16.7496 29.5199 16.7496 28.1303ZM31.6255 35.1204C29.7979 36.4679 27.5878 37.1837 25.3351 37.0574C23.0825 37.1416 20.8298 36.4679 19.0447 35.1204C18.7897 34.8256 18.8322 34.4045 19.1297 34.1519C19.3847 33.9413 19.7248 33.9413 20.0223 34.1519C21.5524 35.2467 23.4225 35.8362 25.3351 35.752C27.2478 35.8362 29.1179 35.3309 30.6905 34.194C30.988 33.9413 31.413 33.9413 31.7106 34.194C31.9656 34.4888 31.9656 34.9098 31.7106 35.2046V35.1204H31.6255ZM31.2005 30.7832C29.7979 30.7832 28.6504 29.6462 28.6504 28.2566C28.6504 26.867 29.7979 25.7301 31.2005 25.7301C32.6031 25.7301 33.7507 26.867 33.7507 28.2566C33.7932 29.6462 32.7306 30.8253 31.2855 30.8674C31.243 30.8674 31.2005 30.8674 31.158 30.8674L31.2005 30.7832Z" fill="white"/>
</svg>
