<svg width="50" height="50" viewBox="0 0 50 50" fill="none" xmlns="http://www.w3.org/2000/svg">
<g id="socials">
<path id="Subtract" fill-rule="evenodd" clip-rule="evenodd" d="M40.5416 25.1121C40.5416 33.7951 33.5026 40.8341 24.8196 40.8341C16.1366 40.8341 9.09766 33.7951 9.09766 25.1121C9.09766 16.4291 16.1366 9.39014 24.8196 9.39014C33.5026 9.39014 40.5416 16.4291 40.5416 25.1121ZM25.3831 20.9968C23.8539 21.6328 20.7977 22.9493 16.2144 24.9461C15.4701 25.2421 15.0803 25.5316 15.0448 25.8148C14.9848 26.2932 15.584 26.4816 16.3999 26.7382C16.5109 26.7731 16.6258 26.8092 16.7437 26.8476C17.5465 27.1085 18.6263 27.4138 19.1877 27.4259C19.6969 27.4369 20.2652 27.227 20.8926 26.7961C25.1749 23.9054 27.3855 22.4444 27.5243 22.4129C27.6222 22.3906 27.7579 22.3627 27.8498 22.4444C27.9417 22.5261 27.9327 22.6809 27.9229 22.7224C27.8636 22.9754 25.5116 25.162 24.2944 26.2936C23.915 26.6464 23.6459 26.8966 23.5908 26.9537C23.4676 27.0817 23.342 27.2028 23.2213 27.3192C22.4755 28.0381 21.9162 28.5773 23.2522 29.4577C23.8942 29.8807 24.408 30.2306 24.9205 30.5796C25.4802 30.9608 26.0385 31.341 26.7608 31.8145C26.9449 31.9351 27.1206 32.0604 27.2918 32.1825C27.9432 32.6468 28.5284 33.064 29.2514 32.9975C29.6715 32.9589 30.1055 32.5638 30.3259 31.3856C30.8467 28.6013 31.8705 22.5684 32.1071 20.0823C32.1278 19.8645 32.1018 19.5858 32.0808 19.4634C32.0599 19.3411 32.0161 19.1667 31.8571 19.0376C31.6687 18.8848 31.3779 18.8526 31.2478 18.8549C30.6565 18.8653 29.7492 19.1807 25.3831 20.9968Z" fill="black"/>
</g>
</svg>
