<svg width="51" height="51" viewBox="0 0 51 51" fill="none" xmlns="http://www.w3.org/2000/svg">
<path fill-rule="evenodd" clip-rule="evenodd" d="M40.9227 25.4114C40.9227 34.0944 33.8838 41.1334 25.2007 41.1334C16.5177 41.1334 9.47876 34.0944 9.47876 25.4114C9.47876 16.7284 16.5177 9.68945 25.2007 9.68945C33.8838 9.68945 40.9227 16.7284 40.9227 25.4114ZM25.7642 21.2961C24.235 21.9321 21.1788 23.2486 16.5955 25.2455C15.8512 25.5414 15.4614 25.831 15.4259 26.1141C15.3659 26.5925 15.9651 26.7809 16.781 27.0375C16.892 27.0724 17.007 27.1086 17.1248 27.1469C17.9276 27.4078 19.0074 27.7131 19.5688 27.7252C20.078 27.7362 20.6463 27.5263 21.2737 27.0954C25.556 24.2048 27.7666 22.7437 27.9054 22.7122C28.0033 22.69 28.139 22.662 28.2309 22.7437C28.3228 22.8254 28.3138 22.9802 28.304 23.0217C28.2447 23.2747 25.8927 25.4613 24.6756 26.5929C24.2961 26.9457 24.027 27.1959 23.972 27.253C23.8487 27.3811 23.7231 27.5021 23.6024 27.6185C22.8566 28.3375 22.2973 28.8766 23.6333 29.757C24.2753 30.18 24.7891 30.5299 25.3016 30.8789C25.8613 31.2601 26.4196 31.6403 27.1419 32.1138C27.326 32.2344 27.5017 32.3597 27.6729 32.4818C28.3243 32.9462 28.9095 33.3634 29.6325 33.2968C30.0526 33.2582 30.4866 32.8631 30.707 31.685C31.2278 28.9006 32.2516 22.8677 32.4882 20.3817C32.5089 20.1638 32.4829 19.8851 32.4619 19.7627C32.441 19.6404 32.3972 19.466 32.2382 19.337C32.0498 19.1841 31.759 19.1519 31.6289 19.1542C31.0376 19.1646 30.1304 19.4801 25.7642 21.2961Z" fill="white"/>
</svg>
