<svg width="50" height="50" viewBox="0 0 50 50" fill="none" xmlns="http://www.w3.org/2000/svg">
<g id="socials">
<path id="Vector" d="M37.986 18.2612C36.2945 18.2612 34.7339 17.7121 33.4806 16.7857C32.0432 15.7238 31.0105 14.166 30.6458 12.3706C30.5555 11.9269 30.5068 11.4691 30.5022 11H25.6702L25.6644 31.0256C25.6644 32.9203 24.4054 34.5269 22.66 35.0919C22.1535 35.2558 21.6065 35.3335 21.0368 35.3029C20.3098 35.2638 19.6284 35.0488 19.0362 34.7016C17.776 33.963 16.9215 32.6231 16.8984 31.0903C16.8619 28.6946 18.8382 26.7415 21.2811 26.7415C21.7633 26.7415 22.2264 26.8186 22.66 26.9588V22.1511C22.2027 22.0847 21.7373 22.0501 21.2667 22.0501C18.5928 22.0501 16.092 23.1393 14.3044 25.1015C12.9533 26.5844 12.1428 28.4762 12.0178 30.46C11.854 33.0661 12.8271 35.5434 14.7142 37.3712C14.9915 37.6395 15.2827 37.8886 15.5872 38.1183C17.2052 39.3385 19.1832 40 21.2667 40C21.7373 40 22.2027 39.966 22.66 39.8996C24.6062 39.6171 26.4019 38.744 27.8191 37.3712C29.5604 35.6847 30.5225 33.4456 30.5329 31.0625L30.508 20.4793C31.3387 21.1073 32.247 21.6269 33.2218 22.0302C34.7379 22.6571 36.3455 22.9747 37.9999 22.9742V18.2601C38.0011 18.2612 37.9872 18.2612 37.986 18.2612Z" fill="black"/>
</g>
</svg>
