<svg width="51" height="51" viewBox="0 0 51 51" fill="none" xmlns="http://www.w3.org/2000/svg">
<path d="M38.3664 18.561C36.6749 18.561 35.1142 18.0119 33.8609 17.0855C32.4236 16.0236 31.3908 14.4658 31.0261 12.6704C30.9358 12.2267 30.8872 11.7689 30.8826 11.2998H26.0506L26.0448 31.3254C26.0448 33.2201 24.7857 34.8267 23.0404 35.3917C22.5339 35.5556 21.9868 35.6333 21.4172 35.6027C20.6901 35.5636 20.0088 35.3486 19.4166 35.0014C18.1563 34.2628 17.3019 32.9229 17.2787 31.3901C17.2423 28.9944 19.2186 27.0413 21.6615 27.0413C22.1437 27.0413 22.6068 27.1184 23.0404 27.2586V22.4509C22.5831 22.3845 22.1177 22.3499 21.647 22.3499C18.9731 22.3499 16.4724 23.4391 14.6848 25.4013C13.3336 26.8842 12.5232 28.776 12.3982 30.7598C12.2343 33.3659 13.2074 35.8432 15.0946 37.671C15.3719 37.9393 15.6631 38.1884 15.9676 38.4181C17.5856 39.6384 19.5636 40.2998 21.647 40.2998C22.1177 40.2998 22.5831 40.2658 23.0404 40.1994C24.9866 39.9169 26.7823 39.0438 28.1994 37.671C29.9407 35.9845 30.9028 33.7454 30.9133 31.3623L30.8884 20.7791C31.7191 21.4071 32.6273 21.9267 33.6022 22.33C35.1183 22.9569 36.7258 23.2746 38.3803 23.274V18.5599C38.3815 18.561 38.3676 18.561 38.3664 18.561Z" fill="#FFA801"/>
</svg>
