<svg width="51" height="51" viewBox="0 0 51 51" fill="none" xmlns="http://www.w3.org/2000/svg">
<path fill-rule="evenodd" clip-rule="evenodd" d="M37.9008 16.9727C39.2714 17.3352 40.3522 18.3962 40.7211 19.7422C41.4066 22.2009 41.3802 27.3257 41.3802 27.3257C41.3802 27.3257 41.3802 32.4244 40.7213 34.8833C40.3522 36.2291 39.2716 37.2903 37.9008 37.6525C35.3966 38.2998 25.3803 38.2998 25.3803 38.2998C25.3803 38.2998 15.3901 38.2998 12.8598 37.6269C11.489 37.2644 10.4084 36.2032 10.0393 34.8574C9.38037 32.4244 9.38037 27.2998 9.38037 27.2998C9.38037 27.2998 9.38037 22.2009 10.0393 19.7422C10.4082 18.3964 11.5154 17.3093 12.8596 16.9471C15.3637 16.2998 25.3801 16.2998 25.3801 16.2998C25.3801 16.2998 35.3966 16.2998 37.9008 16.9727ZM30.5202 27.2998L22.1909 32.0104V22.5892L30.5202 27.2998Z" fill="#FFA801"/>
</svg>
