<svg width="50" height="50" viewBox="0 0 50 50" fill="none" xmlns="http://www.w3.org/2000/svg">
<g id="socials">
<path id="Subtract" fill-rule="evenodd" clip-rule="evenodd" d="M37.5204 16.6729C38.891 17.0354 39.9718 18.0964 40.3407 19.4424C41.0262 21.9011 40.9999 27.0259 40.9999 27.0259C40.9999 27.0259 40.9999 32.1246 40.3409 34.5834C39.9718 35.9293 38.8912 36.9905 37.5204 37.3527C35.0162 38 24.9999 38 24.9999 38C24.9999 38 15.0097 38 12.4795 37.3271C11.1086 36.9646 10.0281 35.9034 9.65893 34.5576C9 32.1246 9 27 9 27C9 27 9 21.9011 9.65893 19.4424C10.0278 18.0966 11.135 17.0095 12.4792 16.6473C14.9834 16 24.9997 16 24.9997 16C24.9997 16 35.0162 16 37.5204 16.6729ZM30.1398 27L21.8105 31.7106V22.2894L30.1398 27Z" fill="black"/>
</g>
</svg>
