<svg width="1517" height="63" viewBox="0 0 1517 63" fill="none" xmlns="http://www.w3.org/2000/svg">
<mask id="path-1-inside-1_408_428" fill="white">
<path fill-rule="evenodd" clip-rule="evenodd" d="M16.9823 59.9655L1498.45 59.9654C1500.01 59.9654 1501.49 59.2326 1502.43 57.9852L1513.49 43.3928C1514.84 41.607 1514.84 39.139 1513.49 37.3532L1502.43 22.7607C1501.49 21.5133 1500.01 20.7805 1498.45 20.7805L1498.26 20.7805C1494.4 20.7805 1491.26 23.9145 1491.26 27.7805L1491.26 28.4969C1491.26 30.0883 1489.97 31.3784 1488.38 31.3784C1486.79 31.3784 1485.5 30.0883 1485.5 28.4969L1485.5 27.7805C1485.5 23.9145 1482.37 20.7805 1478.5 20.7805L1205.82 20.7805C1201.95 20.7805 1198.82 23.9145 1198.82 27.7805L1198.82 28.4969C1198.82 30.0883 1197.53 31.3784 1195.94 31.3784C1194.34 31.3784 1193.05 30.0883 1193.05 28.4969L1193.05 27.7805C1193.05 23.9145 1189.92 20.7805 1186.05 20.7805L913.369 20.7805C909.503 20.7805 906.369 23.9145 906.369 27.7805L906.369 28.4969C906.369 30.0883 905.079 31.3784 903.488 31.3784C901.896 31.3784 900.606 30.0883 900.606 28.4969L900.606 27.7805C900.606 23.9145 897.472 20.7805 893.606 20.7805L620.922 20.7805C617.056 20.7805 613.922 23.9145 613.922 27.7805L613.922 28.4969C613.922 30.0883 612.632 31.3784 611.04 31.3784C609.449 31.3784 608.159 30.0883 608.159 28.4969L608.159 27.7805C608.159 23.9145 605.025 20.7805 601.159 20.7805L328.474 20.7805C324.608 20.7805 321.474 23.9146 321.474 27.7805L321.474 28.4969C321.474 30.0883 320.184 31.3784 318.593 31.3784C317.001 31.3784 315.711 30.0883 315.711 28.4969L315.711 27.7805C315.711 23.9146 312.577 20.7805 308.711 20.7805L36.0269 20.7806C32.1609 20.7806 29.0269 23.9146 29.0269 27.7805L29.0269 28.4969C29.0269 30.0883 27.7368 31.3784 26.1454 31.3784C24.554 31.3784 23.2639 30.0883 23.2639 28.4969L23.2639 27.0622C23.2639 23.5929 20.4515 20.7806 16.9823 20.7806C15.3275 20.7806 13.7799 21.5993 12.8489 22.9674L2.91748 37.5598C1.76221 39.2574 1.76221 41.4887 2.91748 43.1862L12.8489 57.7787C13.7799 59.1467 15.3275 59.9655 16.9823 59.9655ZM23.2639 12.4989C23.2639 15.9682 20.4515 18.7806 16.9823 18.7806C14.6656 18.7806 12.4989 19.9268 11.1954 21.8421L1.26404 36.4345C-0.353395 38.8111 -0.353395 41.9349 1.26404 44.3115L11.1954 58.9039C12.4989 60.8192 14.6655 61.9655 16.9823 61.9655L1498.45 61.9654C1500.64 61.9654 1502.7 60.9395 1504.03 59.1932L1515.08 44.6007C1516.98 42.1006 1516.98 38.6454 1515.08 36.1452L1504.03 21.5528C1502.7 19.8065 1500.64 18.7805 1498.45 18.7805L1498.26 18.7805C1494.4 18.7805 1491.26 15.6465 1491.26 11.7805L1491.26 3.23547C1491.26 1.64408 1489.97 0.354003 1488.38 0.354003C1486.79 0.354003 1485.5 1.64408 1485.5 3.23547L1485.5 11.7805C1485.5 15.6465 1482.37 18.7805 1478.5 18.7805L1205.82 18.7805C1201.95 18.7805 1198.82 15.6465 1198.82 11.7805L1198.82 3.23546C1198.82 1.64407 1197.53 0.35399 1195.94 0.35399C1194.34 0.35399 1193.05 1.64407 1193.05 3.23546L1193.05 11.7805C1193.05 15.6465 1189.92 18.7805 1186.05 18.7805L913.369 18.7805C909.503 18.7805 906.369 15.6465 906.369 11.7805L906.369 3.23545C906.369 1.64406 905.079 0.353977 903.488 0.353977C901.896 0.353977 900.606 1.64406 900.606 3.23545L900.606 11.7805C900.606 15.6465 897.472 18.7805 893.606 18.7805L620.922 18.7805C617.056 18.7805 613.922 15.6465 613.922 11.7805L613.922 3.23544C613.922 1.64404 612.632 0.353964 611.04 0.353964C609.449 0.353964 608.159 1.64404 608.159 3.23544L608.159 11.7805C608.159 15.6465 605.025 18.7805 601.159 18.7805L328.474 18.7805C324.608 18.7805 321.474 15.6465 321.474 11.7805L321.474 3.23542C321.474 1.64403 320.184 0.353952 318.593 0.353952C317.001 0.353951 315.711 1.64403 315.711 3.23542L315.711 11.7805C315.711 15.6465 312.577 18.7805 308.711 18.7805L36.0269 18.7806C32.1609 18.7806 29.0269 15.6465 29.0269 11.7805L29.0269 3.23541C29.0269 1.64402 27.7368 0.353939 26.1454 0.353939C24.554 0.353939 23.2639 1.64402 23.2639 3.23541L23.2639 12.4989Z"/>
</mask>
<path d="M1498.45 59.9654L1498.45 57.9654L1498.45 59.9654ZM16.9823 59.9655L16.9823 61.9655L16.9823 59.9655ZM1502.43 57.9852L1504.03 59.1932L1504.03 59.1932L1502.43 57.9852ZM1513.49 43.3928L1511.9 42.1849L1511.9 42.1849L1513.49 43.3928ZM1513.49 37.3532L1511.9 38.5611L1511.9 38.5611L1513.49 37.3532ZM1502.43 22.7607L1504.03 21.5528L1504.03 21.5528L1502.43 22.7607ZM1485.5 28.4969L1487.5 28.4969L1485.5 28.4969ZM12.8489 22.9674L14.5023 24.0926L14.5023 24.0926L12.8489 22.9674ZM2.91748 37.5598L1.26404 36.4345L1.26404 36.4346L2.91748 37.5598ZM2.91748 43.1862L1.26404 44.3115L1.26404 44.3115L2.91748 43.1862ZM12.8489 57.7787L14.5023 56.6534L14.5023 56.6534L12.8489 57.7787ZM11.1954 21.8421L12.8489 22.9674L12.8489 22.9673L11.1954 21.8421ZM1.26404 36.4345L-0.389406 35.3093V35.3093L1.26404 36.4345ZM1.26404 44.3115L-0.389406 45.4368L-0.389406 45.4368L1.26404 44.3115ZM11.1954 58.9039L12.8489 57.7787L12.8489 57.7787L11.1954 58.9039ZM16.9823 61.9655L16.9823 63.9655L16.9823 61.9655ZM1498.45 61.9654L1498.45 59.9654L1498.45 61.9654ZM1504.03 59.1932L1502.43 57.9852L1502.43 57.9852L1504.03 59.1932ZM1515.08 44.6007L1513.49 43.3928L1513.49 43.3928L1515.08 44.6007ZM1515.08 36.1452L1513.49 37.3532L1513.49 37.3532L1515.08 36.1452ZM1504.03 21.5528L1505.62 20.3449L1504.03 21.5528ZM1485.5 3.23547L1483.5 3.23547V3.23547L1485.5 3.23547ZM1198.82 3.23546L1196.82 3.23546L1198.82 3.23546ZM1193.05 3.23546L1191.05 3.23546L1193.05 3.23546ZM906.369 3.23545L904.369 3.23545L906.369 3.23545ZM900.606 3.23545L898.606 3.23545L900.606 3.23545ZM321.474 3.23542L323.474 3.23542L321.474 3.23542ZM315.711 3.23542L317.711 3.23542L315.711 3.23542ZM36.0269 20.7806L36.0269 18.7806L36.0269 20.7806ZM315.711 11.7805L317.711 11.7805L315.711 11.7805ZM321.474 11.7805L323.474 11.7805L321.474 11.7805ZM328.474 20.7805L328.474 18.7805L328.474 20.7805ZM620.922 18.7805L620.922 16.7805L620.922 18.7805ZM900.606 11.7805L902.606 11.7805L900.606 11.7805ZM893.606 18.7805L893.606 16.7805L893.606 18.7805ZM906.369 11.7805L908.369 11.7805L906.369 11.7805ZM913.369 20.7805L913.369 18.7805L913.369 20.7805ZM1193.05 11.7805L1191.05 11.7805L1193.05 11.7805ZM1198.82 11.7805L1196.82 11.7805L1198.82 11.7805ZM1485.5 11.7805L1487.5 11.7805L1485.5 11.7805ZM1478.5 18.7805L1478.5 16.7805L1478.5 18.7805ZM601.159 20.7805L601.159 18.7805L601.159 20.7805ZM1186.05 20.7805L1186.05 18.7805L1186.05 20.7805ZM1485.5 27.7805L1487.5 27.7805L1485.5 27.7805ZM1478.5 20.7805L1478.5 18.7805L1478.5 20.7805ZM1498.45 57.9654L16.9823 57.9655L16.9823 61.9655L1498.45 61.9654L1498.45 57.9654ZM1500.84 56.7773C1500.27 57.5257 1499.39 57.9654 1498.45 57.9654L1498.45 61.9654C1500.64 61.9654 1502.7 60.9395 1504.03 59.1932L1500.84 56.7773ZM1511.9 42.1849L1500.84 56.7773L1504.03 59.1932L1515.08 44.6007L1511.9 42.1849ZM1511.9 38.5611C1512.71 39.6326 1512.71 41.1134 1511.9 42.1849L1515.08 44.6007C1516.98 42.1006 1516.98 38.6454 1515.08 36.1452L1511.9 38.5611ZM1500.84 23.9686L1511.9 38.5611L1515.08 36.1452L1504.03 21.5528L1500.84 23.9686ZM1498.45 22.7805C1499.39 22.7805 1500.27 23.2202 1500.84 23.9686L1504.03 21.5528C1502.7 19.8065 1500.64 18.7805 1498.45 18.7805L1498.45 22.7805ZM1498.26 22.7805L1498.45 22.7805L1498.45 18.7805L1498.26 18.7805L1498.26 22.7805ZM1493.26 28.4969L1493.26 27.7805L1489.26 27.7805L1489.26 28.4969L1493.26 28.4969ZM1488.38 33.3784C1491.08 33.3784 1493.26 31.1929 1493.26 28.4969L1489.26 28.4969C1489.26 28.9838 1488.87 29.3784 1488.38 29.3784L1488.38 33.3784ZM1483.5 28.4969C1483.5 31.1929 1485.69 33.3784 1488.38 33.3784L1488.38 29.3784C1487.9 29.3784 1487.5 28.9838 1487.5 28.4969L1483.5 28.4969ZM1483.5 27.7805L1483.5 28.4969L1487.5 28.4969L1487.5 27.7805L1483.5 27.7805ZM1205.82 22.7805L1478.5 22.7805L1478.5 18.7805L1205.82 18.7805L1205.82 22.7805ZM1200.82 28.4969L1200.82 27.7805L1196.82 27.7805L1196.82 28.4969L1200.82 28.4969ZM1195.94 33.3784C1198.63 33.3784 1200.82 31.1929 1200.82 28.4969L1196.82 28.4969C1196.82 28.9838 1196.42 29.3784 1195.94 29.3784L1195.94 33.3784ZM1191.05 28.4969C1191.05 31.1929 1193.24 33.3784 1195.94 33.3784L1195.94 29.3784C1195.45 29.3784 1195.05 28.9838 1195.05 28.4969L1191.05 28.4969ZM1191.05 27.7805L1191.05 28.4969L1195.05 28.4969L1195.05 27.7805L1191.05 27.7805ZM913.369 22.7805L1186.05 22.7805L1186.05 18.7805L913.369 18.7805L913.369 22.7805ZM908.369 28.4969L908.369 27.7805L904.369 27.7805L904.369 28.4969L908.369 28.4969ZM903.488 33.3784C906.184 33.3784 908.369 31.1929 908.369 28.4969L904.369 28.4969C904.369 28.9837 903.974 29.3784 903.488 29.3784L903.488 33.3784ZM898.606 28.4969C898.606 31.1929 900.792 33.3784 903.488 33.3784L903.488 29.3784C903.001 29.3784 902.606 28.9837 902.606 28.4969L898.606 28.4969ZM898.606 27.7805L898.606 28.4969L902.606 28.4969L902.606 27.7805L898.606 27.7805ZM620.922 22.7805L893.606 22.7805L893.606 18.7805L620.922 18.7805L620.922 22.7805ZM615.922 28.4969L615.922 27.7805L611.922 27.7805L611.922 28.4969L615.922 28.4969ZM611.04 33.3784C613.736 33.3784 615.922 31.1929 615.922 28.4969L611.922 28.4969C611.922 28.9837 611.527 29.3784 611.04 29.3784L611.04 33.3784ZM606.159 28.4969C606.159 31.1929 608.344 33.3784 611.04 33.3784L611.04 29.3784C610.553 29.3784 610.159 28.9837 610.159 28.4969L606.159 28.4969ZM606.159 27.7805L606.159 28.4969L610.159 28.4969L610.159 27.7805L606.159 27.7805ZM328.474 22.7805L601.159 22.7805L601.159 18.7805L328.474 18.7805L328.474 22.7805ZM323.474 28.4969L323.474 27.7805L319.474 27.7805L319.474 28.4969L323.474 28.4969ZM318.593 33.3784C321.289 33.3784 323.474 31.1928 323.474 28.4969L319.474 28.4969C319.474 28.9837 319.08 29.3784 318.593 29.3784L318.593 33.3784ZM313.711 28.4969C313.711 31.1928 315.897 33.3784 318.593 33.3784L318.593 29.3784C318.106 29.3784 317.711 28.9837 317.711 28.4969L313.711 28.4969ZM313.711 27.7805L313.711 28.4969L317.711 28.4969L317.711 27.7805L313.711 27.7805ZM36.0269 22.7806L308.711 22.7805L308.711 18.7805L36.0269 18.7806L36.0269 22.7806ZM27.0269 27.7805L27.0269 28.4969L31.0269 28.4969L31.0269 27.7805L27.0269 27.7805ZM27.0269 28.4969C27.0269 28.9837 26.6322 29.3784 26.1454 29.3784L26.1454 33.3784C28.8414 33.3784 31.0269 31.1928 31.0269 28.4969L27.0269 28.4969ZM26.1454 29.3784C25.6586 29.3784 25.2639 28.9837 25.2639 28.4969L21.2639 28.4969C21.2639 31.1928 23.4493 33.3784 26.1454 33.3784L26.1454 29.3784ZM25.2639 28.4969L25.2639 27.0622L21.2639 27.0622L21.2639 28.4969L25.2639 28.4969ZM14.5023 24.0926C15.0609 23.2718 15.9895 22.7806 16.9823 22.7806L16.9823 18.7806C14.6655 18.7806 12.4989 19.9268 11.1954 21.8421L14.5023 24.0926ZM4.57092 38.6851L14.5023 24.0926L11.1954 21.8421L1.26404 36.4345L4.57092 38.6851ZM4.57092 42.061C3.87768 41.0424 3.87768 39.7036 4.57092 38.6851L1.26404 36.4346C-0.353273 38.8111 -0.353273 41.9349 1.26404 44.3115L4.57092 42.061ZM14.5023 56.6534L4.57092 42.0609L1.26404 44.3115L11.1954 58.9039L14.5023 56.6534ZM16.9823 57.9655C15.9895 57.9655 15.0609 57.4742 14.5023 56.6534L11.1954 58.9039C12.4989 60.8192 14.6655 61.9655 16.9823 61.9655L16.9823 57.9655ZM12.8489 22.9673C13.7799 21.5993 15.3275 20.7806 16.9823 20.7806L16.9823 16.7806C14.0038 16.7806 11.2179 18.2543 9.54199 20.7168L12.8489 22.9673ZM2.91748 37.5598L12.8489 22.9674L9.54199 20.7168L-0.389406 35.3093L2.91748 37.5598ZM2.91748 43.1862C1.76208 41.4887 1.76208 39.2574 2.91748 37.5598L-0.389406 35.3093C-2.46887 38.3648 -2.46887 42.3812 -0.389406 45.4368L2.91748 43.1862ZM12.8489 57.7787L2.91748 43.1862L-0.389406 45.4368L9.54199 60.0292L12.8489 57.7787ZM16.9823 59.9655C15.3275 59.9655 13.7799 59.1467 12.8489 57.7787L9.54199 60.0292C11.2179 62.4917 14.0035 63.9655 16.9823 63.9655L16.9823 59.9655ZM1498.45 59.9654L16.9823 59.9655L16.9823 63.9655L1498.45 63.9654L1498.45 59.9654ZM1502.43 57.9852C1501.49 59.2326 1500.01 59.9654 1498.45 59.9654L1498.45 63.9654C1501.26 63.9654 1503.92 62.6464 1505.62 60.4011L1502.43 57.9852ZM1513.49 43.3928L1502.43 57.9852L1505.62 60.4011L1516.68 45.8086L1513.49 43.3928ZM1513.49 37.3532C1514.84 39.139 1514.84 41.607 1513.49 43.3928L1516.68 45.8086C1519.11 42.5942 1519.11 38.1518 1516.68 34.9373L1513.49 37.3532ZM1502.43 22.7607L1513.49 37.3532L1516.68 34.9373L1505.62 20.3449L1502.43 22.7607ZM1498.45 20.7805C1500.01 20.7805 1501.49 21.5133 1502.43 22.7607L1505.62 20.3449C1503.92 18.0996 1501.26 16.7805 1498.45 16.7805L1498.45 20.7805ZM1498.26 20.7805L1498.45 20.7805L1498.45 16.7805L1498.26 16.7805L1498.26 20.7805ZM1489.26 3.23547L1489.26 11.7805L1493.26 11.7805L1493.26 3.23547L1489.26 3.23547ZM1488.38 2.354C1488.87 2.354 1489.26 2.74865 1489.26 3.23547L1493.26 3.23547C1493.26 0.539512 1491.08 -1.646 1488.38 -1.646L1488.38 2.354ZM1487.5 3.23547C1487.5 2.74865 1487.9 2.354 1488.38 2.354L1488.38 -1.646C1485.69 -1.646 1483.5 0.539514 1483.5 3.23547L1487.5 3.23547ZM1487.5 11.7805L1487.5 3.23547L1483.5 3.23547L1483.5 11.7805L1487.5 11.7805ZM1205.82 20.7805L1478.5 20.7805L1478.5 16.7805L1205.82 16.7805L1205.82 20.7805ZM1196.82 3.23546L1196.82 11.7805L1200.82 11.7805L1200.82 3.23546L1196.82 3.23546ZM1195.94 2.35399C1196.42 2.35399 1196.82 2.74863 1196.82 3.23546L1200.82 3.23546C1200.82 0.539504 1198.63 -1.64601 1195.94 -1.64601L1195.94 2.35399ZM1195.05 3.23546C1195.05 2.74863 1195.45 2.35399 1195.94 2.35399L1195.94 -1.64601C1193.24 -1.64601 1191.05 0.539505 1191.05 3.23546L1195.05 3.23546ZM1195.05 11.7805L1195.05 3.23546L1191.05 3.23546L1191.05 11.7805L1195.05 11.7805ZM913.369 20.7805L1186.05 20.7805L1186.05 16.7805L913.369 16.7805L913.369 20.7805ZM904.369 3.23545L904.369 11.7805L908.369 11.7805L908.369 3.23545L904.369 3.23545ZM903.488 2.35398C903.974 2.35398 904.369 2.74863 904.369 3.23545L908.369 3.23545C908.369 0.539478 906.184 -1.64602 903.488 -1.64602L903.488 2.35398ZM902.606 3.23545C902.606 2.74863 903.001 2.35398 903.488 2.35398L903.488 -1.64602C900.792 -1.64602 898.606 0.539479 898.606 3.23545L902.606 3.23545ZM902.606 11.7805L902.606 3.23545L898.606 3.23545L898.606 11.7805L902.606 11.7805ZM620.922 20.7805L893.606 20.7805L893.606 16.7805L620.922 16.7805L620.922 20.7805ZM611.922 3.23544L611.922 11.7805L615.922 11.7805L615.922 3.23544L611.922 3.23544ZM611.04 2.35396C611.527 2.35396 611.922 2.74862 611.922 3.23544L615.922 3.23544C615.922 0.539465 613.736 -1.64604 611.04 -1.64604L611.04 2.35396ZM610.159 3.23544C610.159 2.74862 610.553 2.35396 611.04 2.35396L611.04 -1.64604C608.344 -1.64604 606.159 0.539466 606.159 3.23544L610.159 3.23544ZM610.159 11.7805L610.159 3.23544L606.159 3.23544L606.159 11.7805L610.159 11.7805ZM328.474 20.7805L601.159 20.7805L601.159 16.7805L328.474 16.7805L328.474 20.7805ZM319.474 3.23542L319.474 11.7805L323.474 11.7805L323.474 3.23542L319.474 3.23542ZM318.593 2.35395C319.08 2.35395 319.474 2.74858 319.474 3.23542L323.474 3.23542C323.474 0.53948 321.289 -1.64605 318.593 -1.64605L318.593 2.35395ZM317.711 3.23542C317.711 2.74858 318.106 2.35395 318.593 2.35395L318.593 -1.64605C315.897 -1.64605 313.711 0.539481 313.711 3.23542L317.711 3.23542ZM317.711 11.7805L317.711 3.23542L313.711 3.23542L313.711 11.7805L317.711 11.7805ZM36.0269 20.7806L308.711 20.7805L308.711 16.7805L36.0269 16.7806L36.0269 20.7806ZM27.0269 3.23541L27.0269 11.7805L31.0269 11.7805L31.0269 3.23541L27.0269 3.23541ZM26.1454 2.35394C26.6322 2.35394 27.0269 2.74857 27.0269 3.23541L31.0269 3.23541C31.0269 0.539467 28.8414 -1.64606 26.1454 -1.64606L26.1454 2.35394ZM25.2639 3.23541C25.2639 2.74857 25.6586 2.35394 26.1454 2.35394L26.1454 -1.64606C23.4493 -1.64606 21.2639 0.539468 21.2639 3.23541L25.2639 3.23541ZM25.2639 12.4989L25.2639 3.23541L21.2639 3.23541L21.2639 12.4989L25.2639 12.4989ZM36.0269 16.7806C33.2654 16.7806 31.0269 14.542 31.0269 11.7805L27.0269 11.7805C27.0269 16.7511 31.0563 20.7806 36.0269 20.7806L36.0269 16.7806ZM36.0269 18.7806C31.0563 18.7806 27.0269 22.81 27.0269 27.7805L31.0269 27.7805C31.0269 25.0191 33.2654 22.7806 36.0269 22.7806L36.0269 18.7806ZM313.711 11.7805C313.711 14.542 311.473 16.7805 308.711 16.7805L308.711 20.7805C313.682 20.7805 317.711 16.7511 317.711 11.7805L313.711 11.7805ZM328.474 16.7805C325.713 16.7805 323.474 14.542 323.474 11.7805L319.474 11.7805C319.474 16.7511 323.504 20.7805 328.474 20.7805L328.474 16.7805ZM328.474 18.7805C323.504 18.7805 319.474 22.81 319.474 27.7805L323.474 27.7805C323.474 25.0191 325.713 22.7805 328.474 22.7805L328.474 18.7805ZM606.159 11.7805C606.159 14.542 603.92 16.7805 601.159 16.7805L601.159 20.7805C606.129 20.7805 610.159 16.7511 610.159 11.7805L606.159 11.7805ZM620.922 16.7805C618.16 16.7805 615.922 14.542 615.922 11.7805L611.922 11.7805C611.922 16.7511 615.951 20.7805 620.922 20.7805L620.922 16.7805ZM620.922 18.7805C615.951 18.7805 611.922 22.81 611.922 27.7805L615.922 27.7805C615.922 25.0191 618.16 22.7805 620.922 22.7805L620.922 18.7805ZM898.606 11.7805C898.606 14.5419 896.368 16.7805 893.606 16.7805L893.606 20.7805C898.577 20.7805 902.606 16.7511 902.606 11.7805L898.606 11.7805ZM913.369 16.7805C910.608 16.7805 908.369 14.5419 908.369 11.7805L904.369 11.7805C904.369 16.7511 908.398 20.7805 913.369 20.7805L913.369 16.7805ZM913.369 18.7805C908.398 18.7805 904.369 22.81 904.369 27.7805L908.369 27.7805C908.369 25.0191 910.608 22.7805 913.369 22.7805L913.369 18.7805ZM1191.05 11.7805C1191.05 14.5419 1188.81 16.7805 1186.05 16.7805L1186.05 20.7805C1191.02 20.7805 1195.05 16.7511 1195.05 11.7805L1191.05 11.7805ZM1205.82 16.7805C1203.06 16.7805 1200.82 14.5419 1200.82 11.7805L1196.82 11.7805C1196.82 16.7511 1200.85 20.7805 1205.82 20.7805L1205.82 16.7805ZM16.9823 20.7806C21.5562 20.7806 25.2639 17.0727 25.2639 12.4989L21.2639 12.4989C21.2639 14.8636 19.3469 16.7806 16.9823 16.7806L16.9823 20.7806ZM1205.82 18.7805C1200.85 18.7805 1196.82 22.81 1196.82 27.7805L1200.82 27.7805C1200.82 25.0191 1203.06 22.7805 1205.82 22.7805L1205.82 18.7805ZM1483.5 11.7805C1483.5 14.5419 1481.26 16.7805 1478.5 16.7805L1478.5 20.7805C1483.47 20.7805 1487.5 16.7511 1487.5 11.7805L1483.5 11.7805ZM25.2639 27.0622C25.2639 22.4884 21.5562 18.7806 16.9823 18.7806L16.9823 22.7806C19.3469 22.7806 21.2639 24.6975 21.2639 27.0622L25.2639 27.0622ZM317.711 27.7805C317.711 22.81 313.682 18.7805 308.711 18.7805L308.711 22.7805C311.473 22.7805 313.711 25.0191 313.711 27.7805L317.711 27.7805ZM610.159 27.7805C610.159 22.81 606.129 18.7805 601.159 18.7805L601.159 22.7805C603.92 22.7805 606.159 25.0191 606.159 27.7805L610.159 27.7805ZM1498.26 16.7805C1495.5 16.7805 1493.26 14.5419 1493.26 11.7805L1489.26 11.7805C1489.26 16.7511 1493.29 20.7805 1498.26 20.7805L1498.26 16.7805ZM902.606 27.7805C902.606 22.81 898.577 18.7805 893.606 18.7805L893.606 22.7805C896.368 22.7805 898.606 25.0191 898.606 27.7805L902.606 27.7805ZM1195.05 27.7805C1195.05 22.81 1191.02 18.7805 1186.05 18.7805L1186.05 22.7805C1188.81 22.7805 1191.05 25.0191 1191.05 27.7805L1195.05 27.7805ZM1487.5 27.7805C1487.5 22.8099 1483.47 18.7805 1478.5 18.7805L1478.5 22.7805C1481.26 22.7805 1483.5 25.0191 1483.5 27.7805L1487.5 27.7805ZM1498.26 18.7805C1493.29 18.7805 1489.26 22.8099 1489.26 27.7805L1493.26 27.7805C1493.26 25.0191 1495.5 22.7805 1498.26 22.7805L1498.26 18.7805Z" fill="white" mask="url(#path-1-inside-1_408_428)"/>
<path d="M1494.99 24.8335C1497.4 24.8335 1499.64 26.0697 1500.92 28.1068L1506.62 37.1761C1508.06 39.4541 1508.06 42.3517 1506.62 44.6296L1500.92 53.699C1499.64 55.7361 1497.4 56.9722 1494.99 56.9722L22.1748 56.9722C19.7549 56.9722 17.5065 55.7223 16.2292 53.6668L10.5934 44.5975C9.1875 42.335 9.1875 39.4707 10.5934 37.2082L16.2292 28.1388C17.5065 26.0834 19.7548 24.8335 22.1748 24.8335L1494.99 24.8335Z" fill="black"/>
<path d="M1467.26 34.0405C1469.87 34.1681 1473.52 35.381 1476.23 39.7553C1480.65 45.6918 1484.98 47.7647 1488.64 47.7647L49.252 47.7647C45.5885 47.7647 41.2598 45.6919 36.8435 39.7553C34.1315 35.3811 30.4794 34.1681 27.873 34.0405L1467.26 34.0405Z" fill="url(#paint0_linear_408_428)"/>
<path d="M1.98877 37.3584L10.9241 24.1343C11.8176 22.9429 14.248 20.4887 16.8214 20.2028C20.0381 19.8454 23.6122 20.2029 25.5779 30.0317C27.5437 39.8605 30.7604 53.3735 47.2013 53.3735C59.6183 53.3735 168.894 53.3735 230.951 53.3735C237.621 53.3735 243.92 56.3422 248.182 61.4737V61.4737" stroke="white" stroke-width="2" stroke-linecap="round"/>
<path d="M1514.76 37.3584L1504.82 24.1343C1503.93 22.9429 1501.5 20.4887 1498.93 20.2028C1495.71 19.8454 1492.14 20.2029 1490.17 30.0317C1488.21 39.8605 1484.99 53.3735 1468.55 53.3735C1456.13 53.3735 1346.83 53.3735 1284.78 53.3735C1278.15 53.3735 1271.92 56.4421 1267.86 61.6838V61.6838" stroke="white" stroke-width="2" stroke-linecap="round"/>
<defs>
<linearGradient id="paint0_linear_408_428" x1="154.207" y1="40.9026" x2="1543.28" y2="40.9024" gradientUnits="userSpaceOnUse">
<stop stop-color="#FFA000"/>
<stop offset="0.765625" stop-color="#FFD184"/>
<stop offset="1" stop-color="white"/>
</linearGradient>
</defs>
</svg>
