<svg width="132" height="133" viewBox="0 0 132 133" fill="none" xmlns="http://www.w3.org/2000/svg">
<circle cx="66.2915" cy="66.4653" r="65.6011" fill="url(#paint0_linear_1604_12405)" fill-opacity="0.79"/>
<circle cx="66.2915" cy="66.4653" r="59.5972" stroke="url(#paint1_linear_1604_12405)" stroke-width="2" stroke-linecap="round"/>
<path d="M47.7551 28.0127L84.7934 65.0509C85.5744 65.832 85.5744 67.0983 84.7934 67.8794L47.7551 104.918" stroke="url(#paint2_radial_1604_12405)" stroke-width="2" stroke-linecap="round"/>
<path d="M90.2316 65.0468L67.3041 42.1193C66.5231 41.3382 65.2567 41.3382 64.4757 42.1193L41.5482 65.0468C40.7672 65.8278 40.7672 67.0941 41.5482 67.8752L64.4757 90.8027C65.2567 91.5837 66.5231 91.5837 67.3041 90.8027L90.2316 67.8752C91.0126 67.0941 91.0126 65.8278 90.2316 65.0468Z" fill="url(#paint3_linear_1604_12405)" fill-opacity="0.79" stroke="url(#paint4_radial_1604_12405)" stroke-linecap="round"/>
<path d="M62.6953 57.8574L69.8837 65.0458C70.6647 65.8268 70.6647 67.0931 69.8837 67.8742L62.6953 75.0625" stroke="url(#paint5_radial_1604_12405)" stroke-linecap="round"/>
<defs>
<linearGradient id="paint0_linear_1604_12405" x1="66.2915" y1="0.864258" x2="66.2915" y2="132.066" gradientUnits="userSpaceOnUse">
<stop/>
<stop offset="1" stop-color="#674A00"/>
</linearGradient>
<linearGradient id="paint1_linear_1604_12405" x1="66.2915" y1="5.67041" x2="66.2915" y2="127.247" gradientUnits="userSpaceOnUse">
<stop stop-color="#FFEEBF"/>
<stop offset="0.446837" stop-color="#C5B483" stop-opacity="0"/>
<stop offset="1" stop-color="#FFEEBF"/>
</linearGradient>
<radialGradient id="paint2_radial_1604_12405" cx="0" cy="0" r="1" gradientUnits="userSpaceOnUse" gradientTransform="translate(86.2074 65.2094) rotate(180) scale(52.2467)">
<stop stop-color="#FFEEBF"/>
<stop offset="1" stop-color="#C5B483" stop-opacity="0"/>
</radialGradient>
<linearGradient id="paint3_linear_1604_12405" x1="78.7678" y1="53.583" x2="53.0119" y2="79.3389" gradientUnits="userSpaceOnUse">
<stop/>
<stop offset="1" stop-color="#674A00"/>
</linearGradient>
<radialGradient id="paint4_radial_1604_12405" cx="0" cy="0" r="1" gradientUnits="userSpaceOnUse" gradientTransform="translate(91.6395 64.5746) rotate(-180) scale(78.2327)">
<stop stop-color="#FFEEBF"/>
<stop offset="1" stop-color="#C5B483" stop-opacity="0"/>
</radialGradient>
<radialGradient id="paint5_radial_1604_12405" cx="0" cy="0" r="1" gradientUnits="userSpaceOnUse" gradientTransform="translate(71.2933 65.2939) rotate(-180) scale(48.3337)">
<stop stop-color="#FFEEBF"/>
<stop offset="1" stop-color="#C5B483" stop-opacity="0"/>
</radialGradient>
</defs>
</svg>
