<svg width="863" height="979" viewBox="0 0 863 979" fill="none" xmlns="http://www.w3.org/2000/svg">
<g style="mix-blend-mode:color-dodge">
<path d="M664.546 803.777C664.546 804.639 664.546 805.5 664.445 806.362C664.445 806.362 664.698 805.298 664.546 803.777Z" fill="#A9A08A"/>
<path d="M740.355 523.777C740.355 523.777 773.17 485.463 756.763 436.862C759.193 490.329 692.398 523.168 660.799 523.168C629.199 523.168 547.213 518.303 504.118 559.049C460.973 599.795 444.97 664.816 444.97 664.816L442.185 720.562C443.097 702.115 444.059 683.364 444.97 664.765V664.816C444.97 664.816 444.97 664.714 444.97 664.512C446.337 637.348 447.705 610.437 449.072 584.845C445.629 651.538 445.071 662.738 444.97 664.512C445.274 658.532 451.25 566.854 513.082 527.426C576.99 486.68 631.63 509.789 676.599 496.41C721.567 483.031 716.706 447.809 716.706 447.809C716.706 447.809 716.706 473.959 678.422 479.433C640.138 484.906 595.22 477.608 595.22 477.608C595.22 477.608 706.983 463.621 706.983 365.76C706.983 281.278 664.445 231.41 664.445 231.41C664.445 231.41 688.145 287.309 672.345 348.732C656.545 410.104 612.235 419.226 612.235 419.226C612.235 419.226 680.245 306.618 601.803 210.125C612.539 225.582 607.374 248.388 607.374 248.388C607.374 248.388 594.005 208.858 553.34 173.637C553.34 173.637 592.232 216.207 592.232 290.35C592.232 364.493 550.91 402.198 517.538 435.595C484.115 469.043 453.883 492.913 449.174 584.541C452.313 525.145 455.25 472.996 457.427 442.032C528.476 353.698 522.753 258.524 489.179 196.848C442.539 111.302 431.348 0.365723 431.348 0.365723C431.348 0.365723 420.106 111.302 373.517 196.848C339.892 258.524 334.169 353.698 405.268 442.032C407.446 472.946 410.383 525.145 413.523 584.541C408.813 492.913 378.53 468.993 345.158 435.595C311.736 402.147 270.464 364.493 270.464 290.35C270.464 216.207 309.355 173.637 309.355 173.637C268.641 208.909 255.323 248.388 255.323 248.388C255.323 248.388 250.157 225.582 260.893 210.125C182.451 306.567 250.461 419.226 250.461 419.226C250.461 419.226 206.1 410.104 190.351 348.732C174.551 287.36 198.251 231.41 198.251 231.41C198.251 231.41 155.713 281.228 155.713 365.76C155.713 463.621 267.476 477.608 267.476 477.608C267.476 477.608 222.508 484.906 184.274 479.433C145.99 473.959 145.99 447.809 145.99 447.809C145.99 447.809 141.129 483.082 186.097 496.41C231.066 509.789 285.707 486.68 349.615 527.426C411.447 566.803 417.422 658.532 417.726 664.512C417.624 662.738 417.068 651.538 413.624 584.845C414.991 610.437 416.358 637.348 417.726 664.512C417.726 664.714 417.726 664.765 417.726 664.816C417.726 664.816 417.726 664.816 417.726 664.765C418.688 683.364 419.6 702.115 420.511 720.562L417.726 664.816C417.726 664.816 401.673 599.744 358.578 559.049C315.433 518.303 233.446 523.168 201.897 523.168C170.348 523.168 103.503 490.329 105.934 436.862C89.5265 485.463 122.341 523.777 122.341 523.777C122.341 523.777 -11.906 548.711 0.85539 673.279C0.247707 647.129 24.5551 598.528 73.1191 588.544C73.1191 588.544 35.4424 635.574 68.2572 703.028C79.8032 623.411 142.243 532.037 273.553 567.462C273.553 567.462 248.891 566.904 228.382 604.761C207.872 642.618 243.777 695.73 201.593 704.852C158.499 714.177 157.688 676.877 157.688 676.877C157.688 676.877 141.23 718.941 184.122 736.577C227.014 754.213 305.305 736.577 269.299 630.354C254.057 585.351 312.596 553.018 354.932 597.818C387.595 632.381 385.924 696.287 319.686 716.964C254.664 737.287 196.124 755.835 198.099 803.727C198.605 798.507 204.227 787.864 243.169 795.415C293.556 805.146 345.816 806.362 370.124 749.804C357.362 797.189 348.653 805.551 306.672 857.852C263.83 911.166 294.822 978.366 294.822 978.366C294.822 978.366 298.468 948.567 335.537 935.187C367.491 923.683 360.148 872.447 357.514 858.51C359.489 866.467 366.63 886.586 390.583 904.223C361.667 853.797 366.529 763.842 420.562 720.664C426.487 840.063 431.5 948.617 431.5 948.617C431.5 948.617 436.513 840.114 442.438 720.664C496.471 763.842 501.333 853.797 472.417 904.223C496.37 886.637 503.511 866.518 505.486 858.51C502.852 872.447 495.56 923.683 527.463 935.187C564.532 948.567 568.178 978.366 568.178 978.366C568.178 978.366 599.17 911.216 556.328 857.852C514.347 805.551 505.637 797.24 492.876 749.804C517.183 806.311 569.393 805.095 619.831 795.415C658.773 787.915 664.344 798.507 664.901 803.727C666.876 755.835 608.336 737.287 543.314 716.964C477.127 696.287 475.455 632.381 508.068 597.818C550.454 552.968 608.943 585.301 593.701 630.354C557.695 736.577 635.986 754.213 678.878 736.577C721.77 718.941 705.312 676.877 705.312 676.877C705.312 676.877 704.552 714.126 661.407 704.852C619.173 695.73 655.077 642.618 634.618 604.761C614.109 566.904 589.447 567.462 589.447 567.462C720.757 531.987 783.197 623.361 794.743 703.028C827.558 635.574 789.881 588.544 789.881 588.544C838.445 598.477 862.752 647.129 862.145 673.279C874.906 548.66 740.659 523.777 740.659 523.777H740.355ZM431.196 408.888C431.196 408.888 378.986 348.124 378.986 277.579C378.986 207.034 431.196 156.254 431.196 99.3415C431.196 156.254 483.406 207.085 483.406 277.579C483.406 348.073 431.196 408.888 431.196 408.888Z" fill="#A9A08A"/>
<path d="M568.988 645.304C575.673 634.054 573.04 609.12 550.859 605.471C528.679 601.822 518.956 616.418 518.956 616.418C524.121 613.377 542.351 612.161 542.351 626.452C542.351 640.743 533.085 636.537 523.058 658.126C513.031 679.715 533.541 698.162 545.39 698.162C554.809 698.162 562.709 686.912 555.417 674.141C556.329 685.391 539.009 691.777 535.06 678.094C531.11 664.41 562.304 656.504 568.988 645.254V645.304Z" fill="#A9A08A"/>
<path d="M724.808 643.885C688.347 642.771 684.499 627.466 684.499 627.466C684.499 627.466 710.224 639.324 721.162 630.405C732.101 621.536 732.303 608.968 723.188 601.011C714.073 593.055 699.033 597.362 695.842 606.231C692.652 615.1 702.881 619.458 704.704 618.546C706.527 617.634 703.793 615.151 704.249 609.424C704.705 603.748 711.287 603.494 713.364 609.424C715.389 615.353 717.668 627.415 691.031 620.827C664.394 614.238 643.885 572.732 643.885 572.732C644.594 616.063 670.421 652.399 692.601 663.447C727.442 680.78 752.711 666.387 752.711 666.387C752.711 666.387 745.925 644.494 724.707 643.835L724.808 643.885Z" fill="#A9A08A"/>
<path d="M532.021 329.677C548.429 316.906 566.355 283.458 566.355 283.458C566.355 283.458 563.924 226.444 540.377 196.848C504.827 152.149 507.36 121.184 507.36 121.184C498.903 162.69 512.018 184.533 525.337 207.794C546.757 245.195 543.871 309 532.021 329.677Z" fill="#A9A08A"/>
<path d="M197.997 806.412C197.947 805.551 197.896 804.689 197.896 803.828C197.744 805.348 197.997 806.412 197.997 806.412Z" fill="#A9A08A"/>
<path d="M343.437 616.468C343.437 616.468 333.714 601.873 311.533 605.522C289.353 609.17 286.72 634.104 293.404 645.355C300.089 656.606 331.283 664.512 327.333 678.195C323.383 691.878 306.064 685.493 306.975 674.242C299.683 687.013 307.583 698.264 317.002 698.264C328.852 698.264 349.361 679.817 339.335 658.228C329.308 636.638 320.041 641.25 320.041 626.553C320.041 611.856 338.271 613.478 343.437 616.519V616.468Z" fill="#A9A08A"/>
<path d="M218.457 572.783C218.457 572.783 197.947 614.289 171.31 620.877C144.673 627.465 146.953 615.404 148.978 609.474C151.004 603.545 157.637 603.798 158.093 609.474C158.549 615.151 155.815 617.685 157.638 618.597C159.461 619.509 169.69 615.201 166.5 606.282C163.309 597.413 148.269 593.055 139.154 601.062C130.039 609.018 130.292 621.587 141.179 630.456C152.118 639.324 177.843 627.516 177.843 627.516C177.843 627.516 173.995 642.771 137.534 643.936C116.315 644.595 109.529 666.488 109.529 666.488C109.529 666.488 134.799 680.83 169.639 663.549C191.82 652.501 217.697 616.164 218.355 572.834L218.457 572.783Z" fill="#A9A08A"/>
<path d="M296.037 283.508C296.037 283.508 313.964 316.956 330.371 329.727C318.522 309.05 315.635 245.246 337.056 207.845C350.375 184.533 363.49 162.69 355.033 121.235C355.033 121.235 357.565 152.25 322.016 196.898C298.468 226.495 296.037 283.508 296.037 283.508Z" fill="#A9A08A"/>
</g>
</svg>
