<svg width="11" height="18" viewBox="0 0 11 18" fill="none" xmlns="http://www.w3.org/2000/svg">
<g id="Group 135">
<path id="Rectangle 102 (Stroke)" fill-rule="evenodd" clip-rule="evenodd" d="M1.6665 2.24402L4.83347 2.24402C5.2742 2.24402 5.68399 2.47056 5.91839 2.84379L9.35419 8.31459C9.61581 8.73116 9.61581 9.26073 9.35419 9.6773L5.91839 15.1481C5.68399 15.5213 5.2742 15.7479 4.83347 15.7479L1.6665 15.7479L1.6665 17.029L4.83347 17.029C5.71493 17.029 6.53451 16.5759 7.0033 15.8295L10.4391 10.3586C10.9623 9.52551 10.9623 8.46637 10.4391 7.63323L7.0033 2.16243C6.53451 1.41598 5.71493 0.962891 4.83347 0.962891L1.6665 0.962891L1.6665 2.24402Z" fill="#FFA801"/>
<path id="Rectangle 102 (Stroke)_2" fill-rule="evenodd" clip-rule="evenodd" d="M0.415772 2.24402L2.30162 2.24402C2.74234 2.24402 3.15213 2.47056 3.38653 2.84379L6.82234 8.31459C7.08395 8.73116 7.08395 9.26073 6.82234 9.6773L3.38653 15.1481C3.15213 15.5213 2.74234 15.7479 2.30162 15.7479L0.415772 15.7479L0.415772 17.029L2.30162 17.029C3.18307 17.029 4.00265 16.5759 4.47144 15.8295L7.90725 10.3586C8.43048 9.52551 8.43048 8.46637 7.90725 7.63323L4.47144 2.16243C4.00265 1.41598 3.18307 0.962891 2.30162 0.962891L0.415771 0.962891L0.415772 2.24402Z" fill="#FFA801"/>
</g>
</svg>
