<svg width="227" height="46" viewBox="0 0 227 46" fill="none" xmlns="http://www.w3.org/2000/svg">
<path d="M130.219 19.0554C129.574 18.7001 128.758 18.9216 128.394 19.5524C128.03 20.1858 128.256 20.9904 128.899 21.3496C131.915 23.0324 133.664 25.1026 133.664 27.1793C133.664 30.788 128.627 34.1985 121.262 35.6675C120.536 35.8129 120.068 36.5082 120.215 37.2215C120.364 37.9417 121.079 38.3974 121.793 38.2527C130.576 36.5005 136.342 32.154 136.342 27.1793C136.342 24.1112 134.11 21.2261 130.219 19.0554Z" fill="#FFA801"/>
<path d="M106.802 38.5273V42.9996C106.802 43.4862 107.074 43.933 107.51 44.1622C107.939 44.389 108.468 44.369 108.883 44.0966L116.915 38.8231C117.288 38.5785 117.512 38.1665 117.512 37.7262C117.512 37.286 117.288 36.874 116.915 36.6294L108.883 31.3559C108.472 31.0881 107.942 31.0598 107.51 31.2903C107.074 31.5193 106.802 31.9661 106.802 32.4527V35.8294C98.9755 34.5088 93.3266 31.0014 93.3266 27.1793C93.3266 25.1026 95.0761 23.0323 98.0919 21.3496C98.7351 20.9904 98.9612 20.1858 98.5965 19.5524C98.2331 18.9215 97.4186 18.7001 96.7715 19.0554C92.8812 21.2261 90.6493 24.1112 90.6493 27.1793C90.6493 32.5501 97.1492 37.0288 106.802 38.5273Z" fill="#FFA801"/>
<path d="M124.205 7.24808L114.094 2.26942C113.718 2.08406 113.273 2.08406 112.897 2.26942L102.786 7.24835L113.495 12.5215L124.205 7.24808Z" fill="#FFA801"/>
<path d="M125.543 21.9058V9.5372L114.834 14.8106C114.834 15.0814 114.834 28.265 114.834 27.9943L124.803 23.0852C125.257 22.8611 125.543 22.4054 125.543 21.9058Z" fill="#FFA801"/>
<path d="M101.448 21.9058C101.448 22.4054 101.734 22.8611 102.188 23.0851L112.157 27.9943C112.157 27.0688 112.157 14.5398 112.157 14.8106L101.448 9.53764V21.9058Z" fill="#FFA801"/>
<path fill-rule="evenodd" clip-rule="evenodd" d="M2.14109 11.4845C1.40977 11.7249 0.692535 11.0834 0.850078 10.3299L2.50428 2.41805C2.66183 1.66454 3.57599 1.36414 4.14977 1.87733L10.1745 7.26583C10.7483 7.77902 10.5514 8.7209 9.82003 8.96122L8.64715 9.34664C7.9875 9.5634 7.74588 10.3687 8.21066 10.8845C11.5356 14.5747 16.6343 17.8055 23.0201 20.2291C30.3627 23.0158 39.3259 24.7032 49.0399 24.8118C49.5922 24.818 50.04 25.2651 50.04 25.8174C50.04 26.3697 49.5922 26.818 49.04 26.8119C39.1081 26.7033 29.9013 24.9799 22.3104 22.0989C15.1072 19.3651 9.28495 15.5595 5.71767 11.0295C5.4502 10.6899 5.00131 10.5447 4.59059 10.6796L2.14109 11.4845Z" fill="#FFA801"/>
<path fill-rule="evenodd" clip-rule="evenodd" d="M224.85 11.4845C225.581 11.7249 226.298 11.0834 226.141 10.3299L224.486 2.41805C224.329 1.66454 223.415 1.36414 222.841 1.87733L216.816 7.26583C216.242 7.77902 216.439 8.7209 217.171 8.96122L218.344 9.34664C219.003 9.5634 219.245 10.3687 218.78 10.8845C215.455 14.5747 210.356 17.8055 203.971 20.2291C196.628 23.0158 187.665 24.7032 177.951 24.8118C177.399 24.818 176.951 25.2651 176.951 25.8174C176.951 26.3697 177.398 26.818 177.951 26.8119C187.883 26.7033 197.089 24.9799 204.68 22.0989C211.883 19.3651 217.706 15.5595 221.273 11.0295C221.541 10.6899 221.989 10.5447 222.4 10.6796L224.85 11.4845Z" fill="#FFA801"/>
<rect x="55.8326" y="15.1157" width="12.4149" height="21.3076" rx="6.20746" stroke="#FFA801" stroke-width="2"/>
<path d="M57.8286 21.2183C57.8286 19.0091 59.6195 17.2183 61.8286 17.2183H62.0403V26.1156H57.8286V21.2183Z" fill="#FFA801"/>
<rect x="158.743" y="15.1157" width="12.4149" height="21.3076" rx="6.20746" stroke="#FFA801" stroke-width="2"/>
<path d="M160.739 21.2183C160.739 19.0091 162.53 17.2183 164.739 17.2183H164.951V26.1156H160.739V21.2183Z" fill="#FFA801"/>
</svg>
