<svg width="24" height="25" viewBox="0 0 24 25" fill="none" xmlns="http://www.w3.org/2000/svg">
<path d="M22.1203 8.65301L16.5407 2.85889C16.3587 2.67012 16.0797 2.61086 15.8368 2.70863C15.5931 2.80733 15.4334 3.04341 15.4334 3.30605V6.09592H15.2188C10.6042 6.09592 6.84955 9.85053 6.84955 14.4652V15.7528C6.84955 16.0514 7.05985 16.3004 7.35078 16.3683C7.39809 16.3802 7.44524 16.3854 7.4924 16.3854C7.73539 16.3854 7.96801 16.2429 8.08039 16.0189C9.28734 13.6042 11.714 12.1046 14.4136 12.1046H15.4334V14.8943C15.4334 15.1571 15.5931 15.3932 15.8368 15.4909C16.0781 15.5896 16.3587 15.5296 16.5407 15.3407L22.1203 9.54655C22.3606 9.2968 22.3606 8.9037 22.1203 8.65301Z" fill="#FFA801"/>
<path d="M19.7254 23.2636H4.27438C2.85462 23.2636 1.69922 22.1083 1.69922 20.6884V8.67108C1.69922 7.25132 2.85462 6.09592 4.27438 6.09592H6.84955C7.32422 6.09592 7.70788 6.47958 7.70788 6.95425C7.70788 7.42892 7.32422 7.81259 6.84955 7.81259H4.27438C3.8005 7.81259 3.41589 8.1972 3.41589 8.67108V20.6884C3.41589 21.1623 3.8005 21.5469 4.27438 21.5469H19.7254C20.1991 21.5469 20.5837 21.1623 20.5837 20.6884V13.8214C20.5837 13.3467 20.9674 12.9629 21.442 12.9629C21.9169 12.9629 22.3005 13.3467 22.3005 13.8214V20.6884C22.3005 22.1083 21.1451 23.2636 19.7254 23.2636Z" fill="#FFA801"/>
</svg>
