<svg width="25" height="25" viewBox="0 0 25 25" fill="none" xmlns="http://www.w3.org/2000/svg">
<g id="share">
<g id="Vector">
<path d="M22.6256 7.97918L17.0461 2.18506C16.864 1.99629 16.5851 1.93704 16.3422 2.0348C16.0984 2.13351 15.9387 2.36958 15.9387 2.63222V5.42209H15.7242C11.1095 5.42209 7.35492 9.1767 7.35492 13.7914V15.079C7.35492 15.3776 7.56522 15.6266 7.85615 15.6945C7.90346 15.7064 7.95061 15.7116 7.99777 15.7116C8.24076 15.7116 8.47338 15.569 8.58576 15.3451C9.79271 12.9304 12.2193 11.4308 14.919 11.4308H15.9387V14.2205C15.9387 14.4833 16.0984 14.7193 16.3422 14.8171C16.5835 14.9158 16.864 14.8558 17.0461 14.6668L22.6256 8.87272C22.8659 8.62297 22.8659 8.22987 22.6256 7.97918Z" fill="black"/>
<path d="M20.2307 22.5898H4.77975C3.35999 22.5898 2.20459 21.4345 2.20459 20.0146V7.99725C2.20459 6.57749 3.35999 5.42209 4.77975 5.42209H7.35492C7.82959 5.42209 8.21325 5.80576 8.21325 6.28043C8.21325 6.7551 7.82959 7.13876 7.35492 7.13876H4.77975C4.30587 7.13876 3.92126 7.52337 3.92126 7.99725V20.0146C3.92126 20.4885 4.30587 20.8731 4.77975 20.8731H20.2307C20.7045 20.8731 21.0891 20.4885 21.0891 20.0146V13.1476C21.0891 12.6729 21.4727 12.2891 21.9474 12.2891C22.4222 12.2891 22.8059 12.6729 22.8059 13.1476V20.0146C22.8059 21.4345 21.6505 22.5898 20.2307 22.5898Z" fill="black"/>
</g>
</g>
</svg>
